<svg width="89" height="14" viewBox="0 0 89 14" fill="none" xmlns="http://www.w3.org/2000/svg">
<g clip-path="url(#clip0_1037_864)">
<path d="M14.1829 0.295959V4.97038H4.6798V0.295959H0.548004V13.696H4.6798V8.60604H14.1829V13.696H18.3147V0.295959H14.1829Z" fill="black"/>
<path d="M84.4235 0.295929V9.95639H83.4939L75.9533 0.295929H75.85H72.6479H70.8919H68.6194V4.03546V13.6959H72.6479V4.03546H73.8038L81.2214 13.563V13.6959H81.3247H84.4235H86.413H88.452V9.95639V0.295929H84.4235Z" fill="black"/>
<path d="M36.2116 0.295929L30.9095 10.3719H29.9179L24.6157 0.295929H20.174L27.1981 13.6959H29.1607H31.6666H33.3958H33.6292L40.6533 0.295929H36.2116Z" fill="black"/>
<path d="M63.4815 0.295929H62.3184H59.1162H59.0398L54.4814 8.71196L49.923 0.295929H49.8197H46.6175H45.4813H42.589V4.03546V13.6959H46.6175V4.03546H47.5854L52.3907 12.573L53.0218 13.6959H55.9409L56.5721 12.573L61.3773 4.03546H62.3184V13.6959H66.3469V4.03546V0.295929H63.4815Z" fill="black"/>
</g>
<defs>
<clipPath id="clip0_1037_864">
<rect width="87.904" height="13.4" fill="white" transform="translate(0.548004 0.295959)"/>
</clipPath>
</defs>
</svg>
