<svg width="49" height="57" viewBox="0 0 49 57" fill="none" xmlns="http://www.w3.org/2000/svg">
<path d="M35.4377 27.3282V14.0482C35.4377 13.6962 35.1544 13.4082 34.8082 13.4082C34.462 13.4082 34.1787 13.6962 34.1787 14.0482V21.5682C34.1787 24.7522 31.6449 27.3282 28.5131 27.3282C25.3813 27.3282 22.8475 24.7522 22.8475 21.5682V14.0482C22.8475 13.6962 22.5643 13.4082 22.218 13.4082C21.8718 13.4082 21.5885 13.6962 21.5885 14.0482V27.3282H16.5525V14.0482C16.5525 10.8642 19.0862 8.28817 22.218 8.28817C25.3498 8.28817 27.8836 10.8642 27.8836 14.0482V21.5682C27.8836 21.9202 28.1669 22.2082 28.5131 22.2082C28.8593 22.2082 29.1426 21.9202 29.1426 21.5682V14.0482C29.1426 10.8642 31.6764 8.28817 34.8082 8.28817C37.94 8.28817 40.4738 10.8642 40.4738 14.0482V27.3282H35.4377ZM13.7984 11.0882C13.7984 9.55217 12.5551 8.28817 11.0443 8.28817C9.53344 8.28817 8.29016 9.55217 8.29016 11.0882C8.29016 12.6242 9.53344 13.8882 11.0443 13.8882C12.5551 13.8882 13.7984 12.6242 13.7984 11.0882ZM13.5623 27.3282V15.4882H8.52623V27.3282H13.5623ZM48.5 45.4082V10.8482C48.5 4.94417 43.763 0.128174 37.9557 0.128174H11.0443C5.23705 0.128174 0.5 4.94417 0.5 10.8482V45.4082C0.5 51.3122 5.23705 56.1282 11.0443 56.1282H26.1525V51.0082H11.0443C8.00689 51.0082 5.53607 48.4962 5.53607 45.4082V10.8482C5.53607 7.76017 8.00689 5.24817 11.0443 5.24817H37.9557C40.9931 5.24817 43.4639 7.76017 43.4639 10.8482V45.4082C43.4639 48.4962 40.9931 51.0082 37.9557 51.0082C34.9184 51.0082 32.4475 48.4962 32.4475 45.4082V34.6882C32.4475 31.5042 29.9138 28.9282 26.782 28.9282C23.6502 28.9282 21.1164 31.5042 21.1164 34.6882V42.2082C21.1164 42.5602 20.8331 42.8482 20.4869 42.8482C20.1407 42.8482 19.8574 42.5602 19.8574 42.2082V34.6882C19.8574 31.5042 17.3236 28.9282 14.1918 28.9282C11.06 28.9282 8.52623 31.5042 8.52623 34.6882V47.9682H13.5623V34.6882C13.5623 34.3362 13.8456 34.0482 14.1918 34.0482C14.538 34.0482 14.8213 34.3362 14.8213 34.6882V42.2082C14.8213 45.3922 17.3551 47.9682 20.4869 47.9682C23.6187 47.9682 26.1525 45.3922 26.1525 42.2082V34.6882C26.1525 34.3362 26.4357 34.0482 26.782 34.0482C27.1282 34.0482 27.4115 34.3362 27.4115 34.6882V45.4082C27.4115 51.3122 32.1485 56.1282 37.9557 56.1282C43.763 56.1282 48.5 51.3122 48.5 45.4082ZM40.7098 31.7282C40.7098 30.1922 39.4666 28.9282 37.9557 28.9282C36.4449 28.9282 35.2016 30.1922 35.2016 31.7282C35.2016 33.2642 36.4449 34.5282 37.9557 34.5282C39.4666 34.5282 40.7098 33.2642 40.7098 31.7282ZM40.4738 47.9682V36.1282H35.4377V47.9682H40.4738Z" fill="black"/>
</svg>
