<svg width="79" height="30" viewBox="0 0 79 30" fill="none" xmlns="http://www.w3.org/2000/svg">
<g clip-path="url(#clip0_1087_510)">
<path d="M35.4977 4.06756C36.5572 4.0595 37.4444 3.17469 37.4618 2.11131C37.4791 1.03047 36.5639 0.121498 35.4656 0.128211C34.3994 0.134924 33.5109 1.01839 33.5029 2.07775C33.4949 3.16664 34.4074 4.07696 35.499 4.06756H35.4977Z" fill="black"/>
<path d="M78.9826 16.9893C78.8477 15.3271 77.8777 14.3026 76.44 13.6971C75.8414 13.4453 75.2122 13.2664 74.5825 13.0874C74.272 12.9991 73.9613 12.9107 73.6542 12.8136C73.4787 12.758 73.3014 12.7056 73.124 12.6531C72.5991 12.4978 72.0733 12.3422 71.5899 12.1034C71.3321 11.9758 71.0969 11.4965 71.1156 11.1944C71.1343 10.8923 71.4189 10.4774 71.6982 10.3432C72.5813 9.91619 74.2635 10.0948 74.7164 11.4441C74.7645 11.5878 74.973 11.7744 75.1106 11.7771C76.0835 11.7968 77.0572 11.7949 78.0317 11.793L78.033 11.793C78.3214 11.7924 78.6099 11.7919 78.8984 11.7919C78.8196 10.3002 78.1128 8.93606 76.9932 8.05393C74.8834 6.39038 70.6453 6.37024 68.5222 8.01365C66.2308 9.78864 66.2509 13.0902 68.5944 14.5779C69.1475 14.9283 69.7875 15.1646 70.4155 15.3674C71.1265 15.5972 71.8458 15.8011 72.5651 16.0051C73.0392 16.1395 73.5138 16.2741 73.9856 16.416C74.4746 16.5637 74.814 16.898 74.7859 17.4364C74.7578 17.9909 74.3877 18.3011 73.876 18.4582C72.5012 18.8811 71.3628 18.3172 70.7388 16.9061H66.4406C66.4165 18.0285 66.9884 19.2262 67.941 20.1056C70.1456 22.137 74.4546 22.5304 76.9905 20.9233C78.4321 20.0103 79.1202 18.7173 78.9799 16.9866L78.9826 16.9893Z" fill="black"/>
<path d="M56.7792 7.06707C55.705 7.35171 54.8325 7.94516 53.972 8.91725V7.0147H49.5402V21.647H54.0081V20.879C54.0093 20.1231 54.0081 19.3672 54.0068 18.6112C54.004 16.8721 54.0011 15.1324 54.0281 13.3937C54.0522 11.7825 55.0623 10.7607 56.6189 10.6533C58.1821 10.5445 59.267 11.4307 59.5236 13.0473C59.5797 13.3977 59.5944 13.7562 59.5957 14.112C59.6006 15.7641 59.5998 17.417 59.599 19.0695C59.5987 19.6892 59.5984 20.309 59.5984 20.9286V21.6523H63.9661C63.9711 21.6398 63.976 21.6282 63.9808 21.6175C63.9871 21.6033 63.9931 21.5905 63.9986 21.5788C64.0156 21.5428 64.0276 21.5174 64.0276 21.4925C64.0268 20.5557 64.036 19.6184 64.0452 18.6811C64.0665 16.5206 64.0877 14.3601 63.9862 12.2054C63.8031 8.32514 60.527 6.0735 56.7805 7.06707H56.7792Z" fill="black"/>
<path d="M15.4267 7.24833H15.4243L15.424 7.24699L15.4267 7.24833Z" fill="black"/>
<path fill-rule="evenodd" clip-rule="evenodd" d="M15.4243 7.24833C15.4308 7.28151 15.4393 7.31591 15.448 7.35116C15.4682 7.43246 15.4895 7.51833 15.4895 7.60413C15.4895 8.97493 15.4933 10.3458 15.4972 11.7168C15.507 15.1824 15.5167 18.6485 15.4641 22.1129C15.4013 26.2939 12.8894 28.8839 8.71408 29.1067C6.27435 29.237 3.96956 28.7577 2.17383 26.89C1.26261 25.9435 0.776265 24.7982 0.633302 23.4005C0.9304 23.4005 1.22583 23.4001 1.51991 23.3998C2.64097 23.3984 3.74259 23.3972 4.84337 23.4152C4.96095 23.4179 5.10659 23.6153 5.18275 23.7522C5.83209 24.919 7.15885 25.4319 8.77687 25.1285C10.0101 24.8975 10.7957 24.0355 10.9347 22.6714C10.989 22.1355 10.9978 21.5956 11.0066 21.0559C11.0101 20.8384 11.0137 20.6208 11.0202 20.4037C11.023 20.3179 11.0174 20.2321 11.0115 20.1414C11.0089 20.1015 11.0062 20.0606 11.0042 20.0183C10.9684 20.0278 10.9379 20.0334 10.9129 20.038C10.8708 20.0457 10.844 20.0506 10.8331 20.0667C8.76886 23.046 3.05967 22.999 0.99405 18.587C-0.458298 15.4855 -0.372787 12.345 1.61534 9.45028C3.63019 6.51792 8.4522 5.96072 10.9988 9.13342V7.24833H15.4243ZM11.0162 14.7591C10.9374 15.8359 10.6287 16.804 9.72685 17.5035C8.56443 18.4058 6.90499 18.3709 5.8027 17.3921C4.61356 16.3368 4.49599 14.9632 4.74717 13.5279C4.96897 12.2605 5.73857 11.4159 6.98783 11.0561C7.19075 10.9971 7.40477 10.9739 7.54501 10.9586C7.59313 10.9534 7.63258 10.9491 7.65989 10.9447C9.77895 10.9541 11.1738 12.623 11.0175 14.7591H11.0162Z" fill="black"/>
<path d="M41.7627 7.11944H46.1318L46.1304 7.12079C46.1356 7.14851 46.1424 7.1772 46.1493 7.20656C46.1655 7.27531 46.1825 7.34775 46.1825 7.4202C46.1809 8.24305 46.188 9.06637 46.1951 9.88971C46.2117 11.8298 46.2284 13.7701 46.1318 15.7044C45.9928 18.4904 44.6139 20.542 41.9457 21.5825C40.3544 22.2042 38.6883 22.2834 37.0275 22.0162C33.2544 21.408 31.1059 18.8489 31.0832 14.9995C31.0731 13.2088 31.0756 11.4188 31.0782 9.60142L31.0782 9.59747C31.0793 8.77259 31.0805 7.94208 31.0805 7.10333H35.5204V15.2761C35.5204 16.4321 35.7983 17.478 36.9046 18.0379C38.1311 18.6582 39.4018 18.6408 40.5936 17.9211C41.3966 17.4364 41.7467 16.6469 41.7507 15.7191C41.7595 13.8402 41.7604 11.962 41.7613 10.0834C41.7616 9.40088 41.762 8.71783 41.7627 8.03513V7.11944Z" fill="black"/>
<path d="M23.2269 7.25907V9.44357C25.6372 7.34366 26.4309 6.93952 27.779 7.13286V11.7583C27.5837 11.7675 27.3912 11.7736 27.2008 11.7796C26.8078 11.7919 26.4237 11.804 26.042 11.8429C24.0686 12.047 23.2496 12.9291 23.2242 14.9297C23.2053 16.3799 23.2091 17.8301 23.213 19.2803C23.2146 19.8775 23.2162 20.4751 23.2162 21.0723V21.8524H18.8017V7.25907H23.2269Z" fill="black"/>
<path d="M43.7655 2.06703C43.7722 3.20157 42.9251 4.07161 41.8161 4.06893H41.8148C40.7459 4.06624 39.8801 3.20157 39.8668 2.12208C39.8534 1.00767 40.7192 0.128235 41.8268 0.128235C42.9117 0.128235 43.7575 0.976793 43.7655 2.06703Z" fill="black"/>
</g>
<defs>
<clipPath id="clip0_1087_510">
<rect width="79" height="29" fill="white" transform="translate(0 0.128174)"/>
</clipPath>
</defs>
</svg>
