<svg width="95" height="33" viewBox="0 0 95 33" fill="none" xmlns="http://www.w3.org/2000/svg">
<g clip-path="url(#clip0_1085_193)">
<path d="M51.8554 29.7813C51.7305 29.8258 51.6174 29.9102 51.5066 29.9876C51.4524 30.0251 51.4123 30.0861 51.3676 30.1377C51.1295 30.4167 50.8255 30.5949 50.4743 30.7004C50.2222 30.7754 49.9629 30.7918 49.7013 30.7848C49.3643 30.7778 49.072 30.6676 48.8151 30.4518C48.471 30.1635 48.2825 29.7883 48.2354 29.3545C48.1859 28.8739 48.1552 28.3862 48.1529 27.9032C48.1434 26.2221 48.1482 24.5409 48.1482 22.8575H48.1599C48.1599 21.1412 48.1599 19.4249 48.1599 17.7109C48.1599 17.2326 48.1882 16.7543 48.1081 16.2783C48.0845 16.1447 48.0775 16.0064 48.0633 15.8704C48.0256 15.4624 48.0162 15.0497 47.8865 14.6558C47.5896 13.7484 47.0593 12.9888 46.3358 12.3745C45.7748 11.8962 45.1338 11.5398 44.455 11.249C43.6466 10.902 42.7888 10.7543 41.9309 10.6066C41.2615 10.4894 40.5828 10.4518 39.9017 10.4237C38.9141 10.3815 37.9384 10.4448 36.9721 10.6488C35.9587 10.8622 34.9924 11.1974 34.111 11.7531C33.3332 12.2455 32.7605 12.9114 32.3999 13.7508C32.2962 13.9923 32.2137 14.2572 32.1972 14.5175C32.1312 15.5327 32.4683 16.3721 33.3285 16.9864C33.8611 17.3663 34.4409 17.4718 35.0655 17.3803C35.8479 17.2654 36.4301 16.827 36.8566 16.1846C37.2007 15.6687 37.3139 15.0802 37.3374 14.4706C37.3516 14.0744 37.3469 13.6781 37.3869 13.2842C37.4671 12.5245 37.8229 11.9243 38.5111 11.5515C38.9094 11.3358 39.3454 11.2186 39.7956 11.2256C40.6959 11.2397 41.4124 11.6171 41.8885 12.3909C42.2915 13.045 42.4234 13.7766 42.4376 14.5292C42.4517 15.2467 42.4541 15.9642 42.4376 16.6816C42.4258 17.1787 42.3763 17.6758 42.3433 18.1752C42.3292 18.3768 42.2561 18.5597 42.1736 18.7402C42.0416 19.0263 41.8319 19.2514 41.6009 19.4577C40.8939 20.0978 40.0454 20.4729 39.1428 20.7355C38.8599 20.8176 38.5653 20.8528 38.2802 20.9278C37.493 21.1412 36.7105 21.371 35.9233 21.5796C35.1998 21.7719 34.5116 22.0673 33.8116 22.3276C33.1989 22.555 32.6191 22.8528 32.0841 23.2279C30.7619 24.1517 30.0337 25.4108 29.9795 27.0263C29.9465 27.9712 30.2222 28.8293 30.8043 29.589C31.3794 30.3416 32.11 30.8833 32.9679 31.2795C33.7857 31.6547 34.6483 31.8188 35.5368 31.8821C36.5526 31.9548 37.5684 31.9407 38.5818 31.8141C39.468 31.7039 40.2858 31.4085 41.04 30.9348C41.2003 30.834 41.3487 30.7074 41.4878 30.5761C41.8366 30.2502 42.11 29.8657 42.3268 29.4436C42.3669 29.3639 42.4117 29.2865 42.4635 29.2162C42.5083 29.1552 42.5696 29.1576 42.6167 29.2209C42.6426 29.2537 42.6591 29.2912 42.6803 29.3264C42.7935 29.5304 42.9066 29.732 43.015 29.9384C43.3897 30.6488 43.9837 31.113 44.7025 31.4389C45.2516 31.6875 45.8338 31.8211 46.4347 31.8422C47.4717 31.8751 48.5064 31.9524 49.5434 31.8164C50.2976 31.718 51.0023 31.4882 51.6245 31.0474C51.8743 30.8715 52.0982 30.6535 52.3103 30.4331C52.447 30.2901 52.4423 30.0744 52.348 29.936C52.2467 29.7883 52.0487 29.7133 51.8531 29.786L51.8554 29.7813ZM42.3787 26.2479C42.3692 27.1881 42.1241 28.0697 41.6763 28.895C41.3841 29.4319 40.9834 29.8751 40.4814 30.2314C39.1758 31.1576 37.6132 30.6605 36.8755 29.6125C36.5196 29.106 36.3264 28.5409 36.2439 27.9407C36.0954 26.8598 36.1543 25.7883 36.4418 24.7309C36.7011 23.7789 37.2502 23.0404 38.0374 22.4565C38.5795 22.0556 39.1616 21.7227 39.7885 21.4671C40.0289 21.3686 40.267 21.2608 40.5074 21.1599C41.0353 20.9395 41.5231 20.6488 41.9851 20.3112C42.0511 20.2619 42.1194 20.2127 42.1925 20.1775C42.3103 20.1189 42.3787 20.1494 42.3975 20.2783C42.4164 20.4003 42.4187 20.5245 42.4187 20.6465C42.4187 21.596 42.4187 22.548 42.4187 23.4976H42.381C42.381 24.4143 42.3881 25.3287 42.381 26.2455L42.3787 26.2479Z" fill="black"/>
<path d="M29.1168 30.7824C28.9189 30.7613 28.7185 30.7613 28.5206 30.7496C28.2684 30.7356 28.0115 30.7379 27.7617 30.698C27.0758 30.5902 26.4253 30.0556 26.3711 29.2397C26.3405 28.8036 26.3004 28.3674 26.2957 27.9313C26.2792 25.7227 26.2722 23.5163 26.2698 21.3077C26.2651 19.1201 26.2698 16.9325 26.2698 14.7449C26.2651 14.7449 26.258 14.7449 26.2533 14.7449C26.2533 14.5738 26.2533 14.4026 26.2533 14.2315C26.2462 9.67108 26.2392 5.11305 26.2321 0.55267C26.2321 0.477641 26.225 0.402611 26.2109 0.327582C26.1897 0.212693 26.119 0.121251 26.0035 0.09546C25.8998 0.074358 25.7843 0.06029 25.6806 0.081392C25.5274 0.111873 25.3766 0.163455 25.2304 0.224417C24.0214 0.742588 22.8123 1.26545 21.608 1.79065C21.4572 1.8563 21.3134 1.93837 21.1767 2.02981C20.9575 2.17987 20.8161 2.38385 20.7902 2.65584C20.7784 2.79183 20.769 2.92782 20.769 3.06381C20.7619 7.43192 20.7525 11.8 20.7525 16.1681C20.7525 20.0368 20.7643 23.9079 20.7666 27.7766C20.7666 28.2197 20.7548 28.6652 20.7242 29.1084C20.6747 29.8235 20.2104 30.5175 19.4067 30.6676C19.1169 30.7215 18.8246 30.7543 18.53 30.7778C18.3038 30.7965 18.0775 30.7801 17.8489 30.7871C17.6839 30.7918 17.5519 30.8575 17.5024 31.0239C17.4459 31.2115 17.4176 31.4061 17.5708 31.5632C17.6273 31.6218 17.724 31.65 17.8088 31.6711C17.8795 31.6898 17.9597 31.6828 18.0351 31.6828C18.5771 31.6828 19.1216 31.6805 19.6636 31.6805C22.6733 31.6805 25.6853 31.6805 28.695 31.6758C28.8458 31.6758 28.9966 31.664 29.1451 31.6406C29.3195 31.6148 29.4114 31.5187 29.4374 31.3428C29.4491 31.2631 29.4491 31.1787 29.4374 31.099C29.4067 30.902 29.3124 30.8059 29.1145 30.7848L29.1168 30.7824Z" fill="black"/>
<path d="M84.9357 17.6171C84.7165 16.3205 84.2617 15.1154 83.4886 14.0392C82.7698 13.0404 81.8766 12.2291 80.7948 11.6382C79.4514 10.9044 77.9996 10.5128 76.4771 10.4143C75.6263 10.3581 74.7755 10.4003 73.9317 10.555C72.4846 10.82 71.1271 11.3147 69.8756 12.0814C67.5754 13.4929 66.1024 15.5398 65.2728 18.072C65.0512 18.7473 64.8863 19.4413 64.8226 20.1494C64.7566 20.8786 64.7543 21.6101 64.8132 22.3393C64.9098 23.5234 65.195 24.6582 65.7206 25.7227C66.8731 28.0579 68.6713 29.7391 71.0423 30.8223C71.7823 31.1599 72.5601 31.3686 73.359 31.5187C74.0614 31.65 74.7684 31.7391 75.4825 31.7625C75.77 31.7719 76.0599 31.7625 76.3475 31.7719C77.2171 31.7977 78.0703 31.6992 78.9211 31.5187C80.7241 31.1365 82.1759 30.2197 83.2883 28.759C83.9223 27.929 84.3536 26.9935 84.7354 26.0322C84.7684 25.9501 84.7872 25.861 84.799 25.7742C84.8249 25.5726 84.7118 25.4155 84.5138 25.3592C84.3489 25.3123 84.1815 25.371 84.0731 25.5398C83.993 25.6664 83.927 25.8024 83.8704 25.9407C83.59 26.6043 83.2388 27.2279 82.7934 27.8C81.8978 28.9513 80.7641 29.7625 79.3571 30.1916C78.5534 30.4354 77.7286 30.5105 76.8942 30.4917C76.5737 30.4847 76.2485 30.4518 75.935 30.3885C74.9711 30.1892 74.1061 29.793 73.3543 29.1435C72.7297 28.6043 72.249 27.9688 71.9355 27.2092C71.483 26.1166 71.2497 24.9747 71.2214 23.7977C71.1884 22.4987 71.2072 21.1998 71.2002 19.9009C71.2002 19.5726 71.1719 19.4741 71.6409 19.4765C72.2796 19.4788 72.9183 19.4812 73.557 19.4812C75.0559 19.4812 76.5525 19.4812 78.0514 19.4812C78.0514 19.4765 78.0514 19.4718 78.0514 19.4694C79.4043 19.4694 80.7594 19.4694 82.1122 19.4694C82.923 19.4694 83.7337 19.4812 84.5445 19.4858C84.6199 19.4858 84.6953 19.4741 84.7684 19.4601C84.9711 19.4202 85.0842 19.3006 85.0983 19.099C85.1054 18.9911 85.1054 18.8786 85.0936 18.7707C85.0441 18.3839 84.9993 17.997 84.9333 17.6148L84.9357 17.6171ZM78.6736 18.2385C78.6666 18.5292 78.6029 18.5996 78.3036 18.6019C77.5895 18.6113 76.8754 18.616 76.1613 18.6207C75.7559 18.623 75.3505 18.6207 74.9452 18.6207C74.9452 18.6254 74.9452 18.6324 74.9452 18.6371C73.8257 18.6371 72.7062 18.6371 71.5867 18.6371C71.3039 18.6371 71.2402 18.5714 71.2379 18.283C71.2379 17.9829 71.2402 17.6828 71.2497 17.3803C71.2803 16.3745 71.3793 15.378 71.6126 14.3956C71.754 13.8047 71.9944 13.2537 72.3314 12.7496C72.8994 11.9008 73.7031 11.4132 74.7213 11.2865C75.1031 11.2397 75.4849 11.1998 75.8714 11.2397C76.7151 11.3288 77.3774 11.7203 77.844 12.4237C78.1834 12.9348 78.3625 13.5116 78.4568 14.1072C78.544 14.6511 78.5935 15.2045 78.6218 15.7555C78.6595 16.5339 78.6571 17.3123 78.6736 18.0908C78.6736 18.1377 78.6736 18.1869 78.6736 18.2338V18.2385Z" fill="black"/>
<path d="M16.7601 22.6441C16.0507 21.3522 14.9924 20.4284 13.6703 19.793C13.0693 19.5046 12.4471 19.2772 11.8131 19.0732C11.0118 18.8153 10.2175 18.5292 9.40915 18.2901C8.59369 18.0486 7.78766 17.786 7.00284 17.453C6.56918 17.2702 6.16617 17.0357 5.8315 16.7027C5.3295 16.2033 5.01369 15.6101 5.00897 14.8833C5.00897 14.7801 5.0019 14.6793 4.99719 14.5761C4.97598 13.9829 5.16217 13.4577 5.54868 13.0099C6.13082 12.3346 6.87557 11.9173 7.73817 11.7063C7.94321 11.657 8.15532 11.6219 8.36744 11.6008C8.78459 11.5609 9.21118 11.5234 9.61655 11.6523C10.5946 11.9642 11.3535 12.5457 11.7754 13.5046C11.9427 13.8868 12.0629 14.2854 12.1501 14.6957C12.2821 15.3147 12.572 15.8469 13.0292 16.2877C13.2131 16.4659 13.4205 16.6207 13.6797 16.6605C13.9672 16.7027 14.2548 16.6957 14.5352 16.6043C15.2871 16.3628 15.7325 15.8423 15.9446 15.099C16.013 14.8551 16.0177 14.616 15.9564 14.3721C15.7938 13.7438 15.4473 13.2256 14.9807 12.7848C14.3844 12.2244 13.675 11.8305 12.9326 11.5046C12.5579 11.3405 12.1666 11.2045 11.7707 11.0966C11.1226 10.9208 10.4603 10.7895 9.78624 10.7614C9.30074 10.7403 8.8058 10.6934 8.32737 10.7449C7.16782 10.8739 6.05776 11.1998 5.02076 11.7461C4.08746 12.2362 3.29321 12.8997 2.70165 13.7672C1.72121 15.2092 1.34176 16.7965 1.67879 18.5269C1.8909 19.6219 2.37169 20.5832 3.18715 21.3593C3.71272 21.8587 4.31607 22.2502 4.96419 22.5738C6.10961 23.1459 7.32101 23.5398 8.53713 23.922C9.51285 24.2291 10.465 24.5972 11.403 25.0005C12.0299 25.2702 12.473 25.7297 12.7747 26.3323C13.1494 27.0849 13.2319 27.8798 13.0292 28.6863C12.7653 29.7461 12.103 30.4659 11.0471 30.8012C10.6394 30.9302 10.2199 31.0122 9.79331 31.0169C9.43036 31.0216 9.05798 31.0333 8.70446 30.9677C7.85601 30.8129 7.13482 30.3909 6.55504 29.7602C6.02476 29.1834 5.65003 28.5081 5.4332 27.7532C5.38842 27.6031 5.346 27.4507 5.29886 27.3006C5.18809 26.956 5.06554 26.6136 4.85107 26.3159C4.28543 25.5281 3.55717 25.0685 2.53903 25.1975C1.84848 25.2842 1.1815 25.8516 1.01652 26.5246C0.825622 27.3006 0.950533 28.0298 1.37005 28.7098C1.63872 29.1459 1.99932 29.5023 2.38348 29.8376C3.08817 30.4495 3.92248 30.8387 4.78979 31.1482C6.22509 31.6594 7.70988 31.8938 9.36201 31.854C10.1751 31.8915 11.1013 31.8047 12.0111 31.5562C12.5414 31.4108 13.0764 31.2795 13.5642 31.0263C14.7473 30.4097 15.7396 29.582 16.4537 28.4378C16.9368 27.6617 17.2173 26.8223 17.3116 25.9196C17.3705 25.3522 17.3233 24.7848 17.2526 24.2221C17.1819 23.6711 17.0382 23.1365 16.7671 22.6441H16.7601Z" fill="black"/>
<path d="M64.6482 29.4882C64.5045 29.4718 64.3748 29.521 64.2711 29.6195C64.1934 29.6945 64.1179 29.7766 64.0567 29.868C63.8045 30.2432 63.4463 30.4683 63.0338 30.6254C62.6638 30.766 62.2749 30.8153 61.8837 30.82C61.4005 30.8247 60.9739 30.6652 60.5969 30.3557C60.1255 29.9712 59.8403 29.4835 59.6989 28.8997C59.5693 28.3698 59.5339 27.8352 59.5339 27.2936C59.5339 24.8669 59.5339 22.4401 59.5339 20.0134H59.5434C59.5434 19.371 59.5434 18.7285 59.5434 18.0861C59.541 16.8223 59.5386 15.5562 59.5339 14.2924C59.5316 13.6031 59.5221 12.9114 59.5245 12.2221C59.5245 11.9102 59.4797 11.8071 59.9534 11.8C60.3376 11.793 60.7241 11.7954 61.1083 11.7954C62.0699 11.7954 63.0338 11.7954 63.9954 11.7883C64.1109 11.7883 64.2311 11.7766 64.3395 11.7414C64.5045 11.6875 64.5775 11.5093 64.5445 11.2959C64.5186 11.1271 64.422 11.031 64.2429 11.0146C64.1415 11.0052 64.0378 11.0075 63.9341 11.0075C62.916 11.0052 61.9002 11.0029 60.882 11.0005C60.5309 11.0005 60.1821 10.9935 59.8309 10.9841C59.6518 10.9794 59.6023 10.9278 59.5834 10.752C59.5764 10.6981 59.5787 10.6418 59.5787 10.5879C59.5787 10.2596 59.5787 9.93135 59.574 9.60309C59.5693 8.95362 59.5575 8.30415 59.5575 7.65468C59.5575 7.35456 59.4255 7.14588 59.1733 7.00286C59.0414 6.92783 58.9094 6.85749 58.7703 6.79653C57.3209 6.14471 55.8691 5.49524 54.4196 4.84577C54.3442 4.81294 54.2664 4.78481 54.1863 4.76839C54.0025 4.72853 53.8752 4.80825 53.8399 4.99348C53.8187 5.10602 53.8139 5.22326 53.8139 5.34049C53.8116 7.08961 53.8116 8.84108 53.8092 10.5902C53.8092 10.6371 53.8092 10.6863 53.8092 10.7332C53.7998 10.9185 53.755 10.9724 53.5665 11.0005C53.4863 11.0122 53.4015 11.0122 53.319 11.0122C51.9709 11.0052 50.6252 10.9958 49.2771 10.9888C49.1757 10.9888 49.072 11.0005 48.9707 11.0169C48.8764 11.0333 48.8128 11.0943 48.7774 11.1834C48.6502 11.507 48.834 11.786 49.1804 11.7954C49.303 11.7977 49.4279 11.7954 49.5505 11.7954C50.8208 11.7954 52.0935 11.7954 53.3638 11.7954C53.7739 11.7954 53.8328 11.854 53.8304 12.2549C53.8234 14.6746 53.8116 17.0943 53.8069 19.514C53.8022 22.1119 53.8069 24.7098 53.8022 27.3053C53.8022 27.7813 53.8658 28.2455 54.0355 28.691C54.5587 30.0744 55.5745 30.9724 56.9344 31.4741C57.9808 31.861 59.0909 31.9313 60.2009 31.9149C60.6534 31.9079 61.1059 31.861 61.5561 31.8094C62.454 31.7086 63.2954 31.4249 64.0637 30.9489C64.3183 30.7918 64.5469 30.5879 64.7731 30.3909C64.8674 30.3088 64.9452 30.1916 64.9947 30.0767C65.1172 29.7954 64.9546 29.5257 64.6506 29.4929L64.6482 29.4882Z" fill="black"/>
<path d="M94.0472 29.0146C93.9529 28.3675 93.6559 27.8212 93.1586 27.3944C92.5011 26.8294 91.7257 26.6816 90.8843 26.8176C89.687 27.0099 88.5487 28.2362 88.7914 29.8141C88.9682 30.9724 90.1065 32.1142 91.4735 32.072C91.6573 32.0509 91.8435 32.0462 92.0226 32.0064C92.6472 31.8727 93.1846 31.5937 93.5569 31.0568C93.9835 30.4401 94.1579 29.7578 94.0472 29.0146ZM93.0809 30.6559C93.0384 30.7403 92.9937 30.8294 92.8687 30.8481C92.8051 30.7426 92.7391 30.6301 92.6731 30.5222C92.5317 30.2877 92.3856 30.058 92.2465 29.8212C92.1169 29.6054 92.124 29.5797 92.3408 29.4296C92.5954 29.2537 92.732 29.0146 92.732 28.7051C92.732 28.2385 92.3785 27.8399 91.8977 27.7954C91.6338 27.7696 91.3627 27.7813 91.0964 27.7766C90.9526 27.7766 90.8089 27.7766 90.6651 27.7766C90.4035 27.7743 90.3116 27.8563 90.3092 28.1119C90.3069 28.9255 90.3092 29.7367 90.3092 30.5503C90.3092 30.5574 90.3092 30.5644 90.3092 30.5714C90.321 30.8059 90.4129 30.9208 90.5944 30.9255C90.7971 30.9325 90.9786 30.7918 90.9974 30.5925C91.0092 30.4519 90.9927 30.3065 90.9856 30.1635C90.9809 30.0603 90.9644 29.9595 90.9597 29.8587C90.955 29.7649 90.9762 29.6758 91.0752 29.6406C91.1765 29.6054 91.285 29.6078 91.3651 29.6875C91.4311 29.7555 91.4829 29.8376 91.5348 29.9173C91.6738 30.1447 91.8082 30.3745 91.9449 30.6043C92.0839 30.8387 92.263 31.0146 92.5482 31.0544C92.5741 31.0591 92.5977 31.0755 92.6354 31.0943C92.5718 31.235 92.4563 31.2748 92.3479 31.3077C91.9284 31.4343 91.5018 31.4413 91.0658 31.4343C90.0523 31.4155 89.0366 30.0439 89.4514 28.827C89.6022 28.3862 89.8473 28.0369 90.2197 27.7414C90.618 27.4249 91.0634 27.371 91.5348 27.385C91.9496 27.3991 92.3267 27.5351 92.6543 27.793C93.0573 28.1119 93.2529 28.5457 93.3542 29.0333C93.4721 29.6101 93.3425 30.1447 93.0832 30.6582L93.0809 30.6559ZM92.0061 28.7074C92.0132 28.8036 91.9661 28.8763 91.8859 28.9302C91.8694 28.9419 91.8506 28.9536 91.8317 28.9583C91.5654 29.0146 91.3015 29.0052 91.0422 28.9185C90.9432 28.8856 90.9008 28.7543 90.922 28.6394C90.9432 28.5339 90.9998 28.4847 91.1247 28.4777C91.2213 28.473 91.3156 28.4777 91.4122 28.4777V28.4659C91.556 28.4847 91.6998 28.4988 91.8388 28.5246C91.9331 28.5433 91.9967 28.6066 92.0061 28.7074Z" fill="black"/>
</g>
<defs>
<clipPath id="clip0_1085_193">
<rect width="93.1556" height="32" fill="white" transform="translate(0.922241 0.0720215)"/>
</clipPath>
</defs>
</svg>
