<svg width="57" height="57" viewBox="0 0 57 57" fill="none" xmlns="http://www.w3.org/2000/svg">
<g clip-path="url(#clip0_1087_588)">
<path fill-rule="evenodd" clip-rule="evenodd" d="M42.1569 53.4509L44.0093 55.3037C44.5371 55.8316 45.2531 56.1281 45.9996 56.1281C46.7462 56.1281 47.4622 55.8316 47.9901 55.3037L55.6756 47.6174C56.2035 47.0894 56.5 46.3735 56.5 45.6269C56.5 44.8804 56.2035 44.1644 55.6756 43.6365L53.8231 41.784C53.2952 41.2561 52.9987 40.5401 52.9987 39.7937C52.9987 39.0471 53.2952 38.3311 53.8231 37.8032L55.6755 35.951C56.2034 35.4231 56.4999 34.7071 56.4999 33.9605C56.4999 33.214 56.2034 32.498 55.6755 31.9702L53.823 30.1176C53.2951 29.5898 52.9985 28.8738 52.9985 28.1273C52.9985 27.3807 53.2951 26.6647 53.823 26.1368L55.6754 24.2845C56.2033 23.7565 56.4998 23.0406 56.4998 22.2941C56.4998 21.5475 56.2033 20.8316 55.6754 20.3037L53.823 18.4516C53.5616 18.1902 53.3543 17.88 53.2128 17.5385C53.0713 17.197 52.9985 16.8309 52.9985 16.4613C52.9985 16.0916 53.0713 15.7255 53.2128 15.384C53.3543 15.0425 53.5616 14.7323 53.823 14.471L55.6754 12.6184C55.9368 12.3571 56.1442 12.0467 56.2856 11.7052C56.427 11.3637 56.4999 10.9977 56.4999 10.6281C56.4999 10.2585 56.427 9.8924 56.2856 9.55089C56.1442 9.20939 55.9368 8.89909 55.6754 8.63773L47.99 0.952614C47.462 0.424733 46.7461 0.128174 45.9995 0.128174C45.2529 0.128174 44.537 0.424733 44.0091 0.952614L42.1567 2.80498C41.6289 3.33287 40.9128 3.62942 40.1664 3.62942C39.4198 3.62942 38.7038 3.33287 38.1759 2.80498L36.3236 0.952614C35.7956 0.424733 35.0797 0.128174 34.3331 0.128174C33.5866 0.128174 32.8707 0.424733 32.3428 0.952614L30.4904 2.80498C29.9625 3.33287 29.2465 3.62942 28.5 3.62942C27.7534 3.62942 27.0374 3.33287 26.5095 2.80498L24.6572 0.952614C24.1293 0.424733 23.4133 0.128174 22.6668 0.128174C21.9202 0.128174 21.2043 0.424733 20.6764 0.952614L18.824 2.80498C18.2961 3.33287 17.5801 3.62942 16.8336 3.62942C16.0871 3.62942 15.371 3.33287 14.8432 2.80498L12.9908 0.952614C12.4629 0.424733 11.747 0.128174 11.0004 0.128174C10.2539 0.128174 9.53789 0.424733 9.01 0.952614L1.32444 8.63817C0.79656 9.16606 0.5 9.88204 0.5 10.6286C0.5 11.3751 0.79656 12.0911 1.32444 12.619L3.17692 14.4714C3.7048 14.9993 4.00137 15.7153 4.00137 16.4619C4.00137 17.2085 3.7048 17.9244 3.17692 18.4523L1.32455 20.3046C0.796672 20.8325 0.500113 21.5484 0.500113 22.2949C0.500113 23.0415 0.796672 23.7574 1.32455 24.2854L3.17704 26.1378C3.70491 26.6657 4.00146 27.3817 4.00146 28.1282C4.00146 28.8747 3.70491 29.5907 3.17704 30.1185L1.32455 31.9711C1.06316 32.2324 0.855815 32.5427 0.714351 32.8842C0.572887 33.2257 0.500076 33.5917 0.500076 33.9614C0.500076 34.331 0.572887 34.6971 0.714351 35.0386C0.855815 35.3801 1.06316 35.6903 1.32455 35.9518L3.17692 37.8042C3.43831 38.0656 3.64566 38.3759 3.78712 38.7174C3.92859 39.0589 4.0014 39.4249 4.0014 39.7945C4.0014 40.1642 3.92859 40.5302 3.78712 40.8717C3.64566 41.2132 3.43831 41.5236 3.17692 41.7849L1.32455 43.6373C0.796672 44.1652 0.500113 44.8812 0.500113 45.6277C0.500113 46.3743 0.796672 47.0903 1.32455 47.6181L9.0101 55.3037C9.53801 55.8316 10.254 56.1281 11.0005 56.1281C11.7471 56.1281 12.4631 55.8316 12.9909 55.3037L14.8433 53.4513C15.3711 52.9234 16.0872 52.6269 16.8337 52.6269C17.5803 52.6269 18.2962 52.9234 18.8241 53.4513L20.6765 55.3037C21.2044 55.8316 21.9204 56.1281 22.6669 56.1281C23.4134 56.1281 24.1294 55.8316 24.6573 55.3037L26.5096 53.4513C27.0375 52.9234 27.7535 52.6269 28.5001 52.6269C29.2467 52.6269 29.9626 52.9234 30.4905 53.4513L32.3429 55.3037C32.8708 55.8316 33.5868 56.1281 34.3332 56.1281C35.0798 56.1281 35.7958 55.8316 36.3237 55.3037L38.1761 53.4509C38.7041 52.923 39.42 52.6264 40.1666 52.6264C40.9131 52.6264 41.6291 52.923 42.1569 53.4509ZM35.8687 10.4799H47.894V14.0622H45.8926C44.6985 14.0622 43.807 14.9704 43.807 16.1646V22.2698H39.9556V16.1646C39.9556 14.9536 39.0811 14.0622 37.8701 14.0622H35.8687V10.4799ZM11.8416 10.7153C12.6703 10.7153 13.156 10.6622 13.6488 10.6084C14.1561 10.553 14.671 10.4967 15.5752 10.4967C19.4099 10.4967 21.5964 13.0868 21.5964 16.3832V22.2697H17.7449V16.1814C17.7449 14.7518 16.6854 13.9446 15.5752 13.9446C14.4651 13.9446 13.4058 14.7518 13.4058 16.1814V22.2697H9.55378V10.4967C10.3066 10.6496 11.0735 10.7229 11.8416 10.7153ZM35.8687 23.6562H47.894V27.2386H45.8926C44.6985 27.2386 43.807 28.1468 43.807 29.3409V35.4458H39.9556V29.3407C39.9556 28.1297 39.0811 27.2384 37.8701 27.2384H35.8687V23.6562ZM22.4206 40.6458C22.4109 41.6872 22.6858 42.7115 23.2158 43.6079C23.7585 44.5106 24.5255 45.2575 25.4423 45.776C26.3592 46.2946 27.3945 46.5671 28.4478 46.5671C29.5009 46.5671 30.5364 46.2946 31.4531 45.776C32.3699 45.2575 33.1369 44.5106 33.6796 43.6079C34.2096 42.7115 34.4846 41.6872 34.4748 40.6458H22.4206ZM28.4608 10.4801C29.363 10.4801 29.8732 10.5361 30.3773 10.5914C30.8693 10.6454 31.3555 10.6987 32.1946 10.6987C32.9626 10.7063 33.7293 10.633 34.4819 10.4801V22.2695C33.7293 22.1165 32.9626 22.0432 32.1946 22.0506C31.3555 22.0506 30.8694 22.104 30.3773 22.158C29.8733 22.2133 29.363 22.2693 28.4609 22.2693C25.0131 22.2693 22.4398 19.612 22.4398 16.3827C22.4398 12.9855 25.1811 10.4801 28.4608 10.4801ZM30.496 16.3834C30.496 15.2734 29.6381 14.2642 28.4609 14.2642C27.3004 14.2642 26.4091 15.223 26.4091 16.3834C26.4091 17.4599 27.2331 18.469 28.4609 18.469C28.7318 18.4666 28.9994 18.4107 29.2486 18.3044C29.4977 18.1981 29.7234 18.0437 29.9125 17.8497C30.1016 17.6559 30.2506 17.4266 30.3508 17.1749C30.4509 16.9233 30.5002 16.6543 30.496 16.3834ZM30.3774 23.7678C30.8694 23.8218 31.3556 23.8751 32.1947 23.8751C32.9627 23.8826 33.7294 23.8094 34.482 23.6565V35.4461C33.7294 35.2932 32.9627 35.2199 32.1946 35.2274C31.3555 35.2274 30.8694 35.2808 30.3773 35.3348C29.8733 35.3901 29.363 35.4461 28.4609 35.4461C25.0131 35.4461 22.4398 32.7887 22.4398 29.5596C22.4398 26.1623 25.1812 23.6565 28.4609 23.6565C29.3631 23.6565 29.8733 23.7125 30.3774 23.7678ZM30.4961 29.5598C30.4961 28.4497 29.6383 27.4406 28.461 27.4406C27.3005 27.4406 26.4092 28.3992 26.4092 29.5598C26.4092 30.6362 27.2332 31.6453 28.461 31.6453C28.7319 31.6429 28.9995 31.5869 29.2487 31.4807C29.4978 31.3744 29.7235 31.22 29.9126 31.0261C30.1017 30.8323 30.2507 30.6029 30.3509 30.3513C30.451 30.0996 30.5003 29.8306 30.4961 29.5598ZM15.9582 23.6493C15.0807 23.6528 14.5287 23.7029 13.9858 23.7522C13.4413 23.8016 12.9058 23.8502 12.0601 23.8502C11.2207 23.8512 10.3825 23.7838 9.55414 23.6486V36.183H13.4056V34.1869C13.6099 34.2173 13.8075 34.2516 14.006 34.2861C14.6118 34.3913 15.2253 34.4979 16.0556 34.4979C19.2284 34.4979 21.5963 32.0528 21.5963 29.0813C21.5963 25.9598 19.1055 23.6564 15.9582 23.6493ZM15.446 31.2963C15.1751 31.2939 14.9075 31.238 14.6584 31.1317C14.4092 31.0255 14.1836 30.871 13.9944 30.6772C13.8053 30.4833 13.6564 30.2539 13.5562 30.0023C13.456 29.7506 13.4067 29.4817 13.4109 29.2108C13.4109 28.1009 14.2688 27.0917 15.446 27.0917C16.6066 27.0917 17.498 28.0503 17.498 29.2108C17.498 30.2873 16.6739 31.2963 15.446 31.2963Z" fill="black"/>
</g>
<defs>
<clipPath id="clip0_1087_588">
<rect width="56" height="56" fill="white" transform="translate(0.5 0.128174)"/>
</clipPath>
</defs>
</svg>
