<svg width="57" height="65" viewBox="0 0 57 65" fill="none" xmlns="http://www.w3.org/2000/svg">
<g clip-path="url(#clip0_1087_561)">
<path d="M30.5293 17.0853C31.4858 19.758 32.4387 22.4307 33.3915 25.1034C33.9043 26.5386 34.4134 27.9774 34.9117 29.42C35.0026 29.681 35.1262 29.8189 35.4245 29.8077C36.1118 29.7891 36.7992 29.8077 37.4865 29.8003C37.5993 29.8003 37.7156 29.7667 37.8175 29.7518C37.9084 29.051 37.8756 8.67568 37.7811 8.33646H34.788C34.7771 8.52284 34.7662 8.67195 34.7662 8.82106C34.7626 12.6978 34.7589 16.5746 34.7517 20.4513C34.7517 20.5296 34.7189 20.6042 34.6826 20.7756C34.5953 20.5706 34.5407 20.4662 34.5007 20.3581C34.097 19.2063 33.6933 18.0544 33.2933 16.8989C32.3441 14.159 31.3949 11.4192 30.4457 8.67941C30.3184 8.31037 30.3148 8.30664 29.9438 8.30664C29.1801 8.30664 28.42 8.30664 27.6563 8.30664C27.5254 8.30664 27.3944 8.32155 27.2235 8.33273V29.7071C27.2817 29.7369 27.3217 29.7779 27.3617 29.7779C28.26 29.7854 29.1546 29.7891 30.0529 29.7965C30.2457 29.7965 30.3148 29.681 30.3221 29.5058C30.3221 29.3679 30.3257 29.2299 30.3257 29.092C30.3257 26.9598 30.3257 24.8313 30.3257 22.6991C30.3257 20.9359 30.3257 19.1727 30.3221 17.4133C30.3221 17.2232 30.3221 17.0293 30.3221 16.8392C30.3511 16.8355 30.3839 16.828 30.413 16.8243C30.453 16.9101 30.5003 16.9958 30.533 17.0853H30.5293Z" fill="black"/>
<path d="M35.4535 54.3468V41.5237C35.5917 41.602 35.6572 41.6952 35.6972 41.7996C35.9154 42.4034 36.1264 43.0073 36.3409 43.6112C37.5738 47.0928 38.8067 50.5707 40.0395 54.0523C40.1741 54.4363 40.1886 54.4512 40.585 54.4512C41.2433 54.4549 41.9016 54.4549 42.5598 54.4512C42.6907 54.4512 42.818 54.4251 42.9926 54.4065C42.9926 53.9181 42.9926 53.4596 42.9926 53.0049C42.9926 46.7797 42.9926 40.5545 42.9926 34.3331C42.9926 33.979 42.9962 33.6286 42.9926 33.2744C42.9926 33.1738 42.9562 33.0769 42.9344 32.9725H39.9232C39.9086 37.1176 39.9522 41.2255 39.825 45.3371C38.3121 41.2292 36.9119 37.0878 35.4572 32.9613C34.4934 32.9613 33.5661 32.9613 32.6423 32.9613C32.5696 32.9613 32.4968 32.9799 32.4314 32.9874C32.3114 33.4235 32.3296 54.0486 32.4423 54.3953C32.9442 54.4959 35.1081 54.4698 35.4645 54.3394L35.4535 54.3468Z" fill="black"/>
<path d="M10.1597 51.73C10.6179 50.6639 10.727 49.5456 10.7307 48.4049C10.738 45.2923 10.7343 42.1835 10.7307 39.0709C10.7307 38.2583 10.6834 37.4456 10.4979 36.6516C10.1161 35.0488 9.21415 33.9118 7.67942 33.3489C6.99934 33.0992 6.29017 32.9836 5.57373 32.9725C3.98809 32.9538 2.40245 32.965 0.82045 32.965C0.660431 32.965 0.496776 32.9799 0.296753 32.9874V54.4139C0.474955 54.4288 0.634974 54.4512 0.794992 54.4512C2.21697 54.4512 3.63532 54.4735 5.0573 54.4437C5.81375 54.4288 6.58111 54.4064 7.31938 54.179C8.61408 53.7839 9.60692 53.0309 10.1706 51.7263L10.1597 51.73ZM7.26483 49.1654C7.26483 49.6239 7.203 50.0786 7.00298 50.5036C6.81023 50.9136 6.50474 51.1857 6.0756 51.3013C5.90467 51.3498 5.73011 51.4206 5.55554 51.4243C4.95911 51.4392 4.36268 51.4318 3.78443 51.4318C3.75897 51.4057 3.74806 51.3945 3.74079 51.3833C3.72988 51.3721 3.71897 51.3609 3.71533 51.346C3.70442 51.2864 3.68987 51.2267 3.68987 51.1671C3.68987 46.1721 3.68987 41.177 3.69715 36.182C3.69715 36.1372 3.71897 36.0962 3.7517 35.9769C4.55179 35.9918 5.34097 35.8688 6.11924 36.1C6.56657 36.2341 6.85751 36.5361 7.03571 36.9722C7.21755 37.4195 7.27574 37.8892 7.27574 38.3664C7.27574 41.9673 7.27938 45.5682 7.27574 49.1691L7.26483 49.1654Z" fill="black"/>
<path d="M17.4551 45.4824C17.8042 45.4824 17.8551 45.5272 17.9497 45.8776C18.1315 46.556 18.3061 47.2344 18.4879 47.9129C19.0371 49.978 19.5899 52.0394 20.1354 54.1045C20.1972 54.3431 20.3063 54.4623 20.5682 54.4586C21.4665 54.4437 22.3611 54.4586 23.2594 54.4512C23.354 54.4512 23.4485 54.4102 23.5722 54.3803C22.6666 51.2528 21.772 48.1589 20.87 45.0426C21.0228 44.9457 21.1501 44.8748 21.2701 44.7928C21.5283 44.6102 21.7974 44.4424 22.0338 44.2337C22.7612 43.5888 23.0739 42.7128 23.2267 41.7772C23.4194 40.5955 23.4449 39.3989 23.3685 38.2061C23.3103 37.3487 23.2012 36.4988 22.903 35.6862C22.4993 34.5791 21.801 33.7664 20.7173 33.3415C20.0845 33.0917 19.419 32.9836 18.7461 32.9799C17.026 32.9687 15.3094 32.9762 13.5892 32.9799C13.4437 32.9799 13.2982 32.9948 13.1273 33.0023V54.3952C13.2001 54.4213 13.2546 54.4549 13.3092 54.4586C14.2947 54.4623 15.2839 54.4623 16.2695 54.4661C16.4732 54.4661 16.5677 54.3766 16.5495 54.1567C16.535 53.9889 16.5568 53.8212 16.5568 53.6534C16.5568 51.141 16.5568 48.6286 16.5568 46.1124C16.5568 45.9335 16.5714 45.7508 16.5823 45.516C16.895 45.5085 17.1714 45.4973 17.4515 45.4973L17.4551 45.4824ZM16.5641 42.2617C16.5641 40.2563 16.5641 38.2471 16.5641 36.2416C16.5641 36.1521 16.5823 36.0627 16.6004 35.9024C17.346 35.9061 18.0624 35.8204 18.7643 35.9956C19.2698 36.1223 19.5681 36.4876 19.7426 36.9797C19.9281 37.4904 19.9827 38.0271 19.9936 38.5565C20.0081 39.3206 19.9754 40.0885 19.9063 40.849C19.8736 41.2031 19.739 41.561 19.5972 41.8927C19.4262 42.299 19.0735 42.5525 18.6625 42.601C18.0588 42.6755 17.4442 42.6681 16.8332 42.6904C16.6514 42.6979 16.5604 42.5898 16.5641 42.4034C16.5641 42.3587 16.5641 42.3102 16.5641 42.2655V42.2617Z" fill="black"/>
<path d="M17.0078 8.50421C16.0731 8.91425 15.3785 9.61877 14.9094 10.5581C14.4839 11.4118 14.3311 12.3176 14.3347 13.2644C14.3347 15.1804 14.3347 17.0964 14.3347 19.0124C14.3347 20.9285 14.3275 22.8445 14.3384 24.7605C14.3384 25.2339 14.3638 25.7148 14.4584 26.1733C14.8439 28.0595 15.9349 29.3082 17.746 29.8748C18.6334 30.1544 19.5463 30.1693 20.4554 30.0724C21.6629 29.9419 22.7321 29.4648 23.5722 28.5291C24.4195 27.5786 24.7832 26.4267 24.8196 25.1668C24.8487 24.1081 24.8269 23.0495 24.8269 21.9946C24.8269 19.3107 24.8305 16.6305 24.8232 13.9466C24.8232 13.3203 24.8232 12.6866 24.7287 12.0716C24.4777 10.5134 23.7067 9.29074 22.2993 8.58994C20.5646 7.72513 18.7789 7.72886 17.0151 8.50793L17.0078 8.50421ZM21.3537 12.7164C21.3792 13.0072 21.3646 13.298 21.3646 13.5887C21.3646 15.4265 21.3646 17.2679 21.3646 19.1056H21.3537C21.3537 21.1596 21.361 23.2135 21.3501 25.2674C21.3465 25.9682 21.1028 26.5758 20.4373 26.8778C19.7535 27.1872 19.0662 27.1499 18.4334 26.7175C18.1243 26.505 17.9352 26.1807 17.8697 25.808C17.8115 25.4799 17.7715 25.1407 17.7715 24.8052C17.7642 20.9285 17.757 17.048 17.7715 13.1712C17.7715 12.8096 17.8588 12.4443 17.9424 12.0902C18.0588 11.6019 18.4043 11.3074 18.848 11.1546C19.3426 10.9831 19.859 10.9831 20.3463 11.1695C21.0337 11.4304 21.2883 12.0231 21.3537 12.7202V12.7164Z" fill="black"/>
<path d="M41.2251 9.89085C40.5305 10.8339 40.2287 11.9112 40.2214 13.0668C40.2032 17.0218 40.2105 20.9769 40.2141 24.9319C40.2141 25.7669 40.3632 26.5795 40.676 27.3512C41.1997 28.6372 42.0834 29.5244 43.4145 29.927C44.1164 30.1394 44.8219 30.1581 45.5384 30.0984C46.4003 30.0276 47.164 29.7182 47.7968 29.1032C48.0405 28.8646 48.2769 28.6186 48.5605 28.3315C48.7133 28.7416 48.8369 29.1143 48.9933 29.4759C49.0479 29.5989 49.1679 29.7741 49.2733 29.7816C49.7134 29.8189 50.1607 29.8375 50.6408 29.7592V29.2709C50.6408 28.5365 50.6408 27.7985 50.6408 27.0641C50.6408 24.5517 50.6408 22.0355 50.6408 19.5231C50.6408 19.3479 50.6153 19.1727 50.6008 19.0124H45.3202C45.2947 19.9182 45.2801 20.7979 45.3274 21.7187H47.2767C47.3277 21.8268 47.3495 21.8566 47.3495 21.8827C47.3495 22.9563 47.404 24.0298 47.3349 25.0997C47.2586 26.2403 46.7858 26.7734 45.8075 26.956C44.891 27.1275 43.8764 26.7249 43.72 25.4911C43.6909 25.2637 43.6763 25.0326 43.6763 24.8052C43.6763 20.9881 43.6727 17.1709 43.6763 13.3538C43.6763 13.0333 43.7054 12.7089 43.7636 12.3958C43.9018 11.6354 44.4473 11.08 45.4074 11.0762C46.2621 11.0725 46.8767 11.4527 47.044 12.3772C47.0804 12.571 47.1131 12.7686 47.1131 12.9662C47.1204 13.749 47.1131 14.528 47.1167 15.3108C47.1167 15.445 47.1313 15.5792 47.1422 15.7395H50.4262C50.4444 15.6277 50.4771 15.5382 50.4735 15.4488C50.4517 14.3752 50.5098 13.2942 50.3862 12.2355C50.1498 10.1741 49.0733 8.75764 47.0731 8.17986C46.0002 7.87046 44.9128 7.88537 43.84 8.16495C42.7853 8.44079 41.8907 8.99248 41.2179 9.8983L41.2251 9.89085Z" fill="black"/>
<path d="M56.6705 54.1903C56.0741 52.2183 55.4777 50.2427 54.8776 48.2707C54.223 46.1236 53.5684 43.9728 52.9101 41.8294C52.8483 41.6244 52.8556 41.4492 52.9392 41.2553C53.3865 40.219 53.8266 39.179 54.2666 38.1427C54.9322 36.5697 55.6013 35.0003 56.2632 33.4235C56.3178 33.2931 56.3469 33.1514 56.3941 32.9799H53.081C52.9865 33.1887 52.8846 33.39 52.7974 33.6025C51.7282 36.2454 50.6589 38.8883 49.5897 41.5312C49.5497 41.6318 49.4733 41.7175 49.4152 41.807L49.3206 41.7809V41.2926C49.3206 38.7168 49.3206 36.141 49.3206 33.5689C49.3206 33.3788 49.2915 33.1887 49.277 32.9986C49.1679 32.9837 49.1097 32.9688 49.0515 32.9688C48.0368 32.9688 47.0185 32.9688 45.9857 32.9688C45.8838 33.39 45.9057 54.1045 46.0002 54.4363H49.2915C49.3024 54.235 49.3242 54.0561 49.3242 53.8771C49.3242 51.9611 49.3242 50.0451 49.3279 48.1291C49.3279 47.9353 49.3388 47.7228 49.4152 47.5513C49.7388 46.7946 50.0843 46.0491 50.4298 45.2998C50.4698 45.2141 50.5353 45.1433 50.6226 45.0165C50.6917 45.2066 50.7462 45.3259 50.7826 45.4564C51.5718 48.3267 52.3573 51.197 53.1429 54.0672C53.2483 54.4475 53.2592 54.4586 53.6266 54.4624C54.5539 54.4661 55.4813 54.4661 56.4087 54.4624C56.5032 54.4624 56.6014 54.4288 56.7142 54.4065C56.696 54.3133 56.6887 54.2536 56.6742 54.1977L56.6705 54.1903Z" fill="black"/>
<path d="M13.371 29.7108C13.3601 28.723 13.3819 27.724 13.3565 26.6839C13.131 26.6839 12.971 26.6839 12.8073 26.6839C11.4326 26.6839 10.0579 26.6839 8.67955 26.6839C8.57409 26.6839 8.46862 26.6839 8.36679 26.6839C8.18859 26.6765 8.09403 26.587 8.09767 26.3932C8.09767 26.1956 8.09767 25.9943 8.09767 25.7968C8.09767 20.1121 8.10131 14.4237 8.10131 8.73905C8.10131 8.60858 8.07585 8.47811 8.0613 8.34019C7.96311 8.32528 7.90856 8.30664 7.85037 8.30664C6.82116 8.30664 5.78831 8.30664 4.73728 8.30664C4.63545 8.83969 4.65 29.4163 4.73728 29.7555C5.22097 29.845 13.011 29.8189 13.371 29.7145V29.7108Z" fill="black"/>
<path d="M26.0052 54.399C26.4743 54.4922 28.9728 54.4736 29.3183 54.3655V32.9949H25.9725C25.8852 33.7851 25.9215 54.0673 26.0052 54.3953V54.399Z" fill="black"/>
<path d="M28.2818 5.19028C28.1291 5.30211 27.9545 5.3282 27.7472 5.16418C27.8054 5.01508 27.8527 4.86224 27.929 4.72059C28.1109 4.3851 28.3036 4.05707 28.4891 3.72531C28.54 3.63212 28.5982 3.54266 28.6346 3.44201C28.7364 3.1438 28.6128 2.9686 28.2964 2.97605C28.2164 2.97605 28.1327 3.02824 28.1327 3.02824C28.0381 3.30409 27.9872 3.52402 27.889 3.71413C27.6781 4.12044 27.4381 4.50812 27.2162 4.90697C27.1108 5.09708 27.0344 5.29838 27.1762 5.51085C27.329 5.73824 27.5545 5.75315 27.7763 5.70096C27.9618 5.65623 28.14 5.56304 28.3145 5.48103C28.4346 5.42512 28.5437 5.34684 28.66 5.27601C28.8091 5.77924 28.9328 5.83143 29.4019 5.60032C29.3947 5.51458 29.3619 5.41393 29.3874 5.33565C29.6238 4.62367 29.9947 4.00488 30.6348 3.59857C30.7548 3.52029 30.9294 3.53147 31.0858 3.50165C31.1003 3.84459 31.1003 3.84087 30.9658 4.06453C30.7985 4.35156 30.6166 4.63486 30.4712 4.9368C30.373 5.14554 30.3257 5.38411 30.5184 5.57795C30.7003 5.76433 30.933 5.74942 31.1512 5.68233C31.3331 5.62641 31.5004 5.52576 31.6931 5.4363C31.8677 5.76433 32.115 5.79788 32.4059 5.64878C32.4459 4.94052 33.0896 3.89678 33.6715 3.58739C33.8243 3.50538 33.9879 3.4271 34.1261 3.57248C34.2643 3.71785 34.1189 3.85578 34.0498 3.98252C33.8752 4.3031 33.6715 4.60876 33.5151 4.9368C33.417 5.14182 33.3697 5.38411 33.5697 5.57795C33.7552 5.75688 33.9807 5.75688 34.1989 5.67487C34.4062 5.59659 34.5989 5.48103 34.8207 5.3692C35.0062 5.6786 35.2863 5.76806 35.6245 5.68605C36.0136 5.59286 36.4537 5.59659 36.7992 5.70842C37.2501 5.8538 37.6829 5.78297 38.1157 5.63014C38.2721 5.57422 38.4066 5.52204 38.5739 5.64505C38.7412 5.76806 38.9376 5.74197 39.0831 5.62268C39.1922 4.72805 39.6577 4.1018 40.3123 3.59857C40.4687 3.47929 40.6578 3.41964 40.9015 3.59857C40.8178 3.77004 40.7378 3.94151 40.6505 4.10926C40.4941 4.40374 40.3159 4.69077 40.1741 4.99271C39.9559 5.45494 40.385 5.79043 40.7814 5.68978C40.9378 5.6525 41.0906 5.5705 41.2251 5.48103C41.7415 5.14182 42.0907 4.64231 42.4034 4.12044C42.4398 4.0608 42.418 3.96761 42.4289 3.79614C42.2943 3.94151 42.2252 4.01607 42.1598 4.09062C41.9052 4.38883 41.6543 4.6945 41.3924 4.98898C41.3015 5.08963 41.1924 5.18282 41.0724 5.23501C40.996 5.26856 40.8651 5.24246 40.7923 5.194C40.7487 5.16418 40.7414 5.0188 40.7742 4.95171C40.8833 4.71686 41.0251 4.50066 41.1415 4.26955C41.2651 4.02725 41.4033 3.78495 41.4797 3.52402C41.5961 3.12889 41.3379 2.84558 40.9451 2.92759C40.7742 2.96114 40.6141 3.06179 40.4541 3.14007C40.3559 3.18853 40.2686 3.25563 40.0941 3.36373C40.2541 3.0357 40.3705 2.80831 40.6251 2.70393C41.5488 2.32744 42.1489 1.61546 42.5889 0.739463C42.2434 0.254869 42.0907 0.225048 41.6361 0.556808C41.5161 0.646272 41.3961 0.743191 41.3015 0.858748C40.9633 1.26879 40.636 1.68629 40.305 2.10005C40.2032 2.22679 40.1086 2.35726 40.0141 2.48028C39.9486 2.43927 39.9122 2.43182 39.9013 2.40572C39.8795 2.35354 39.8613 2.29762 39.8541 2.24171C39.825 1.99195 39.7195 1.92486 39.5231 2.04041C39.3267 2.15597 39.2722 2.35354 39.4104 2.54365C39.5049 2.67411 39.6395 2.77103 39.7668 2.9015C39.3849 3.6023 39.0067 4.29564 38.6321 4.98898C38.6103 5.02999 38.5957 5.07472 38.5666 5.10827C38.4393 5.2611 38.2939 5.38039 38.0684 5.32447C38.3302 4.70195 38.3302 4.5864 38.0939 4.13908C38.072 4.09807 38.0502 4.05707 38.0248 4.01979C37.8684 3.80359 37.872 3.61348 38.0684 3.41219C38.192 3.28545 38.2975 3.12516 38.3775 2.96487C38.4248 2.87168 38.4139 2.74494 38.4284 2.62565C37.9993 2.63311 37.6574 2.91268 37.5338 3.36C37.3119 4.16144 36.7373 4.66468 36.1409 5.153C35.9809 5.28347 35.7772 5.37293 35.5408 5.17164C35.5881 5.05235 35.6208 4.92189 35.6827 4.80633C35.8172 4.54912 35.9627 4.29937 36.1045 4.04589C36.2136 3.84459 36.3409 3.65448 36.4282 3.44201C36.5409 3.16989 36.4209 2.99096 36.1336 2.97978C36.0391 2.97978 35.9409 3.02451 35.8754 3.04315C35.8354 3.24444 35.8427 3.41964 35.7699 3.55757C35.4936 4.08316 35.2099 4.60504 34.7662 5.01135C34.6753 5.09336 34.5953 5.194 34.4934 5.24246C34.3989 5.28719 34.2534 5.31702 34.1698 5.27228C34.0097 5.194 34.0716 5.03371 34.137 4.9107C34.2861 4.6274 34.4643 4.35901 34.5989 4.07198C34.7007 3.85578 34.788 3.62094 34.8244 3.38609C34.8644 3.13634 34.7116 2.97232 34.4607 2.97232C34.2898 2.97232 34.1079 3.02078 33.9479 3.09161C33.7734 3.16989 33.6206 3.29663 33.4533 3.40473C33.3697 2.93878 33.3333 2.91641 32.8933 3.01333C32.8387 3.21089 32.8096 3.40846 32.7296 3.58366C32.4714 4.14281 32.1004 4.62367 31.6677 5.05235C31.5949 5.12691 31.5149 5.21264 31.4204 5.24246C31.3185 5.27601 31.1658 5.29838 31.0967 5.24246C31.0385 5.19773 31.0349 5.01508 31.0749 4.92561C31.1694 4.70195 31.3076 4.50066 31.4204 4.28446C31.5258 4.08316 31.6313 3.87814 31.7113 3.66567C31.7877 3.46437 31.8459 3.24817 31.6567 3.06924C31.4785 2.9015 31.2603 2.93505 31.0603 2.99842C30.9076 3.04688 30.773 3.15498 30.6312 3.24072C30.5475 3.2929 30.4675 3.34882 30.373 3.41219C30.3257 2.94996 30.3039 2.93505 29.8493 2.99842C29.6456 3.97879 29.0237 4.63113 28.2709 5.19028H28.2818ZM41.6724 1.51481C41.6979 1.54836 41.727 1.58564 41.7525 1.61919C41.4688 1.84285 41.1888 2.06651 40.9051 2.29017C40.8796 2.26034 40.8578 2.23052 40.836 2.2007C41.0542 1.89876 41.3633 1.70492 41.6724 1.51481ZM37.5883 3.9937C37.8247 4.29564 37.7993 4.70195 37.5374 5.05981C37.3047 5.37666 37.0465 5.4363 36.5773 5.24246C36.9301 4.80633 37.261 4.40001 37.5883 3.9937Z" fill="black"/>
<path d="M26.8671 57.0643C26.7544 57.0568 26.6416 57.0904 26.5325 57.1053C26.5253 57.5153 25.8743 58.8126 25.4124 59.3531C24.9469 59.025 24.5105 59.1928 24.0922 59.4686C23.5976 59.7929 23.2594 60.2552 23.0194 60.7957C22.8921 61.0864 22.6921 61.3064 22.4302 61.4667C22.3139 61.5375 22.1611 61.612 22.0738 61.4592C22.0265 61.3809 22.0375 61.2281 22.0811 61.1349C22.1793 60.915 22.3211 60.7099 22.4302 60.4937C22.5466 60.2626 22.6703 60.0315 22.7394 59.7855C22.8521 59.3903 22.6484 59.1406 22.2593 59.1891C22.0884 59.2114 21.9211 59.3009 21.7611 59.3792C21.6301 59.4425 21.5174 59.5395 21.3865 59.6252C21.2956 59.1592 21.2665 59.1406 20.8446 59.2338C20.7828 59.4351 20.75 59.6326 20.6664 59.8041C20.3864 60.3968 19.9499 60.8665 19.4372 61.2393C19.2153 61.3996 18.9316 61.4965 18.6589 61.5561C18.397 61.612 18.2188 61.4331 18.1934 61.1796C18.1606 60.8516 18.2843 60.6652 18.5752 60.6391C18.9607 60.6018 19.3099 60.4714 19.5972 60.2142C19.7499 60.08 19.8845 59.8936 19.9572 59.7072C20.0736 59.4164 19.9063 59.1667 19.6008 59.1779C19.3826 59.1853 19.1462 59.2301 18.9607 59.3344C18.3534 59.6774 17.9024 60.1806 17.6588 60.8553C17.6042 61.0082 17.5751 61.1833 17.5751 61.3474C17.5715 61.7127 17.7606 61.9065 18.1243 61.9326C18.5534 61.9624 18.9535 61.8581 19.3317 61.6493C19.4444 61.5897 19.5572 61.53 19.6808 61.4667C19.8154 62.0034 19.8881 62.0407 20.3645 61.8506C20.3864 61.7015 20.39 61.5449 20.4373 61.407C20.6446 60.7994 21.0192 60.3074 21.5029 59.901C21.6047 59.819 21.7356 59.7557 21.8593 59.7258C22.0702 59.6774 22.1757 59.8153 22.092 60.0203C22.0302 60.1732 21.932 60.3148 21.852 60.4602C21.732 60.6727 21.5901 60.874 21.4919 61.0939C21.3901 61.3138 21.2846 61.5561 21.4919 61.7798C21.6956 61.9997 21.9574 61.9624 22.2047 61.8916C22.332 61.8543 22.4448 61.7723 22.5612 61.7052C22.6521 61.6568 22.7357 61.5971 22.8412 61.5337C23.2703 62.2308 23.7831 61.9177 24.2668 61.6605C24.6232 61.9811 24.8087 62.0333 25.2233 61.8804C25.9288 61.6195 26.4198 61.0902 26.8162 60.4639C26.8598 60.3968 26.8562 60.2999 26.8744 60.2142C26.8416 60.1993 26.8126 60.1881 26.7798 60.1732C26.7325 60.2253 26.6889 60.2813 26.638 60.3334C26.3398 60.654 26.0561 60.9895 25.7433 61.2915C25.576 61.4517 25.3215 61.6679 25.1142 61.5039C24.8596 61.3026 25.1251 61.0566 25.2342 60.859C25.7943 59.8451 26.3725 58.8461 26.9398 57.8397C27.0089 57.7204 27.0817 57.6048 27.129 57.4743C27.2126 57.2432 27.1108 57.0829 26.8671 57.0643ZM19.7063 59.4686C19.8117 59.7333 19.6554 59.8712 19.5099 59.9905C19.248 60.203 18.9717 60.408 18.5934 60.3409C18.8153 59.7668 19.2371 59.4351 19.7063 59.4686ZM25.1651 59.8377C24.9287 60.2924 24.6705 60.736 24.3905 61.1647C24.2995 61.3026 24.1141 61.3996 23.954 61.4592C23.6813 61.5598 23.4922 61.3846 23.5285 60.9634C23.6158 60.7919 23.7249 60.5049 23.8922 60.2626C24.0631 60.0166 24.2741 59.8004 24.4959 59.5991C24.5978 59.5096 24.7614 59.4574 24.8996 59.4463C25.1324 59.4314 25.2742 59.6252 25.1651 59.8377Z" fill="black"/>
<path d="M14.3675 3.88194C14.6257 3.84839 14.8548 3.63964 14.9021 3.39362C14.9457 3.16623 14.8039 2.95748 14.582 2.9202C14.3638 2.88666 14.1893 3.05067 14.1893 3.30415C14.1893 3.37125 14.2147 3.44207 14.2293 3.51663C13.7747 3.44953 13.5346 3.14386 13.5492 2.663C13.5747 1.96965 14.3747 1.06011 15.0585 1.08247C15.5131 1.09738 15.9567 1.14212 16.3677 1.33968C16.8623 1.57825 17.3642 1.73854 17.9206 1.68635C17.9388 1.68635 17.9606 1.7199 18.0115 1.76463C17.9352 1.89137 17.8551 2.01811 17.7824 2.14485C17.2151 3.11777 16.6477 4.08696 16.084 5.0636C15.9858 5.23507 15.8767 5.46246 16.044 5.61157C16.1531 5.70848 16.3713 5.67494 16.5423 5.68612C16.575 5.68612 16.6077 5.63393 16.5605 5.67494C16.6259 5.373 16.615 5.12324 16.7277 4.9555C17.015 4.51191 17.3496 4.09814 17.6806 3.6881C17.7715 3.57627 17.917 3.49426 18.0552 3.4458C18.1352 3.41598 18.2625 3.4458 18.3316 3.50172C18.3716 3.53527 18.3716 3.67319 18.3388 3.74401C18.2479 3.95276 18.1279 4.1466 18.0261 4.35535C17.9133 4.58646 17.7824 4.81758 17.706 5.0636C17.5751 5.48855 17.8042 5.76067 18.2406 5.70103C18.397 5.67866 18.5534 5.60784 18.6989 5.53329C18.8407 5.45873 18.968 5.35063 19.0989 5.26117C19.5972 5.82777 19.9463 5.88368 20.59 5.50719C20.7318 5.42518 20.87 5.33199 21.0155 5.24998C21.2483 5.11579 21.4847 5.0636 21.7465 5.23135C21.8883 5.03005 21.8883 4.87349 21.7465 4.7393C21.6156 4.61628 21.4628 4.65356 21.3283 4.73184C21.161 4.82876 21.0046 4.95177 20.8409 5.05615C20.6882 5.14934 20.5355 5.25744 20.3718 5.31708C20.11 5.414 19.8663 5.26862 19.819 5.01887C19.7572 4.70575 19.9136 4.48582 20.19 4.41872C20.4773 4.35162 20.7791 4.2808 21.0264 4.12796C21.2446 3.99377 21.441 3.77011 21.5647 3.53899C21.732 3.23705 21.5283 2.93511 21.1901 2.95003C21.001 2.95748 20.8009 3.00221 20.6336 3.08795C20.0518 3.38616 19.6554 3.87075 19.3499 4.45227C19.2189 4.70202 19.0226 4.92195 18.8225 5.12324C18.7025 5.24626 18.5134 5.37672 18.3461 5.20525C18.2006 5.05615 18.3316 4.8884 18.4079 4.74302C18.5716 4.43363 18.7498 4.13169 18.9098 3.82229C19.0262 3.59491 19.0771 3.36007 18.8734 3.14386C18.688 2.9463 18.4734 2.96494 18.2552 3.06185C18.0224 3.16996 17.7897 3.28551 17.4842 3.43462C17.7242 2.99848 17.917 2.6369 18.1243 2.2865C18.4007 1.80936 18.728 1.38068 19.2117 1.08993C19.3862 0.985554 19.5426 0.81781 19.6554 0.646338C19.7245 0.538236 19.7608 0.336943 19.7099 0.232569C19.619 0.0573698 19.4371 0.161744 19.3171 0.236297C19.1789 0.322033 19.0553 0.43759 18.9389 0.556875C18.8116 0.687342 18.7098 0.836448 18.5898 0.978099C18.317 1.29868 17.9824 1.41796 17.5824 1.26513C17.2187 1.1272 16.8623 0.970644 16.5059 0.814082C16.0331 0.609062 15.5531 0.486049 15.0294 0.582968C13.9565 0.784261 13.1564 1.85782 13.2801 2.95748C13.3455 3.52408 13.8474 3.95649 14.3638 3.88939L14.3675 3.88194ZM20.9537 3.25569C21.0446 3.20723 21.2374 3.21842 21.3101 3.28551C21.4337 3.39734 21.3246 3.54272 21.2337 3.64337C20.961 3.94158 20.63 4.11678 20.1427 4.15778C20.3427 3.71792 20.6118 3.44207 20.9537 3.25569Z" fill="black"/>
<path d="M13.902 62.7005C13.8656 62.4321 13.782 62.3575 13.4583 62.3165C13.2546 62.8272 13.0328 62.939 12.4836 62.7936C11.6617 62.5737 11.0107 62.0183 10.2506 61.6194C10.3197 61.5262 10.3488 61.4703 10.3925 61.4331C10.8653 61.0417 11.2217 60.5496 11.5162 60.0128C11.6581 59.7519 11.8472 59.6065 12.1236 59.5282C12.7237 59.3605 13.2583 59.0511 13.7056 58.6075C14.0874 58.231 14.4038 57.8023 14.4438 57.2283C14.4766 56.7921 14.2511 56.5536 13.8292 56.5908C13.6547 56.6057 13.4583 56.6356 13.3164 56.7288C13.0037 56.9338 12.6982 57.1612 12.4291 57.4184C11.989 57.8433 11.6872 58.3727 11.4071 58.9206C11.2362 59.2524 11.1926 59.2673 10.8434 59.2039C10.7416 59.1853 10.6361 59.1741 10.5379 59.1405C10.0833 58.9914 9.79604 58.6112 9.8215 58.2012C9.85059 57.724 10.1925 57.3774 10.7452 57.2916C10.7161 57.3997 10.6871 57.4967 10.6689 57.5936C10.6398 57.7613 10.6907 57.8918 10.8398 57.9813C10.9962 58.0782 11.1307 58.0111 11.2508 57.9179C11.4581 57.7576 11.5017 57.5004 11.3708 57.2581C11.2398 57.0158 10.938 56.8779 10.6434 56.9263C10.0142 57.0307 9.54147 57.5339 9.49782 58.1564C9.44691 58.8237 9.78877 59.3195 10.447 59.5282C10.6252 59.5841 10.8107 59.6251 10.9925 59.6736C10.8653 60.1768 10.4543 60.818 10.0543 61.1833C9.88332 61.3399 9.72694 61.3883 9.48691 61.3287C9.13778 61.2429 8.76683 61.2392 8.45043 61.4666C8.35224 61.5374 8.21768 61.7014 8.24313 61.7797C8.2795 61.899 8.42134 62.0071 8.54499 62.0705C8.625 62.1152 8.75228 62.0966 8.85411 62.0779C9.05777 62.0407 9.26871 62.0034 9.46146 61.9326C9.67966 61.8506 9.87241 61.8692 10.0543 62.0034C10.3707 62.2345 10.6761 62.4805 10.9962 62.7042C11.3635 62.9651 11.7235 63.2521 12.1199 63.4534C12.5091 63.651 12.9382 63.7479 13.3783 63.5578C13.7492 63.3975 13.9602 63.0583 13.9092 62.693L13.902 62.7005ZM13.1855 57.2954C13.3164 57.1574 13.4837 57.0382 13.6583 56.9711C13.9383 56.8667 14.142 57.0531 14.0802 57.3513C14.0402 57.5377 13.9565 57.7315 13.8474 57.8843C13.4401 58.4509 12.9019 58.8461 12.2509 59.0697C12.2 59.0884 12.1381 59.0697 12.0108 59.0697C12.3491 58.3876 12.7127 57.7986 13.1892 57.2916L13.1855 57.2954Z" fill="black"/>
<path d="M31.1039 59.5581C31.184 59.4202 31.3622 59.3121 31.5149 59.2487C31.995 59.0549 32.4241 58.7827 32.7914 58.4174C33.1151 58.0968 33.3915 57.7315 33.5151 57.273C33.5806 57.0307 33.6206 56.781 33.3878 56.6021C33.1696 56.4343 32.9478 56.5238 32.766 56.6654C32.4859 56.8891 32.2023 57.1239 31.9731 57.3998C31.6349 57.8061 31.344 58.2571 31.0312 58.6858C30.9585 58.7865 30.8712 58.8797 30.7912 58.9728C30.7585 58.9617 30.7257 58.9505 30.693 58.9393C30.6748 58.7939 30.6603 58.6448 30.6421 58.4845C30.4457 58.4771 30.322 58.5628 30.2566 58.7343C30.1329 59.0623 30.3948 59.2263 30.5802 59.4425C30.413 59.7146 30.2602 59.9756 30.1002 60.2291C29.9402 60.4825 29.8274 60.7957 29.3947 60.8218C29.4674 60.6577 29.5183 60.5534 29.5619 60.4453C29.6492 60.2179 29.7656 59.9979 29.8092 59.7631C29.8783 59.3792 29.6965 59.1518 29.3256 59.1741C29.0819 59.189 28.8164 59.2487 28.6055 59.3717C28.0309 59.7035 27.6126 60.1992 27.3799 60.8404C27.3181 61.0081 27.2962 61.1982 27.2962 61.3772C27.2962 61.7276 27.4744 61.8953 27.8199 61.9214C28.2091 61.9475 28.5109 61.7686 28.7764 61.5002C28.9582 61.3138 29.1437 61.1349 29.4674 61.243C29.3983 61.3884 29.3365 61.5263 29.2746 61.6605C29.1074 62.0183 28.9328 62.3725 28.7837 62.7415C28.7109 62.9204 28.66 63.1217 28.6491 63.3156C28.6237 63.7405 28.8637 63.9567 29.2674 63.8561C29.4601 63.8076 29.6711 63.6995 29.802 63.5541C30.1547 63.1627 30.4821 62.7452 30.7948 62.3165C30.9257 62.1376 31.0312 62.0071 31.2785 61.9811C31.6422 61.9438 31.9622 61.7574 32.1877 61.448C32.3114 61.2803 32.3986 61.0976 32.3041 60.8553C31.8555 61.3349 31.5028 61.5872 31.2458 61.612C31.304 61.4145 31.3767 61.2318 31.4131 61.0454C31.4604 60.7919 31.4967 60.5347 31.504 60.2775C31.504 60.1955 31.424 60.0613 31.3476 60.0352C31.2749 60.0054 31.1403 60.0539 31.0712 60.1135C30.973 60.1992 30.9003 60.326 30.8348 60.4453C30.6603 60.7696 30.6748 61.1312 30.7221 61.4778C30.7475 61.6754 30.733 61.8394 30.6239 61.996C30.3548 62.3836 30.0929 62.7713 29.8092 63.1478C29.7111 63.2783 29.5729 63.3864 29.4347 63.4684C29.2565 63.5728 29.0892 63.4535 29.1255 63.2447C29.1546 63.0658 29.2201 62.8869 29.3074 62.7303C29.9002 61.6679 30.5002 60.6093 31.1149 59.5618L31.1039 59.5581ZM33.1878 56.7325C33.2206 56.9264 33.2751 57.0531 33.2496 57.1649C33.2096 57.3401 33.1296 57.5079 33.0387 57.6644C32.7514 58.1453 32.1404 58.6448 31.544 58.8424C31.9913 58.0968 32.2968 57.2358 33.1915 56.7325H33.1878ZM29.0855 60.4564C28.5982 60.5235 28.5291 60.6242 28.6928 61.0939C28.7037 61.12 28.7037 61.1535 28.7219 61.2318C28.5291 61.4368 28.3509 61.6642 28.0381 61.5263C27.8418 61.4405 27.8272 61.1759 27.9799 60.7808C28.1436 60.3483 28.3909 59.9718 28.7364 59.6699C28.8273 59.5916 28.9219 59.4984 29.031 59.4723C29.1655 59.4388 29.3583 59.4164 29.4456 59.491C29.5256 59.5581 29.5219 59.7631 29.5074 59.901C29.4928 60.0315 29.4347 60.1694 29.3583 60.2775C29.2965 60.3595 29.1837 60.4415 29.0855 60.4527V60.4564Z" fill="black"/>
<path d="M16.6477 62.0855C17.1278 61.1014 17.666 60.1657 18.2588 59.245C18.0091 59.1878 17.7485 59.2276 17.4769 59.3643C17.106 59.0586 16.735 59.1444 16.375 59.3307C15.9531 59.5469 15.6513 59.9011 15.3567 60.2776C15.0766 60.6317 14.7639 60.9634 14.4184 61.2505C14.222 61.4145 13.942 61.5002 13.6838 61.5599C13.4328 61.6195 13.2437 61.4369 13.2146 61.1871C13.1782 60.8777 13.3128 60.6652 13.5928 60.6391C13.9929 60.6019 14.3566 60.4677 14.6511 60.1918C14.7966 60.0539 14.9239 59.8601 14.9894 59.6699C15.0803 59.3978 14.913 59.1742 14.633 59.1742C14.4584 59.1742 14.2656 59.1965 14.1129 59.2748C13.3455 59.655 12.8364 60.2776 12.6073 61.1125C12.4727 61.6009 12.7346 61.9214 13.2255 61.9326C13.7201 61.9438 14.1602 61.7612 14.5711 61.4928C14.6802 61.4219 14.7857 61.3511 14.8439 61.3138C15.0257 61.5338 15.1494 61.8022 15.3458 61.8879C15.5603 61.9811 15.8476 61.9103 16.1022 61.9103C16.0513 62.1414 15.8658 62.1787 15.6658 62.2159C15.1603 62.3166 14.6948 62.5179 14.2947 62.8496C14.1602 62.9615 14.0365 63.1068 13.9456 63.2597C13.8256 63.461 13.7638 63.6921 13.9056 63.9083C14.0511 64.1282 14.2765 64.1469 14.5093 64.1133C14.9057 64.0574 15.2621 63.8934 15.5422 63.6026C15.804 63.3342 16.0258 63.0248 16.2695 62.7341C16.3386 62.6521 16.4186 62.5738 16.5495 62.4321C16.5968 62.6744 16.6259 62.831 16.655 62.9876C16.8878 63.0621 17.0623 62.9876 17.1387 62.7751C17.2842 62.365 16.9023 62.2793 16.6623 62.0817L16.6477 62.0855ZM14.6984 59.4985C14.7857 59.7072 14.662 59.8414 14.5239 59.9607C14.2511 60.1955 13.9602 60.3857 13.571 60.3521C13.8074 59.7445 14.2656 59.4016 14.6984 59.4985ZM14.4911 63.8486C14.3784 63.871 14.1965 63.8375 14.1384 63.7592C14.0802 63.6809 14.0947 63.4908 14.1493 63.3901C14.3857 62.9503 14.8075 62.7527 15.2367 62.5775C15.3785 62.5216 15.5422 62.5104 15.7094 62.4769C15.6003 63.0397 14.9566 63.7592 14.4875 63.8486H14.4911ZM16.5568 61.0566C16.4368 61.2318 16.2259 61.366 16.0331 61.4555C15.7785 61.571 15.5931 61.4145 15.5894 61.079C15.6112 61.0119 15.6403 60.8963 15.6803 60.7845C15.8404 60.3484 16.1204 59.9905 16.4513 59.6811C16.5568 59.5805 16.695 59.4873 16.8296 59.4575C16.9423 59.4314 17.1205 59.4649 17.186 59.5432C17.2514 59.6178 17.2551 59.8116 17.2042 59.9122C17.0078 60.3036 16.8041 60.6951 16.5568 61.0529V61.0566Z" fill="black"/>
<path d="M23.4413 6.07748C24.0486 6.12222 24.5723 5.90229 24.9687 5.45497C25.296 5.08593 25.5651 4.65725 25.8379 4.23603C25.9579 4.04964 26.0634 3.8819 26.2961 3.84462C26.518 3.80735 26.5907 3.86699 26.5616 4.10183C26.5543 4.15402 26.5325 4.20621 26.518 4.25839C26.8853 4.35158 27.1071 4.21739 27.1508 3.90054C27.1871 3.63588 26.9944 3.43085 26.6853 3.41222C26.5616 3.40476 26.438 3.41222 26.2379 3.41222C26.4489 3.01336 26.5907 2.67787 26.7944 2.37966C27.0053 2.07399 27.2708 1.80933 27.5654 1.46266C27.3581 1.50739 27.2126 1.51857 27.078 1.56703C26.6889 1.70868 26.358 1.95098 26.1252 2.29765C25.8997 2.63687 25.7033 2.99845 25.5142 3.36376C25.3178 3.73652 25.1906 3.79616 24.8051 3.63215C24.2232 3.38612 23.965 2.78597 24.1541 2.10754C24.4377 1.08244 25.4706 0.657484 26.2525 0.79168C26.7507 0.877416 27.2344 1.04143 27.7254 1.16072C28.0673 1.24273 28.4091 1.239 28.7364 1.10853C29.0783 0.974335 29.2165 0.750676 29.191 0.344362C28.4818 0.907237 27.7472 0.67985 27.0162 0.459919C26.8744 0.418915 26.7289 0.374183 26.5834 0.340634C25.3542 0.0722436 24.1832 0.784224 23.8268 2.0218C23.5904 2.84189 23.914 3.6396 24.6196 3.949C24.7796 4.01982 24.9542 4.06083 25.1178 4.11674C24.9396 5.18658 23.9322 5.99175 23.2231 5.60035C23.2994 5.5407 23.3649 5.48852 23.4304 5.43633C23.554 5.32823 23.6231 5.20522 23.5431 5.03374C23.4594 4.86227 23.3249 4.79145 23.1394 4.81381C22.8376 4.84736 22.6339 5.17167 22.7103 5.49597C22.7903 5.82773 23.063 6.05512 23.4267 6.08121L23.4413 6.07748Z" fill="black"/>
<path d="M46.6948 57.0755C46.4221 57.0308 46.1311 57.0345 45.8547 57.0755C45.1092 57.1836 44.4473 57.8248 44.32 58.5554C44.2909 58.7269 44.3055 58.9244 44.3564 59.0922C44.4255 59.3158 44.6291 59.4239 44.8473 59.4276C45.0546 59.4276 45.2328 59.3195 45.291 59.1033C45.3165 59.0027 45.2874 58.8387 45.2183 58.779C45.1528 58.7231 44.9965 58.7343 44.8946 58.7679C44.8146 58.7939 44.7601 58.902 44.6764 58.9915C44.6328 58.9132 44.6 58.8797 44.5928 58.8387C44.5782 58.7641 44.5673 58.6858 44.571 58.6113C44.6182 57.9291 45.6002 57.1351 46.2548 57.247C46.6621 57.3178 46.913 57.6682 46.8294 58.082C46.793 58.2572 46.7239 58.4361 46.633 58.5889C46.3566 59.0661 45.9566 59.3978 45.462 59.6215C45.2292 59.7259 44.9892 59.8116 44.7637 59.9272C44.1855 60.2216 43.6399 60.5683 43.2326 61.0976C43.0726 61.3064 42.9271 61.5338 42.9308 61.8469C43.0035 61.8171 43.0508 61.8096 43.0799 61.7835C43.629 61.2616 43.8945 61.2281 44.5455 61.5897C44.7273 61.6903 44.9128 61.7984 45.1092 61.8655C45.8511 62.119 46.6621 61.6754 46.7894 60.9523C46.8003 60.8852 46.753 60.8069 46.7239 60.6913C46.593 60.8702 46.513 61.0231 46.393 61.1349C45.9966 61.4965 45.6402 61.6009 45.0946 61.2579C44.7055 61.0119 44.3055 60.8181 43.7309 61.0454C43.9236 60.6615 44.1782 60.5236 44.4255 60.4006C44.7492 60.244 45.0874 60.1247 45.422 59.9905C45.9384 59.7818 46.4366 59.5395 46.8548 59.1593C47.1131 58.9207 47.3349 58.656 47.4295 58.3019C47.5931 57.6868 47.3022 57.1799 46.6912 57.0755H46.6948Z" fill="black"/>
<path d="M39.9559 57.9403C39.8941 57.4781 39.6177 57.1538 39.214 57.068C38.0357 56.8146 36.7446 57.9291 36.7992 59.1518C36.8173 59.5432 37.0355 59.819 37.3956 59.9085C38.0248 60.0613 38.803 59.5506 38.9303 58.8909C38.9339 58.8722 38.9049 58.8424 38.8685 58.7828C38.7848 58.8983 38.7267 59.0176 38.6357 59.1033C38.4248 59.2934 38.2248 59.5134 37.9775 59.6289C37.5738 59.819 37.3156 59.6103 37.3047 59.1518C37.2938 58.5106 37.9302 57.5228 38.5121 57.2768C39.1158 57.0233 39.6213 57.4184 39.534 58.0782C39.5304 58.1081 39.5231 58.1379 39.5158 58.1677C39.1522 59.6774 38.2866 60.7957 36.9883 61.5748C36.8501 61.6568 36.6828 61.7052 36.5228 61.7276C35.9991 61.7984 35.7008 61.4257 35.9009 60.9001C35.9554 60.9672 35.9954 61.0193 36.0427 61.0678C36.1627 61.1983 36.3009 61.2095 36.4464 61.1163C36.5882 61.0268 36.6864 60.8851 36.6137 60.736C36.5555 60.6168 36.4209 60.4937 36.2973 60.4676C36.1664 60.4416 36.0027 60.4975 35.8754 60.5646C35.6245 60.7025 35.5008 61.0231 35.5554 61.3138C35.6136 61.6381 35.85 61.8692 36.2064 61.914C36.6137 61.9662 37.0137 61.9065 37.3847 61.7239C38.483 61.1834 39.254 60.3185 39.7486 59.1891C39.9195 58.7939 40.0177 58.3764 39.9595 57.9366L39.9559 57.9403Z" fill="black"/>
<path d="M41.8688 58.7678C41.6252 58.8125 41.3815 58.8759 41.0615 58.9504C41.2869 58.5926 41.4833 58.3093 41.6506 58.0073C41.7816 57.765 41.9343 57.7427 42.1671 57.8508C42.8799 58.1825 43.7527 57.7911 44.1746 57.1723C44.2255 57.0978 44.2327 56.9934 44.2582 56.9039C43.88 57.094 43.589 57.3736 43.149 57.3699C42.7271 57.3699 42.3707 57.2096 42.0325 56.9971C41.9779 57.0419 41.9307 57.0642 41.9088 57.0978C41.4361 57.8433 40.9669 58.5851 40.505 59.3381C40.4614 59.4089 40.4759 59.5245 40.465 59.6177C40.5014 59.6326 40.5378 59.6512 40.5705 59.6661C40.676 59.5841 40.7814 59.5058 40.8869 59.4238C41.1524 59.2151 41.4397 59.0697 41.7816 59.0361C42.2071 58.9951 42.5198 59.2747 42.4798 59.7108C42.4616 59.9047 42.4034 60.106 42.3162 60.2775C42.0289 60.8515 41.6143 61.3137 41.0324 61.5747C40.7669 61.694 40.4578 61.7424 40.1668 61.7461C39.8286 61.7461 39.6686 61.5486 39.6031 61.1423C39.6977 61.1609 39.7777 61.1795 39.8577 61.1907C40.0213 61.2168 40.1705 61.1758 40.2214 61.0043C40.2541 60.9 40.2505 60.7583 40.2032 60.6651C40.1195 60.5048 39.9559 60.4527 39.7777 60.4937C39.4176 60.5757 39.2031 61.0379 39.3558 61.4144C39.4977 61.7611 39.7704 61.9288 40.1268 61.9474C40.756 61.9773 41.3379 61.8282 41.8725 61.4815C42.3925 61.1423 42.7926 60.6987 42.989 60.0911C43.2654 59.2374 42.7271 58.6112 41.8652 58.7715L41.8688 58.7678Z" fill="black"/>
<path d="M13.6874 6.04772C14.0074 5.93217 14.3493 5.81288 14.6039 5.59668C14.9275 5.31711 15.2039 4.95925 15.4403 4.59394C16.0149 3.71049 16.3241 2.65929 17.1133 1.87276C16.7387 1.80193 16.4914 1.98086 16.2622 2.17097C15.8804 2.48409 15.6367 2.89413 15.4331 3.34891C15.1785 3.91551 14.8912 4.47093 14.593 5.01889C14.4039 5.36556 14.0984 5.58922 13.7201 5.6936C13.5238 5.74951 13.3128 5.79052 13.0982 5.60041C13.2001 5.55567 13.2764 5.52958 13.3419 5.48485C13.4874 5.3842 13.5892 5.24255 13.5056 5.0599C13.4256 4.88097 13.2583 4.85488 13.0837 4.8847C12.8691 4.92197 12.7418 5.07108 12.6727 5.26492C12.6036 5.46621 12.6946 5.73087 12.88 5.87625C13.1201 6.06264 13.4001 6.14464 13.6838 6.04772H13.6874Z" fill="black"/>
<path d="M36.6064 57.3029C36.6319 57.2283 36.581 57.124 36.5446 56.9264C35.8281 57.8769 35.028 58.5256 33.9116 58.7082C34.1188 58.9505 34.3152 58.9207 34.4862 58.8238C34.9299 58.574 35.359 58.3019 35.7918 58.0372C35.8536 58 35.9154 57.9664 35.9809 57.9329C35.7954 58.2721 35.5627 58.5479 35.3153 58.8126C34.6971 59.4761 34.0716 60.1359 33.5879 60.9187C33.4679 61.1088 33.3588 61.3176 33.3006 61.5338C33.1696 61.996 33.3879 62.2159 33.8425 62.1078C33.9261 62.0892 33.9988 62.0295 34.1225 61.9662C33.9697 61.668 34.0352 61.4182 34.1661 61.1871C34.4098 60.7659 34.6535 60.3446 34.9226 59.9421C35.3917 59.2338 35.8863 58.5405 36.3591 57.8359C36.4682 57.6756 36.5446 57.4893 36.61 57.3029H36.6064Z" fill="black"/>
<path d="M37.2065 1.99205C37.2137 1.83176 37.1374 1.72366 36.9774 1.71248C36.7701 1.7013 36.4973 1.9846 36.53 2.19707C36.5446 2.29026 36.6428 2.37227 36.6755 2.417C36.9664 2.42073 37.1992 2.20826 37.2065 1.99205Z" fill="black"/>
<path d="M28.7364 2.18589C28.7546 2.28654 28.8746 2.36855 28.9146 2.42073C29.2019 2.4021 29.431 2.1598 29.4274 1.96223C29.4238 1.79449 29.3256 1.71248 29.1655 1.72366C28.9728 1.73857 28.7037 2.00697 28.7364 2.18589Z" fill="black"/>
</g>
<defs>
<clipPath id="clip0_1087_561">
<rect width="56.4211" height="64" fill="white" transform="translate(0.28949 0.128174)"/>
</clipPath>
</defs>
</svg>
