<svg width="81" height="35" viewBox="0 0 81 35" fill="none" xmlns="http://www.w3.org/2000/svg">
<g clip-path="url(#clip0_1086_228)">
<path fill-rule="evenodd" clip-rule="evenodd" d="M24.7939 6.35757H24.7942H24.7943H24.7944H24.7945C25.4182 6.35697 26.0424 6.35637 26.6654 6.35816C27.0248 6.35816 27.1074 6.44428 27.1074 6.80759C27.1074 7.18301 27.1095 7.55843 27.1117 7.93385C27.1167 8.80982 27.1217 9.68578 27.0994 10.5617C27.0701 11.6355 26.7107 12.5882 25.8934 13.3229C25.3369 13.8207 24.698 14.1248 23.9472 14.176C22.3898 14.2836 20.8324 14.3186 19.2749 14.2567C18.6173 14.2325 17.9598 14.1625 17.3102 14.0656C16.6286 13.9634 16.0615 13.6054 15.5823 13.1103C15.2043 12.72 14.9833 12.2383 14.8289 11.727C14.4269 10.4137 14.2166 9.06546 14.182 7.68759C14.158 6.72416 14.158 5.76073 14.3364 4.80806C14.6106 3.35215 15.3347 2.18419 16.5434 1.33648C17.02 1.00277 17.5604 0.833232 18.1408 0.774026C19.0912 0.677145 20.0443 0.682527 20.9974 0.714821C21.8786 0.744424 22.7599 0.779409 23.6384 0.841305C23.9153 0.860143 24.1975 0.951642 24.4611 1.05391C25.313 1.37954 25.9493 1.96352 26.3886 2.76279C26.732 3.38444 26.9317 4.05454 26.945 4.77039C26.953 5.10678 26.8784 5.1929 26.5456 5.19828C25.9719 5.21039 25.3975 5.21981 24.8232 5.22923H24.8232H24.8231H24.8231C24.2487 5.23865 23.6744 5.24806 23.1006 5.26017C22.8504 5.26556 22.6773 5.17137 22.5522 4.95338C22.2301 4.4017 21.7429 4.11374 21.1172 4.04647C20.6274 3.99533 20.1588 4.04647 19.7115 4.25907C19.0806 4.56048 18.6972 5.08256 18.5109 5.73651C18.1541 6.99866 18.1648 8.27157 18.5854 9.51219C18.9102 10.4702 19.6503 10.9412 20.6354 11.0246C21.3941 11.0892 22.1023 10.9062 22.7732 10.551C22.8717 10.4972 22.9702 10.4218 23.0394 10.333C23.2684 10.037 23.1273 9.66021 22.7652 9.58486C22.6533 9.56178 22.5376 9.56245 22.4229 9.56311L22.3658 9.56333C21.9558 9.56333 21.5459 9.56602 21.1359 9.56871C21.056 9.56871 20.9735 9.56871 20.8963 9.55525C20.7285 9.52565 20.6673 9.46106 20.6433 9.28883C20.6354 9.22693 20.6327 9.16234 20.6327 9.10045V6.83181C20.6327 6.75915 20.6327 6.68648 20.6433 6.61652C20.6673 6.44966 20.7312 6.37969 20.9016 6.35816C20.9761 6.3477 21.0522 6.34863 21.1287 6.34956C21.1506 6.34982 21.1725 6.35009 21.1944 6.35009H23.8674V6.35278L23.8594 6.35816C24.1705 6.35816 24.4819 6.35787 24.7934 6.35757H24.7937H24.7939ZM28.3586 7.60414V7.60145H28.3613V11.1134C28.364 12.0069 28.3693 12.8976 28.3773 13.7884C28.3826 14.1113 28.4598 14.184 28.7766 14.1975C28.8404 14.201 28.9053 14.1999 28.9707 14.1987H28.9707H28.9707H28.9708H28.9708H28.9708H28.9708C29.0036 14.1981 29.0366 14.1975 29.0695 14.1975C29.5592 14.1921 30.049 14.1921 30.5388 14.1921H30.5391C30.6802 14.1921 30.8239 14.1975 30.965 14.219C31.2845 14.2647 31.4096 14.4531 31.3351 14.7707C31.3218 14.8245 31.3035 14.8767 31.2853 14.9287L31.2853 14.9287L31.2853 14.9287L31.2853 14.9287C31.2708 14.9702 31.2564 15.0114 31.2446 15.0532C31.2237 15.1234 31.2017 15.1933 31.1798 15.2632L31.1797 15.2634L31.1797 15.2634C31.1234 15.4429 31.0672 15.6221 31.0289 15.8041C30.6961 17.373 30.9916 18.8074 31.9607 20.0857C32.3015 20.5351 32.7354 20.8796 33.1987 21.1891C33.2617 21.2319 33.3271 21.2723 33.3927 21.3127C33.4796 21.3662 33.5667 21.4199 33.6486 21.4797C33.9947 21.7354 33.9761 22.0449 33.6033 22.2682C33.5343 22.3091 33.4611 22.3436 33.3892 22.3773L33.3637 22.3893C32.8339 22.6369 32.3494 22.9491 31.9048 23.3312C31.0582 24.0578 30.5497 24.9863 30.3048 26.0708C30.137 26.8216 30.1211 27.5859 30.1903 28.3529C30.3154 29.7442 30.8399 30.9633 31.7397 32.0156C32.7967 33.2508 34.1917 33.8967 35.7278 34.2734C36.412 34.4403 37.1122 34.5076 37.8151 34.5668C38.9678 34.6637 40.1233 34.7552 41.2814 34.6475C41.4055 34.6356 41.5297 34.6225 41.6539 34.6094L41.6545 34.6094C41.8658 34.5871 42.0776 34.5649 42.2904 34.5479C43.3154 34.4672 44.319 34.2815 45.2934 33.9424C46.1241 33.6545 46.9254 33.2858 47.583 32.691C49.2256 31.2028 50.0616 29.3459 49.8992 27.0988C49.7794 25.4438 49.0552 24.0847 47.7454 23.0675C47.451 22.8376 47.1324 22.6397 46.8144 22.4423C46.7528 22.4041 46.6913 22.3659 46.6299 22.3274C46.1667 22.0341 46.1427 21.7408 46.5713 21.4071C46.6255 21.3649 46.6799 21.323 46.7343 21.2812L46.7344 21.2811L46.7345 21.281L46.7346 21.281C46.8433 21.1973 46.9521 21.1137 47.0585 21.0276C48.2299 20.0776 48.9754 18.8881 49.0925 17.3434C49.1804 16.1647 48.9195 15.0694 48.2779 14.079C47.8572 13.4305 47.2768 12.938 46.6539 12.494C46.2359 12.1979 45.7753 11.9826 45.3147 11.7673C44.9899 11.614 44.8355 11.3583 44.8382 10.995C44.8422 10.707 44.8422 10.4191 44.8422 10.1311C44.8422 9.84317 44.8422 9.55522 44.8462 9.26727C44.8462 9.15424 44.8675 9.03314 44.9074 8.92549C44.9873 8.71558 45.1816 8.65369 45.3627 8.78555C45.4638 8.85552 45.549 8.9551 45.6182 9.05736C46.3956 10.2092 47.1703 11.3637 47.9451 12.5182C48.2432 12.9649 48.5414 13.4143 48.8316 13.8664C48.9647 14.0737 49.1404 14.184 49.3854 14.184C49.4196 14.184 49.4546 14.1853 49.4898 14.1867L49.4899 14.1867C49.5258 14.188 49.5621 14.1894 49.5983 14.1894C50.6047 14.1921 51.611 14.1948 52.6174 14.1948C52.6893 14.1948 52.7585 14.1948 52.8304 14.1867C53.0673 14.1625 53.1392 14.0925 53.1605 13.8476C53.1669 13.7702 53.1664 13.691 53.166 13.6115V13.6115V13.6114V13.6113L53.1658 13.5516C53.1685 10.1123 53.1685 6.673 53.1685 3.23371L53.1686 2.93252C53.169 2.4301 53.1694 1.92768 53.1605 1.42526C53.1552 1.11846 53.0726 1.03504 52.7744 1.03504C51.6243 1.02966 50.4769 1.02966 49.3268 1.03504C49.0419 1.03504 48.97 1.12116 48.9567 1.4118V1.62709V5.00449V5.00482C48.9567 5.31149 48.9567 5.61549 48.9461 5.92217C48.9434 6.05403 48.9274 6.19397 48.8902 6.32046C48.8263 6.53844 48.6319 6.6111 48.4482 6.48462C48.3417 6.41196 48.2486 6.30431 48.174 6.19667C47.8707 5.75177 47.5705 5.30481 47.2701 4.8577L47.2701 4.85764L47.27 4.85758L47.2699 4.85742C47.0853 4.58251 46.9006 4.30755 46.7151 4.03298C46.5601 3.80397 46.4047 3.57533 46.2493 3.34672C45.815 2.70762 45.3808 2.06874 44.9553 1.42256C44.769 1.1373 44.5373 1.01889 44.1992 1.02427C43.4841 1.03359 42.769 1.0313 42.0538 1.029C41.736 1.02798 41.4182 1.02697 41.1003 1.02697C41.0471 1.02697 40.9938 1.02697 40.9406 1.03235C40.7463 1.05388 40.6717 1.12116 40.6477 1.31761C40.6363 1.42367 40.6367 1.5317 40.637 1.64002V1.64004V1.64007V1.64009L40.6371 1.69437V10.0935C40.6371 10.7097 40.472 10.8631 39.8677 10.8389C39.7386 10.8335 39.6095 10.8275 39.4803 10.8214L39.4803 10.8214C39.0929 10.8032 38.7056 10.7851 38.3182 10.7851C37.2024 10.781 36.088 10.7815 34.9728 10.7821H34.9726H34.9723H34.9721C34.6002 10.7822 34.2283 10.7824 33.8563 10.7824L33.8004 10.7824C33.6326 10.7827 33.4649 10.7829 33.2972 10.7635C33.0283 10.7313 32.8473 10.5859 32.826 10.3276C32.7967 9.98042 32.7993 9.62788 32.826 9.28072C32.8419 9.04121 33.0123 8.90127 33.2519 8.86629C33.385 8.84745 33.5181 8.83938 33.6513 8.83938H38.1133C38.1399 8.83938 38.1665 8.83954 38.1931 8.83971C38.273 8.84022 38.3529 8.84072 38.4327 8.83669C38.699 8.82054 38.7735 8.74519 38.7975 8.47338C38.8028 8.43032 38.8028 8.38457 38.8028 8.33882C38.8028 8.11425 38.8031 7.88939 38.8034 7.66443V7.66413V7.66383L38.8034 7.65487C38.804 7.19827 38.8046 6.74128 38.8028 6.28547C38.8001 5.80107 38.7389 5.74186 38.2623 5.74186H33.7205C33.5874 5.74186 33.4516 5.74186 33.3211 5.72302C32.9963 5.67727 32.8419 5.52657 32.8073 5.20094C32.7887 5.03409 32.7967 4.85916 32.8233 4.69231C32.8632 4.44742 33.0097 4.31555 33.2546 4.28326C33.3957 4.26442 33.5394 4.26442 33.6805 4.26442H38.6244C38.7495 4.26442 38.8747 4.26442 38.9971 4.24827C39.1675 4.22405 39.2261 4.15946 39.2474 3.98454C39.258 3.91457 39.258 3.84191 39.258 3.76925C39.2634 3.04047 39.2634 2.31169 39.2634 1.58291V1.58134C39.2634 1.4737 39.2554 1.36605 39.2421 1.2584C39.2261 1.1373 39.1515 1.06195 39.0317 1.0458C38.9439 1.03235 38.8534 1.02697 38.7655 1.02697H37.2161L37.2081 1.02696C34.4207 1.02427 31.6359 1.02158 28.8512 1.02158C28.7713 1.02158 28.6914 1.02697 28.6116 1.03504C28.4784 1.04849 28.3959 1.12385 28.3826 1.2584C28.3666 1.40104 28.3586 1.54636 28.3586 1.68899V7.60145H28.3533L28.3586 7.60414ZM43.0729 27.1183L43.0729 27.1178L43.0729 27.1176C43.0608 26.9006 43.0484 26.6775 43.0252 26.4557C42.9719 25.9416 42.8468 25.4519 42.5779 24.9997C41.8724 23.8076 40.2191 23.4765 39.1861 23.7564C38.3475 23.9825 37.7166 24.4669 37.3332 25.2581C37.1415 25.6564 36.9951 26.0762 36.9765 26.5202C36.9729 26.6217 36.9689 26.7232 36.965 26.8248C36.945 27.3348 36.925 27.8457 36.9605 28.3529C37.0457 29.5559 37.8417 30.4735 39.0025 30.7615C40.0008 31.0091 40.9592 30.8315 41.8378 30.3309C42.6551 29.8626 43.0837 29.1199 43.0891 28.1538V27.4325H43.0917C43.0847 27.3298 43.0789 27.2248 43.0729 27.1183ZM42.7722 17.2681H42.7589C42.7536 17.2023 42.7497 17.1363 42.7459 17.0701C42.7382 16.9386 42.7305 16.8067 42.711 16.676C42.5646 15.7529 42.1093 15.0694 41.2095 14.7465C40.5279 14.5016 39.8278 14.4989 39.1276 14.6415C38.0307 14.8622 37.4077 15.5161 37.2507 16.641C37.1948 17.0555 37.1894 17.4887 37.2374 17.9032C37.3518 18.8881 37.9216 19.5313 38.8454 19.8193C39.7239 20.0938 40.6105 20.0426 41.4544 19.6605C42.1227 19.3591 42.5326 18.8155 42.695 18.0996C42.7369 17.9155 42.7464 17.7239 42.7559 17.5325C42.7603 17.444 42.7647 17.3556 42.7722 17.2681ZM60.0785 14.2003L60.079 14.2003L60.079 14.2003C60.3029 14.2079 60.5268 14.2154 60.7506 14.2244L60.748 14.2218V14.1814H62.0312C62.6382 14.1841 63.2372 14.1195 63.8389 14.0334C64.784 13.8988 65.5161 13.4198 66.0752 12.6528C66.9165 11.4983 67.212 10.1904 67.1428 8.78024C67.1295 8.52189 67.0549 8.45462 66.7967 8.43578C66.7355 8.43309 66.6716 8.43309 66.6103 8.43309C66.2749 8.44026 65.9394 8.44714 65.604 8.45402L65.6038 8.45402L65.6037 8.45402C64.9329 8.46778 64.2621 8.48153 63.5913 8.49767C63.2665 8.50575 63.2 8.56764 63.1068 8.88789C63.0881 8.95053 63.0701 9.01365 63.0522 9.07681L63.0521 9.07694L63.0521 9.07703C62.996 9.27432 62.9398 9.47211 62.8592 9.65756C62.6036 10.2523 62.2096 10.7098 61.5547 10.874C61.2379 10.952 60.9184 10.9735 60.5989 10.9278C59.9174 10.8336 59.4009 10.4864 59.124 9.83249C59.0282 9.60374 58.9483 9.35884 58.9057 9.11395C58.7699 8.34697 58.7593 7.57192 58.8311 6.79956C58.8631 6.47931 58.9217 6.15637 59.0148 5.84958C59.1799 5.31673 59.494 4.88077 59.9839 4.60627C61.1207 3.96578 62.4678 4.46095 62.9417 5.68273C63.0828 6.04604 63.1307 6.08371 63.5114 6.07295C64.2223 6.05142 64.9358 6.0272 65.6466 5.99759C66.022 5.98145 66.3947 5.96261 66.7674 5.92762C67.0203 5.9061 67.1029 5.80114 67.0629 5.55086C66.9245 4.6574 66.7088 3.78816 66.2509 2.99696C65.7611 2.15463 65.0769 1.5572 64.1451 1.27193C63.5567 1.09163 62.947 1.00551 62.3347 0.948995C61.5795 0.881569 60.8242 0.917859 60.069 0.954149L60.0689 0.954153C59.8897 0.962763 59.7105 0.971373 59.5313 0.978598C59.116 0.994744 58.6954 1.04049 58.2854 1.11046C57.1646 1.30423 56.2434 1.84246 55.6124 2.81934C55.1572 3.52443 54.8191 4.2914 54.638 5.1149C54.2973 6.65693 54.3186 8.20703 54.6141 9.75175C54.7898 10.6748 55.1013 11.5548 55.5592 12.3783C55.8707 12.9435 56.302 13.3821 56.8717 13.6835C57.3349 13.9284 57.8328 14.0764 58.3493 14.1168C58.9246 14.1614 59.5013 14.1808 60.0785 14.2003ZM7.10014 1.03242H8.91581C9.33379 1.03242 9.41632 1.09162 9.56275 1.48991C9.70049 1.86354 9.83749 2.23717 9.97444 2.61066L9.97466 2.61123L9.97469 2.61133C10.2056 3.24104 10.4364 3.87036 10.6703 4.49862C10.9298 5.19691 11.1907 5.89521 11.4516 6.59351C11.7125 7.29192 11.9734 7.99033 12.233 8.68874C12.5474 9.53605 12.8608 10.3843 13.1744 11.2329L13.1757 11.2365C13.4035 11.8529 13.6314 12.4695 13.8597 13.0861C13.8941 13.1794 13.9299 13.2721 13.9657 13.3646L13.9657 13.3647C14.027 13.5229 14.0881 13.681 14.1419 13.8423C14.2191 14.0737 14.1579 14.1652 13.9209 14.1814C13.7871 14.1915 13.6533 14.1925 13.5195 14.1935C13.475 14.1938 13.4304 14.1942 13.3858 14.1948H10.2603H10.1005C9.6932 14.1841 9.63729 14.141 9.51483 13.7481C9.40301 13.3875 9.29119 13.0269 9.17139 12.669C9.0436 12.2814 8.84659 12.128 8.43926 12.1253C7.5048 12.1173 6.57034 12.1173 5.63322 12.1253C5.18063 12.1307 4.99161 12.2895 4.86116 12.7255L4.82444 12.8499L4.82443 12.8499C4.73012 13.1695 4.63532 13.4908 4.53636 13.81C4.44318 14.1168 4.35532 14.1895 4.03851 14.1921C2.80853 14.1975 1.58122 14.1975 0.351245 14.1921C-0.0267989 14.1921 -0.0747201 14.1087 0.0557319 13.7508C0.371022 12.9009 0.686977 12.051 1.00293 11.2011L1.00344 11.1998L1.00361 11.1993C1.31972 10.349 1.63583 9.49868 1.95128 8.64837C2.21617 7.93254 2.4804 7.21603 2.74463 6.49952C3.00886 5.78299 3.2731 5.06646 3.538 4.3506C3.81148 3.60991 4.08823 2.87252 4.36568 2.13326L4.36579 2.13298L4.59493 1.52221C4.60424 1.49664 4.61489 1.47175 4.62554 1.44685C4.63619 1.42196 4.64684 1.39707 4.65616 1.3715C4.74401 1.1293 4.90908 1.02165 5.16732 1.02434C5.59526 1.02973 6.02319 1.02793 6.45034 1.02613L6.45036 1.02613C6.66363 1.02524 6.87671 1.02434 7.08949 1.02434L7.10014 1.03242ZM7.03624 8.84213V8.8233C7.0743 8.8233 7.11265 8.82449 7.15109 8.82568H7.15111H7.15114C7.22833 8.82807 7.30593 8.83048 7.38234 8.8233C7.73908 8.78293 7.92012 8.55687 7.83226 8.20971C7.71848 7.76678 7.57828 7.33274 7.43769 6.89749L7.39565 6.76726C7.33974 6.59502 7.24124 6.42548 7.02559 6.42817C6.8206 6.43086 6.74339 6.60041 6.68748 6.76457C6.54106 7.20861 6.40528 7.65534 6.27217 8.10207C6.2482 8.17742 6.2482 8.26354 6.2482 8.34158C6.2482 8.59455 6.36535 8.75064 6.61028 8.80177C6.70257 8.8215 6.79723 8.82689 6.89189 8.83227C6.93922 8.83496 6.98655 8.83765 7.03358 8.84213H7.03624ZM71.6486 10.7504C71.6493 10.9611 71.6501 11.1718 71.6501 11.3825L71.6527 11.3852C71.6527 11.6489 71.6521 11.9128 71.6515 12.1768C71.6504 12.7052 71.6492 13.2339 71.6527 13.7615C71.6554 14.114 71.7326 14.1975 72.0787 14.1975C73.2714 14.2002 74.4668 14.2029 75.6595 14.2002C76.0055 14.2002 76.0721 14.1275 76.0934 13.7965C76.0961 13.7616 76.0961 13.724 76.0961 13.6891V13.6888C76.0934 13.1994 76.0913 12.7096 76.0892 12.2197C76.0851 11.2417 76.081 10.2633 76.0721 9.28612C76.0694 8.94165 76.1413 8.62948 76.3357 8.34422C76.6232 7.92171 76.9027 7.49381 77.1823 7.06592C77.3931 6.74513 77.6031 6.42349 77.8131 6.10184C78.1281 5.61937 78.4431 5.1369 78.761 4.65734C79.1782 4.02731 79.5984 3.39935 80.0185 2.77153C80.2767 2.38566 80.5349 1.99985 80.7923 1.61365C80.8616 1.51138 80.9254 1.40105 80.9734 1.28533C81.0293 1.15077 80.984 1.08618 80.8403 1.05658C80.7977 1.04581 80.7524 1.04581 80.7071 1.04581C80.0163 1.04447 79.3261 1.0438 78.6359 1.04312C77.9457 1.04245 77.2555 1.04178 76.5646 1.04043C76.3357 1.04043 76.1759 1.13731 76.0615 1.33377C75.907 1.5975 75.75 1.85854 75.5929 2.11958C75.4617 2.33844 75.3315 2.5578 75.2013 2.77712C74.9008 3.28325 74.6004 3.78922 74.2884 4.28865C74.0168 4.72462 73.7 4.70847 73.4311 4.26712C73.3087 4.06798 73.1909 3.86644 73.0732 3.6649C73.0143 3.56413 72.9555 3.46337 72.896 3.3629C72.7463 3.10866 72.5959 2.85483 72.4454 2.60093C72.2024 2.19099 71.9593 1.7809 71.7193 1.36875C71.5835 1.13731 71.3998 1.03505 71.1282 1.03505C69.8024 1.04312 68.4766 1.04312 67.1481 1.04312C67.0869 1.04312 67.023 1.04581 66.9618 1.0512C66.7355 1.07542 66.6902 1.15077 66.7861 1.34992C66.8207 1.42258 66.8633 1.48985 66.9085 1.55713C67.3079 2.15861 67.7079 2.76008 68.1079 3.36155C68.5079 3.96302 68.9079 4.56449 69.3072 5.16597C69.5234 5.49163 69.7394 5.81784 69.9554 6.14416C70.4176 6.84254 70.8802 7.54143 71.3465 8.23657C71.5595 8.55413 71.658 8.89052 71.6527 9.27535C71.6453 9.76703 71.6469 10.2587 71.6486 10.7504Z" fill="black"/>
</g>
<defs>
<clipPath id="clip0_1086_228">
<rect width="81" height="34" fill="white" transform="translate(0 0.695984)"/>
</clipPath>
</defs>
</svg>
