<svg width="159" height="29" viewBox="0 0 159 29" fill="none" xmlns="http://www.w3.org/2000/svg">
<g clip-path="url(#clip0_1086_472)">
<path d="M155.242 2.47025C155.127 2.37129 154.957 2.37679 154.852 2.49224C154.753 2.6077 154.764 2.77813 154.874 2.88258C155.517 3.44885 155.885 4.26801 155.885 5.12566C155.885 5.2796 156.006 5.40055 156.16 5.40055C156.314 5.40055 156.434 5.2796 156.434 5.12566C156.434 4.11408 156 3.14647 155.242 2.47025Z" fill="black"/>
<path d="M155.781 1.19474C155.66 1.10677 155.484 1.12876 155.396 1.25521C155.308 1.37616 155.33 1.55209 155.457 1.64005C156.561 2.45372 157.22 3.75669 157.22 5.12562C157.22 5.27956 157.341 5.40051 157.495 5.40051C157.649 5.40051 157.769 5.27956 157.769 5.12562C157.769 3.58076 157.028 2.11286 155.786 1.20023L155.781 1.19474Z" fill="black"/>
<path d="M156.478 0.183144C156.358 0.0951802 156.182 0.122669 156.094 0.243619C156.006 0.36457 156.033 0.540497 156.154 0.628461C157.588 1.67303 158.445 3.35534 158.445 5.12561C158.445 5.27955 158.566 5.4005 158.72 5.4005C158.874 5.4005 158.995 5.27955 158.995 5.12561C158.995 3.17941 158.055 1.32667 156.478 0.183144Z" fill="black"/>
<path d="M77.8299 13.9715C76.396 14.1584 75.1435 14.8072 74.0722 15.7858C73.9348 15.9067 73.7975 16.0332 73.6492 16.1321C73.303 16.363 73.0394 16.2531 72.9734 15.8408C72.9295 15.5659 72.924 15.28 72.924 14.9941C72.924 12.2067 72.924 9.41939 72.924 6.63204C72.924 6.41763 72.9185 6.20322 72.88 5.9943C72.8251 5.68093 72.6053 5.516 72.2977 5.5215C72.0065 5.52699 71.8087 5.69742 71.7593 6.01629C71.7318 6.20322 71.7318 6.39564 71.7318 6.58806C71.7318 9.90869 71.7318 13.2348 71.7318 16.5555C71.7318 19.8761 71.7318 23.2462 71.7318 26.5943C71.7318 26.7923 71.7373 26.9957 71.7813 27.1881C71.8472 27.507 72.1219 27.6664 72.435 27.6114C72.7262 27.5564 72.88 27.364 72.913 26.9957C72.9405 26.7153 72.935 26.4294 72.9899 26.1545C73.0613 25.7807 73.314 25.6762 73.6272 25.8906C73.8414 26.0336 74.0282 26.215 74.226 26.3854C75.1544 27.2101 76.2422 27.7544 77.4453 27.9963C78.3903 28.1832 79.3681 28.1612 80.3186 27.9963C81.4228 27.8038 82.4062 27.2926 83.3017 26.6108C85.4223 24.9945 86.6803 21.9378 85.7793 19.0294C84.7905 15.8463 81.8074 13.4602 77.8464 13.9715H77.8299ZM78.9012 27.0012C74.9731 27.0012 72.7976 23.774 72.9185 21.0196C72.8141 17.6715 75.6763 14.9611 79.0001 15.0161C81.9832 15.0656 84.8949 17.4516 84.8784 21.0526C84.8674 24.2578 82.4062 27.0067 78.8957 27.0012H78.9012Z" fill="black"/>
<path d="M119.049 6.0437C118.995 5.7908 118.786 5.66435 118.539 5.66985C118.302 5.67535 118.127 5.81279 118.077 6.06569C118.039 6.25811 118.033 6.46152 118.033 6.65944C118.033 9.51827 118.033 12.3716 118.033 15.2304C118.033 15.4943 118.022 15.7692 117.978 16.0276C117.912 16.4179 117.654 16.5169 117.33 16.2915C117.121 16.143 116.934 15.9561 116.742 15.7857C114.303 13.6471 111.007 13.3007 108.26 15.038C106.271 16.2915 105.09 18.1222 104.914 20.4698C104.705 23.2571 105.837 25.4617 108.144 27.0396C108.913 27.5619 109.754 27.9852 110.693 28.0512C111.556 28.1171 112.435 28.0841 113.303 28.0512C113.622 28.0402 113.951 27.9357 114.259 27.8312C115.286 27.4794 116.187 26.9186 116.973 26.1709C117.083 26.0665 117.198 25.962 117.324 25.8795C117.665 25.6431 117.929 25.7531 118 26.1654C118.033 26.3688 118.033 26.5778 118.05 26.7812C118.061 26.9186 118.061 27.0561 118.088 27.188C118.148 27.4739 118.33 27.6223 118.593 27.6223C118.857 27.6223 119.044 27.4684 119.093 27.1825C119.126 26.9791 119.132 26.7702 119.132 26.5668C119.132 23.2681 119.132 19.9695 119.132 16.6653C119.132 13.3612 119.132 10.0351 119.132 6.71992C119.132 6.49451 119.115 6.25811 119.066 6.0382L119.049 6.0437ZM111.974 27.1C108.76 26.9571 106.007 24.6865 106.013 21.058C106.024 17.4735 108.727 15.0435 112.045 15.071C115.358 15.0985 117.978 17.5945 117.973 21.0965C117.962 24.4611 115.424 26.9736 111.974 27.1Z" fill="black"/>
<path d="M132.767 14.2904C130.218 15.1315 127.85 17.8034 127.872 20.9261C127.883 22.4875 128.224 23.9169 129.163 25.1594C130.553 26.9957 132.306 28.1612 134.712 28.0842C134.926 28.0787 135.141 28.0732 135.355 28.0842C136.564 28.1667 137.635 27.7598 138.651 27.1606C139.327 26.7592 139.92 26.259 140.398 25.6322C140.585 25.3903 140.585 25.1704 140.437 25C140.261 24.8021 139.948 24.7471 139.706 24.8955C139.563 24.9835 139.442 25.1044 139.321 25.2199C137.657 26.8032 135.728 27.4465 133.46 26.8582C131.789 26.4294 130.515 25.4673 129.696 23.9499C129.444 23.4771 129.273 22.9548 129.13 22.4325C129.004 21.9982 129.24 21.7068 129.691 21.6463C129.894 21.6189 130.103 21.6134 130.306 21.6134C132.075 21.6134 133.85 21.6134 135.619 21.6134C137.388 21.6134 139.239 21.6134 141.046 21.6134C141.184 21.6134 141.321 21.6134 141.458 21.6024C141.92 21.5584 142.162 21.311 142.085 20.8547C141.969 20.14 141.876 19.4088 141.645 18.7325C140.371 15.0436 136.366 13.0974 132.762 14.2849L132.767 14.2904ZM140.239 20.4918C140.069 20.5248 139.893 20.5303 139.717 20.5303C138.124 20.5303 136.525 20.5303 134.932 20.5303C133.339 20.5303 131.773 20.5303 130.196 20.5303C130.053 20.5303 129.905 20.5303 129.762 20.5138C129.235 20.4533 128.993 20.1565 129.141 19.6452C129.29 19.1449 129.466 18.6391 129.713 18.1828C130.537 16.6434 131.839 15.7418 133.509 15.2525C136.162 14.4773 139.744 16.0441 140.7 19.4253C140.733 19.5352 140.755 19.6507 140.766 19.7606C140.805 20.151 140.618 20.4149 140.233 20.4863L140.239 20.4918Z" fill="black"/>
<path d="M34.8248 14.1584C33.1767 14.6147 31.8362 15.4724 30.8089 16.8358C29.831 18.1333 29.3641 19.6232 29.3915 21.223C29.419 22.8833 29.9794 24.3952 31.0891 25.6487C32.4296 27.1661 34.0557 28.1557 36.1708 28.0897C36.841 28.0677 37.5278 28.1227 38.176 28.0017C39.4231 27.7598 40.4834 27.1001 41.4118 26.237C41.6371 26.028 41.8513 25.7861 42.0162 25.5222C42.2194 25.2034 42.0271 24.8515 41.6481 24.835C41.4942 24.8295 41.3184 24.8955 41.1811 24.9725C41.0328 25.0604 40.9174 25.2034 40.791 25.3188C39.1594 26.8032 37.2805 27.441 35.0995 26.8802C32.8855 26.3139 31.4462 24.912 30.7595 22.7349C30.721 22.6139 30.699 22.482 30.688 22.3556C30.6661 21.9707 30.8529 21.7288 31.2374 21.6628C31.4077 21.6353 31.589 21.6243 31.7593 21.6243C33.5668 21.6243 35.3742 21.6243 37.1872 21.6243C37.6926 21.6243 38.1925 21.6243 38.6979 21.6243C40.0769 21.6243 41.4613 21.6244 42.8402 21.6189C43.4061 21.6189 43.6038 21.3824 43.5984 20.8217C43.5929 19.8816 43.3841 18.9799 42.9885 18.1388C41.4723 14.9006 37.9013 13.3118 34.8358 14.1639L34.8248 14.1584ZM41.7415 20.5083C41.5821 20.5303 41.4228 20.5303 41.2635 20.5303C39.6868 20.5303 38.1046 20.5303 36.5279 20.5303C34.9402 20.5303 33.3525 20.5303 31.7648 20.5303C31.611 20.5303 31.4572 20.5303 31.3088 20.5083C30.8199 20.4368 30.6001 20.1345 30.7045 19.6507C30.8529 18.9415 31.1605 18.2872 31.5616 17.688C32.3801 16.473 33.5063 15.6758 34.9182 15.3019C35.572 15.126 36.2312 14.9446 36.9235 15.0491C39.2308 15.3844 41.0108 16.462 41.9777 18.6666C42.1205 18.9909 42.2304 19.3373 42.3128 19.6891C42.4282 20.1675 42.2249 20.4423 41.7415 20.5083Z" fill="black"/>
<path d="M25.3811 17.8969C24.3868 15.4834 22.0629 13.9111 19.4644 13.944C17.9975 13.9605 16.69 14.4718 15.5473 15.4009C15.3825 15.5329 15.2177 15.6758 15.0309 15.7803C14.7782 15.9177 14.5529 15.8188 14.476 15.5439C14.4266 15.3625 14.4046 15.17 14.4046 14.9776C14.3991 12.1903 14.3991 9.4029 14.3936 6.61555C14.3936 6.41763 14.3881 6.21971 14.3607 6.02179C14.3222 5.69743 14.1189 5.5105 13.8443 5.505C13.5696 5.505 13.3773 5.69193 13.3388 6.02179C13.3114 6.23071 13.3169 6.45062 13.3169 6.65953C13.3169 9.95818 13.3169 13.2568 13.3169 16.561C13.3169 19.8651 13.3169 23.2187 13.3169 26.5504C13.3169 26.7428 13.3169 26.9352 13.3443 27.1221C13.3883 27.43 13.5751 27.6004 13.8388 27.6004C14.1134 27.6004 14.3112 27.43 14.3607 27.1221C14.3881 26.9297 14.3936 26.7263 14.3936 26.5284C14.3936 24.4117 14.4046 22.2951 14.3936 20.1785C14.3936 18.6391 14.9924 17.3526 16.1351 16.363C17.6459 15.0656 19.3765 14.7027 21.2828 15.3789C22.376 15.7693 23.2386 16.451 23.8813 17.4241C24.5131 18.3807 24.6999 19.4528 24.7054 20.5688C24.7164 22.5865 24.7054 24.6042 24.7109 26.6163C24.7109 26.8088 24.7164 27.0012 24.7548 27.1826C24.8098 27.4575 25.013 27.6059 25.2767 27.6059C25.5349 27.6059 25.7492 27.4575 25.8096 27.1936C25.8536 27.0177 25.8646 26.8307 25.8646 26.6493C25.8646 24.5932 25.8756 22.5425 25.8646 20.4864C25.8646 19.5957 25.6998 18.7216 25.3591 17.8914L25.3811 17.8969Z" fill="black"/>
<path d="M154.797 4.61438C154.462 4.44945 154.314 4.20205 154.341 3.82271C154.363 3.47635 154.248 3.37189 153.924 3.49284C153.429 3.67427 153.001 3.57531 152.534 3.37739C151.776 3.05302 150.99 3.05302 150.216 3.37189C149.496 3.66327 148.985 4.18006 148.617 4.85078C148.392 5.25762 148.056 5.48852 147.584 5.49952C145.485 5.549 143.387 5.59298 141.288 5.63696C140.843 5.64796 140.431 5.51601 140.052 5.27411C139.464 4.89477 138.876 4.50992 138.283 4.13058C138.124 4.02612 137.964 3.91617 137.789 3.8392C137.366 3.64678 137.063 3.80621 137.025 4.26802C136.992 4.72983 136.998 5.19714 137.025 5.66445C137.047 6.01081 137.239 6.17574 137.585 6.23072C137.723 6.25271 137.86 6.25271 137.997 6.25821C138.442 6.2692 138.882 6.25821 139.327 6.28569C139.871 6.32418 140.14 6.54959 140.233 7.08287C140.365 7.83606 140.629 8.53977 140.937 9.23248C141.003 9.38642 141.057 9.54586 141.085 9.71079C141.123 9.94719 140.997 10.1176 140.761 10.1506C140.634 10.1671 140.503 10.1616 140.376 10.1506C139.646 10.0516 138.992 9.74927 138.349 9.39742C138.184 9.30396 138.014 9.21049 137.833 9.16101C137.734 9.13353 137.558 9.17201 137.514 9.24348C137.459 9.32595 137.476 9.49088 137.514 9.59534C137.552 9.69429 137.651 9.78226 137.739 9.84823C137.899 9.96368 138.069 10.0681 138.245 10.1671C139.245 10.7389 140.36 10.9478 141.48 11.1017C141.991 11.1732 142.42 11.3546 142.837 11.657C144.084 12.5696 145.458 13.1139 147.194 13.0809C148.089 13.1084 149.117 12.8995 150.089 12.4926C151.858 11.7505 153.116 10.4585 153.913 8.72669C154.259 7.979 154.49 7.18732 154.44 6.35717C154.413 5.88436 154.517 5.51051 154.874 5.18615C155.154 4.93875 155.121 4.78481 154.792 4.61988L154.797 4.61438ZM153.594 7.59416C153.017 9.47988 151.864 10.8763 150.095 11.7285C148.941 12.2892 147.694 12.3717 146.425 12.3167C145.744 12.2892 145.117 12.1023 144.518 11.8109C144.403 11.7559 144.288 11.69 144.189 11.6075C143.859 11.3546 143.881 11.0687 144.244 10.8763C144.431 10.7773 144.634 10.7059 144.837 10.6344C145.573 10.3595 146.26 9.99667 146.848 9.46889C146.963 9.36443 147.09 9.24348 147.155 9.10604C147.205 9.00158 147.216 8.80916 147.155 8.73769C147.095 8.66622 146.903 8.67172 146.787 8.7047C146.656 8.74319 146.54 8.84764 146.425 8.9411C145.496 9.6888 144.425 10.0956 143.255 10.2771C142.804 10.3485 142.436 10.2111 142.167 9.84823C141.546 9.00708 141.184 8.06147 140.997 7.04438C140.92 6.63755 141.156 6.35717 141.596 6.31318C142.09 6.2637 142.585 6.24721 143.079 6.23622C143.727 6.22522 144.376 6.23622 145.024 6.23622V6.22522C145.985 6.22522 146.947 6.20323 147.908 6.23072C148.523 6.24721 148.919 6.01631 149.144 5.43354C149.391 4.78481 149.825 4.30651 150.474 4.02063C151.43 3.5973 152.457 3.8447 153.078 4.69685C153.715 5.57099 153.935 6.5221 153.605 7.59416H153.594Z" fill="black"/>
<path d="M54.5968 20.8162C53.5091 20.4919 52.3993 20.2555 51.2951 19.9751C50.6633 19.8156 50.0315 19.6672 49.4712 19.3153C48.5537 18.7381 48.2461 17.5836 48.757 16.627C49.0756 16.0222 49.603 15.6539 50.2128 15.39C51.1962 14.9611 52.24 14.9117 53.2728 15.0491C54.4485 15.203 55.5033 15.6209 55.9703 16.8634C55.9703 16.8798 55.9867 16.8908 55.9922 16.9018C56.168 17.1987 56.5141 17.3252 56.7998 17.1987C57.0415 17.0943 57.113 16.8524 56.9921 16.484C56.8218 15.9452 56.4977 15.5109 56.0637 15.1481C55.1957 14.4169 54.1463 14.1585 53.0641 14.01C51.9543 13.8561 50.894 14.12 49.8557 14.4773C49.3228 14.6643 48.8504 14.9556 48.4328 15.335C47.3726 16.2916 47.0814 17.798 47.7406 18.9855C48.1691 19.7607 48.8614 20.239 49.6799 20.5084C50.4106 20.7448 51.1632 20.9152 51.9104 21.1076C52.7235 21.3165 53.5585 21.421 54.3386 21.7618C55.2121 22.1467 55.8549 22.7075 55.9593 23.7135C55.9867 23.9939 55.9922 24.2798 55.9813 24.5602C55.9593 25.154 55.6901 25.6378 55.2176 25.9841C54.9539 26.1765 54.6628 26.3415 54.3606 26.4569C53.542 26.7758 52.6795 26.9462 51.8005 26.8363C50.4491 26.6658 49.2075 26.281 48.5647 24.8956C48.4933 24.7416 48.3395 24.5932 48.1911 24.5107C47.8285 24.3128 47.455 24.5712 47.4989 24.9835C47.5154 25.132 47.5648 25.2804 47.6253 25.4233C47.9219 26.1051 48.4383 26.5889 49.0646 26.9737C50.1029 27.6169 51.2566 27.7324 52.4378 27.7434C52.7729 27.7214 53.108 27.7049 53.4431 27.6719C54.3991 27.573 55.2671 27.2266 56.0142 26.6273C57.4756 25.4563 57.5689 23.6916 56.5691 22.2017C56.0966 21.498 55.3879 21.0581 54.5968 20.8217V20.8162Z" fill="black"/>
<path d="M8.51531 21.5804C7.94396 21.0856 7.27373 20.7667 6.55405 20.5798C5.65307 20.3489 4.74111 20.1674 3.84013 19.931C3.2578 19.7771 2.66447 19.6232 2.13158 19.3648C0.972399 18.8095 0.637281 17.4516 1.32949 16.363C1.70307 15.7748 2.27442 15.4669 2.9007 15.2415C3.92803 14.8786 4.99382 14.8841 6.04862 15.0436C7.09793 15.203 7.97143 15.6703 8.41093 16.7369C8.47686 16.8963 8.64716 17.0502 8.80648 17.1217C9.2295 17.3086 9.57011 17.0227 9.48221 16.5664C9.45474 16.4125 9.39431 16.2586 9.32839 16.1156C8.99876 15.4339 8.47686 14.9336 7.80662 14.6092C5.72998 13.6086 3.65884 13.6911 1.63165 14.7522C1.24709 14.9556 0.917462 15.2745 0.598825 15.5768C0.192287 15.9727 6.21462e-06 16.4675 6.21462e-06 17.0337C6.21462e-06 17.3746 6.21462e-06 17.721 6.21462e-06 18.0673C-0.0109813 18.6171 0.203275 19.0734 0.57685 19.4692C1.07129 19.997 1.68109 20.3434 2.36781 20.5248C3.45008 20.8162 4.54333 21.0581 5.6311 21.3495C6.13103 21.4814 6.62546 21.6463 7.09793 21.8608C7.86705 22.2126 8.32852 22.8229 8.42192 23.6805C8.44939 23.9444 8.45488 24.2138 8.44389 24.4777C8.41093 25.1704 8.0868 25.7092 7.49897 26.061C6.55954 26.6218 5.52122 26.8527 4.42797 26.8032C4.0489 26.7867 3.67532 26.6768 3.30175 26.5998C2.31287 26.3854 1.52177 25.8961 1.08227 24.9395C1.02734 24.824 0.950424 24.7141 0.862524 24.6206C0.719687 24.4722 0.538393 24.4227 0.335125 24.4832C0.13735 24.5491 0.0219812 24.7196 0.0494499 24.9065C0.0824124 25.1814 0.131856 25.4728 0.263706 25.7092C0.615306 26.3304 1.17567 26.7537 1.80195 27.0726C2.7249 27.5454 3.70828 27.7488 4.74111 27.6664C5.96072 27.7543 7.08694 27.4739 8.11427 26.8307C10.4271 25.3848 9.88326 22.7624 8.52081 21.5804H8.51531Z" fill="black"/>
<path d="M102.469 14.7632C101.156 13.988 99.7554 13.7461 98.2611 14.0704C97.6678 14.1969 97.1019 14.4058 96.5745 14.7082C96.2779 14.8731 95.9812 14.8896 95.6846 14.6972C95.5912 14.6367 95.4813 14.5872 95.3769 14.5542C94.9978 14.4388 94.7012 14.6202 94.6353 15.005C94.6133 15.126 94.6078 15.247 94.6078 15.3679C94.6078 17.2701 94.6078 19.1723 94.6078 21.0746C94.6078 22.9713 94.6078 24.8625 94.6078 26.7592C94.6078 26.9351 94.6188 27.1111 94.6572 27.2815C94.7177 27.5399 94.9044 27.6773 95.1462 27.6828C95.3989 27.6828 95.6022 27.5509 95.6626 27.287C95.7065 27.1056 95.712 26.9077 95.712 26.7207C95.712 24.1478 95.712 21.5749 95.712 18.9964C95.712 18.6665 95.712 18.3367 95.7285 18.0123C95.7889 16.9952 96.2669 16.2091 97.1294 15.7033C98.6237 14.8291 100.162 14.8566 101.7 15.6373C101.871 15.7253 102.041 15.8187 102.217 15.8737C102.48 15.9507 102.75 15.8132 102.87 15.5713C102.975 15.3624 102.925 15.159 102.711 14.9611C102.634 14.8896 102.546 14.8181 102.458 14.7686L102.469 14.7632Z" fill="black"/>
<path d="M90.7732 14.9611C90.7182 14.7027 90.5424 14.5707 90.3062 14.5652C90.0645 14.5597 89.8667 14.6917 89.8063 14.9501C89.7623 15.148 89.7458 15.3569 89.7458 15.5603C89.7458 19.2933 89.7458 23.0263 89.7458 26.7592C89.7458 26.9406 89.7623 27.1276 89.8063 27.3035C89.8667 27.5454 90.059 27.6773 90.2952 27.6718C90.5369 27.6718 90.7182 27.5399 90.7732 27.2925C90.8116 27.1056 90.8226 26.9132 90.8226 26.7262C90.8226 24.857 90.8226 22.9878 90.8226 21.113C90.8226 19.2383 90.8226 17.3746 90.8226 15.4998C90.8226 15.3184 90.8116 15.1315 90.7732 14.9556V14.9611Z" fill="black"/>
<path d="M124.247 14.9171C124.186 14.6807 123.999 14.5597 123.769 14.5652C123.538 14.5652 123.362 14.6862 123.302 14.9281C123.258 15.1095 123.241 15.3074 123.241 15.4944C123.241 17.3746 123.241 19.2493 123.241 21.1295C123.241 22.9933 123.241 24.857 123.241 26.7207C123.241 26.9187 123.252 27.1166 123.296 27.309C123.351 27.5509 123.527 27.6719 123.758 27.6774C123.994 27.6829 124.192 27.5564 124.252 27.32C124.296 27.1441 124.318 26.9572 124.318 26.7757C124.318 23.0373 124.318 19.2933 124.318 15.5548C124.318 15.3459 124.296 15.126 124.247 14.9226V14.9171Z" fill="black"/>
<path d="M46.587 9.03996C46.3178 8.96299 46.0101 9.07844 45.8728 9.32584C45.8014 9.45229 45.7519 9.58973 45.7135 9.72717C45.4333 10.7443 45.1586 11.7613 44.8839 12.7784C44.8235 13.0093 44.752 13.2347 44.7191 13.4656C44.6641 13.8835 45.0103 14.1474 45.3948 13.9659C45.5486 13.8945 45.6805 13.7405 45.7739 13.5921C45.8673 13.4491 45.9112 13.2677 45.9552 13.1028C46.2354 12.0857 46.51 11.0686 46.7847 10.0515C46.8342 9.87561 46.8671 9.69419 46.8891 9.59523C46.9001 9.25437 46.7957 9.09493 46.587 9.03996Z" fill="black"/>
<path d="M90.3007 11.0247C89.9326 11.0247 89.6085 11.3435 89.603 11.7064C89.5975 12.0747 89.9491 12.4211 90.3282 12.4211C90.6963 12.4211 91.0039 12.1022 91.0039 11.7229C91.0039 11.3435 90.6798 11.0192 90.3007 11.0192V11.0247Z" fill="black"/>
<path d="M123.736 11.0137C123.368 11.0137 123.054 11.327 123.049 11.7009C123.049 12.0912 123.351 12.4156 123.73 12.4156C124.098 12.4156 124.439 12.0802 124.439 11.7174C124.439 11.3545 124.098 11.0137 123.736 11.0137Z" fill="black"/>
<path d="M151.743 4.84522C151.182 4.84522 150.77 5.21907 150.776 5.72486C150.776 6.23065 151.21 6.68147 151.693 6.68147C152.193 6.68147 152.627 6.21965 152.633 5.68637C152.633 5.19707 152.265 4.83972 151.748 4.83972L151.743 4.84522Z" fill="black"/>
</g>
<defs>
<clipPath id="clip0_1086_472">
<rect width="159" height="28" fill="white" transform="translate(0 0.128174)"/>
</clipPath>
</defs>
</svg>
