<svg width="147" height="41" viewBox="0 0 147 41" fill="none" xmlns="http://www.w3.org/2000/svg">
<path d="M131.76 23.2689H137.764L137.874 25.4946H137.213C136.956 24.9134 136.742 24.5178 136.571 24.3076C136.399 24.085 136.142 23.9737 135.799 23.9737H135.652V28.3508C135.652 28.5981 135.708 28.7651 135.818 28.8516C135.928 28.9258 136.136 28.9753 136.442 29V29.6306H133.082V29C133.388 28.9753 133.59 28.9258 133.688 28.8516C133.798 28.7651 133.853 28.5981 133.853 28.3508V23.9737H133.725C133.37 23.9737 133.106 24.0788 132.935 24.289C132.764 24.4992 132.549 24.9011 132.292 25.4946H131.631L131.76 23.2689ZM142.556 26.9969L143.456 23.9923C143.554 23.745 143.603 23.5039 143.603 23.2689H146.431V23.9737C146.137 23.9737 145.935 24.0232 145.825 24.1221C145.715 24.2086 145.66 24.3817 145.66 24.6414L146.229 28.4065C146.266 28.629 146.333 28.7774 146.431 28.8516C146.541 28.9258 146.731 28.9753 147 29V29.6306H143.566V29C143.909 28.9753 144.142 28.9258 144.264 28.8516C144.387 28.7774 144.448 28.6229 144.448 28.3879C144.448 28.2272 144.423 27.9984 144.374 27.7017L143.952 25.1051L142.446 29.6306H141.638L140.096 25.1051L139.71 27.7017C139.661 27.9984 139.637 28.2272 139.637 28.3879C139.637 28.6229 139.698 28.7774 139.821 28.8516C139.943 28.9258 140.176 28.9753 140.518 29V29.6306H137.948V29C138.229 28.9753 138.419 28.932 138.517 28.8702C138.627 28.796 138.701 28.6414 138.737 28.4065L139.306 24.6414C139.306 24.3941 139.251 24.221 139.141 24.1221C139.043 24.0232 138.854 23.9737 138.572 23.9737V23.2689H141.363C141.387 23.5286 141.436 23.7697 141.51 23.9923L142.556 26.9969Z" fill="black"/>
<path d="M127.943 23.7324V26.0879H130.385V27.4789H127.943V33.1915C127.943 34.0446 128.322 34.4712 129.081 34.4712C129.522 34.4712 129.975 34.3537 130.44 34.1188L130.807 35.0647C129.901 36.0044 128.769 36.4743 127.41 36.4743C125.44 36.4743 124.454 35.4913 124.454 33.5253V27.4789H123.242V26.4588C123.842 26.261 124.466 25.9086 125.115 25.4017C125.776 24.8947 126.358 24.3383 126.859 23.7324H127.943Z" fill="black"/>
<path d="M122.725 36.2888H117.217V35.0462C117.633 34.9843 117.896 34.8978 118.006 34.7865C118.117 34.6752 118.172 34.4094 118.172 33.989V29.278C118.172 28.8576 118.08 28.5609 117.896 28.3877C117.725 28.2023 117.419 28.1095 116.978 28.1095C116.623 28.1095 116.109 28.2146 115.436 28.4248V33.989C115.436 34.4094 115.491 34.6752 115.601 34.7865C115.711 34.8978 115.981 34.9843 116.409 35.0462V36.2888H111.011V35.0462C111.439 34.9843 111.708 34.8978 111.819 34.7865C111.929 34.6752 111.984 34.4094 111.984 33.989V29.278C111.984 28.8576 111.892 28.5609 111.708 28.3877C111.537 28.2023 111.231 28.1095 110.79 28.1095C110.435 28.1095 109.921 28.2146 109.248 28.4248V33.989C109.248 34.4094 109.303 34.6752 109.413 34.7865C109.523 34.8978 109.793 34.9843 110.221 35.0462V36.2888H104.676V35.0462C105.129 34.9843 105.429 34.8978 105.576 34.7865C105.722 34.6629 105.796 34.397 105.796 33.989V28.5918L104.768 27.4975V26.8298L108.642 25.8097H109.248V27.8499C109.578 27.4666 109.866 27.1636 110.111 26.9411C110.356 26.7061 110.711 26.4774 111.176 26.2548C111.641 26.0199 112.125 25.9024 112.626 25.9024C113.263 25.9024 113.826 26.0755 114.316 26.4217C114.805 26.7556 115.136 27.2626 115.307 27.9426C116.531 26.5825 117.749 25.9024 118.961 25.9024C120.736 25.9024 121.624 26.904 121.624 28.9071V33.989C121.624 34.397 121.697 34.6629 121.844 34.7865C121.991 34.8978 122.285 34.9843 122.725 35.0462V36.2888Z" fill="black"/>
<path d="M98.3836 32.6352C97.6246 32.6352 96.9636 32.5425 96.4005 32.357C96.0822 32.7403 95.9231 33.0309 95.9231 33.2287C95.9231 33.4884 96.07 33.6182 96.3638 33.6182H100.789C101.854 33.6182 102.656 33.8655 103.194 34.3601C103.745 34.8423 104.021 35.5162 104.021 36.3817C104.021 37.5564 103.506 38.4714 102.478 39.1267C101.45 39.7944 100.067 40.1282 98.3285 40.1282C96.8106 40.1282 95.6293 39.9428 94.7847 39.5718C93.9401 39.2132 93.5177 38.6754 93.5177 37.9582C93.5177 37.5378 93.683 37.1978 94.0135 36.9381C94.344 36.6785 94.7235 36.5115 95.1519 36.4374C94.2583 36.0911 93.8115 35.4482 93.8115 34.5085C93.8115 34.0262 93.9645 33.6058 94.2706 33.2472C94.5888 32.8763 95.0907 32.4992 95.7762 32.1159C94.6011 31.5595 94.0135 30.6692 94.0135 29.4451C94.0135 28.357 94.4358 27.4976 95.2805 26.867C96.1251 26.2241 97.2145 25.9026 98.5488 25.9026C99.1731 25.9026 99.7913 25.983 100.403 26.1437L103.8 26.0139V27.7202H102.992L101.56 27.4049V27.5162C102.417 27.8995 102.845 28.5301 102.845 29.408C102.845 30.4095 102.429 31.2009 101.597 31.782C100.764 32.3508 99.6934 32.6352 98.3836 32.6352ZM100.422 36.901H95.6844C95.5987 36.9999 95.5559 37.1854 95.5559 37.4574C95.5559 38.4837 96.4984 38.9969 98.3836 38.9969C100.379 38.9969 101.377 38.5332 101.377 37.6058C101.377 37.136 101.058 36.901 100.422 36.901ZM98.5121 31.578C99.1731 31.578 99.5036 30.9103 99.5036 29.5749C99.5036 28.7959 99.3996 28.1715 99.1915 27.7017C98.9834 27.2194 98.6774 26.9783 98.2734 26.9783C97.6124 26.9783 97.2819 27.646 97.2819 28.9814C97.2819 29.7357 97.3859 30.3601 97.594 30.8547C97.8021 31.3369 98.1081 31.578 98.5121 31.578Z" fill="black"/>
<path d="M87.7176 33.3586L86.8546 27.3122L83.6964 36.289H82.2458L78.904 27.2936L78.0961 33.3586C78.0716 33.5564 78.0593 33.7109 78.0593 33.8222C78.0593 34.255 78.1818 34.5518 78.4266 34.7125C78.6836 34.8732 79.1427 34.9722 79.8037 35.0093V36.289H74.8277V35.0093C75.3541 34.9845 75.7213 34.898 75.9294 34.7496C76.1497 34.5888 76.2905 34.2983 76.3517 33.8779L77.5085 25.9026C77.5085 25.408 77.3983 25.068 77.178 24.8825C76.9699 24.6847 76.5659 24.5734 75.9661 24.5487V23.2689H81.2359C81.2604 23.5657 81.3583 23.9613 81.5297 24.4559L84.0085 31.1885L86.3405 24.4559C86.5241 23.9119 86.6281 23.5162 86.6526 23.2689H91.8306V24.5487C91.2308 24.5734 90.8268 24.6847 90.6187 24.8825C90.4106 25.068 90.3066 25.408 90.3066 25.9026L91.445 33.8779C91.5062 34.3106 91.6409 34.6012 91.849 34.7496C92.0693 34.898 92.4488 34.9845 92.9874 35.0093V36.289H86.0099V35.0093C86.6832 34.9722 87.1422 34.8732 87.3871 34.7125C87.6319 34.5518 87.7543 34.255 87.7543 33.8222C87.7543 33.7109 87.7421 33.5564 87.7176 33.3586Z" fill="black"/>
<path d="M63.3574 22.1746V27.85C64.5081 26.5517 65.6894 25.9025 66.9012 25.9025C68.7741 25.9025 69.7106 26.9164 69.7106 28.9443V33.9891C69.7106 34.3971 69.784 34.663 69.9309 34.7866C70.0778 34.8979 70.3716 34.9844 70.8123 35.0463V36.2889H65.2303V35.0463C65.6588 34.9844 65.9342 34.8979 66.0566 34.7866C66.1912 34.663 66.2586 34.3971 66.2586 33.9891V29.2781C66.2586 28.8824 66.1729 28.5919 66.0015 28.4064C65.8301 28.2086 65.5363 28.1096 65.1201 28.1096C64.5693 28.1096 63.9817 28.2147 63.3574 28.4249V33.9891C63.3574 34.3971 63.4186 34.663 63.541 34.7866C63.6757 34.8979 63.9572 34.9844 64.3857 35.0463V36.2889H58.7854V35.0463C59.2383 34.9844 59.5382 34.8979 59.6851 34.7866C59.832 34.663 59.9054 34.3971 59.9054 33.9891V24.6784L58.8772 23.5841V22.8979L62.7698 22.1746H63.3574Z" fill="black"/>
<path d="M55.4824 23.7324V26.0879H57.9245V27.4789H55.4824V33.1915C55.4824 34.0446 55.8619 34.4712 56.6208 34.4712C57.0615 34.4712 57.5144 34.3537 57.9796 34.1188L58.3468 35.0647C57.441 36.0044 56.3087 36.4743 54.9499 36.4743C52.9791 36.4743 51.9937 35.4913 51.9937 33.5253V27.4789H50.7818V26.4588C51.3816 26.261 52.0059 25.9086 52.6547 25.4017C53.3157 24.8947 53.8972 24.3383 54.3991 23.7324H55.4824Z" fill="black"/>
<path d="M46.4782 31.8005L47.7451 28.5919C47.8308 28.3693 47.8737 28.1653 47.8737 27.9798C47.8737 27.7696 47.8064 27.6212 47.6717 27.5347C47.5371 27.4358 47.3228 27.3616 47.029 27.3121V26.088H50.5361V27.3121C50.1934 27.4358 49.9547 27.5409 49.82 27.6274C49.6854 27.714 49.5813 27.8562 49.5079 28.054L46.0926 36.3631H44.9725L42.5855 30.5208L40.0149 36.3631H38.9132L35.2225 28.054C35.1368 27.8562 35.0266 27.714 34.892 27.6274C34.7573 27.5285 34.5248 27.4234 34.1942 27.3121V26.088H39.8313V27.3121C39.3661 27.3987 39.1335 27.6027 39.1335 27.9242C39.1335 28.0726 39.1947 28.3013 39.3171 28.6104L40.6025 31.9118L41.8878 28.9072L41.5573 28.054C41.4716 27.8314 41.3675 27.6645 41.2451 27.5532C41.135 27.442 40.9697 27.3616 40.7494 27.3121V26.088H46.0008V27.3121C45.6703 27.3616 45.4438 27.4296 45.3214 27.5161C45.2112 27.6027 45.1562 27.7449 45.1562 27.9427C45.1562 28.1035 45.2051 28.3199 45.303 28.5919L46.4782 31.8005Z" fill="black"/>
<path d="M28.7924 35.1576C29.2698 35.1576 29.6432 34.8485 29.9125 34.2302C30.1818 33.5996 30.3165 32.7712 30.3165 31.7449C30.3165 30.4095 30.1512 29.3214 29.8207 28.4806C29.4902 27.6275 29.0311 27.2009 28.4436 27.2009C27.9539 27.2009 27.5745 27.5162 27.3051 28.1468C27.0358 28.7774 26.9012 29.6058 26.9012 30.6321C26.9012 31.9675 27.0664 33.0556 27.397 33.8964C27.7397 34.7372 28.2049 35.1576 28.7924 35.1576ZM28.4619 36.4744C26.944 36.4744 25.7138 35.9922 24.7712 35.0278C23.8287 34.051 23.3574 32.8268 23.3574 31.3554C23.3574 29.7109 23.8593 28.3941 24.863 27.4049C25.8791 26.4034 27.1766 25.9026 28.7557 25.9026C30.2859 25.9026 31.5222 26.391 32.4648 27.3678C33.4073 28.3323 33.8786 29.544 33.8786 31.003C33.8786 32.6599 33.3706 33.9891 32.3546 34.9907C31.3386 35.9799 30.041 36.4744 28.4619 36.4744Z" fill="black"/>
<path d="M19.0893 25.8097V29.0554C19.4443 27.8561 19.8299 27.0338 20.2461 26.5887C20.6623 26.1312 21.207 25.9024 21.8803 25.9024C22.1741 25.9024 22.4495 25.9766 22.7066 26.125V29.0554H22.2659C20.7725 29.0554 19.7136 29.278 19.0893 29.7231V34.0261C19.0893 34.4094 19.1811 34.6567 19.3648 34.768C19.5606 34.8669 19.9584 34.9596 20.5583 35.0462V36.2888H14.5173V35.0462C14.9702 34.9843 15.2701 34.8978 15.417 34.7865C15.5639 34.6629 15.6373 34.397 15.6373 33.989V28.5918L14.6091 27.4975V26.8298L18.465 25.8097H19.0893Z" fill="black"/>
<path d="M0.495728 30.0385C0.495728 27.9613 1.15675 26.2858 2.47879 25.0123C3.81307 23.7263 5.43501 23.0834 7.34463 23.0834C9.21751 23.0834 10.6864 23.5409 11.7514 24.4559V27.479H9.9887C9.7194 26.4775 9.38277 25.7232 8.97881 25.2163C8.57486 24.697 8.01789 24.4373 7.3079 24.4373C6.31637 24.4373 5.57579 24.9257 5.08614 25.9025C4.60874 26.8794 4.37004 28.0787 4.37004 29.5007C4.37004 33.173 5.44726 35.0092 7.60169 35.0092C8.03013 35.0092 8.4096 34.9474 8.74011 34.8237V32.4497C8.74011 31.9674 8.6483 31.646 8.46469 31.4852C8.29331 31.3245 7.91384 31.2379 7.32626 31.2256V29.9087H13.4774V31.2256C12.8776 31.2379 12.492 31.3245 12.3206 31.4852C12.1493 31.6336 12.0636 31.9551 12.0636 32.4497V35.1205C10.8517 36.0107 9.19915 36.4558 7.10592 36.4558C4.98821 36.4558 3.35403 35.8685 2.20336 34.6939C1.06494 33.5069 0.495728 31.9551 0.495728 30.0385Z" fill="black"/>
<path d="M68.6685 14.8361V13.0185C68.0319 14.2302 67.0159 14.8361 65.6204 14.8361C64.4942 14.8361 63.5823 14.4157 62.8845 13.5749C62.199 12.7341 61.8563 11.5718 61.8563 10.088C61.8563 8.3075 62.3398 6.91646 63.3069 5.91492C64.2739 4.90101 65.5164 4.39406 67.0343 4.39406C67.7687 4.39406 68.3135 4.54243 68.6685 4.83919V3.04012L67.6586 1.94584V1.25959L71.5329 0.536255H72.1205V11.9613C72.1205 12.6166 72.353 12.9505 72.8182 12.9628H73.2589V14.2426L69.3662 14.8361H68.6685ZM67.3832 5.61817C66.7466 5.61817 66.2508 5.93347 65.8959 6.56407C65.5531 7.19467 65.3817 8.03547 65.3817 9.08648C65.3817 10.224 65.5776 11.1143 65.9693 11.7573C66.3733 12.3879 66.9302 12.7032 67.6402 12.7032C67.9707 12.7032 68.3135 12.629 68.6685 12.4806V7.45433C68.6685 6.82373 68.5705 6.36005 68.3747 6.0633C68.1911 5.76654 67.8606 5.61817 67.3832 5.61817Z" fill="black"/>
<path d="M56.5765 4.26416C57.8496 4.26416 58.8411 4.66601 59.5511 5.46972C60.2611 6.27343 60.6161 7.28734 60.6161 8.51145V9.23479H54.6118C54.6118 10.1251 54.8689 10.8422 55.383 11.3863C55.9094 11.9179 56.5826 12.1838 57.4028 12.1838C58.5167 12.1838 59.3981 11.7634 60.0469 10.9226L60.6528 11.3306C60.408 12.4187 59.9122 13.2781 59.1655 13.9087C58.4188 14.5269 57.4701 14.836 56.3194 14.836C54.924 14.836 53.7794 14.3909 52.8858 13.5006C51.9922 12.598 51.5454 11.3924 51.5454 9.88394C51.5454 8.22706 52.0289 6.8793 52.996 5.84067C53.9753 4.78966 55.1688 4.26416 56.5765 4.26416ZM56.2644 5.54391C55.3463 5.54391 54.8077 6.40326 54.6485 8.12196H57.6598C57.6354 6.40326 57.1702 5.54391 56.2644 5.54391Z" fill="black"/>
<path d="M46.0359 12.3507V7.6397C46.0359 7.24403 45.9502 6.95345 45.7789 6.76798C45.6197 6.57015 45.3321 6.47123 44.9159 6.47123C44.365 6.47123 43.7774 6.57633 43.1531 6.78653V12.3507C43.1531 12.7587 43.2143 13.0245 43.3368 13.1482C43.4714 13.2595 43.753 13.346 44.1814 13.4079V14.6505H38.5811V13.4079C39.034 13.346 39.3339 13.2595 39.4808 13.1482C39.6277 13.0245 39.7011 12.7587 39.7011 12.3507V6.95345L38.6729 5.85917V5.19148L42.5472 4.17139H43.1531V6.21157C44.2793 4.91327 45.4606 4.26412 46.6969 4.26412C48.5576 4.26412 49.4879 5.27803 49.4879 7.30585V12.3507C49.4879 12.7587 49.5614 13.0245 49.7082 13.1482C49.8551 13.2595 50.1489 13.346 50.5896 13.4079V14.6505H45.026V13.4079C45.4545 13.346 45.7299 13.2595 45.8523 13.1482C45.9747 13.0245 46.0359 12.7587 46.0359 12.3507Z" fill="black"/>
<path d="M32.2888 10.9968C31.5298 10.9968 30.8688 10.904 30.3057 10.7186C29.9875 11.1019 29.8283 11.3924 29.8283 11.5903C29.8283 11.8499 29.9752 11.9798 30.269 11.9798H34.6942C35.7591 11.9798 36.5609 12.2271 37.0995 12.7216C37.6504 13.2039 37.9258 13.8778 37.9258 14.7433C37.9258 15.9179 37.4117 16.8329 36.3834 17.4883C35.3552 18.156 33.9719 18.4898 32.2337 18.4898C30.7158 18.4898 29.5345 18.3043 28.6899 17.9334C27.8453 17.5748 27.4229 17.0369 27.4229 16.3198C27.4229 15.8994 27.5882 15.5594 27.9187 15.2997C28.2492 15.04 28.6287 14.8731 29.0571 14.7989C28.1635 14.4527 27.7167 13.8097 27.7167 12.87C27.7167 12.3878 27.8697 11.9674 28.1758 11.6088C28.494 11.2379 28.9959 10.8608 29.6814 10.4774C28.5063 9.92103 27.9187 9.03077 27.9187 7.80666C27.9187 6.71856 28.341 5.85921 29.1857 5.22861C30.0303 4.58564 31.1198 4.26416 32.454 4.26416C33.0783 4.26416 33.6965 4.34453 34.3086 4.50527L37.7055 4.37544V6.08178H36.8976L35.4653 5.76648V5.87776C36.3222 6.26107 36.7507 6.89167 36.7507 7.76957C36.7507 8.77111 36.3345 9.56245 35.5021 10.1436C34.6697 10.7124 33.5986 10.9968 32.2888 10.9968ZM34.3269 15.2626H29.5896C29.5039 15.3615 29.4611 15.547 29.4611 15.819C29.4611 16.8453 30.4036 17.3584 32.2888 17.3584C34.2841 17.3584 35.2817 16.8948 35.2817 15.9674C35.2817 15.4975 34.9635 15.2626 34.3269 15.2626ZM32.4173 9.93958C33.0783 9.93958 33.4088 9.27188 33.4088 7.93649C33.4088 7.15751 33.3048 6.53309 33.0967 6.06323C32.8886 5.58101 32.5826 5.33989 32.1786 5.33989C31.5176 5.33989 31.1871 6.00759 31.1871 7.34298C31.1871 8.09723 31.2911 8.72165 31.4992 9.21624C31.7073 9.69847 32.0134 9.93958 32.4173 9.93958Z" fill="black"/>
<path d="M25.4729 4.24564V12.3507C25.4729 12.7588 25.5463 13.0246 25.6932 13.1483C25.8401 13.2595 26.14 13.3461 26.5929 13.4079V14.6506H20.9008V13.4079C21.3537 13.3461 21.6536 13.2595 21.8005 13.1483C21.9474 13.0246 22.0209 12.7588 22.0209 12.3507V6.87933L20.9926 5.7665V5.19154L24.8669 4.24564H25.4729ZM23.7102 3.65213C23.1348 3.65213 22.6758 3.4852 22.333 3.15136C21.9903 2.80514 21.8189 2.38474 21.8189 1.89015C21.8189 1.39556 21.9903 0.981342 22.333 0.647493C22.6758 0.30128 23.1348 0.128174 23.7102 0.128174C24.2732 0.128174 24.7262 0.30128 25.0689 0.647493C25.4117 0.981342 25.583 1.39556 25.583 1.89015C25.583 2.38474 25.4117 2.80514 25.0689 3.15136C24.7262 3.4852 24.2732 3.65213 23.7102 3.65213Z" fill="black"/>
<path d="M18.7439 0.536255V12.3508C18.7439 12.7588 18.8173 13.0247 18.9642 13.1483C19.1111 13.2596 19.4049 13.3461 19.8456 13.408V14.6506H14.1902V13.408C14.6431 13.3461 14.9369 13.2596 15.0715 13.1483C15.2184 13.0247 15.2919 12.7588 15.2919 12.3508V3.04012L14.282 1.94584V1.25959L18.1379 0.536255H18.7439Z" fill="black"/>
<path d="M8.37292 11.8129L7.93224 10.7H3.45199L3.02967 11.8129C2.9195 12.1467 2.86442 12.394 2.86442 12.5547C2.86442 12.8515 2.94399 13.0555 3.10312 13.1668C3.26225 13.2781 3.61113 13.3461 4.14973 13.3708V14.6506H0V13.3708C0.293787 13.3214 0.514126 13.2533 0.66102 13.1668C0.820154 13.0679 0.948686 12.9071 1.04661 12.6846L4.81075 3.09571L4.1681 1.61194H7.93224L12.5961 12.6846C12.694 12.9071 12.8226 13.0679 12.9817 13.1668C13.1408 13.2533 13.3673 13.3214 13.6611 13.3708V14.6506H7.28958V13.3708C7.81595 13.3461 8.1587 13.2781 8.31783 13.1668C8.48921 13.0555 8.57489 12.8515 8.57489 12.5547C8.57489 12.3569 8.50757 12.1096 8.37292 11.8129ZM5.65539 4.96897L3.94776 9.42028H7.41811L5.65539 4.96897Z" fill="black"/>
</svg>
