<svg width="125" height="37" viewBox="0 0 125 37" fill="none" xmlns="http://www.w3.org/2000/svg">
<g clip-path="url(#clip0_1158_24)">
<path d="M5.03124 11.1194C3.34374 11.661 1.68749 13.222 0.874987 15.0698C-0.406263 17.9371 -0.093763 23.7034 1.43749 26.1247C2.90624 28.3866 6.53124 29.661 10.5937 29.3105C13.1875 29.0875 15.0625 28.3229 16.3437 26.953C17.25 25.9973 18.5625 22.9707 18.2187 22.6203C18.0937 22.5247 17.5625 22.4291 16.9687 22.4291C16.0625 22.4291 15.875 22.5884 15.2812 23.8627C14.2812 26.0291 12.8125 26.73 9.21874 26.6981C6.15624 26.6981 4.90624 26.2521 3.78124 24.8185C2.93749 23.6716 2.37499 20.7725 2.62499 18.6061C2.90624 16.0893 3.68749 14.7512 5.34374 13.8911C6.56249 13.2539 7.09374 13.1583 9.74999 13.2539C13.25 13.3495 14.125 13.7955 15.1562 15.9937C15.75 17.2362 15.875 17.2999 17.0937 17.3318C18.375 17.3318 18.4062 17.3318 18.125 16.4079C16.9687 12.2344 14.5 10.6096 9.24999 10.6734C7.68749 10.6734 5.78124 10.8645 5.03124 11.1194Z" fill="black"/>
<path d="M26.5 10.992C24.8125 11.5017 22.6562 13.5406 21.9688 15.3566C21.5625 16.4397 21.4062 17.7141 21.4062 20.0397C21.4062 22.9389 21.5 23.3849 22.3438 25.1371C23.5312 27.5583 25 28.6097 27.9375 29.1512C30.7812 29.6928 34.2188 29.215 35.9375 28.0362L37.1562 27.2397L37.25 28.0999C37.3438 28.8327 37.5 28.9601 38.5312 29.0557L39.6875 29.1512V20.0716V10.9601H38.4375C37.3125 10.9601 37.1875 11.0557 37.1875 11.7566V12.5212L35.5625 11.661C34.1562 10.9282 33.5312 10.8008 30.8125 10.7371C29.0625 10.7052 27.125 10.8327 26.5 10.992ZM34.9062 14.0185C36.5938 15.2928 37.0312 16.5353 37.0312 19.8804C37.0312 23.6079 36.4688 24.9778 34.5625 26.0291C32.75 26.9849 28.1562 27.0167 26.5625 26.061C24.2812 24.7229 23.3125 21.6327 24 17.9371C24.6875 14.1778 26.25 13.1265 31 13.2539C33.5 13.3495 34.1562 13.4769 34.9062 14.0185Z" fill="black"/>
<path d="M49.9375 11.0875C49.2812 11.3105 48.4062 11.7566 47.9688 12.0433C47.2188 12.553 47.1875 12.553 47.1875 11.7566C47.1875 11.0238 47.0625 10.9601 45.7812 10.9601H44.375L44.4375 19.9442L44.5312 28.9601H45.7812H47.0312L47.1875 22.7477C47.3438 16.0256 47.5312 15.261 49.1562 14.0185C49.9375 13.4451 50.5 13.3495 53.2812 13.3495C56.9062 13.3495 57.7188 13.6999 58.9062 15.7707C59.4375 16.6946 59.5312 17.5866 59.625 23.0026L59.75 29.1512L60.9062 29.0557L62.0312 28.9601L62.125 23.576C62.25 15.7707 61.4062 13.1265 58.2812 11.4698C56.6875 10.6415 51.7188 10.3866 49.9375 11.0875Z" fill="black"/>
<path d="M70.875 10.9919C69.2812 11.4698 67.2187 13.3494 66.5 15.0698C65.7187 16.9494 65.4375 20.4857 65.9062 22.7795C66.4687 25.5194 67.7187 27.2716 69.9062 28.3548C71.5625 29.2149 72 29.2787 75 29.2468C78.5625 29.2468 79.7187 28.8964 81.5 27.3671C83.2812 25.8379 83.8437 24.2769 84 20.6132C84.1875 15.8344 83.1875 13.3813 80.4062 11.6928C79.0312 10.8645 78.625 10.8008 75.4687 10.7371C73.5937 10.7052 71.5312 10.8326 70.875 10.9919ZM78.5312 13.6362C80.625 14.5601 81.5625 16.4397 81.5625 19.8486C81.5625 22.6202 81.125 24.1176 80 25.2645C78.8125 26.4751 76.3125 27.0486 73.5625 26.73C69.75 26.3158 68.2812 24.4362 68.2812 19.8804C68.2812 14.9105 70 13.1902 74.9062 13.1902C76.4375 13.1902 77.9375 13.3813 78.5312 13.6362Z" fill="black"/>
<path d="M93.0312 11.2467C92.1875 11.5972 91.3438 12.0432 91.0938 12.2344C90.75 12.5211 90.6562 12.4255 90.5625 11.8521C90.5 11.2467 90.25 11.1193 89.125 11.0237L87.8125 10.9282L87.875 23.4485L87.9688 35.9689H89.2188H90.4688L90.5625 31.6043L90.6562 27.2397L91.75 28.0043C93.1875 28.9919 94.5312 29.2786 97.8125 29.2467C103.562 29.2149 106.344 26.3476 106.375 20.3583C106.406 15.6432 105.25 13.0308 102.406 11.5335C100.5 10.514 95.1875 10.3547 93.0312 11.2467ZM101.125 13.7954C103.031 14.6875 103.875 16.6308 103.844 20.0397C103.844 22.8751 103.281 24.5636 101.969 25.6149C100.906 26.4432 98.0312 27.0167 95.9375 26.7618C92.0625 26.2839 90.625 24.468 90.625 20.0078C90.625 16.2804 91.4062 14.6237 93.5938 13.6361C95.0625 12.9671 99.5625 13.0627 101.125 13.7954Z" fill="black"/>
<path d="M107.812 10.737C107.812 10.8007 109.375 14.6875 111.281 19.4344C114.188 26.6662 114.719 28.1954 114.563 29.2468C114.281 31.5724 112.531 33.0698 109.625 33.4202L108.125 33.6114V34.9176V36.1919L109.938 35.9689C111.938 35.714 114.188 34.822 115.219 33.8662C115.938 33.1335 115.969 33.0698 119.531 24.1813C120.844 20.8361 122.344 17.2043 122.813 16.0574C123.313 14.9105 124 13.222 124.344 12.2981L125 10.6415H123.625H122.25L119.344 17.8096C117.75 21.76 116.344 24.8822 116.25 24.7547C116.063 24.5317 113.688 18.7016 111 11.8202C110.563 10.7052 110.438 10.6415 109.156 10.6415C108.438 10.6415 107.812 10.6733 107.812 10.737Z" fill="black"/>
</g>
<defs>
<clipPath id="clip0_1158_24">
<rect width="125" height="36" fill="white" transform="translate(0 0.128174)"/>
</clipPath>
</defs>
</svg>
