<svg width="137" height="42" viewBox="0 0 137 42" fill="none" xmlns="http://www.w3.org/2000/svg">
<path d="M66.7739 3.50771L65.5722 4.7857L65.515 7.21768C65.4768 8.55289 65.4482 10.6415 65.4482 11.8623V14.0749L64.6661 13.5885C63.6075 12.9305 62.9876 12.692 61.9862 12.549C59.9262 12.2629 57.952 13.0258 56.159 14.8093C54.0131 16.9361 53.0212 19.3871 53.0212 22.5726C53.0212 24.0413 53.1357 24.623 53.7175 26.1681C54.6235 28.5619 56.4451 30.393 58.486 30.9176C59.3444 31.1465 61.1469 31.0702 61.9862 30.7745C63.1402 30.374 64.1607 29.5442 65.0476 28.3139L65.4959 27.6845L65.6103 28.6573C65.8106 30.3835 66.1063 30.6124 68.214 30.6505C69.244 30.6696 69.5397 30.6505 69.3584 30.5743C68.7958 30.3358 68.4619 29.7731 68.2331 28.6859C68.1091 28.066 68.0805 26.1681 68.0328 15.0954L67.9756 2.23927L66.7739 3.50771ZM61.4235 13.9414C62.7587 14.2561 63.8269 15.0096 64.9332 16.4211L65.5436 17.2127V21.7428V26.2825L64.9809 27.1218C64.3228 28.0946 63.35 29.0769 62.7587 29.344C62.196 29.6015 61.0992 29.6015 60.2886 29.344C57.952 28.6096 56.0827 26.1871 55.3769 22.935C55.005 21.2373 55.129 18.6432 55.6344 17.2794C56.0541 16.154 57.0841 14.8951 58.0187 14.342C58.9057 13.8174 60.2409 13.6648 61.4235 13.9414Z" fill="black"/>
<path d="M78.3904 3.52635L77.0742 4.78526L77.1028 16.8975C77.141 29.6773 77.1314 29.3912 77.5702 29.9539C77.9898 30.488 78.438 30.6215 79.8972 30.6501C81.118 30.6692 81.2038 30.6596 80.9368 30.5357C80.4695 30.3258 80.1643 29.8871 80.0021 29.1814C79.7542 28.1418 79.6397 22.2478 79.6779 11.6711C79.6969 6.49241 79.7065 2.2579 79.7065 2.2579C79.7065 2.26744 79.1152 2.83013 78.3904 3.52635Z" fill="black"/>
<path d="M107.87 4.89969L106.554 6.21583V18.452V30.6787H107.889H109.224V24.1743V17.67L109.758 16.9833C110.464 16.0582 111.713 14.8851 112.476 14.4369C115.013 12.9491 117.655 13.569 118.809 15.9247C119.486 17.3171 119.458 17.0501 119.505 24.2125L119.534 30.6787H120.821H122.109L122.08 23.9741C122.042 17.3362 122.042 17.2694 121.823 16.5637C121.537 15.6195 121.203 15.0186 120.592 14.3606C119.982 13.693 119.21 13.1684 118.38 12.8537C117.836 12.6439 117.607 12.6153 116.472 12.6153C115.404 12.6057 115.051 12.6439 114.422 12.8251C112.686 13.3306 110.75 14.5418 109.711 15.8007L109.224 16.3825L109.205 9.98301L109.176 3.5931L107.87 4.89969Z" fill="black"/>
<path d="M84.5223 5.76739C84.5223 6.23471 82.9486 8.07539 82.5576 8.07539C82.4813 8.07539 82.4241 8.11354 82.4241 8.17076C82.4241 8.21845 82.4813 8.26613 82.5576 8.26613C82.7483 8.26613 83.7116 9.17217 84.0645 9.68717C84.2361 9.9256 84.4173 10.2594 84.4841 10.4406L84.589 10.7744L84.8274 10.2499C85.104 9.65856 86.1054 8.53317 86.5346 8.34243C86.8779 8.18984 86.8779 8.15169 86.5441 7.99909C86.0864 7.79881 85.1994 6.82602 84.8847 6.18703C84.7225 5.86276 84.5795 5.59572 84.5604 5.59572C84.5413 5.59572 84.5223 5.67202 84.5223 5.76739Z" fill="black"/>
<path d="M127.497 9.36298C126.677 11.5184 125.284 13.4544 123.739 14.5894L123.138 15.0281L124.121 15.0567L125.103 15.0853L125.151 21.3322C125.198 27.4169 125.208 27.5885 125.408 28.1131C125.99 29.639 126.982 30.5069 128.527 30.8407C129.748 31.0982 131.073 30.8884 132.313 30.2399C133.143 29.8012 134.793 28.2371 135.451 27.2547C135.842 26.673 136.5 25.5476 136.5 25.4713C136.5 25.4522 136.309 25.4331 136.071 25.4331C135.67 25.4331 135.632 25.4522 135.441 25.8337C134.545 27.5981 133.057 29.0859 131.541 29.7249C130.825 30.0301 129.605 30.0968 129.013 29.8775C128.46 29.6677 127.964 29.0954 127.783 28.4755C127.611 27.9033 127.592 25.5953 127.697 18.9669L127.754 15.0376H130.263H132.771L133.553 14.0553L134.326 13.0825L131.026 13.0539L127.726 13.0348L127.707 10.9557L127.678 8.88612L127.497 9.36298Z" fill="black"/>
<path d="M24.2949 12.7386C22.7975 13.1487 21.5768 13.9021 20.3179 15.2087C18.4867 17.1162 17.6188 19.0808 17.5044 21.6177C17.4472 23.0292 17.5998 24.126 18.0576 25.3658C18.7442 27.2924 20.5944 29.3715 22.4351 30.2966C24.2567 31.2217 26.6219 31.3075 28.5485 30.5255C30.5608 29.7053 32.6781 27.588 33.5459 25.5375C34.204 23.9734 34.4329 21.8466 34.1277 20.1299C33.5459 16.8015 31.1235 13.8354 28.2051 12.8721C27.156 12.5288 25.2963 12.462 24.2949 12.7386ZM26.6696 13.5683C27.6234 13.8163 28.3196 14.2455 29.2161 15.1324C30.742 16.6584 31.4287 18.5754 31.5622 21.6654C31.7625 26.5675 30.0935 29.7339 27.0702 30.2012C24.4665 30.6018 21.8629 28.5322 20.7756 25.2133C20.3655 23.9543 20.2034 22.7717 20.2034 20.9024C20.2034 19.1476 20.2702 18.5944 20.6421 17.4214C21.262 15.4567 22.6354 13.988 24.2472 13.5493C24.8576 13.3776 25.983 13.3871 26.6696 13.5683Z" fill="black"/>
<path d="M42.0247 12.7487C39.1826 13.4926 36.4359 16.3442 35.6062 19.4342C34.6715 22.8772 35.568 26.2915 38.0477 28.6853C39.7644 30.3448 41.3952 31.0601 43.5125 31.0601C45.5439 31.0601 47.3751 30.2875 49.0345 28.7139C50.7989 27.0544 51.7908 25.0421 51.9911 22.7436C52.2486 19.6345 51.2376 16.9259 49.025 14.7896C47.8996 13.7024 46.8219 13.0729 45.5344 12.7391C44.5807 12.5007 42.9689 12.5007 42.0247 12.7487ZM44.3995 13.5593C46.4404 14.0934 48.0331 15.7529 48.7866 18.1467C49.5209 20.4833 49.5114 24.3173 48.7675 26.5394C47.747 29.5723 45.172 30.9551 42.4539 29.9251C40.6513 29.2385 38.9919 27.064 38.3624 24.5748C37.9905 23.0965 37.8474 20.7885 38.0191 19.1863C38.3338 16.3823 39.9265 14.122 41.9865 13.5498C42.5874 13.3876 43.7509 13.3876 44.3995 13.5593Z" fill="black"/>
<path d="M7.97716 13.0455C5.79314 13.3983 3.15134 15.363 2.09271 17.4135C1.52048 18.5103 1.40603 18.9776 1.41557 20.1411C1.42511 22.039 2.0641 23.4029 3.68542 25.0051C4.75359 26.0637 5.61193 26.6169 6.89945 27.0556C7.31909 27.2082 7.6815 27.3417 7.70058 27.3608C7.71965 27.3703 6.42259 28.181 4.82035 29.1538L1.9115 30.9086L2.22623 31.1757C2.5505 31.4522 3.79987 32.0149 4.07645 32.0149C4.17182 32.0149 3.76172 32.4918 3.0655 33.1785C1.36788 34.857 0.5 36.2495 0.5 37.289C0.5 37.8612 0.910099 38.6433 1.3965 38.9962C2.68402 39.9403 5.00155 40.4172 8.46355 40.4267C10.4568 40.4363 11.4201 40.3123 13.2512 39.8354C16.7132 38.9389 18.7446 37.2318 19.0975 34.9333C19.2692 33.8079 18.9068 32.7684 18.1247 32.1771C17.6193 31.7956 16.4462 31.271 15.6164 31.0612C14.596 30.8133 11.8588 30.5081 9.46496 30.3936C7.22372 30.2792 5.74545 30.1361 5.38304 30.0026C5.13507 29.9072 5.12554 29.8977 5.31628 29.7642C5.42119 29.6879 6.25093 29.1633 7.1665 28.6102C8.82597 27.5992 8.8355 27.5897 9.72246 27.4752C11.3247 27.2463 12.7934 26.4929 14.1286 25.2054C15.626 23.7557 16.2364 22.4015 16.2364 20.4654C16.2364 18.5961 15.4543 16.7841 14.1 15.5347C13.8616 15.3153 13.6613 15.1055 13.6613 15.0864C13.6613 15.0578 14.4243 15.0387 15.3589 15.0387H17.047L17.8768 14.066C18.3345 13.5319 18.697 13.0836 18.6874 13.0741C18.6016 13.0169 8.34911 12.9882 7.97716 13.0455ZM9.51264 14.1327C11.1912 14.5714 12.5359 16.1164 13.1749 18.3291C13.6613 20.0458 13.8044 21.9246 13.5183 23.1358C13.2035 24.4424 12.164 25.8062 11.0863 26.3117C10.0372 26.8076 8.76874 26.8839 7.71012 26.5215C7.15696 26.3308 6.20324 25.4724 5.59286 24.6141C4.22904 22.6971 3.71403 19.7597 4.32441 17.3563C4.72497 15.7826 5.69777 14.5428 6.88038 14.1232C7.35724 13.9515 8.82597 13.961 9.51264 14.1327ZM6.24139 32.4346C6.73732 32.5109 7.92947 32.6158 8.90226 32.673C9.86552 32.7302 11.401 32.8256 12.3166 32.8828C14.7867 33.0259 16.9326 33.4455 17.7432 33.9415C18.8591 34.6281 18.3632 36.1541 16.6369 37.289C14.739 38.5479 12.2021 39.1392 9.77969 38.8913C6.88038 38.6051 4.38164 37.6037 3.59005 36.4021C3.37069 36.0682 3.34208 35.9538 3.38023 35.3339C3.40884 34.7998 3.48514 34.4851 3.71403 33.9891C4.0383 33.3025 4.90618 32.3011 5.17322 32.3011C5.25906 32.3011 5.73592 32.3583 6.24139 32.4346Z" fill="black"/>
<path d="M94.2978 13.0833C93.5825 13.2359 92.1424 13.8844 91.4175 14.3803C90.3112 15.1433 89.0523 16.5548 88.4992 17.6707C87.9651 18.7388 87.803 20.2552 88.0986 21.5046C88.6613 23.8794 91.0361 26.3018 93.592 27.1125C93.8781 27.1983 94.1452 27.3032 94.1833 27.3414C94.2215 27.3795 93.5539 27.8278 92.7051 28.3428C88.194 31.0704 88.4992 30.8701 88.6899 31.0799C88.8997 31.3088 89.7581 31.7571 90.3208 31.9192C90.5401 31.986 90.7213 32.0527 90.7213 32.0718C90.7213 32.0814 90.1872 32.625 89.5483 33.2735C87.803 35.0093 87.1067 36.1537 87.0972 37.2887C87.0877 39.1866 89.2145 40.1689 93.8305 40.4073C96.4818 40.5408 98.3988 40.3119 100.678 39.5776C102.338 39.0435 103.32 38.4903 104.216 37.5938C105.294 36.5161 105.685 35.6387 105.695 34.3035C105.695 32.7585 104.436 31.6045 102.128 31.0609C101.012 30.7938 98.3988 30.5077 96.0622 30.3933C93.4871 30.2693 91.8276 30.0881 91.7323 29.9259C91.7037 29.8878 92.5334 29.3442 93.5634 28.7052C95.3469 27.6179 95.4709 27.5607 96.0812 27.494C98.847 27.2174 101.708 24.9666 102.509 22.4393C102.996 20.8942 102.891 19.2061 102.214 17.7374C101.804 16.8409 101.441 16.3355 100.726 15.6202L100.135 15.0384H101.861H103.587L104.455 14.037L105.323 13.0356H102.385C100.774 13.0356 98.4369 13.0165 97.2066 12.9879C95.4709 12.9498 94.8128 12.9784 94.2978 13.0833ZM96.0717 14.1419C98.3129 14.8095 99.6481 16.8409 100.173 20.3697C100.716 24.1369 98.5132 26.998 95.2706 26.7405C94.3645 26.6642 93.6969 26.3304 92.9912 25.6151C91.8276 24.423 91.1982 23.1736 90.8072 21.3043C90.645 20.5032 90.6164 20.1217 90.6546 19.1394C90.7404 17.1557 91.16 16.0303 92.2377 14.943C92.7241 14.4471 92.9816 14.2563 93.3441 14.1514C93.9926 13.9512 95.4136 13.9512 96.0717 14.1419ZM93.6302 32.5296C94.3169 32.6059 95.881 32.7203 97.1112 32.7776C101.384 32.9683 103.654 33.3784 104.512 34.1318C104.808 34.3893 104.836 34.4656 104.836 34.952C104.836 35.715 104.56 36.211 103.797 36.8499C102.605 37.8418 100.611 38.6334 98.7326 38.8814C96.4818 39.177 92.9053 38.4903 91.3222 37.4603C90.5401 36.9453 89.9965 36.3254 89.9107 35.8485C89.7581 34.952 90.3017 33.5882 91.141 32.749C91.5797 32.3102 91.6369 32.2816 91.9993 32.3293C92.2187 32.3579 92.953 32.4438 93.6302 32.5296Z" fill="black"/>
<path d="M83.2827 21.8568V30.6787H84.6179H85.9531V21.8568V13.0349H84.6179H83.2827V21.8568Z" fill="black"/>
</svg>
