<svg width="109" height="61" viewBox="0 0 109 61" fill="none" xmlns="http://www.w3.org/2000/svg">
<g clip-path="url(#clip0_1177_119)">
<path d="M24.3966 26.9323C24.3966 19.1315 21.2139 16.637 17.1582 16.637C12.5414 16.637 10.0455 19.4448 10.0455 26.9323C10.0455 34.4197 12.6043 37.2263 17.1582 37.2263C21.2139 37.2263 24.3966 34.7317 24.3966 26.9323ZM33.5685 0.414062V43.4659H24.9576V38.7233C22.775 42.467 18.9671 44.2131 14.3503 44.2131C6.73957 44.2144 0.5 39.3472 0.5 26.9323C0.5 14.5173 6.73957 9.64889 14.3503 9.64889C18.2803 9.64889 22.2115 11.1459 24.2079 14.0782V0.414062H33.5672H33.5685Z" fill="black"/>
<path d="M50.409 43.4659H41.0497V10.3974H50.409V43.4659ZM50.7223 7.15306H40.739V0.414062H50.7223V7.1518V7.15306Z" fill="black"/>
<path d="M71.4953 34.5255H71.7444L79.1061 10.3962H88.9019L76.8606 43.466H66.1287L54.0245 10.3962H63.8833L71.4953 34.5255Z" fill="black"/>
<path d="M101.876 43.4659H92.5161V10.3974H101.876V43.4659ZM102.187 7.15306H92.2042V0.414062H102.187V7.1518V7.15306Z" fill="black"/>
<path d="M107.666 12.1132H107.351L106.807 10.7609V12.1132H106.517V10.3885H106.941L107.512 11.8126L108.084 10.3885H108.5V12.1132H108.218V10.7609L107.666 12.1132ZM105.319 12.1132V10.6515H104.696V10.3885H106.222V10.6515H105.613V12.1132H105.319Z" fill="black"/>
<path d="M3.29016 57.0922H4.78841C4.87899 57.6558 5.31802 57.9477 5.95959 57.9477C6.55587 57.9477 6.9622 57.7225 6.9622 57.3061C6.9622 56.9451 6.69174 56.7312 5.65642 56.5513C4.15817 56.3035 3.47131 55.8305 3.47131 54.7826C3.47131 53.7347 4.47392 52.9698 5.89292 52.9698C7.39117 52.9698 8.29189 53.6567 8.40385 54.8392H6.91691C6.84898 54.3436 6.45524 54.0731 5.88034 54.0731C5.30544 54.0731 4.97963 54.2983 4.97963 54.6807C4.97963 55.0405 5.27274 55.233 6.27409 55.3902C7.83901 55.638 8.50448 56.145 8.50448 57.1589C8.50448 58.3075 7.5132 59.0736 5.95959 59.0736C4.32674 59.0736 3.39206 58.3414 3.29016 57.091V57.0922Z" fill="black"/>
<path d="M9.36115 56.0896V55.9437C9.36115 54.1637 10.4531 52.9698 12.2671 52.9698C13.788 52.9698 14.778 53.8039 14.9705 55.1776H13.4169C13.2923 54.5914 12.9892 54.209 12.2457 54.209C11.3789 54.209 10.9839 54.8279 10.9839 55.9437V56.0896C10.9839 57.2155 11.3777 57.8357 12.2457 57.8357C12.9892 57.8357 13.3049 57.442 13.4282 56.8557H14.9705C14.7906 58.2408 13.788 59.0748 12.2671 59.0748C10.4543 59.0748 9.36115 57.8697 9.36115 56.0909V56.0896Z" fill="black"/>
<path d="M15.8033 57.3061C15.8033 56.3149 16.4335 55.7299 17.4927 55.5827L19.6326 55.2783V54.9399C19.6326 54.4556 19.3168 54.1625 18.63 54.1625C17.9884 54.1625 17.6274 54.3763 17.5267 54.804H16.0398C16.1744 53.6442 17.1544 52.9686 18.6639 52.9686C20.1735 52.9686 21.1535 53.7461 21.1535 54.9625V58.9264H19.7005L19.6439 58.0257C19.2841 58.6673 18.6186 59.0723 17.7632 59.0723C16.592 59.0723 15.8033 58.3289 15.8033 57.3049V57.3061ZM19.6326 56.7992V56.3375L18.0563 56.5514C17.572 56.6193 17.3242 56.8218 17.3242 57.2269C17.3242 57.632 17.6626 57.8911 18.2362 57.8911C19.0023 57.8911 19.6326 57.4407 19.6326 56.7992Z" fill="black"/>
<path d="M22.6517 58.9277V50.459H24.2279V58.9277H22.6517Z" fill="black"/>
<path d="M25.7828 60.8423V53.117H27.2584L27.3037 54.0064C27.5741 53.4881 28.227 52.9698 29.173 52.9698C30.7266 52.9698 31.6613 54.2316 31.6613 55.9437V56.0896C31.6613 57.8131 30.6927 59.0736 29.1391 59.0736C28.3163 59.0736 27.6861 58.6459 27.3716 58.1049V60.841H25.784L25.7828 60.8423ZM30.0624 56.0896V55.9437C30.0624 54.8065 29.5894 54.175 28.6887 54.175C27.788 54.175 27.315 54.8052 27.315 55.9437V56.0896C27.315 57.2268 27.788 57.8584 28.6887 57.8584C29.5894 57.8584 30.0624 57.2281 30.0624 56.0896Z" fill="black"/>
<path d="M41.7428 58.9278H40.008L39.6696 58.5114C39.0947 58.8825 38.3966 59.075 37.6531 59.075C35.8403 59.075 34.7811 58.0837 34.7811 56.7326C34.7811 55.764 35.2768 55.1337 36.3461 54.4695L36.2668 54.3676C35.8844 53.9172 35.5799 53.3197 35.5799 52.7234C35.5799 51.5862 36.458 50.7861 37.8103 50.7861C38.9928 50.7861 39.8709 51.5522 39.8709 52.5989C39.8709 53.4442 39.3979 54.0632 38.3613 54.7387L39.6571 56.3489C39.7917 55.9552 39.8369 55.4822 39.769 54.9412H41.3012C41.3918 56.0005 41.1327 56.8898 40.6597 57.5767L41.7403 58.9278H41.7428ZM38.8029 57.4635L37.1813 55.4696C36.5838 55.886 36.4039 56.2244 36.4039 56.6747C36.4039 57.305 36.8769 57.744 37.7323 57.744C38.1261 57.744 38.4871 57.6421 38.8016 57.4622L38.8029 57.4635ZM37.1134 52.7561C37.1134 53.0492 37.2254 53.3411 37.5185 53.6908L37.5638 53.7474C38.1714 53.3537 38.3412 53.0719 38.3412 52.6555C38.3412 52.2844 38.116 52.0479 37.7663 52.0479C37.3499 52.0479 37.1134 52.341 37.1134 52.7574V52.7561Z" fill="black"/>
<path d="M44.806 58.9277V50.459H46.3935V53.9612C46.698 53.4429 47.2829 52.9699 48.2063 52.9699C49.6479 52.9699 50.2228 53.8819 50.2228 55.189V58.9277H48.6566V55.5827C48.6566 54.7374 48.3635 54.243 47.61 54.243C46.8565 54.243 46.3822 54.7839 46.3822 55.7073V58.9277H44.806Z" fill="black"/>
<path d="M51.3839 57.3061C51.3839 56.3149 52.0142 55.7299 53.0734 55.5827L55.2132 55.2783V54.9399C55.2132 54.4556 54.8975 54.1625 54.2106 54.1625C53.5691 54.1625 53.208 54.3763 53.1074 54.804H51.6204C51.7551 53.6442 52.735 52.9686 54.2446 52.9686C55.7542 52.9686 56.7329 53.7461 56.7329 54.9625V58.9264H55.2799L55.2233 58.0257C54.8623 58.6673 54.198 59.0723 53.3426 59.0723C52.1714 59.0723 51.3827 58.3289 51.3827 57.3049L51.3839 57.3061ZM55.2132 56.7992V56.3375L53.637 56.5514C53.1527 56.6193 52.9048 56.8218 52.9048 57.2269C52.9048 57.632 53.242 57.8911 53.8169 57.8911C54.583 57.8911 55.2132 57.4407 55.2132 56.7992Z" fill="black"/>
<path d="M58.1871 52.0805V50.459H59.8539V52.0805H58.1871ZM58.2324 58.9277V53.1158H59.8086V58.9277H58.2324Z" fill="black"/>
<path d="M61.3635 58.9278V53.1159H62.8731L62.9184 54.2531C63.2002 53.5436 63.7738 53.014 64.6305 53.014C64.7425 53.014 64.8783 53.0254 64.979 53.048V54.5576C64.867 54.5463 64.6858 54.5349 64.5399 54.5349C63.4933 54.5349 62.941 55.0985 62.941 56.1225V58.9265H61.3648L61.3635 58.9278Z" fill="black"/>
<path d="M68.2346 58.9277V50.459H69.8221V53.9612C70.1266 53.4429 70.7115 52.9699 71.6349 52.9699C73.0765 52.9699 73.6514 53.8819 73.6514 55.189V58.9277H72.0852V55.5827C72.0852 54.7374 71.7921 54.243 71.0386 54.243C70.2851 54.243 69.8108 54.7839 69.8108 55.7073V58.9277H68.2346Z" fill="black"/>
<path d="M74.8679 56.0896V55.9437C74.8679 54.175 76.0051 52.9698 77.8305 52.9698C79.7904 52.9698 80.759 54.3322 80.6571 56.3601H76.3888C76.4568 57.374 76.9637 57.8697 77.8305 57.8697C78.5286 57.8697 78.9111 57.5652 79.0582 57.1602H80.6244C80.3426 58.3314 79.3287 59.0748 77.8317 59.0748C75.985 59.0748 74.8692 57.881 74.8692 56.0909L74.8679 56.0896ZM79.0796 55.3688C79.0004 54.614 78.584 54.141 77.8179 54.141C77.0518 54.141 76.5561 54.5461 76.4102 55.3688H79.0796Z" fill="black"/>
<path d="M81.6031 57.3061C81.6031 56.3149 82.2334 55.7299 83.2926 55.5827L85.4324 55.2783V54.9399C85.4324 54.4556 85.1167 54.1625 84.4298 54.1625C83.7882 54.1625 83.4272 54.3763 83.3266 54.804H81.8396C81.9742 53.6442 82.9542 52.9686 84.4638 52.9686C85.9733 52.9686 86.952 53.7461 86.952 54.9625V58.9264H85.4991L85.4425 58.0257C85.0814 58.6673 84.4172 59.0723 83.5618 59.0723C82.3906 59.0723 81.6019 58.3289 81.6019 57.3049L81.6031 57.3061ZM85.4324 56.7992V56.3375L83.8562 56.5514C83.3718 56.6193 83.124 56.8218 83.124 57.2269C83.124 57.632 83.4612 57.8911 84.0361 57.8911C84.8022 57.8911 85.4324 57.4407 85.4324 56.7992Z" fill="black"/>
<path d="M88.4515 58.9277V50.459H90.0278V58.9277H88.4515Z" fill="black"/>
<path d="M92.0557 57.2496V54.2656H90.9738V53.1171H92.0557V51.2704H93.6319V53.1171H95.1415V54.2656H93.6319V57.115C93.6319 57.6219 93.8458 57.8358 94.4647 57.8358C94.7465 57.8358 95.0056 57.7678 95.1629 57.7238V58.9403C94.8811 59.0082 94.4534 59.0749 94.1162 59.0749C92.7199 59.0749 92.0557 58.4446 92.0557 57.2508V57.2496Z" fill="black"/>
<path d="M96.392 58.9277V50.459H97.9795V53.9612C98.284 53.4429 98.8689 52.9699 99.7923 52.9699C101.234 52.9699 101.809 53.8819 101.809 55.189V58.9277H100.243V55.5827C100.243 54.7374 99.9495 54.243 99.196 54.243C98.4425 54.243 97.9682 54.7839 97.9682 55.7073V58.9277H96.392Z" fill="black"/>
</g>
<defs>
<clipPath id="clip0_1177_119">
<rect width="108" height="60.4283" fill="white" transform="translate(0.5 0.414062)"/>
</clipPath>
</defs>
</svg>
