<svg width="73" height="29" viewBox="0 0 73 29" fill="none" xmlns="http://www.w3.org/2000/svg">
<g clip-path="url(#clip0_1201_223)">
<path fill-rule="evenodd" clip-rule="evenodd" d="M42.0523 0.558105C39.2582 0.558105 36.7652 1.67384 35.0498 3.42722V1.14239H26.8984V27.9729H35.0498V12.3705C35.0498 11.2497 35.4951 10.1747 36.2877 9.38211C37.0803 8.58953 38.1552 8.14426 39.2761 8.14426C40.397 8.14426 41.472 8.58953 42.2646 9.38211C43.0571 10.1747 43.5024 11.2497 43.5024 12.3705V27.9729H51.3712V9.01435C51.3712 4.34802 47.1978 0.558105 42.0523 0.558105ZM53.7046 1.14239H61.8561V27.9729H53.7046V1.14239ZM72.9252 23.8908C72.9238 24.8121 72.6492 25.7122 72.1364 26.4775C71.6235 27.2427 70.8953 27.8388 70.0437 28.1903C69.1922 28.5419 68.2556 28.6331 67.3522 28.4525C66.4488 28.2718 65.6193 27.8275 64.9684 27.1756C64.3175 26.5236 63.8745 25.6934 63.6953 24.7897C63.5161 23.8861 63.6088 22.9496 63.9617 22.0986C64.3145 21.2477 64.9118 20.5204 65.6778 20.0087C66.4439 19.4971 67.3445 19.224 68.2657 19.224C68.8781 19.2245 69.4844 19.3455 70.05 19.5803C70.6156 19.8151 71.1293 20.159 71.562 20.5924C71.9947 21.0257 72.3378 21.5401 72.5717 22.106C72.8056 22.672 72.9257 23.2785 72.9252 23.8908ZM12.1693 20.9773C12.7247 20.9769 13.2746 20.8671 13.7876 20.6542C14.3006 20.4412 14.7666 20.1294 15.1591 19.7363C15.5515 19.3433 15.8627 18.8768 16.0749 18.3635C16.287 17.8502 16.396 17.3001 16.3956 16.7447V1.14239H24.547V27.9792H16.3956V25.688C14.6892 27.4414 12.1873 28.5572 9.40216 28.5572C4.24822 28.5572 0.0747681 24.7673 0.0747681 20.1009V1.14239H7.94621V16.7447C7.94523 17.8659 8.38954 18.9417 9.18147 19.7354C9.97339 20.5291 11.0481 20.9758 12.1693 20.9773Z" fill="black"/>
</g>
<defs>
<clipPath id="clip0_1201_223">
<rect width="72.8504" height="28" fill="white" transform="translate(0.0747681 0.556396)"/>
</clipPath>
</defs>
</svg>
