<svg width="121" height="35" viewBox="0 0 121 35" fill="none" xmlns="http://www.w3.org/2000/svg">
<path d="M20.8717 2.09977C19.058 2.16311 17.3047 2.44812 15.7213 2.93754C11.3512 4.28775 7.68341 7.03136 5.16724 10.8344C4.08765 12.4639 3.3017 14.1768 2.80653 15.9733C2.33439 17.6949 2.13574 19.3272 2.19044 21.02C2.27105 23.4038 3.03109 25.7386 4.33811 27.6127C4.82753 28.3181 5.60772 29.1731 6.23244 29.6971C8.03464 31.2056 10.3205 32.1931 12.8683 32.5673C16.0006 33.0308 19.3977 32.6883 22.34 31.6144C23.6182 31.148 24.9828 30.4801 26.0883 29.7806C26.2438 29.6855 26.3733 29.6049 26.3791 29.6049C26.3849 29.6049 27.0499 30.293 27.856 31.1308L29.3213 32.6566H33.133H36.9476L36.8324 32.5328C36.7662 32.4666 35.3498 30.9926 33.68 29.2566C32.0103 27.5235 30.6226 26.0783 30.5938 26.0466C30.5449 25.989 30.5506 25.9775 30.804 25.6752C32.1225 24.0889 33.228 22.1917 33.9219 20.3204C34.4343 18.9357 34.7596 17.5336 34.941 15.9301C35.013 15.2938 35.013 13.5348 34.941 12.9303C34.5034 9.27979 32.7559 6.31451 29.9259 4.42306C27.9251 3.08724 25.5903 2.33584 22.8438 2.14296C22.386 2.10841 21.2805 2.08538 20.8717 2.09977ZM21.2345 7.52365C21.6865 7.5582 22.15 7.62441 22.4983 7.69927C25.4694 8.34126 27.6602 10.4141 28.3857 13.2671C28.5786 14.0271 28.6304 14.4705 28.6275 15.3831C28.6275 15.979 28.616 16.2669 28.5757 16.5433C28.1727 19.4539 26.5979 22.1543 24.1537 24.1206C21.9369 25.9027 19.2135 26.9448 16.4526 27.0686C14.993 27.1319 13.9335 26.9247 12.7388 26.3374C11.9845 25.966 11.3569 25.5054 10.7523 24.8778C9.4597 23.5419 8.66224 21.7628 8.48951 19.831C8.45208 19.3905 8.45208 18.4607 8.49239 18.0317C8.67376 16.1518 9.50865 14.0674 10.7322 12.4408C12.2954 10.3594 14.4719 8.83068 16.9564 8.06201C18.3872 7.61866 19.9476 7.42289 21.2345 7.52365Z" fill="black"/>
<path d="M91.7794 7.90073C89.77 8.02741 87.7605 8.65213 86.3297 9.59642C85.7942 9.95052 85.4602 10.2154 85.0313 10.6328C83.7473 11.8823 82.9181 13.3275 82.4949 15.0491C82.2819 15.9185 82.2071 16.572 82.2301 17.3493C82.2474 17.9769 82.3021 18.2965 82.4719 18.7514C82.9038 19.9202 83.6868 20.7493 84.9507 21.3827C85.3048 21.5583 86.1368 21.8923 86.8277 22.1341C89.1942 22.9632 89.7844 23.2252 90.3054 23.6657C90.4868 23.8211 90.6999 24.1119 90.7747 24.3048C90.9388 24.7395 90.8783 25.4564 90.6365 25.9343C90.2939 26.6079 89.6174 27.178 88.8516 27.4342C88.4284 27.5752 88.1232 27.6213 87.4812 27.6386C86.3325 27.6703 84.8096 27.4716 83.9776 27.1837C83.7962 27.1233 83.4421 27.0052 83.1945 26.9275C82.5899 26.7375 82.043 26.5388 81.4902 26.3114C81.2369 26.2078 81.0267 26.1243 81.0238 26.13C81.0152 26.1415 79.8895 31.3639 79.8895 31.4042C79.8895 31.4503 80.4567 31.6835 80.9547 31.8447C82.1034 32.2161 83.4421 32.4665 85.0716 32.6191C85.7366 32.6796 87.4409 32.6882 87.9793 32.6335C89.5627 32.4723 90.7977 32.1556 92.0443 31.5913C93.6364 30.8716 95.0038 29.7316 95.928 28.3612C96.6045 27.3565 97.0824 26.1819 97.3329 24.9094C97.7043 23.0122 97.4768 21.4835 96.6535 20.3261C96.426 20.0066 95.9193 19.5028 95.5422 19.2206C94.9434 18.7744 94.1747 18.3598 93.3197 18.023C92.9627 17.8819 92.5913 17.7581 91.0511 17.2658C90.2364 17.0067 89.6865 16.7131 89.3007 16.3331C88.9322 15.9703 88.8199 15.6997 88.8516 15.2391C88.912 14.3466 89.5253 13.6039 90.5358 13.2037C91.506 12.8237 92.6316 12.7316 93.9674 12.9244C94.8052 13.0454 96.2446 13.457 97.2177 13.8543C97.4164 13.9349 97.5805 13.9954 97.5833 13.9925C97.592 13.9839 98.5737 9.22791 98.5737 9.19625C98.5737 9.18185 98.4096 9.09548 98.2081 9.00624C96.9557 8.44197 95.6804 8.09938 94.3417 7.97271C93.3772 7.8777 92.4992 7.85467 91.7794 7.90073Z" fill="black"/>
<path d="M40.1893 8.7529C40.172 8.8623 39.6394 11.914 39.006 15.5414C37.6875 23.0957 37.7364 22.8135 37.6587 23.4901C37.4399 25.3902 37.5205 26.9505 37.9034 28.2288C38.4965 30.2267 39.8553 31.5395 42.049 32.2333C44.0787 32.8753 47.2368 32.9416 49.6897 32.3917C51.1723 32.0606 52.5398 31.4503 53.6194 30.6413C54.8429 29.7229 55.8045 28.5167 56.553 26.9505C57.1461 25.7155 57.5808 24.348 57.9061 22.7099C57.9666 22.4047 60.2927 9.08974 60.3589 8.68093L60.3791 8.56001L57.3879 8.56577L54.3967 8.57441L53.4265 14.1307C52.8939 17.1881 52.3728 20.1793 52.2663 20.781C52.0619 21.9499 51.8258 23.0899 51.6646 23.6772C51.3623 24.777 50.7722 25.7932 50.1042 26.3632C49.2636 27.0801 48.5122 27.3449 47.2282 27.3795C45.9183 27.414 45.1324 27.1952 44.5422 26.6281C43.9894 26.0984 43.7274 25.4132 43.6814 24.3653C43.6641 23.9651 43.69 23.611 43.7908 22.7963C43.8771 22.0909 43.8887 22.0247 45.1007 15.0865C45.7254 11.508 46.235 8.57729 46.235 8.57153C46.235 8.56577 44.8819 8.56001 43.2294 8.56001H40.2238L40.1893 8.7529Z" fill="black"/>
<path d="M64.0411 8.65226C64.0324 8.70408 63.8194 9.87005 63.5689 11.2433L63.1169 13.7422H71.6875C79.8262 13.7422 80.2609 13.7393 80.2753 13.6904C80.2839 13.6645 80.4912 12.5273 80.7359 11.1656C80.9835 9.80383 81.1908 8.6609 81.1994 8.62347L81.2138 8.56014H72.6375H64.0583L64.0411 8.65226Z" fill="black"/>
<path d="M101.165 8.57446C101.165 8.5831 100.957 9.72891 100.704 11.1223C100.451 12.5157 100.243 13.673 100.243 13.6989C100.243 13.7364 100.563 13.7421 103.154 13.7421H106.065L106.047 13.863C106.036 13.9321 105.284 18.0605 104.378 23.041L102.728 32.0952L105.708 32.1039C107.349 32.1067 108.693 32.1039 108.699 32.0981C108.707 32.0895 112.047 13.7911 112.047 13.7479C112.047 13.745 113.36 13.7421 114.966 13.7421H117.888L117.917 13.5895C117.934 13.5089 118.142 12.3631 118.381 11.0503C118.617 9.73467 118.818 8.6378 118.824 8.60901C118.836 8.56295 118.401 8.56007 110 8.56007C105.141 8.56007 101.165 8.56583 101.165 8.57446Z" fill="black"/>
<path d="M61.9423 20.1965C61.6919 21.5784 61.4817 22.7444 61.4731 22.7876L61.4587 22.8682H69.8248H78.1909L78.2053 22.8019C78.214 22.7674 78.4212 21.6245 78.6688 20.2627C78.9135 18.901 79.1208 17.7638 79.1295 17.7351C79.1439 17.689 78.7322 17.6861 70.772 17.6861H62.3972L61.9423 20.1965Z" fill="black"/>
<path d="M60.7159 26.9478C60.7131 26.9622 60.5029 28.1224 60.2467 29.533L59.7774 32.0953L68.3422 32.1039C73.0521 32.1068 76.9127 32.1039 76.9185 32.0953C76.9271 32.0866 77.1401 30.9552 77.3877 29.582C77.6382 28.2087 77.8484 27.0514 77.857 27.0053L77.8743 26.9276H69.2951C64.5766 26.9276 60.7159 26.9362 60.7159 26.9478Z" fill="black"/>
<path d="M113.026 28.5282C112.398 28.6923 111.868 29.2249 111.73 29.8352C111.71 29.9216 111.693 30.0972 111.693 30.2239C111.693 30.5147 111.739 30.7133 111.863 30.9782C112.067 31.41 112.453 31.7468 112.919 31.8965C113.109 31.9599 113.213 31.9743 113.458 31.9772C113.806 31.98 113.993 31.9397 114.284 31.8044C114.871 31.5252 115.234 30.9724 115.266 30.3103C115.289 29.7661 115.145 29.389 114.768 29.0119C114.517 28.7585 114.258 28.6088 113.933 28.5253C113.717 28.4706 113.239 28.4706 113.026 28.5282ZM114.039 28.9485C114.396 29.1184 114.655 29.4207 114.77 29.8036C114.842 30.0368 114.837 30.46 114.759 30.6759C114.531 31.3092 113.901 31.7008 113.276 31.5971C112.171 31.41 111.742 30.0109 112.548 29.2163C112.842 28.9255 113.115 28.8219 113.55 28.8363C113.794 28.8449 113.849 28.8593 114.039 28.9485Z" fill="black"/>
<path d="M112.905 29.366L112.796 29.3775V30.2556V31.1308H112.997H113.199V30.7853V30.4398H113.386C113.633 30.4398 113.72 30.5147 113.786 30.7882C113.869 31.1452 113.858 31.1308 114.108 31.1308C114.304 31.1308 114.324 31.125 114.307 31.079C114.298 31.053 114.267 30.9379 114.244 30.8285C114.172 30.5147 114.114 30.4082 113.967 30.3132L113.89 30.2613L114.005 30.2038C114.206 30.103 114.29 29.9274 114.235 29.7259C114.157 29.4265 113.967 29.343 113.389 29.3516C113.181 29.3545 112.963 29.3602 112.905 29.366ZM113.685 29.6769C113.777 29.723 113.832 29.8439 113.806 29.9475C113.774 30.0656 113.662 30.1232 113.435 30.1433L113.227 30.1606V29.8957V29.6337H113.414C113.527 29.6337 113.639 29.651 113.685 29.6769Z" fill="black"/>
</svg>
