<svg width="85" height="49" viewBox="0 0 85 49" fill="none" xmlns="http://www.w3.org/2000/svg">
<g clip-path="url(#clip0_1201_391)">
<path d="M28.2836 15.8897C32.8021 15.8897 35.1725 20.0379 35.1725 27.8897C35.1725 35.7416 32.8021 39.8897 28.2836 39.8897C23.7651 39.8897 21.3947 35.7416 21.3947 27.8897C21.3947 20.0379 23.7651 15.8897 28.2836 15.8897ZM28.2836 15.5194C25.0243 15.5194 21.9873 16.7045 19.691 18.9268C17.3206 21.2231 15.9873 24.4082 15.9873 27.9638C15.9873 34.9268 21.3947 40.3342 28.3577 40.3342C35.2465 40.3342 40.728 34.9268 40.728 27.9638C40.728 24.4823 39.3947 21.2971 37.0243 18.9268C34.5799 16.7045 31.5428 15.5194 28.2836 15.5194ZM43.9132 39.7416H48.6539V0.556396C47.4688 1.66751 45.6169 2.5564 43.9132 2.77862V39.7416ZM53.6169 39.7416H58.3576V13.7416C57.0984 14.8527 55.3947 15.7416 53.6169 16.0379V39.7416ZM5.39471 17.6675V18.4082C5.91322 18.4823 6.28359 18.6305 6.65397 18.7786C6.95026 18.9268 7.17248 19.149 7.32063 19.5194C7.39471 19.8157 7.54285 20.2601 7.54285 20.8527C7.61693 21.4453 7.61693 22.186 7.61693 23.2231V43.5194C7.61693 44.186 7.54285 44.7045 7.54285 45.0749C7.46878 45.4453 7.46878 45.7416 7.39471 45.8897L7.17248 46.3342C7.02434 46.4823 6.87619 46.5564 6.72804 46.5564C6.50582 46.5564 6.06137 46.4823 5.83915 46.2601C5.61693 46.0379 5.32063 45.8157 5.02434 45.5194C4.72804 45.2231 4.43174 45.0008 4.06137 44.7786C3.691 44.5564 3.32063 44.4823 2.95026 44.4823C2.50582 44.4823 2.06137 44.6305 1.61693 45.0008C1.17249 45.3712 0.87619 45.5934 0.87619 46.3342C0.87619 47.0749 1.09841 47.5934 1.61693 47.9638C2.06137 48.3342 2.65397 48.5564 3.24656 48.5564C3.9873 48.5564 4.65397 48.3342 5.39471 48.0379C6.13545 47.7416 7.02434 47.2231 8.13545 46.4082C9.691 45.2231 10.8021 43.9638 11.4688 42.4823C12.1354 41.0008 12.5058 39.149 12.5058 36.9268V13.5934C11.3206 14.7045 7.09841 16.7045 5.39471 16.9268V17.6675ZM73.4687 15.9638C77.6169 15.9638 79.2465 20.9268 79.3206 25.6675H66.728C66.9502 19.8157 69.6169 16.0379 73.4687 15.9638ZM83.5428 31.4453V31.5194C82.5058 34.6305 79.2465 36.7045 75.5428 36.7045C70.0613 36.6305 66.728 32.7045 66.728 26.4082V26.186H83.691V25.8157C83.691 25.5934 83.691 25.4453 83.6169 25.2231C83.6169 25.0008 83.5428 24.7786 83.5428 24.5564C83.5428 24.4823 83.5428 24.3342 83.4687 24.2601C83.4687 24.112 83.3947 23.8897 83.3947 23.7416C83.3206 23.5194 83.3206 23.2231 83.2465 23.0008C82.2095 18.9268 79.0243 15.4453 73.5428 15.4453C66.728 15.4453 61.691 20.7045 61.691 27.8897C61.691 35.2231 66.4317 40.3342 73.0984 40.3342C79.0984 40.3342 82.8761 35.9638 83.9873 31.5934L84.0613 31.4453H83.5428Z" fill="black"/>
<path d="M9.3148 10.6305C10.7876 10.6305 11.9815 9.43654 11.9815 7.96378C11.9815 6.49103 10.7876 5.29712 9.3148 5.29712C7.84204 5.29712 6.64813 6.49103 6.64813 7.96378C6.64813 9.43654 7.84204 10.6305 9.3148 10.6305Z" fill="black"/>
<path d="M55.9815 10.6305C57.4542 10.6305 58.6481 9.43654 58.6481 7.96378C58.6481 6.49103 57.4542 5.29712 55.9815 5.29712C54.5087 5.29712 53.3148 6.49103 53.3148 7.96378C53.3148 9.43654 54.5087 10.6305 55.9815 10.6305Z" fill="black"/>
</g>
<defs>
<clipPath id="clip0_1201_391">
<rect width="83.2611" height="48" fill="white" transform="translate(0.869446 0.556396)"/>
</clipPath>
</defs>
</svg>
