<svg width="91" height="57" viewBox="0 0 91 57" fill="none" xmlns="http://www.w3.org/2000/svg">
<g clip-path="url(#clip0_1201_346)">
<mask id="mask0_1201_346" style="mask-type:luminance" maskUnits="userSpaceOnUse" x="0" y="0" width="91" height="57">
<path d="M90.3848 0.559814H0.00112915V56.5584H90.3848V0.559814Z" fill="white"/>
</mask>
<g mask="url(#mask0_1201_346)">
<path d="M46.898 4.24439C46.898 4.0679 46.9296 3.91032 46.9928 3.75903C47.0561 3.60775 47.1446 3.47539 47.2646 3.36823C47.3785 3.25478 47.5176 3.16653 47.6757 3.09719C47.8273 3.02785 47.998 2.99634 48.1687 2.99634C48.3394 2.99634 48.5037 3.02785 48.6555 3.09719C48.8072 3.16653 48.9399 3.25478 49.0538 3.36823C49.1738 3.48169 49.2624 3.60775 49.3319 3.75903C49.4015 3.91032 49.4331 4.0742 49.4331 4.24439V7.15022C49.4331 7.32672 49.4015 7.4906 49.3382 7.63558C49.275 7.78686 49.1866 7.91924 49.0664 8.02639C48.9527 8.13985 48.8136 8.22809 48.6555 8.29742C48.5037 8.36677 48.3331 8.39828 48.1624 8.39828C47.9917 8.39828 47.8273 8.36677 47.6757 8.29742C47.5239 8.22809 47.3911 8.13985 47.2774 8.02639C47.1635 7.91292 47.0686 7.78686 46.9991 7.63558C46.9296 7.4843 46.898 7.32041 46.898 7.15022V4.24439ZM45.5577 9.72829C45.8928 10.0561 46.2848 10.3208 46.7336 10.5162C47.1825 10.7116 47.6566 10.8062 48.1624 10.8062C48.6681 10.8062 49.1422 10.7116 49.5912 10.5162C50.04 10.3208 50.432 10.0624 50.767 9.72829C51.1021 9.40051 51.3676 9.00971 51.5636 8.57478C51.7596 8.13355 51.8543 7.66079 51.8543 7.15653V4.2507C51.8543 3.74643 51.7596 3.27369 51.5636 2.82614C51.3676 2.37861 51.1021 1.99411 50.767 1.66003C50.432 1.33226 50.04 1.07382 49.5912 0.884724C49.1422 0.695625 48.6681 0.601074 48.1624 0.601074C47.6566 0.601074 47.1825 0.695625 46.7336 0.884724C46.2848 1.07382 45.8928 1.33226 45.5577 1.66003C45.2227 1.98781 44.9572 2.37861 44.7613 2.82614C44.5653 3.27369 44.4704 3.74643 44.4704 4.2507V7.15653C44.4704 7.66079 44.5653 8.13355 44.7613 8.57478C44.9572 9.01601 45.2164 9.40051 45.5577 9.72829Z" fill="black"/>
<path d="M38.4017 4.24439C38.4017 4.0679 38.4333 3.91032 38.4966 3.75903C38.5597 3.60775 38.6482 3.47539 38.7684 3.36823C38.8821 3.25478 39.0212 3.16653 39.1793 3.09719C39.3309 3.02785 39.5017 2.99634 39.6724 2.99634C39.8431 2.99634 40.0075 3.02785 40.1591 3.09719C40.3109 3.16653 40.4437 3.25478 40.5574 3.36823C40.6776 3.48169 40.766 3.60775 40.8355 3.75903C40.9051 3.91032 40.9367 4.0742 40.9367 4.24439V7.15022C40.9367 7.32672 40.9051 7.4906 40.842 7.63558C40.7787 7.78686 40.6902 7.91924 40.57 8.02639C40.4563 8.13985 40.3172 8.22809 40.1591 8.29742C40.0075 8.36677 39.8368 8.39828 39.666 8.39828C39.4953 8.39828 39.3309 8.36677 39.1793 8.29742C39.0275 8.22809 38.8947 8.13985 38.781 8.02639C38.6672 7.91292 38.5724 7.78686 38.5029 7.63558C38.4333 7.4843 38.4017 7.32041 38.4017 7.15022V4.24439ZM37.0678 9.72829C37.4028 10.0561 37.7948 10.3208 38.2436 10.5162C38.6924 10.7116 39.1667 10.8062 39.6724 10.8062C40.1781 10.8062 40.6523 10.7116 41.1011 10.5162C41.55 10.3208 41.9419 10.0624 42.2769 9.72829C42.612 9.40051 42.8775 9.00971 43.0735 8.57478C43.2695 8.13355 43.3644 7.66079 43.3644 7.15653V4.2507C43.3644 3.74643 43.2695 3.27369 43.0735 2.82614C42.8775 2.37861 42.612 1.99411 42.2769 1.66003C41.9419 1.33226 41.55 1.07382 41.1011 0.884724C40.6523 0.695625 40.1781 0.601074 39.6724 0.601074C39.1667 0.601074 38.6924 0.695625 38.2436 0.884724C37.7948 1.07382 37.4028 1.33226 37.0678 1.66003C36.7327 1.98781 36.4672 2.37861 36.2712 2.82614C36.0752 3.27369 35.9803 3.74643 35.9803 4.2507V7.15653C35.9803 7.66079 36.0752 8.13355 36.2712 8.57478C36.4672 9.01601 36.7264 9.40051 37.0678 9.72829Z" fill="black"/>
<path d="M68.4815 2.11404H68.7533V0.790351H69.2527V0.557129H67.9883V0.790351H68.4815V2.11404Z" fill="black"/>
<path d="M69.6877 0.910113L70.1239 2.11404H70.3515L70.7814 0.910113H70.7877V2.11404H71.0469V0.557129H70.6676L70.244 1.77366L69.8078 0.557129H69.4286V2.11404H69.6877V0.910113Z" fill="black"/>
<path d="M23.0447 3.53234C23.0447 3.53234 23.0763 3.55755 23.0952 3.57646C23.0636 3.77186 23.0447 3.97357 23.0447 4.18789V9.59614C23.0447 9.93651 23.1584 10.2202 23.3924 10.4471C23.6263 10.6803 23.9108 10.7938 24.2459 10.7938C24.3975 10.7938 24.5493 10.7623 24.701 10.6992C24.8527 10.6362 24.9792 10.5542 25.0867 10.4471C25.1941 10.3399 25.2827 10.2139 25.3458 10.0626C25.4154 9.9113 25.447 9.76003 25.447 9.59614V4.21941C25.447 3.88533 25.5482 3.58907 25.7505 3.34324C25.9528 3.09742 26.2246 2.97765 26.5597 2.97765C26.8694 2.97765 27.3562 3.12893 27.5205 3.36845C27.6849 3.60798 27.7671 3.89793 27.7671 4.23201V9.61505C27.7671 9.95543 27.8872 10.2328 28.1211 10.466C28.355 10.6992 28.6395 10.8127 28.9683 10.8127C29.2969 10.8127 29.5941 10.6992 29.8217 10.466C30.0556 10.2328 30.1695 9.94913 30.1695 9.61505V4.24462C30.1695 3.91054 30.2516 3.61428 30.416 3.36845C30.5803 3.12263 31.0038 2.99656 31.3137 2.99656C31.6551 2.99656 31.9269 3.12263 32.1292 3.36845C32.3378 3.61428 32.4389 3.90424 32.4389 4.24462V9.61505C32.4389 9.95543 32.5528 10.2328 32.7867 10.466C33.0206 10.6992 33.305 10.8127 33.6401 10.8127C33.7919 10.8127 33.9498 10.7812 34.0953 10.7181C34.247 10.6551 34.3734 10.5732 34.4809 10.466C34.5883 10.3588 34.6706 10.2328 34.7401 10.0815C34.8096 9.93021 34.8412 9.77894 34.8412 9.61505V4.2131C34.8412 3.71514 34.7527 3.24238 34.5694 2.80746C34.3924 2.36622 34.1458 1.98802 33.8298 1.66025C33.5136 1.33248 33.1406 1.07405 32.7044 0.878642C32.2682 0.68324 31.8004 0.58869 31.301 0.58869C30.8459 0.58869 30.2579 0.651723 29.9102 0.784093C29.5625 0.916463 29.2464 1.09296 28.9683 1.32618C28.69 1.09296 28.3677 0.916463 27.9947 0.784093C27.6281 0.651723 26.9768 0.563477 26.5406 0.563477C26.0286 0.563477 25.5608 0.658026 25.1309 0.853429C24.8148 0.998406 24.543 1.18751 24.2838 1.40182L24.1889 1.30727C23.7148 0.840822 22.9562 0.840822 22.482 1.30727C22.0142 1.78002 22.0142 2.53641 22.482 3.00916L23.0194 3.54495L23.0447 3.53234Z" fill="black"/>
<path d="M63.2711 4.2446C63.2711 4.0681 63.3027 3.91052 63.3659 3.75924C63.4291 3.60796 63.5177 3.47558 63.6377 3.36843C63.7516 3.25497 63.8907 3.16673 64.0486 3.09739C64.2004 3.02805 64.3711 2.99654 64.5418 2.99654C64.7124 2.99654 64.8768 3.02805 65.0286 3.09739C65.1803 3.16673 65.313 3.25497 65.4269 3.36843C65.5469 3.4819 65.6355 3.60796 65.705 3.75924C65.7745 3.91052 65.8062 4.07441 65.8062 4.2446V4.40218H63.2711V4.2446ZM61.9371 9.72848C62.2722 10.0563 62.6642 10.321 63.113 10.5164C63.5619 10.7118 64.036 10.8064 64.5418 10.8064C65.0475 10.8064 65.5216 10.7118 65.9705 10.5164C66.4193 10.321 66.8113 10.0626 67.1464 9.72848C67.374 9.50157 67.57 9.24944 67.7343 8.97209H67.7217C67.8418 8.78299 67.9114 8.56237 67.9114 8.32284C67.9114 7.661 67.374 7.12522 66.7102 7.12522C66.2361 7.12522 65.8315 7.40256 65.6355 7.79966C65.5848 7.88791 65.5216 7.96355 65.4458 8.03289C65.332 8.14635 65.193 8.2346 65.0349 8.30393C64.8831 8.37327 64.7124 8.40479 64.5418 8.40479C64.3711 8.40479 64.2067 8.37327 64.055 8.30393C63.9032 8.2346 63.7705 8.14635 63.6567 8.03289C63.5429 7.91943 63.448 7.79336 63.3785 7.64209C63.309 7.49081 63.2773 7.32692 63.2773 7.15673V6.40033H67.0136C67.0136 6.40033 67.0262 6.40033 67.0389 6.40033C67.6647 6.40033 68.1769 5.92128 68.2274 5.30986H68.2401V4.2446C68.2401 3.74033 68.1453 3.26758 67.9493 2.82005C67.7533 2.3725 67.4877 1.988 67.1527 1.65393C66.8176 1.32616 66.4256 1.06772 65.9768 0.87862C65.528 0.68952 65.0538 0.594971 64.5481 0.594971C64.0423 0.594971 63.5682 0.68952 63.1194 0.87862C62.6705 1.06772 62.2786 1.32616 61.9435 1.65393C61.6085 1.9817 61.3429 2.3725 61.147 2.82005C60.951 3.26758 60.8561 3.74033 60.8561 4.2446V7.15043C60.8561 7.6547 60.951 8.12744 61.147 8.56868C61.3429 9.0099 61.6021 9.39441 61.9435 9.72218" fill="black"/>
<path d="M56.1409 8.4424C55.6477 8.36046 55.2557 8.10202 55.0788 7.78686C55.0597 7.75535 55.0345 7.72382 55.0218 7.68601C54.927 7.43388 54.769 7.22587 54.5603 7.05568C54.3517 6.88549 54.0989 6.80354 53.7955 6.80354C53.4667 6.80354 53.1885 6.917 52.9673 7.15022C52.746 7.38344 52.6322 7.6671 52.6322 8.00748C52.6322 8.18397 52.6638 8.36677 52.7334 8.55587C52.9736 9.09795 53.277 9.52027 53.6311 9.81653C53.9913 10.1191 54.3454 10.3397 54.6995 10.4847C55.0534 10.6297 55.3696 10.7179 55.6603 10.7557C55.9449 10.7872 56.1409 10.8062 56.2356 10.8062C56.7478 10.8062 57.2345 10.7431 57.6897 10.6107C58.1448 10.4784 58.5431 10.283 58.8845 10.0182C59.2259 9.7535 59.4915 9.41942 59.6873 9.02232C59.8898 8.6252 59.9845 8.16506 59.9845 7.62928C59.9845 7.0935 59.8896 6.63965 59.6938 6.22994C59.4978 5.82023 59.2322 5.46724 58.8909 5.17728C58.5494 4.88734 58.1575 4.66041 57.7086 4.49022C57.2598 4.32003 56.7794 4.21918 56.2736 4.18136C56.2609 4.18136 56.2483 4.17506 56.2293 4.17506C56.1788 4.17506 56.1345 4.17506 56.0839 4.16245C55.7615 4.11202 55.5024 3.94183 55.3885 3.73382C55.3316 3.65188 55.3 3.56363 55.3 3.47539C55.3 3.38714 55.338 3.2989 55.4201 3.21065C55.5845 3.00894 55.9196 2.90179 56.2799 2.96482C56.4253 2.99003 56.5581 3.04046 56.6718 3.1035C56.7413 3.12871 56.8046 3.16022 56.8615 3.19804C57.0196 3.3115 57.1712 3.44388 57.304 3.60775C57.4116 3.74013 57.5506 3.84729 57.7276 3.92922C57.8983 4.00487 58.0753 4.04269 58.2524 4.04269C58.4293 4.04269 58.5874 4.00487 58.7391 3.92922C58.8909 3.85359 59.0172 3.75273 59.1184 3.63928C59.2196 3.51951 59.3018 3.39344 59.3587 3.25478C59.4155 3.1161 59.4471 2.97743 59.4471 2.83875C59.4471 2.70009 59.4282 2.58032 59.3903 2.47316C59.3523 2.36601 59.3081 2.27776 59.2764 2.19582C59.0425 1.7987 58.7581 1.49615 58.4231 1.28183C58.088 1.06752 57.7655 0.909937 57.4495 0.809084C57.1333 0.708231 56.8615 0.645197 56.6402 0.626288C56.419 0.607378 56.2925 0.601074 56.2736 0.601074C55.7615 0.601074 55.2937 0.664107 54.8828 0.796477C54.4719 0.928848 54.1178 1.11795 53.8144 1.36378C53.5109 1.60961 53.2833 1.91216 53.1253 2.26515C52.9673 2.61814 52.885 3.02155 52.885 3.47539C52.885 3.96704 52.9673 4.40198 53.1379 4.78018C53.3086 5.15837 53.5425 5.47354 53.8523 5.73828C54.1557 5.99672 54.5161 6.20473 54.927 6.34971C55.3127 6.48208 55.7299 6.56402 56.1788 6.58923C56.2609 6.59553 56.3432 6.60183 56.4316 6.62074C57.1586 6.74051 57.6834 7.24478 57.5949 7.75535C57.5127 8.26591 56.8552 8.58108 56.1282 8.46131" fill="black"/>
<path fill-rule="evenodd" clip-rule="evenodd" d="M86.7001 8.20898C87.7621 9.43182 88.6978 10.8122 89.0707 11.5434L89.0772 11.556C90.5374 14.4178 91.8904 20.9731 86.5674 25.291C82.5086 28.5812 80.5678 29.1801 61.0079 29.281C63.385 31.7077 64.6241 34.8657 64.6241 38.5973C64.6241 48.4934 55.9125 56.5553 45.2097 56.5616C34.4814 56.5553 25.7698 48.4934 25.7698 38.5973C25.7698 34.8594 27.0089 31.7014 29.386 29.281C9.8261 29.1801 7.88529 28.5812 3.82665 25.291C-1.50269 20.9731 -0.143492 14.4178 1.31686 11.556C1.69618 10.8249 2.62549 9.44443 3.68756 8.22159C5.72953 5.87046 12.0957 2.15781 16.3693 3.13482C18.9422 3.72733 20.51 5.3725 20.6744 7.66059V7.78036V7.98207C20.6744 8.49263 20.5923 9.0032 20.4216 9.48856C19.9497 11.0189 18.8897 11.8815 18.0321 12.5794L18.0193 12.5898C17.8296 12.7411 17.64 12.8986 17.4503 13.0625L17.3301 13.176L17.1974 13.3083C16.9699 13.5352 16.7675 13.7684 16.5842 14.0018C15.775 15.0165 15.3704 15.9621 15.4588 16.6176V16.6806C15.4588 16.6806 15.4653 16.7184 15.4905 16.8004L15.5032 16.8382C15.5095 16.8571 15.5348 16.9075 15.5348 16.9075V16.9264C15.6928 17.3172 16.091 17.9854 16.9699 17.9854C18.2595 17.9854 19.2077 17.0336 19.7704 16.2331C20.4342 15.2939 21.3192 14.8148 22.4066 14.8148C24.1452 14.8148 25.5612 16.2268 25.5612 17.9665V18.0674C25.5486 18.6851 25.5675 19.5928 25.6561 20.1348C25.7446 20.5508 25.8584 20.8408 25.9595 21.0425C25.9974 21.1118 26.2756 21.5279 26.5475 21.0299C26.6026 20.9411 26.6521 20.8494 26.6958 20.7683C26.7173 20.7285 26.7374 20.6912 26.7561 20.658C26.8889 20.4059 27.0279 20.1475 27.1986 19.9016C27.7613 18.9246 28.7981 18.3195 29.936 18.3195C30.505 18.3195 31.0612 18.4708 31.5481 18.7607L31.605 18.7922C31.6795 18.8417 31.754 18.8974 31.8285 18.9531L31.8325 18.9561L31.8704 18.9876C32.4458 19.454 32.8377 20.179 33.1095 21.282C33.1159 21.3135 33.1348 21.3639 33.1348 21.3639L33.1664 21.4712C33.1855 21.5216 33.2107 21.5846 33.2107 21.5846L33.2234 21.6098C33.2613 21.6855 33.2929 21.7422 33.3245 21.7926C33.4004 21.9124 33.4762 22.0132 33.5584 22.1015C33.6722 22.2212 34.2475 22.7885 34.4245 22.2843C34.4245 22.2817 34.4267 22.2791 34.4292 22.276C34.4328 22.2717 34.4371 22.2664 34.4371 22.259C36.7256 15.5838 39.7539 13.0373 45.1906 13.0373C50.6338 13.0373 53.662 15.5838 55.9504 22.278C55.9543 22.278 55.9559 22.2803 55.9565 22.2836C55.9569 22.2857 55.9569 22.2881 55.9569 22.2906C56.1148 22.7318 56.5826 22.3473 56.766 22.1645C56.8672 22.0637 56.962 21.9439 57.0505 21.8052C57.0622 21.7838 57.0733 21.7642 57.0838 21.7456C57.1073 21.7041 57.1278 21.668 57.1453 21.6288L57.1706 21.572C57.1706 21.5646 57.1771 21.5486 57.185 21.529C57.1906 21.5151 57.197 21.4994 57.2022 21.4838L57.2339 21.3891C57.2458 21.3592 57.2578 21.3236 57.2699 21.2877L57.2718 21.282C57.5436 20.179 57.9356 19.4477 58.5109 18.9876L58.5488 18.9561C58.6246 18.8994 58.7069 18.8426 58.7827 18.7922L58.8648 18.7418C59.3263 18.4708 59.8827 18.3195 60.4517 18.3195C61.5896 18.3195 62.6264 18.9246 63.1891 19.9016C63.3534 20.1411 63.4988 20.4059 63.6316 20.658C63.6542 20.6986 63.6793 20.7441 63.7059 20.7924C63.7537 20.879 63.8064 20.9747 63.8592 21.0677C64.1057 21.4712 64.3459 21.1748 64.4155 21.0677C64.5166 20.8597 64.6368 20.5634 64.7316 20.1285C64.8264 19.5865 64.8391 18.6788 64.8264 18.0611H64.8391L64.8264 17.9602C64.8264 16.2205 66.2488 14.8085 67.9874 14.8085C69.0747 14.8085 69.9598 15.2813 70.6236 16.2205C71.1862 17.021 72.1281 17.9728 73.4241 17.9728C74.2965 17.9728 74.6948 17.3046 74.8529 16.9075C74.8591 16.892 74.8638 16.878 74.8685 16.864C74.8733 16.8496 74.8781 16.8353 74.8845 16.8193L74.8971 16.7878C74.9224 16.7058 74.935 16.6617 74.935 16.6617V16.605C75.0173 15.9495 74.6127 15.0039 73.8224 14.0144C73.6201 13.7558 73.4178 13.5226 73.1965 13.3083C73.127 13.2327 73.0575 13.1697 73.0575 13.1697L72.9184 13.0373C72.7477 12.886 72.558 12.7285 72.3684 12.5772C71.5086 11.8775 70.4402 11.0076 69.9661 9.47594C69.8017 8.99059 69.7132 8.48002 69.7132 7.96946C69.7132 7.90642 69.7132 7.84969 69.7259 7.78666V7.64799C69.8838 5.35989 71.4517 3.70842 74.0247 3.12221C78.2983 2.1452 84.6582 5.85784 86.7001 8.20898ZM50.3927 47.4348C52.9088 47.4474 55.5639 44.3335 56.3289 40.4759C57.0938 36.6183 55.6777 33.4793 53.1616 33.4667C50.6455 33.4541 47.9903 36.5678 47.2254 40.4255C46.4604 44.2831 47.8765 47.4222 50.3927 47.4348ZM48.0598 20.5764C47.1558 20.7403 46.6248 21.5218 46.5678 22.5556H46.5615C46.5173 23.4508 46.5995 24.5853 46.8145 25.5939C48.0978 25.6884 49.261 25.8901 50.222 26.1674C50.2599 25.972 50.2915 25.764 50.2915 25.5308C50.3167 24.2953 50.1523 23.2554 49.9058 22.1081C49.653 20.9609 48.9639 20.4125 48.0598 20.5764ZM40.1069 26.1737C41.0806 25.8901 42.269 25.6821 43.5776 25.5876H43.5713C43.8115 24.5853 43.9317 23.4697 43.9127 22.5998C43.8874 21.5661 43.3816 20.8033 42.4839 20.6709C41.5863 20.5449 40.8783 21.1185 40.5874 22.2783C40.3029 23.438 40.1069 24.4844 40.088 25.7199C40.088 25.8775 40.0943 26.0288 40.1069 26.1737ZM34.0822 40.4759C34.8471 44.3335 37.5024 47.4474 40.0184 47.4348C42.5282 47.4222 43.9506 44.2831 43.1856 40.4255C42.4208 36.5678 39.7592 33.4541 37.2494 33.4667C34.7333 33.4793 33.3173 36.6183 34.0822 40.4759ZM85.4222 9.31871C86.4209 10.4722 87.2744 11.7518 87.5588 12.3128L87.6158 12.3065C88.1594 13.3717 90.7325 19.757 85.5485 23.9613C81.7175 27.0688 80.0991 27.5353 57.0811 27.592C56.8915 27.592 56.7335 27.7433 56.7335 27.9387C56.7335 28.0836 56.822 28.2097 56.9484 28.2601C60.6404 30.3339 62.9794 33.7062 62.9794 38.5786C62.9794 47.5608 55.0519 54.8475 45.2656 54.8538H45.2403C35.4541 54.8412 27.5264 47.5608 27.5264 38.5786C27.5264 33.7062 29.8655 30.3339 33.5575 28.2601C33.684 28.2097 33.7724 28.0836 33.7724 27.9387C33.7724 27.7496 33.6207 27.5857 33.4247 27.5857C10.4068 27.5353 8.78839 27.0688 4.95734 23.9613C-0.232916 19.7507 2.34641 13.3717 2.89009 12.3065C3.17457 11.7455 4.0217 10.4659 5.02688 9.3124C6.81597 7.25122 12.5879 3.97981 16.0396 4.76772C17.873 5.19005 18.9161 6.23009 19.0235 7.76179V7.79331V7.9635C19.0235 8.30388 18.9603 8.63164 18.8528 8.94051C18.5322 9.99942 17.7789 10.6111 16.9893 11.2522C16.7824 11.4201 16.5731 11.5901 16.3684 11.7707C16.3399 11.7959 16.3146 11.8211 16.2894 11.8463C16.2641 11.8715 16.2388 11.8967 16.2103 11.922V11.9157C16.2103 11.9157 16.1407 11.9787 16.0333 12.0859C15.7488 12.3695 15.4959 12.6595 15.2746 12.9431C14.5224 13.8886 13.6247 15.3572 13.8079 16.8007C13.8142 16.9394 13.8458 17.097 13.9028 17.2734C13.9091 17.2797 13.9091 17.2923 13.9091 17.2923C13.9203 17.3332 13.9359 17.3741 13.9519 17.4162C13.9631 17.4456 13.9746 17.4756 13.9849 17.5066V17.5194C14.358 18.4522 15.2872 19.6499 16.9941 19.6499C19.3016 19.6499 20.6988 17.8723 21.1855 17.1789C21.527 16.6936 21.9063 16.4793 22.431 16.4793C23.2402 16.4793 23.8913 17.1348 23.8913 17.9353V17.9984C23.8913 18.0231 23.8912 18.0547 23.891 18.0923C23.8893 18.5052 23.8845 19.6447 24.0178 20.4188C24.258 21.5344 24.7574 22.6691 25.7121 22.9968C27.1706 23.5014 27.796 22.3406 28.2879 21.4277C28.4228 21.1772 28.5477 20.9455 28.677 20.7718C28.9236 20.3054 29.4103 19.9839 29.973 19.9839C30.2448 19.9839 30.4977 20.0596 30.7126 20.1856C30.7189 20.1919 30.7252 20.1982 30.7317 20.1982C30.7665 20.2155 30.8013 20.2435 30.8312 20.2676C30.8339 20.2697 30.8365 20.2718 30.8391 20.2739C31.2349 20.5941 31.4381 21.4178 31.496 21.6524C31.5019 21.6763 31.5063 21.6942 31.5092 21.7047C31.5132 21.7326 31.5223 21.7581 31.5317 21.7842C31.537 21.7993 31.5425 21.8146 31.5471 21.8308C31.566 21.9064 31.5914 21.9758 31.6167 22.0451L31.6174 22.047C31.6488 22.1282 31.6802 22.2096 31.7178 22.2909C31.7368 22.3224 31.7494 22.3476 31.762 22.3728C31.8117 22.4719 31.8675 22.5648 31.9233 22.6577L31.9264 22.6628C32.5207 23.6083 33.3805 24.0306 33.3805 24.0306C33.8672 24.3332 34.3983 24.5664 34.8977 24.7303C34.9926 24.7681 35.1633 24.7996 35.3213 24.724C35.492 24.642 35.5615 24.3584 35.5615 24.3584C37.9639 16.2839 40.7897 14.6891 45.2213 14.6891C49.653 14.6891 52.4788 16.2839 54.8812 24.3584C54.8812 24.3584 54.9507 24.642 55.1214 24.724C55.2731 24.7996 55.4437 24.7618 55.5449 24.7303C56.0443 24.5664 56.5754 24.3332 57.0622 24.0369C57.0622 24.0369 57.9283 23.6146 58.5162 22.6691C58.5731 22.5808 58.6301 22.48 58.6806 22.3791C58.6996 22.3476 58.7122 22.3224 58.7248 22.2972C58.7628 22.2153 58.7944 22.1333 58.8259 22.0514C58.8386 22.0167 58.8497 21.9805 58.8608 21.9442C58.8719 21.908 58.8829 21.8717 58.8956 21.8371C58.902 21.8146 58.9085 21.7937 58.9149 21.7728C58.9211 21.7527 58.9273 21.7326 58.9335 21.711C58.9345 21.7068 58.9358 21.7013 58.9373 21.6946C58.9753 21.5291 59.1844 20.6193 59.6036 20.2802C59.6223 20.2677 59.6395 20.2552 59.6566 20.2428C59.6743 20.23 59.6919 20.2173 59.7111 20.2045C59.7174 20.1982 59.7237 20.1919 59.73 20.1919C59.945 20.0659 60.1978 19.9902 60.4697 19.9902C61.0387 19.9902 61.5254 20.3117 61.7656 20.7781C61.8949 20.9518 62.0198 21.1835 62.1547 21.4339C62.6466 22.3469 63.272 23.5077 64.7306 23.0031C65.6852 22.6754 66.1846 21.5409 66.4248 20.4251C66.5616 19.6581 66.5546 18.5481 66.5518 18.1196C66.5515 18.0727 66.5513 18.0339 66.5513 18.0047V17.9984V17.9353C66.5513 17.1285 67.2088 16.4793 68.0117 16.4793C68.5363 16.4793 68.9157 16.6999 69.2571 17.1789C69.7438 17.8723 71.141 19.6499 73.4485 19.6499C75.1491 19.6499 76.0847 18.4585 76.4577 17.5194C76.464 17.5194 76.464 17.5066 76.464 17.5066C76.4709 17.4877 76.4783 17.4683 76.4858 17.4487C76.5056 17.3965 76.5261 17.3428 76.5398 17.2923C76.5463 17.286 76.5462 17.2734 76.5462 17.2734C76.5968 17.0907 76.6284 16.9331 76.641 16.8007C76.8244 15.3509 75.9266 13.8886 75.1744 12.9431C74.9531 12.6532 74.7002 12.3695 74.4157 12.0859C74.302 11.9787 74.2388 11.9157 74.2388 11.9157V11.922L74.2361 11.9193C74.1864 11.8698 74.1366 11.8202 74.0807 11.7707C73.876 11.5902 73.6667 11.4203 73.4599 11.2524C72.6702 10.6112 71.9168 9.99952 71.5962 8.94051C71.4888 8.63795 71.4255 8.31018 71.4255 7.9635V7.79331V7.76179C71.5267 6.23639 72.5761 5.19634 74.4094 4.77402C77.8612 3.98611 83.633 7.25753 85.4222 9.31871Z" fill="black"/>
</g>
</g>
<defs>
<clipPath id="clip0_1201_346">
<rect width="90.9978" height="56" fill="white" transform="translate(0.00112915 0.556396)"/>
</clipPath>
</defs>
</svg>
