<svg width="151" height="27" viewBox="0 0 151 27" fill="none" xmlns="http://www.w3.org/2000/svg">
<g clip-path="url(#clip0_1201_294)">
<path d="M9.65092 2.27502C8.19756 4.66072 7.67655 5.37369 5.5285 7.86908C3.70952 9.98971 2.90514 11.0409 2.25616 12.1195C1.29639 13.7374 0.875924 15.1724 0.802799 17.1194C0.757095 18.2528 0.775377 18.5453 0.949049 19.2857C1.40608 21.2327 2.63092 23.0699 4.36764 24.3771C7.74053 26.9181 12.1463 27.0553 15.7203 24.7335C16.744 24.0663 18.0694 22.6952 18.6727 21.6714C20.3637 18.8013 20.1626 15.0902 18.1426 11.7996C17.5667 10.8581 16.9543 10.0628 15.309 8.08846C13.3255 5.71189 12.4754 4.56932 11.3694 2.78689C10.8575 1.96424 10.4187 1.26041 10.3822 1.22385C10.3548 1.18729 10.0165 1.6626 9.65092 2.27502ZM10.7112 7.75025C10.8666 7.96963 11.6801 8.96596 12.5211 9.97143C14.2487 12.0555 14.7331 12.6588 14.7788 12.8324C14.7971 12.9056 14.532 13.0427 14.0293 13.2072C13.5997 13.3443 12.9873 13.6003 12.6582 13.7648C12.0183 14.0847 10.7844 14.8891 10.693 15.0445C10.5924 15.209 10.4279 15.145 9.77889 14.6514C8.69116 13.8379 6.73506 12.9421 6.04038 12.9421C5.91241 12.9421 5.80272 12.9056 5.80272 12.8599C5.80272 12.7502 6.36944 12.0555 7.99647 10.1542C8.72772 9.29502 9.55038 8.32611 9.8246 7.97877C10.0897 7.64057 10.3456 7.36635 10.373 7.36635C10.4096 7.36635 10.5558 7.54002 10.7112 7.75025ZM5.54678 16.3333C6.85389 16.6075 8.27983 17.6038 9.46811 19.0846C9.87944 19.6056 10.2359 20.0444 10.2542 20.0718C10.2725 20.0901 10.7569 19.6422 11.3145 19.0572C13.0421 17.2748 14.3309 16.4887 15.8848 16.2785C16.2962 16.2236 16.3236 16.2328 16.415 16.4796C16.4698 16.6258 16.4973 17.1468 16.479 17.7044C16.4515 18.6367 16.4333 18.7007 16.0494 19.4868C14.9708 21.6531 12.4205 23.1065 9.9617 22.9694C7.5303 22.8231 5.22686 21.251 4.37678 19.1395C4.1117 18.4996 4.00202 17.549 4.10256 16.7446L4.16655 16.2328H4.61444C4.86124 16.2328 5.2817 16.2785 5.54678 16.3333Z" fill="black"/>
<path d="M86.7887 2.58568C84.4944 2.99701 82.5931 4.14873 81.5602 5.77576C80.8015 6.9549 80.5548 7.8324 80.5456 9.33146C80.5456 10.9402 80.8838 11.9183 81.7979 12.9237C82.7302 13.9383 83.6626 14.4228 86.4322 15.346C89.1744 16.2509 89.9787 16.6805 90.3535 17.4118C90.5546 17.8231 90.6003 18.6092 90.4358 19.0388C90.1798 19.7244 89.2749 20.2911 88.1232 20.5013C86.551 20.7755 84.9331 20.2728 83.7174 19.1302L83.1507 18.6001L82.6937 19.0845C82.4469 19.3496 81.7065 20.1631 81.0392 20.8944L79.8326 22.2197L80.2897 22.6311C81.2769 23.536 82.9953 24.3587 84.5492 24.6877C85.5181 24.8979 87.5382 24.9711 88.5437 24.834C91.4869 24.4409 93.571 23.1338 94.6039 21.0315C95.0518 20.1265 95.2072 19.4501 95.262 18.1979C95.3443 16.2052 94.9878 15.1815 93.7904 13.984C92.794 12.9969 91.9897 12.5947 89.4486 11.7994C86.7704 10.9676 85.9203 10.5289 85.5912 9.79764C85.2622 9.07553 85.445 8.16146 86.0208 7.62217C86.679 7.00975 88.0866 6.65326 89.2383 6.81779C90.3444 6.97318 91.103 7.30225 91.7337 7.89639L92.0628 8.19803L92.2822 7.93295C92.401 7.77756 93.1323 6.98232 93.8909 6.15053L95.2894 4.64232L94.7136 4.21271C92.7758 2.75021 89.5674 2.09209 86.7887 2.58568Z" fill="black"/>
<path d="M129.494 2.78695C129.521 2.86008 131.23 5.48344 135.837 12.4852L137.428 14.9074V19.496V24.0938H139.804H142.181V19.5326V14.9805L143.131 13.5272C143.662 12.732 145.462 9.97148 147.153 7.41211L150.206 2.75039L147.501 2.72297C146.011 2.71383 144.749 2.71383 144.695 2.74125C144.64 2.75953 143.534 4.55109 142.236 6.70828C140.929 8.87461 139.841 10.6296 139.804 10.6113C139.768 10.593 138.735 8.80148 137.519 6.63516L135.289 2.70469H132.373C130.709 2.70469 129.475 2.74125 129.494 2.78695Z" fill="black"/>
<path d="M53.727 10.3097C53.7544 17.4028 53.7636 17.677 53.9555 18.4449C54.7508 21.7172 56.7251 23.7464 59.9609 24.6148C60.811 24.8433 61.003 24.8616 62.7945 24.8616C64.5952 24.8616 64.7689 24.8433 65.6098 24.6148C67.2734 24.1577 68.48 23.4722 69.522 22.3845C70.5092 21.3607 71.0851 20.3095 71.533 18.6916L71.7432 17.9238L71.7798 10.4468L71.8072 2.97891H69.4763H67.1455L67.118 9.94407C67.0906 16.8635 67.0815 16.9275 66.8804 17.5216C66.1766 19.624 64.2387 20.858 62.1455 20.5289C60.3814 20.2547 59.056 19.0024 58.5898 17.1926C58.471 16.7356 58.4527 15.6387 58.4527 9.8161V2.97891H56.067H53.6905L53.727 10.3097Z" fill="black"/>
<path d="M103.973 13.6734V24.3679H106.304H108.635V19.7519V15.1359H113.251H117.867V19.7519V24.3679H120.243H122.62V13.6734V2.97886H120.243H117.867V6.95503V10.9312H113.251H108.635V6.95503V2.97886H106.304H103.973V13.6734Z" fill="black"/>
<path d="M28.1973 5.30967V7.36631H31.2594H34.3215V16.0042V24.6421H36.698H39.0746V16.0042V7.36631H42.1367H45.1988V5.30967V3.25303H36.698H28.1973V5.30967Z" fill="black"/>
</g>
<defs>
<clipPath id="clip0_1201_294">
<rect width="150.312" height="26" fill="white" transform="translate(0.34375 0.556396)"/>
</clipPath>
</defs>
</svg>
