<svg width="133" height="41" viewBox="0 0 133 41" fill="none" xmlns="http://www.w3.org/2000/svg">
<g clip-path="url(#clip0_1201_191)">
<path d="M108.757 28.3611C108.757 19.9647 108.757 21.7101 108.757 14.488H105.917V28.7668C105.576 28.9963 104.972 29.2205 104.134 29.2205C103.077 29.2205 102.394 28.4999 102.394 26.7597V14.488H99.5544V26.3434C99.5544 30.0212 101.257 31.6492 104.022 31.6492C106.259 31.6492 107.668 30.7364 108.938 30.4802C108.933 30.4589 108.928 30.4375 108.922 30.4162C108.885 30.3574 108.773 29.9784 108.757 28.3611Z" fill="black"/>
<path d="M96.9444 4.33531C97.6276 4.33531 97.8465 4.58085 98.0386 4.65558L98.9461 2.14146C98.9461 2.14146 97.9639 1.57031 96.8376 1.57031C93.7257 1.57031 92.61 3.59335 92.61 6.65192C92.61 10.8208 92.61 36.0206 92.61 40.1788L95.4551 38.7483C95.4551 34.446 95.4551 26.8236 95.4551 17.5624H98.0867V14.4825H95.4551V14.3651C95.4551 14.3544 95.4605 6.65192 95.4498 6.65192C95.4391 6.04875 95.5245 4.33531 96.9444 4.33531Z" fill="black"/>
<path d="M85.4893 14.0662C82.0251 14.0929 80.2209 17.0554 80.2209 22.7455C80.2209 28.6064 82.0838 31.649 85.4893 31.649C88.9002 31.649 90.7577 28.6064 90.7577 22.7455C90.7577 17.0554 88.9536 14.0929 85.4893 14.0662ZM85.4893 29.0975C83.968 29.0975 83.1247 27.4588 83.1247 22.7455C83.1247 18.2777 83.9253 16.6924 85.4893 16.6924C87.0533 16.6924 87.8646 18.6727 87.854 22.7455C87.8486 27.3093 87.0106 29.0975 85.4893 29.0975Z" fill="black"/>
<path d="M131.672 30.4106C131.384 30.0156 131.507 23.8931 131.507 14.4985H128.667V28.7612C128.016 29.1989 125.144 30.2024 125.144 26.7542V14.4985H122.304V26.3378C122.304 30.0156 124.007 31.6436 126.772 31.6436C129.009 31.6436 130.418 30.7309 131.688 30.4747C131.683 30.4533 131.678 30.432 131.672 30.4106Z" fill="black"/>
<path d="M117.02 21.315L120.543 14.4986H120.5H117.175H117.164L114.058 20.9414C114.058 20.9414 114.084 1.45295 114.084 1.22876L111.212 2.6593V31.126C111.922 31.126 113.871 31.126 114.084 31.126V21.9182H114.159L117.986 31.1206H120.863C120.89 31.1206 120.917 31.1206 120.943 31.1206L120.933 31.0993L121.109 31.1206L117.02 21.315Z" fill="black"/>
<path d="M74.9098 14.0715C73.5433 14.0715 72.3476 14.9416 71.4028 15.9291C71.0612 14.9416 70.0203 14.0715 68.5044 14.0715C67.2393 14.0715 66.1984 14.8882 65.6059 15.5074V14.4825H62.7662V31.1205H65.6059C65.6059 29.0441 65.6059 21.6352 65.6059 18.4966C65.6059 18.0696 66.1344 17.5358 66.1344 17.5304C66.8817 16.8152 68.1948 16.7298 68.7499 17.5304C68.7606 17.5411 68.7659 17.5571 68.7766 17.5678C69.0008 17.9041 69.1289 18.4058 69.1289 19.1265V31.1205H71.9526C71.9526 29.0441 71.9526 21.6352 71.9526 18.4966C71.9526 18.0696 72.4811 17.5358 72.4811 17.5304C73.0415 16.9913 73.9329 16.8098 74.5681 17.0981C75.577 17.4877 75.4862 18.9556 75.4862 19.8417C75.4862 25.66 75.4862 25.3931 75.4862 31.1205H78.3687C78.3687 26.7115 78.3687 23.3487 78.3687 18.8809C78.374 15.2832 76.8047 14.0715 74.9098 14.0715Z" fill="black"/>
<path d="M45.0713 14.0715C43.7048 14.0715 42.5091 14.9416 41.5643 15.9291C41.2227 14.9416 40.1818 14.0715 38.6659 14.0715C37.4008 14.0715 36.36 14.8882 35.7675 15.5074V14.4825H32.9277V31.1205H35.7675C35.7675 29.0441 35.7675 21.6352 35.7675 18.4966C35.7675 18.0696 36.2959 17.5358 36.2959 17.5304C37.0379 16.8152 38.3563 16.7298 38.9114 17.5304C38.9221 17.5411 38.9275 17.5571 38.9381 17.5678C39.4132 18.2724 39.2904 18.155 39.2904 31.1205H42.1141C42.1141 29.0441 42.1141 21.6352 42.1141 18.4966C42.1141 18.0696 42.6426 17.5358 42.6426 17.5304C43.2031 16.9913 44.0945 16.8098 44.7297 17.0981C45.7385 17.4877 45.6478 18.9556 45.6478 19.8417C45.6478 25.66 45.6478 25.3931 45.6478 31.1205H48.5302C48.5302 27.0211 48.5302 22.9483 48.5302 18.8809C48.5355 15.2832 46.9662 14.0715 45.0713 14.0715Z" fill="black"/>
<path d="M55.6508 14.0662C52.1866 14.0929 50.3824 17.0554 50.3824 22.7455C50.3824 28.6064 52.2453 31.649 55.6508 31.649C59.0617 31.649 60.9193 28.6064 60.9193 22.7455C60.9246 17.0554 59.1151 14.0929 55.6508 14.0662ZM55.6508 29.0975C54.1295 29.0975 53.2862 27.4588 53.2862 22.7455C53.2862 18.2777 54.0868 16.6924 55.6508 16.6924C57.2148 16.6924 58.0262 18.6727 58.0155 22.7455C58.0101 27.3093 57.1721 29.0975 55.6508 29.0975Z" fill="black"/>
<path d="M28.5721 11.7764C26.8266 8.81392 22.8926 6.2144 18.5049 6.95102C16.1563 7.34602 14.8058 8.66446 13.7756 9.69466C13.7596 9.7 13.7436 9.7 13.7276 9.70534C11.9608 9.05946 6.35604 13.682 7.81327 20.8507C8.68868 25.169 12.0782 27.4429 14.9927 27.8539C18.7879 28.3877 22.1454 26.8077 24.0456 26.9252C24.083 26.9305 24.1257 26.9305 24.1631 26.9305C24.2698 26.9305 24.3445 26.9145 24.3766 26.8024C24.3926 26.733 24.3766 26.6583 24.3125 26.5408C23.9335 25.9857 25.4281 24.8487 26.2021 24.2669C27.6647 23.1673 28.8924 21.2083 29.3194 19.4469C29.6877 17.9256 30.1841 14.5201 28.5721 11.7764Z" fill="black"/>
<path d="M21.8624 7.14315C21.9425 7.1218 22.0172 7.10045 22.0973 7.08443C21.0884 6.84957 19.9888 6.77484 18.8305 6.93497C19.8501 7.34598 20.7842 7.4047 21.8624 7.14315Z" fill="black"/>
<path d="M23.6346 6.48646C23.6239 6.4918 23.6186 6.49714 23.6079 6.50248C23.3677 6.61991 23.1755 6.70532 23.1755 6.70532C22.8499 6.8441 22.519 6.96687 22.1186 7.07363C22.108 7.07896 22.1026 7.07896 22.092 7.0843C22.0172 7.10032 21.9425 7.12167 21.8624 7.14302C20.7842 7.40457 19.8554 7.34052 18.8306 6.93484C18.8145 6.9295 18.7985 6.91883 18.7825 6.91349C18.174 6.66261 17.5228 6.2943 16.7968 5.78721C17.2772 5.11998 17.8591 4.6716 19.0387 4.75167C20.2771 4.83707 21.4461 5.49897 22.5563 5.97403C23.0314 6.1662 23.4157 6.2089 23.7147 6.18221C23.9388 6.16619 23.8268 6.36903 23.6346 6.48646Z" fill="black"/>
<path d="M8.98761 3.65742C5.64613 4.56485 2.69965 7.08964 1.43458 9.26214H1.43992C1.3812 9.36889 1.42924 9.27281 1.31715 9.48099C1.28512 9.5397 1.35451 9.59842 1.40789 9.56105C1.7335 9.33687 2.22992 9.11268 2.97188 9.02193C8.57126 8.32268 15.5798 9.03795 16.6634 3.82823C14.2507 3.15033 11.3149 3.09161 8.98761 3.65742Z" fill="black"/>
</g>
<defs>
<clipPath id="clip0_1201_191">
<rect width="131.163" height="40" fill="white" transform="translate(0.91861 0.556396)"/>
</clipPath>
</defs>
</svg>
