<svg width="93" height="49" viewBox="0 0 93 49" fill="none" xmlns="http://www.w3.org/2000/svg">
<g clip-path="url(#clip0_1201_497)">
<path d="M12.7893 0.468323C12.7738 0.479973 12.7621 0.542109 12.7621 0.600362V0.7091L14.8514 0.72075C16.8864 0.736284 16.9408 0.736284 17.166 0.821721C17.7796 1.05085 18.1796 1.45473 18.3544 2.02949C18.432 2.27026 18.432 2.44502 18.4281 12.8644V23.4508L18.3155 22.9072C17.5971 19.346 15.9 16.9305 13.4417 15.9596C12.634 15.6411 11.9505 15.5285 10.8786 15.5324C9.34854 15.5402 8.1097 15.8198 6.87863 16.4295C3.34465 18.1809 1.24756 22.4373 0.703875 28.9654C0.49805 31.4508 0.548535 34.4994 0.839798 36.8101C1.27475 40.2586 2.23786 42.9809 3.71747 44.946C5.39902 47.179 7.69805 48.3402 10.6262 48.4295C12.3311 48.48 13.5388 48.1654 14.7815 47.3382C15.399 46.9305 16.1718 46.1382 16.6417 45.4353C17.4573 44.212 18.001 42.7984 18.3388 41.0431L18.4243 40.5771L18.4281 43.9829L18.432 47.3926H32.432H46.432L46.4359 43.9635V40.5382L46.5641 41.1596C47.2359 44.3868 48.8087 46.6897 51.0922 47.7771C52.1524 48.2819 53.1388 48.4722 54.5097 48.4295C57.7214 48.3285 60.1447 46.9305 61.7951 44.2237C62.0903 43.7343 62.5485 42.8062 62.7621 42.2586C62.8437 42.0489 62.9175 41.8858 62.9291 41.8936C62.9369 41.9052 63.0184 42.0916 63.1078 42.3169C64.5447 45.8353 67.7214 48.0411 71.8883 48.4023C72.5524 48.4606 73.9505 48.4295 74.5874 48.3441C75.9699 48.1538 77.0184 47.8431 78.1835 47.2722C80.9563 45.9208 82.801 43.3771 83.1349 40.445C83.1932 39.9324 83.1621 38.5965 83.0806 38.1693C82.6068 35.6722 81.1893 33.746 78.1563 31.4819C77.4107 30.9266 76.968 30.6159 75.0728 29.3343C74.3699 28.8567 73.566 28.3013 73.2864 28.0994C70.6845 26.2042 69.4029 24.7402 68.8243 23.0004C68.5835 22.2742 68.5485 22.0373 68.5485 21.0625C68.5524 20.3013 68.5641 20.1343 68.6379 19.7809C68.9447 18.3751 69.601 17.3421 70.6029 16.6936C71.0029 16.4334 71.1505 16.3596 71.5699 16.212C72.2379 15.979 72.7854 15.8897 73.6165 15.8936C76.0165 15.8936 77.267 17.0198 77.632 19.513C77.7291 20.1693 77.768 20.8062 77.8107 22.3169C77.834 23.1052 77.8689 23.9246 77.8883 24.1421C78.0204 25.4508 78.3272 26.2159 78.8864 26.6159C79.4845 27.0431 80.3932 27.113 81.0612 26.7907C82.1524 26.2586 82.634 24.5926 82.3311 22.4217C82.2184 21.614 82.0126 20.9421 81.6553 20.1809C80.1214 16.946 76.4243 15.1829 72.2262 15.6877C69.8689 15.9674 67.733 17.0508 66.4087 18.6275C65.4922 19.7188 64.9485 20.9305 64.7388 22.3557C64.6495 22.9615 64.6806 24.3635 64.7971 24.9227C65.0456 26.1343 65.4806 27.0858 66.2534 28.1227C66.4281 28.3557 66.8359 28.8101 67.1854 29.1596C68.2495 30.2237 69.1582 30.8955 71.9466 32.6936C74.2262 34.1615 75.2786 34.9499 76.2573 35.9324C76.5485 36.2237 76.9019 36.6081 77.0456 36.7907C78.2728 38.3363 78.8398 40.0217 78.7699 41.9363C78.7194 43.28 78.4359 44.3208 77.8573 45.2955C76.9796 46.7712 75.5233 47.6877 73.5544 48.0023C72.9524 48.0994 71.4068 48.0994 70.7815 48.0023C67.4961 47.4936 65.6709 45.5557 65.3447 42.2314C65.2942 41.7149 65.2942 40.5848 65.3447 40.014C65.5078 38.2237 65.9233 36.3829 66.6883 34.0683L66.9757 33.1907L66.968 31.7072L66.9563 30.2198L66.4281 30.9732C66.1369 31.3848 65.5349 32.2392 65.0922 32.8683C64.6495 33.4975 64.2845 34.0178 64.2806 34.0217C64.2767 34.0256 64.2728 33.2683 64.2689 32.3324C64.2689 30.6547 64.2301 29.6839 64.1175 28.4411C63.6204 22.9188 62.0359 19.1402 59.3835 17.1479C58.3777 16.3945 57.1932 15.8858 55.9078 15.6644C55.6631 15.6217 55.1544 15.5674 54.7738 15.5402C53.3796 15.447 52.1796 15.6644 51.0883 16.212C48.7854 17.3615 47.232 19.6916 46.5291 23.0547L46.4398 23.4897L46.4359 11.9635L46.432 0.441138H41.4806H36.5291V0.577061V0.712983H38.2495C39.1932 0.712983 40.0981 0.7324 40.2573 0.751818C40.9602 0.841138 41.5621 1.34988 41.7718 2.02949C41.8495 2.27026 41.8495 2.51493 41.8495 23.8742C41.8495 43.6256 41.8456 45.4936 41.7874 45.6877C41.601 46.3091 41.1621 46.779 40.5447 47.012L40.3155 47.1013L36.5796 47.113C34.5214 47.1169 32.8398 47.1169 32.8398 47.1052C32.8398 47.0975 32.8903 46.7324 32.9563 46.2975C33.2825 44.0722 33.9777 39.3343 34.7621 33.9751C35.2437 30.6858 35.7874 26.9809 35.9699 25.7421C36.1485 24.5033 36.3854 22.8994 36.4903 22.1809C36.599 21.4586 36.6845 20.8528 36.6845 20.8295C36.6845 20.8023 35.7252 20.7907 33.6942 20.7907H30.7039V20.9072V21.0237H31.7369H32.7699L32.7466 21.1285C32.7349 21.1907 32.533 22.5382 32.2961 24.1305C32.0631 25.7227 31.5815 28.9809 31.2281 31.3732C30.3699 37.1596 29.8573 40.6392 29.3408 44.1305C29.1078 45.7227 28.9058 47.047 28.8981 47.0703C28.8709 47.1479 25.1116 47.1402 24.7427 47.0625C23.9427 46.8955 23.2786 46.2703 23.0728 45.4897C23.0223 45.3033 23.0146 42.3984 23.0146 22.8567V0.441138H17.9155C15.1078 0.441138 12.801 0.452789 12.7893 0.468323ZM12.3388 16.1538C12.7777 16.2275 13.5 16.4606 13.8922 16.6547C14.0514 16.7324 14.3544 16.9149 14.568 17.0547C15.0612 17.3809 15.9699 18.278 16.3427 18.8101C17.2631 20.1149 17.8883 21.7421 18.2184 23.6839C18.4126 24.8411 18.4048 24.5965 18.4204 31.5868C18.4359 38.2314 18.4281 38.7557 18.2922 39.8004C18.0437 41.7227 17.5272 43.3149 16.7155 44.6664C16.0398 45.7926 15.0223 46.7635 13.9854 47.2722C12.1874 48.1615 10.133 48.0722 8.7699 47.0431C6.97572 45.6916 6.00096 42.8023 5.65533 37.8004C5.55048 36.2547 5.53106 35.513 5.51164 31.9907C5.49223 28.1615 5.51553 26.946 5.6398 25.3538C6.02815 20.3557 7.20873 17.5712 9.39125 16.5149C10.0087 16.2198 10.5718 16.0994 11.4068 16.0955C11.7563 16.0916 12.1097 16.1149 12.3388 16.1538ZM54.5913 16.1538C55.5155 16.313 56.2417 16.6975 56.9058 17.3848C58.2495 18.7751 58.9641 21.1208 59.2476 25.0819C59.3485 26.511 59.3718 28.0955 59.3524 32.2936C59.333 36.3246 59.3136 37.2023 59.2087 38.6547C58.9175 42.6625 58.1796 45.1635 56.8864 46.5421C56.0204 47.4664 55.034 47.8742 53.6748 47.8703C52.3466 47.8664 51.166 47.4625 50.0437 46.6198C49.6825 46.3518 49.0417 45.7188 48.7466 45.346C47.6282 43.9208 46.867 41.9674 46.5718 39.7615C46.432 38.7363 46.4282 38.3091 46.4398 31.6256C46.4553 25.0703 46.4553 25.0392 46.5408 24.4411C46.7272 23.1402 46.9951 22.0916 47.3913 21.1013C48.4942 18.3479 50.4243 16.5771 52.7816 16.1538C53.2165 16.0761 54.1369 16.0761 54.5913 16.1538Z" fill="black"/>
<path d="M34.3932 10.3832C32.9835 10.5463 31.7524 11.5288 31.3019 12.8569C31.0922 13.4783 31.0495 13.9715 31.1505 14.5579C31.3718 15.8278 32.3582 16.9657 33.6087 17.389C34.9602 17.8511 36.1214 17.688 37.1388 16.8919C37.7874 16.3832 38.366 15.4162 38.5097 14.5929C38.5757 14.2201 38.5408 13.4395 38.4398 13.0822C38.067 11.7268 36.999 10.7249 35.6398 10.4414C35.2864 10.3715 34.7388 10.3443 34.3932 10.3832Z" fill="black"/>
<path d="M88.1408 41.1832C87.1272 41.3113 86.1252 41.9443 85.5427 42.8142C84.5641 44.2705 84.7466 46.0647 86.0009 47.3191C86.6883 48.0065 87.5233 48.3793 88.4747 48.4298C89.6359 48.4919 90.6806 48.0725 91.4611 47.2298C92.0942 46.5463 92.4126 45.7424 92.4126 44.8336C92.4126 44.1929 92.3077 43.7307 92.032 43.1793C91.5 42.1035 90.4942 41.3851 89.267 41.1987C88.867 41.1366 88.5369 41.1327 88.1408 41.1832Z" fill="black"/>
</g>
<defs>
<clipPath id="clip0_1201_497">
<rect width="91.8641" height="48" fill="white" transform="translate(0.567963 0.441406)"/>
</clipPath>
</defs>
</svg>
