<svg width="79" height="55" viewBox="0 0 79 55" fill="none" xmlns="http://www.w3.org/2000/svg">
<g clip-path="url(#clip0_1201_433)">
<path d="M53.004 9.75077C52.7811 9.04847 52.3732 8.72589 51.7931 8.79026C51.4655 8.82858 50.8863 9.00147 50.4341 9.20036C50.4341 9.45712 50.419 10.8769 50.419 12.1434C51.6486 11.8924 52.1072 11.7362 52.6113 11.4122C52.9274 11.206 53.2599 10.558 53.004 9.75077Z" fill="black"/>
<path d="M39.0101 16.4167C40.0524 16.0551 40.3842 15.9053 41.292 15.7303C41.0814 14.4674 40.8784 12.9956 40.5686 12.218C39.7607 13.6834 39.3428 15.3672 39.0101 16.4167Z" fill="black"/>
<path d="M78.2461 28.4283C77.9339 27.5189 77.5007 26.6556 76.9585 25.8614L76.9848 25.81C77.1133 25.5537 77.2213 25.2877 77.3079 25.0144C77.6886 23.8065 77.6219 22.4294 77.1039 20.8049C76.3808 18.5287 74.6384 17.5385 73.3936 16.9917C73.1764 16.8966 72.9547 16.8126 72.7287 16.74C72.93 15.9726 73.1137 15.1292 73.1288 14.2143C73.1306 13.5961 73.0784 12.979 72.9734 12.3699C72.8554 11.6075 72.6941 10.791 72.3173 9.98303C71.8705 9.02684 71.2448 8.30426 70.5292 7.87537C70.589 7.68746 70.6372 7.49619 70.674 7.30252C70.8345 6.64215 70.8484 6.0006 70.8185 5.13265V5.12179C70.7117 2.57221 68.7861 0.688048 66.1362 0.53905C65.2399 0.486974 63.0679 0.441406 62.2259 0.441406H62.203C60.8177 0.469888 59.4354 0.575652 58.0622 0.758205C56.8868 0.91082 56.0246 1.29489 55.3981 1.73609C53.8526 1.08513 52.0087 0.981702 49.897 1.42219C48.2716 1.75779 47.118 2.20334 46.2769 2.53171L46.1604 2.57438C45.6859 2.75955 44.9697 3.03874 44.2756 3.58698C44.1268 3.70431 43.9848 3.82986 43.8502 3.96308C42.7654 3.27163 41.4908 3.02282 40.034 3.22028C38.2909 3.45535 36.4284 4.90265 35.2907 6.90904C35.1924 7.08118 35.0962 7.25552 35.0014 7.42983C34.6084 7.03982 34.167 6.70128 33.6885 6.42229C32.2103 5.56447 30.4555 5.34458 28.7472 5.80385C27.4934 6.13367 26.3394 6.76541 25.3861 7.64393C24.2825 7.19455 23.0726 7.07376 21.902 7.296C21.0044 7.4631 20.1415 7.80882 19.186 8.38095C18.9172 8.5466 18.6605 8.73129 18.4179 8.93353C18.2913 8.85253 18.1771 8.78091 18.083 8.7216L18.0758 8.71653C16.4614 7.70396 14.6206 7.76182 13.1466 8.88508C12.8846 9.08552 12.6472 9.31615 12.4392 9.57221C10.1363 8.82288 7.69808 8.96753 5.62149 10.03C4.07368 10.8256 2.90339 11.8455 2.0434 13.159C1.00982 14.7358 0.50424 16.6575 0.53896 18.8672C0.544882 20.0548 0.805331 21.2273 1.30275 22.3057L1.2702 22.3621C0.76607 23.225 -0.0353315 24.9877 0.212756 27.2031C0.30823 28.071 0.564997 30.4347 2.66253 32.3153C1.6953 33.5045 1.07976 34.9405 0.885414 36.4612C0.776922 37.2791 0.48616 39.4569 1.80978 41.7152C1.33784 42.296 0.964703 42.9503 0.705316 43.652C0.488329 44.2366 -0.16263 46.015 0.285085 48.1364C0.760284 50.3555 1.88644 51.9801 3.72648 53.0969C5.17739 53.9799 6.60661 54.3914 8.22462 54.3914C8.93718 54.3871 9.64781 54.3169 10.3475 54.1817C11.2755 53.9986 12.1787 53.7075 13.0388 53.3138C14.6955 52.5907 16.0705 51.3462 16.9547 49.7697C17.2643 49.919 17.5873 50.0388 17.9196 50.1269C18.3811 50.2484 18.8564 50.3097 19.3336 50.3094C20.5773 50.2997 21.7894 49.9154 22.8112 49.2062C23.2938 48.8785 23.7268 48.483 24.0972 48.0323C24.4486 48.185 24.8135 48.3044 25.1872 48.3889C26.4573 48.6782 27.8156 48.553 29.1132 48.0329C30.6929 47.4024 31.683 46.2045 32.3419 44.8635C32.6825 45.0741 33.0466 45.2442 33.427 45.37C34.0328 45.5664 34.6663 45.6642 35.3031 45.6594C35.806 45.656 36.3074 45.6078 36.8018 45.5145C38.4249 45.221 40.1106 44.6922 41.9515 43.9003C42.575 43.6333 43.519 43.2296 44.3709 42.5014C45.0454 42.7337 45.755 42.8492 46.4684 42.8426C47.0465 42.8402 47.6227 42.7774 48.1877 42.6553L48.2447 42.6423C49.2668 42.4175 51.5589 41.8329 52.7735 41.4416C54.2046 40.9773 55.3287 40.2397 56.0823 39.2994C56.5658 39.678 57.1179 39.9598 57.7083 40.129C58.2257 40.2762 58.7614 40.3495 59.2996 40.3459C59.6215 40.3459 59.9015 40.3242 60.1283 40.307L60.2007 40.3019H60.2493C61.0267 40.2497 61.7815 40.0183 62.4543 39.6252C63.1267 39.2321 63.6993 38.6882 64.1261 38.0366C65.4807 39.1431 67.2361 39.7776 69.1892 39.8448H69.2C69.2933 39.8448 69.4169 39.8512 69.5521 39.8512C71.8551 39.8512 74.0422 39.1229 75.7087 37.8013C76.9094 36.851 77.8461 35.4723 78.3466 33.9187C78.9234 32.1283 78.8881 30.1966 78.2461 28.4283ZM74.3403 20.0498H75.0028V20.1648H74.7433V20.8881H74.5985V20.1648H74.3403V20.0498ZM67.5544 12.2823C67.6992 11.8245 68.0703 11.0954 68.2452 11.3421C68.4709 11.0412 68.6127 10.9399 68.708 10.9609C68.8311 10.9877 68.8652 11.2387 68.8905 11.5677C69.1892 11.2669 69.3092 12.3952 69.1138 12.8024C69.5479 12.4531 69.48 14.2034 69.2963 14.675C69.7301 14.4884 69.2239 16.0051 68.7291 16.4304C69.2498 16.3183 68.575 17.6419 67.5755 17.903C68.1774 18.1113 67.4364 18.7276 66.3459 18.8614C65.1368 19.0103 63.9111 18.9477 62.7237 18.6762C62.9415 18.6004 63.1403 18.4788 63.3074 18.3196C63.4353 18.1883 63.5334 18.0307 63.5946 17.8577C63.6558 17.6848 63.6788 17.5006 63.6619 17.3179C63.6169 16.672 63.9092 16.0435 64.0915 16.4246C64.1774 15.9306 64.7425 14.4884 65.0366 14.9781C65.0997 14.5679 66.1757 12.7843 66.3748 13.3622C66.4276 12.9955 67.4186 11.8303 67.5544 12.2823ZM58.5286 4.34718C59.7552 4.18427 60.9896 4.08771 62.2268 4.05784C62.9964 4.05784 65.1027 4.10198 65.9205 4.15042C66.7387 4.19887 67.1725 4.59525 67.2008 5.27513C67.2289 5.95502 67.2102 6.27978 67.1444 6.50474C67.0787 6.72967 67.1351 7.35169 66.0318 7.48769C64.9289 7.62365 65.1027 7.61641 64.8891 7.66272C64.6758 7.709 64.1804 7.65258 64.1195 8.33826C64.0589 9.02394 63.9388 11.0144 63.9554 12.108C63.9669 12.801 63.9886 14.0248 63.9958 15.1393C63.8836 15.3655 63.7883 15.5998 63.711 15.8402C63.2344 16.0572 63.1026 16.8463 63.1382 17.3591C63.1484 17.4689 63.1351 17.5797 63.0992 17.6839C63.0633 17.7882 63.0054 17.8836 62.9297 17.9638C62.8253 18.0555 62.7065 18.1289 62.5776 18.1808L61.7876 18.4122C61.2467 18.3507 60.7622 18.154 60.5878 17.4864C60.2985 16.3689 60.2674 13.6031 60.2819 12.0379C60.2955 9.62066 60.2529 8.87929 60.255 8.54295C60.2572 8.20664 60.3317 7.66562 59.7675 7.68658C59.2034 7.70755 59.0797 7.71262 58.6103 7.70396C57.8262 7.6902 57.5023 7.547 57.346 6.84107C57.1897 6.13512 57.1985 6.02374 57.1261 5.54854C57.0727 5.19341 57.1173 4.52797 58.5286 4.34718ZM47.4776 5.9384L47.5165 5.92609C48.3554 5.59989 49.3036 5.23465 50.6268 4.96124C52.346 4.59959 53.6812 4.75148 54.5983 5.40316C56.0008 6.39698 56.7544 8.0873 56.6648 10.0409C56.5873 11.7233 55.859 13.2537 54.8457 13.8649C54.8348 15.8728 55.9363 16.6228 56.8636 16.8984L56.9315 16.9165C57.301 17.0221 57.978 17.2173 57.9665 17.8784C57.9551 18.5395 57.2974 18.9995 56.6886 19.1529C56.1562 19.2889 54.9172 19.6114 53.4266 18.6039C52.0748 17.6882 51.6045 16.1635 51.4482 15.0149C51.269 15.0706 50.986 15.1473 50.6904 15.2319L50.5528 15.2681C50.5435 15.5017 50.5528 15.8721 50.5601 16.2662C50.5725 16.9295 50.586 17.6882 50.5477 18.0643L50.5341 18.1822C50.4777 18.7536 50.3939 19.6136 49.8934 20.015C49.4535 20.3767 48.3316 20.666 47.8326 20.666C47.8169 20.6671 47.8013 20.6671 47.7856 20.666C46.9083 20.6284 46.7007 20.015 46.6775 19.5044C46.6434 18.5851 46.9409 10.5023 47.1195 9.0167C46.6854 8.77512 46.0663 8.40047 46.0576 7.36617C46.0555 6.49315 46.8106 6.20095 47.4776 5.9384ZM7.67635 26.7257C8.15735 27.1792 9.56126 27.4671 10.3135 26.6078C11.0657 25.7485 10.7134 24.4445 10.1522 23.9736C9.59091 23.5027 7.1585 22.8033 6.77661 22.6717C6.39468 22.54 4.19951 21.8298 4.15468 18.8129C4.10333 15.5834 5.60125 14.1014 7.26915 13.2494C8.93706 12.3974 10.9239 12.6151 12.5846 13.5778C14.1086 14.4645 14.3002 16.8145 13.6818 18.2379C13.0634 19.6613 11.661 19.6187 11.4237 19.6122C11.1865 19.6057 10.4249 19.4885 10.1493 18.9836C9.8737 18.4788 10.2939 18.0224 10.5507 17.8539C11.1033 17.4922 10.8972 16.9526 10.8205 16.7255C10.7438 16.4984 10.2838 16.0218 9.37754 16.2496C8.35407 16.4984 7.94252 17.0712 7.90638 18.0513C7.87311 18.9966 8.19135 19.9738 9.81584 20.274C11.4404 20.5741 12.5253 20.9589 13.062 21.2244C13.5986 21.4898 14.6655 22.3346 14.8818 24.341C15.1631 26.9564 14.0608 29.0684 11.815 30.204C9.56922 31.3397 7.45215 31.0682 5.89924 30.204C4.24871 29.2832 3.93479 27.9618 3.80823 26.8045C3.68165 25.6473 4.09754 24.6918 4.39119 24.1884C4.68484 23.685 5.28663 23.2033 6.05476 23.3451C6.95885 23.5078 7.32557 24.2998 7.21202 25.0224C7.09846 25.7449 7.29736 26.372 7.67635 26.7257ZM11.5742 50.0098C10.9715 50.2874 10.3388 50.494 9.68856 50.6261C7.88032 50.9625 6.78382 50.726 5.60776 50.0098C4.6675 49.4384 4.10333 48.6921 3.82196 47.3771C3.59993 46.3276 3.91165 45.4126 4.10044 44.8991C4.34995 44.2149 4.95174 43.5045 5.5629 43.2079C6.14806 42.9253 6.91257 42.7298 7.64525 43.1992C8.37796 43.6686 8.44089 44.2213 8.28103 44.6409C8.14362 45.0074 7.87311 45.1347 7.46805 45.307C6.92416 45.5399 6.51403 46.4926 7.20622 47.0495C7.86949 47.5846 8.69475 47.4269 9.17792 47.2323C9.66105 47.0377 10.3764 46.5092 10.5283 45.4394C10.6802 44.3697 9.90118 43.6686 9.28568 43.125C8.67017 42.581 6.37517 41.5653 5.58969 40.7444C4.80419 39.9236 4.2082 38.9109 4.47075 36.9394C4.73329 34.9676 6.04969 33.8225 6.97043 33.3986C7.89118 32.9748 8.95078 32.5307 10.9731 33.1905C13.0251 33.8644 13.3223 35.7408 13.4171 36.2238C13.5119 36.7071 13.5618 37.6704 12.8942 38.0372C12.2266 38.404 11.7629 38.017 11.3131 37.7111C10.9984 37.4939 10.4791 37.1454 10.2166 37.0498C9.95401 36.9545 9.13161 36.8229 8.76275 37.3566C8.39386 37.8903 8.51176 38.3555 8.91823 38.7105C9.21192 38.9609 9.59888 39.0505 11.7572 40.1052C13.9154 41.1595 14.3147 42.5289 14.5245 43.874C14.8065 45.7061 14.3147 48.7953 11.5742 50.0098ZM32.302 29.8474C31.8399 31.9189 30.5366 37.763 30.0751 39.948C29.6137 42.1331 29.1117 44.1353 27.7708 44.6714C26.4298 45.2071 25.1785 44.8801 24.2765 43.6716C23.8961 43.1717 23.5113 42.3611 23.2336 41.6268C22.1248 44.2894 21.7385 45.5595 20.7787 46.2117C19.8189 46.8642 18.2855 47.0935 17.4017 45.2889C16.5178 43.4843 16.2502 42.0884 15.8633 40.66C14.8123 36.8142 14.8507 34.8331 14.8123 34.1024C14.774 33.3721 14.9042 32.5337 15.9797 31.6528C16.3898 31.3128 18.0498 30.489 18.287 31.4878C18.5127 32.4876 18.8201 39.2566 19.7784 41.2154C20.0866 37.7971 22.009 31.5349 22.3924 30.6126C22.7757 29.6905 23.0086 29.3831 23.661 29.1567C24.3134 28.9303 24.9434 28.8753 25.3246 29.3462C25.9813 30.149 25.6464 32.3247 25.7542 33.8394C25.9112 35.9903 26.1925 37.8722 26.5404 38.9093C26.803 36.1798 27.8423 30.9578 28.2662 29.6919C28.69 28.4262 28.7284 27.9864 29.4596 27.6812C30.1909 27.3759 31.6462 27.0794 31.991 27.1937C32.3361 27.308 32.7636 27.773 32.302 29.8474ZM31.4978 24.7938C30.9424 24.971 30.1547 25.2032 29.7996 25.2538C29.1341 25.3493 28.7291 24.7526 28.787 23.9946C28.8347 23.4253 29.8524 16.6431 29.2289 14.7777C27.7744 15.974 27.2341 17.6398 26.9209 20.7694C26.7552 22.433 26.5593 24.7938 26.5195 25.1518C26.4797 25.5099 26.3813 26.0704 25.8945 26.2852C25.4078 26.5 24.2411 26.8017 23.8469 26.8718C23.4527 26.942 22.9544 26.8776 22.8517 25.7196C22.7605 24.6882 23.0035 18.5648 22.2875 16.2134C20.8142 17.1682 20.1834 20.0353 20.0757 21.7647C19.9679 23.4941 19.9426 26.1955 19.9223 26.5181C19.9021 26.8407 19.9223 27.9596 19.2323 28.2359C18.5423 28.5122 17.6715 28.6598 17.3091 28.7422C16.5967 28.9035 16.1092 28.2265 16.1735 27.1409C16.2379 26.0552 16.4122 21.5716 16.4332 20.1062C16.4542 18.6408 16.3457 15.7144 15.9761 14.4942C15.7561 13.7445 15.4956 13.0074 15.1957 12.286C15.1541 12.194 15.1467 12.0902 15.1746 11.9932C15.2026 11.8962 15.2641 11.8123 15.3483 11.7565C15.5761 11.5822 15.7822 11.546 16.1504 11.7775C16.5186 12.009 17.0957 12.372 17.4849 12.6874C17.925 13.0502 18.3216 13.4628 18.6667 13.917C19.1679 13.206 20.4323 11.852 21.0536 11.4795C22.0083 10.9009 23.0788 10.5002 24.2426 11.0889C25.1987 11.575 25.3731 12.9058 25.5553 13.5018C26.8912 11.115 27.8836 9.77617 29.6853 9.29301C31.4869 8.80984 32.6348 9.99821 32.9401 10.6593C33.4146 11.6719 33.5021 13.8938 33.4593 15.5459C33.4167 17.1978 32.8267 22.4677 32.776 22.88C32.6457 23.9837 32.1458 24.5898 31.4978 24.7938ZM42.7385 37.0745C42.7225 37.2851 42.7868 38.4113 42.5439 39.0376C42.3008 39.6638 41.7605 40.0436 40.5266 40.5716C39.0895 41.19 37.6284 41.6863 36.1551 41.953C35.002 42.162 33.9223 42.0631 33.5947 40.8428C33.2671 39.6228 33.3184 35.3459 33.5151 33.014C33.7118 30.682 34.062 28.5578 34.1568 27.951C34.2123 27.5618 34.4316 26.5767 35.3104 26.1709C36.1849 25.7879 37.0909 25.4799 38.0176 25.2502C39.1226 24.9826 40.8045 24.6926 41.3846 24.6325C41.9644 24.5725 42.5228 24.7099 42.6139 25.2921C42.7053 25.8744 42.7964 26.4263 42.6863 26.9919C42.5823 27.5351 42.35 27.841 41.5291 28.1274C40.4847 28.4891 39.1422 28.7842 37.8815 29.1248C37.8815 29.4185 37.7579 30.8817 37.7579 30.8817C38.6611 30.5816 39.5842 30.3459 40.5209 30.1765C41.3774 30.0167 41.9783 29.9631 42.0637 30.5382C42.1361 31.0676 42.115 31.3837 42.1026 31.9349C42.0884 32.2848 42.0468 32.6336 41.9783 32.9772C41.8842 33.4176 41.2817 33.5392 40.6503 33.7938C40.0189 34.0481 38.2194 34.5221 37.8686 34.6044C37.8686 34.9987 37.7238 37.2516 37.7238 37.2516C38.4596 36.9849 41.8235 35.7906 42.2712 35.8775C42.7458 35.9825 42.7545 36.8706 42.7385 37.0745ZM42.1874 20.9828C42.0803 20.3897 41.8257 18.9337 41.7433 18.6147C41.0395 18.7283 39.0258 19.4104 38.6448 19.6201C38.4493 20.6508 38.3865 21.4479 38.335 21.8406C38.2417 22.5364 37.6471 23.1924 36.9687 23.3841C36.2905 23.5758 35.6624 23.7494 35.2959 23.8304C34.5076 24.0076 34.2644 23.2243 34.3275 22.621C34.3902 22.0178 34.7728 19.1362 35.4123 16.5635C36.0335 14.0624 36.8703 11.4463 38.4333 8.69557C39.0605 7.59183 40.0044 6.87577 40.5164 6.80635C41.0286 6.73691 41.7107 6.66818 42.3666 7.43055C43.0227 8.19289 43.3223 9.06591 43.8565 11.0275C44.3911 12.989 44.8982 15.9458 45.1332 17.3924C45.3682 18.839 45.4225 19.9239 45.4038 20.3188C45.3848 20.7137 45.2295 21.0602 44.8304 21.1998C44.4309 21.3394 43.5926 21.5889 43.1877 21.68C42.7826 21.7712 42.293 21.5716 42.1874 20.9828ZM53.5551 36.2486C53.5262 36.8329 53.1813 37.5047 51.6594 37.9974C50.6201 38.3322 48.4176 38.9 47.4392 39.1136C46.4606 39.3269 44.6011 39.4391 44.4367 37.4435C44.2725 35.4479 44.1691 32.0037 44.211 30.9807C44.2529 29.9581 44.3993 26.5594 44.5329 25.7008C44.669 24.8039 44.9733 23.6264 46.247 23.2633C47.4392 22.9205 50.9296 22.2724 51.4974 22.1921C52.5955 22.0417 52.8718 22.6203 52.848 23.3993C52.832 23.9324 52.8175 24.1262 52.746 24.4669C52.6742 24.8076 52.4413 25.4795 51.603 25.6241C50.7206 25.7746 49.9504 25.8838 48.4553 26.1796C48.4553 26.513 48.3497 28.4869 48.3497 28.4869C49.3283 28.3003 50.9384 28.0298 51.5713 27.9459C52.387 27.8417 52.7617 28.1911 52.8103 28.8652C52.8589 29.5393 52.8501 29.6774 52.832 29.9993C52.8139 30.3212 52.9463 31.2027 52.022 31.4127C51.0974 31.6224 49.5078 31.9723 48.5138 32.1476C48.5138 32.8752 48.48 34.9682 48.48 34.9682C48.9277 34.8838 51.8069 34.1727 52.273 34.0584C52.832 33.9332 53.2595 34.1045 53.362 34.6189C53.4649 35.1333 53.582 35.6606 53.5551 36.2486ZM64.5817 23.0478C64.5325 23.2988 64.6251 23.9794 63.53 24.205C62.435 24.4307 62.0907 24.4517 61.8775 24.5146C61.6639 24.5775 61.1685 24.5544 61.154 25.3102C61.1396 26.0661 61.0985 29.5053 61.1272 30.698C61.1613 32.0037 61.2596 34.3869 61.2937 35.3858C61.3118 35.9752 60.8011 36.6326 60.0092 36.6839C59.2173 36.7352 58.2314 36.8866 57.8977 35.8015C57.5363 34.5945 57.5566 32.4577 57.4682 30.7478C57.3285 28.0971 57.33 26.1702 57.3128 25.8013C57.2953 25.4325 57.3285 24.8365 56.7695 24.8987C56.2105 24.9609 55.9516 24.9884 55.4855 25.0137C54.6994 25.0563 54.3681 24.9182 54.1678 24.1595C53.9675 23.4007 53.9639 23.2843 53.8634 22.7693C53.7844 22.3845 53.7844 21.6497 55.1848 21.3459C56.4385 21.078 57.7071 20.8848 58.9835 20.7673C59.7552 20.7065 62.3879 20.5683 63.2045 20.5611C64.0212 20.5539 64.4818 20.9589 64.5563 21.7017C64.6309 22.4446 64.6281 22.7975 64.5817 23.0478ZM73.466 34.9568C72.2675 35.9065 70.7057 36.2658 69.3129 36.2211C67.9197 36.1762 66.7667 35.6793 66.0065 34.8337C65.1488 33.8747 64.9847 32.7485 64.976 31.8175C64.9558 30.4651 65.6146 29.8243 66.0234 29.5711C66.3848 29.3541 66.8132 29.2203 67.2144 29.4474C67.6159 29.6746 67.5233 30.1801 67.3411 30.6908C67.2262 30.9903 67.1746 31.3104 67.1891 31.6311C67.2051 31.9768 67.4135 32.5714 67.8944 32.8758C68.5662 33.2945 69.0908 33.2945 69.6302 33.223C70.3407 33.1268 70.8665 32.7681 71.2388 32.023C71.6113 31.2781 71.3287 30.2149 70.805 29.6319C70.3138 29.0793 68.4817 28.1079 67.7671 27.6645C67.0524 27.2212 65.9908 26.495 65.7658 24.8387C65.5407 23.1823 66.2952 21.8442 67.0222 21.1043C67.749 20.3644 68.8145 19.9659 70.0598 19.9637C71.3054 19.9615 72.0258 20.1872 72.9662 20.9647C73.8392 21.6829 73.9982 22.7433 73.9786 23.1346C73.9605 23.5049 73.9593 24.2918 73.3559 24.5088C72.9668 24.6433 72.5517 24.3475 72.167 24.0698C71.8566 23.8463 71.6976 23.617 71.1103 23.3863C70.5229 23.1555 69.9407 23.3327 69.6845 23.6937C69.401 24.0951 69.2939 24.7974 69.7518 25.1858C70.0716 25.4513 70.2761 25.4867 71.6171 26.1138C72.958 26.7409 74.0365 27.3868 74.8408 29.6449C75.645 31.9029 74.6942 33.9845 73.466 34.9568ZM75.3045 24.1182C75.3045 24.1139 75.3045 24.1088 75.3045 24.1045H75.3096L75.3045 24.1182ZM76.0894 20.8873H75.9518V20.1915H75.9476L75.674 20.8873H75.588L75.3162 20.1915H75.3102V20.8873H75.1729V20.0498H75.3841L75.633 20.6877L75.8779 20.0498H76.0894V20.8873Z" fill="black"/>
</g>
<defs>
<clipPath id="clip0_1201_433">
<rect width="78.7374" height="54" fill="white" transform="translate(0.131317 0.441406)"/>
</clipPath>
</defs>
</svg>
