<svg width="115" height="37" viewBox="0 0 115 37" fill="none" xmlns="http://www.w3.org/2000/svg">
<g clip-path="url(#clip0_1201_207)">
<path d="M65.0278 10.4086C65.0931 10.4086 65.1747 10.4086 65.2399 10.3923C66.3165 10.2781 67.2789 9.39729 67.442 8.30441C67.6051 7.22783 66.92 6.33069 65.8761 6.21651C65.8108 6.21651 65.7293 6.2002 65.664 6.2002C65.5988 6.2002 65.5172 6.2002 65.452 6.21651C64.3754 6.33069 63.413 7.21152 63.2499 8.30441C63.1683 8.87532 63.3151 9.38098 63.625 9.77246C63.9513 10.1639 64.4406 10.4086 65.0278 10.4086Z" fill="black"/>
<path d="M114.146 27.9361C114.146 25.0652 112.743 22.439 111.503 20.1228C110.443 18.1491 109.497 16.3548 109.742 15.0172C109.921 14.0548 110.606 13.5002 111.667 13.435C111.699 13.435 111.732 13.4186 111.764 13.4186C111.813 13.4023 111.862 13.3697 111.911 13.3371C111.96 13.3045 111.993 13.2555 112.009 13.2066C112.009 13.1903 112.025 13.1903 112.025 13.174L112.547 11.8201C112.596 11.6733 112.613 11.5754 112.564 11.4775C112.531 11.4123 112.482 11.3471 112.401 11.2818C112.303 11.2002 112.14 11.135 111.928 11.0698C111.634 10.9719 111.259 10.9066 110.916 10.9066C109.383 10.9066 107.507 11.4123 105.876 15.4739C105.811 15.637 102.663 23.7929 102.565 24.0539C102.173 25.0163 101.341 26.1744 99.5796 26.1744C98.8129 26.1744 98.1931 25.8808 97.8506 25.3915C97.7853 25.2936 97.7364 25.1957 97.6874 25.0979C97.5569 24.7716 97.508 24.3801 97.5896 23.956C97.6222 23.8092 97.6548 23.6461 97.7037 23.483C97.7853 23.2057 97.8995 22.8958 98.03 22.5858C99.237 19.5029 103.527 8.52512 104.848 5.14859C105.011 4.72448 104.783 4.38194 104.326 4.38194H102.809C102.646 4.38194 102.467 4.43087 102.32 4.51243C102.043 4.64292 101.814 4.8876 101.7 5.14859C101.113 6.63296 100.281 8.78611 99.4002 11.0534C98.7151 12.7988 98.0137 14.6094 97.3612 16.2569C97.1655 15.9307 96.9371 15.6207 96.6924 15.3271C96.4314 15.0335 96.1541 14.7562 95.8605 14.5115C94.5882 13.4676 92.9733 12.8967 91.1954 12.8967C89.0096 12.8967 86.9054 13.7775 85.2579 15.2129C85.1927 15.2619 85.1437 15.3271 85.0785 15.3761C85.0295 15.4087 84.9969 15.4576 84.948 15.4902C83.8714 16.5016 83.0232 17.7576 82.5012 19.1441C82.5012 19.1604 82.4849 19.1767 82.4849 19.2093C82.4197 19.3887 82.3707 19.5682 82.3055 19.7639C82.2076 20.1065 82.126 20.449 82.0771 20.8079C82.0282 21.1341 81.9955 21.4603 81.9792 21.7866C81.9466 22.7327 82.0934 23.6624 82.387 24.5106C82.2402 24.7553 82.0445 24.9837 81.8324 25.1957C81.2289 25.7666 80.4296 26.1418 79.5977 26.2071C79.5162 26.2071 79.4509 26.2071 79.3694 26.2071C79.0431 26.2071 78.7332 26.1418 78.4559 26.0439C78.1134 25.9134 77.8197 25.7014 77.624 25.4241C77.2488 24.8858 77.2488 24.1028 77.5914 23.2057C77.6729 22.9773 78.1949 21.5908 78.668 20.3511C79.0268 19.3887 79.353 18.4916 79.4183 18.3122C79.4509 18.2143 79.5162 18.0675 79.5651 17.8881C79.6467 17.5455 79.6956 17.0725 79.4672 16.5831C79.3694 16.3874 79.2552 16.2243 79.1247 16.0775C78.8637 15.8002 78.5211 15.637 78.1949 15.5065C78.0644 15.4576 77.9339 15.4087 77.8034 15.3761C77.5751 15.3108 77.3304 15.2129 77.0531 15.0988C77.0368 15.0988 77.0368 15.0824 77.0205 15.0824C76.5637 14.8867 74.3617 13.8591 74.3617 11.9017C74.3617 11.8527 74.3617 11.8038 74.3617 11.7712C74.3617 11.7548 74.3617 11.7385 74.3617 11.7222C74.3617 11.7059 74.3617 11.6733 74.3617 11.657C74.329 11.3634 74.2312 11.1839 74.1007 11.0861C74.0844 11.0861 74.0844 11.0698 74.068 11.0698C74.068 11.0698 74.068 11.0698 74.0517 11.0698C74.0354 11.0534 74.0191 11.0534 74.0028 11.0371C74.0028 11.0371 74.0028 11.0371 73.9865 11.0371C73.9865 11.0371 73.9865 11.0371 73.9702 11.0371C73.9539 11.0371 73.9539 11.0208 73.9376 11.0208C73.856 10.9882 73.7744 10.9719 73.6766 10.9719H72.1759C71.866 10.9719 71.5234 11.135 71.2951 11.3797C71.1972 11.4775 71.1156 11.608 71.0667 11.7385C70.7405 12.5704 70.349 13.5655 69.9412 14.6257C68.5057 18.3122 66.793 22.7327 66.3037 23.9887C66.2874 24.0376 66.271 24.0865 66.2547 24.1355C65.8633 25.0979 65.0313 26.256 63.2534 26.256C62.4867 26.256 61.8506 25.9624 61.5243 25.473C61.3286 25.1794 61.2307 24.8042 61.247 24.3638C61.2633 24.0213 61.3449 23.6461 61.4917 23.2546C61.8016 22.439 62.4704 20.7426 63.1718 18.9483C63.8406 17.2356 64.542 15.4087 65.0314 14.169C65.1945 13.7449 64.9661 13.4023 64.5094 13.4023H62.9924H62.8456C62.7477 13.4023 62.6335 13.4186 62.5193 13.4513C62.503 13.4513 62.503 13.4513 62.4867 13.4513C62.1279 13.5491 61.769 13.7938 61.557 14.0548C60.774 15.0009 59.7627 15.7675 58.6535 16.3221C57.5443 16.8767 56.3535 17.2356 55.2117 17.3661C55.0486 16.942 54.8365 16.5179 54.5755 16.1264C54.5592 16.1101 54.5592 16.0938 54.5429 16.0775C54.3798 15.8328 54.2167 15.6044 54.0209 15.3761C52.6671 13.8101 50.726 12.9456 48.5239 12.9456C47.3494 12.9456 46.2076 13.2066 45.131 13.6633C45.6693 12.2768 46.2076 10.874 46.7133 9.55276C47.3331 7.9379 47.9204 6.43722 48.3934 5.19752C48.475 5.00178 48.4586 4.83867 48.3934 4.69186C48.3118 4.52874 48.1324 4.43087 47.8877 4.43087H47.8714H46.3707H46.3544C46.175 4.43087 45.9793 4.49612 45.7998 4.59399C45.5878 4.70817 45.4083 4.87129 45.3105 5.06703C45.2942 5.11597 45.2615 5.14859 45.2452 5.19752C43.3041 10.14 40.2049 18.1491 38.7368 21.9823C38.3291 23.0263 38.0518 23.7766 37.9376 24.0539C37.5461 25.0163 36.7142 26.1744 34.9525 26.1744C34.7894 26.1744 34.6426 26.1581 34.5121 26.1418C33.9575 26.0439 33.4845 25.7993 33.2235 25.3915C33.1746 25.3099 33.1256 25.2284 33.0767 25.1305C32.9299 24.8042 32.8809 24.3965 32.9625 23.956C32.9951 23.744 33.1093 23.4014 33.2398 23.0589C33.4192 22.5695 33.5987 22.0965 33.5987 22.0965C33.5987 22.0965 34.2511 20.4327 35.1809 18.0186C35.2788 17.7576 35.3929 17.4803 35.5071 17.1867C35.5234 17.154 35.5398 17.1214 35.5398 17.0888C36.9752 13.4023 38.9 8.42725 40.2865 4.83867C40.8411 3.38692 41.3141 2.16354 41.6403 1.34795C41.8035 0.923846 41.5751 0.581299 41.1184 0.581299H39.6014C39.1446 0.581299 38.6553 0.923846 38.4922 1.34795C38.3127 1.80468 36.7142 5.94787 34.9199 10.5804C32.6036 16.5505 29.9775 23.3362 29.7002 24.0702C29.6349 24.217 29.5697 24.3638 29.4881 24.5106C29.2434 24.9837 28.8683 25.4404 28.3463 25.7666C27.9222 26.0276 27.3676 26.1907 26.6988 26.2071C26.0789 26.2071 25.557 26.0276 25.1981 25.6851C25.1166 25.6035 25.035 25.522 24.9534 25.4241C24.7088 25.0489 24.6109 24.5759 24.7088 24.0213V24.005C24.7903 23.5319 25.4265 21.8681 25.4265 21.8355C25.8343 20.7916 26.3073 19.5519 26.813 18.2306C28.4931 13.908 30.5484 8.55774 31.8696 5.18121C31.9022 5.08334 31.9185 4.98547 31.9185 4.8876C31.9022 4.75711 31.8533 4.62661 31.7554 4.54505C31.6576 4.4635 31.5271 4.41456 31.3476 4.41456H29.8306C29.6675 4.41456 29.4881 4.4635 29.325 4.54505C29.0966 4.65924 28.9009 4.83867 28.7867 5.05072C28.7704 5.08334 28.7378 5.13228 28.7215 5.1649C28.33 6.15992 27.9059 7.26912 27.4491 8.44356C26.9598 9.71588 26.4378 11.0698 25.8995 12.4236C23.8116 17.8065 21.74 23.2057 21.3975 24.0702C21.2833 24.3475 21.1365 24.6248 20.9571 24.9021C20.4677 25.6035 19.6848 26.1907 18.3961 26.1907C17.9231 26.1907 17.499 26.0766 17.1564 25.8808C16.9607 25.7503 16.7813 25.6035 16.6671 25.4078C16.5855 25.2773 16.5203 25.1468 16.4713 25C16.3735 24.7064 16.3572 24.3638 16.4224 23.9887C16.504 23.5319 16.9607 22.3412 17.0423 22.1617C17.0423 22.1454 17.0586 22.1291 17.0586 22.1291L20.1741 14.1037C20.3372 13.6796 20.1089 13.3371 19.6521 13.3371H18.1351C17.8578 13.3371 17.5642 13.4676 17.3359 13.6633C17.3196 13.6633 17.3196 13.6796 17.3196 13.6796C17.1891 13.7938 17.0912 13.9406 17.0423 14.0874L16.7323 14.903L16.243 16.1753C16.1451 16.0285 16.0472 15.8817 15.9494 15.7349C15.8515 15.5881 15.7373 15.4576 15.6231 15.3271C15.1338 14.7562 14.5466 14.2669 13.9104 13.8917C12.8175 13.2392 11.5289 12.8967 10.1424 12.8967C6.73324 12.8967 3.50352 15.0498 1.92128 18.0838C1.48087 18.932 1.17095 19.8455 1.02414 20.7916C0.681594 23.01 1.2525 25.1142 2.62269 26.6964C3.04679 27.1858 3.51983 27.6099 4.05812 27.9524C4.15599 28.0177 4.27017 28.0829 4.38436 28.1482C5.47724 28.7843 6.74956 29.1269 8.11974 29.1269C10.3218 29.1269 12.4587 28.2134 14.1225 26.7617C14.1714 26.8595 14.2366 26.9574 14.3019 27.0553C14.3345 27.1042 14.3834 27.1694 14.4161 27.2184C14.4161 27.2347 14.4324 27.2347 14.4324 27.251C14.465 27.2999 14.5139 27.3489 14.5466 27.3978C14.5792 27.4304 14.6118 27.4631 14.6281 27.4957C14.6444 27.5283 14.6771 27.5446 14.7097 27.5772C14.7586 27.6262 14.8075 27.6751 14.8402 27.724C14.8565 27.7404 14.8728 27.7567 14.8891 27.773C14.9544 27.8219 15.0033 27.8872 15.0685 27.9361C15.0685 27.9361 15.0685 27.9361 15.0848 27.9524C15.6394 28.4255 16.3408 28.8006 17.1564 28.9964C17.1727 28.9964 17.1891 29.0127 17.2054 29.0127C17.2869 29.029 17.3685 29.0453 17.45 29.0616C17.4827 29.0616 17.5153 29.0779 17.5642 29.0779C17.6295 29.0942 17.6947 29.0942 17.7763 29.1105C17.8415 29.1105 17.8905 29.1269 17.9557 29.1269C18.0046 29.1269 18.0536 29.1432 18.1188 29.1432C18.233 29.1432 18.3472 29.1595 18.4777 29.1595C19.3259 29.1595 20.1252 28.9964 20.8592 28.6864C21.1365 28.5723 21.3975 28.4418 21.6422 28.2786C21.7237 28.2297 21.8053 28.1808 21.8868 28.1155C22.2131 27.8872 22.523 27.6425 22.8003 27.3489C22.8982 27.4794 23.0123 27.5936 23.1265 27.7077C23.8769 28.4744 24.8882 28.9474 26.0463 29.0942C26.0789 29.0942 26.1279 29.1105 26.1605 29.1105C26.1931 29.1105 26.2258 29.1105 26.2584 29.1105C26.3236 29.1105 26.3889 29.1269 26.4541 29.1269C26.4867 29.1269 26.5194 29.1269 26.5357 29.1269C26.6009 29.1269 26.6825 29.1269 26.7477 29.1269C28.4442 29.1269 29.9448 28.4907 31.054 27.3489C31.4781 27.8709 32.0164 28.295 32.6363 28.6049C33.3377 28.9474 34.1369 29.1269 34.9852 29.1269C35.4256 29.1269 35.8497 29.0779 36.2575 28.9964C38.0354 28.6375 39.5035 27.512 40.4006 25.8156C40.4496 25.8971 40.4985 25.9624 40.5475 26.0439C40.6127 26.1418 40.6779 26.2397 40.7432 26.3376C40.8411 26.468 40.9389 26.5822 41.0368 26.7127C42.3907 28.2786 44.3318 29.1432 46.5339 29.1432C49.5352 29.1432 52.4061 27.4631 54.1188 25.0163C54.9018 23.8908 55.4401 22.6185 55.6521 21.2646C55.701 20.9221 55.7337 20.5795 55.75 20.237C56.0436 20.2043 56.3372 20.1554 56.6145 20.0902C57.8705 19.8455 59.0449 19.4377 60.0889 18.8831C60.0563 18.9646 60.0237 19.0625 59.991 19.1441C59.5017 20.4327 59.0613 21.5419 58.8329 22.1454C58.1152 23.956 58.2294 25.7177 59.1591 27.0879C59.5017 27.5936 59.9421 28.0177 60.4478 28.3439C61.2633 28.8659 62.242 29.1595 63.3186 29.1595C65.9122 29.1595 68.049 27.6751 69.0603 25.1631C69.1908 24.8369 69.4518 24.1518 69.7944 23.2546C70.5121 21.4114 71.5887 18.6384 72.5674 16.1264C72.6489 15.898 72.7468 15.6697 72.8284 15.4576C73.6766 16.5179 74.8184 17.3172 75.9276 17.7902C75.9928 17.8228 76.0418 17.8391 76.107 17.8718C76.2375 17.9207 76.368 17.9696 76.4822 18.0186C75.9276 19.5192 75.0468 21.9008 74.9326 22.1617C74.4922 23.2873 74.3617 24.3801 74.5574 25.3752C74.6716 25.995 74.9163 26.5822 75.2588 27.1042C75.4872 27.4304 75.7482 27.7241 76.0418 27.985C76.8574 28.6864 77.9176 29.1105 79.0921 29.1758C79.2062 29.1758 79.3041 29.1921 79.4183 29.1921C79.5977 29.1921 79.7772 29.1758 79.9566 29.1595C79.9892 29.1595 80.0381 29.1595 80.0708 29.1432C80.0871 29.1432 80.1034 29.1432 80.1197 29.1432C80.87 29.0616 81.5878 28.8332 82.2565 28.507C82.9416 28.1645 83.5615 27.7077 84.0834 27.1695C85.1111 28.1808 86.4323 28.8332 87.9167 29.0779C88.3245 29.1432 88.7486 29.1758 89.189 29.1758C89.7436 29.1758 90.2982 29.1105 90.8365 29.0127C92.3209 28.7191 93.7237 28.0177 94.8981 27.0553C95.0123 26.9737 95.1102 26.8758 95.2081 26.778C95.2733 26.8921 95.3385 27.0063 95.4038 27.1042C95.9747 27.9361 96.7903 28.5396 97.7527 28.8822C97.8016 28.8985 97.8505 28.9148 97.8832 28.9311C97.9321 28.9474 97.9974 28.9637 98.0463 28.9801C98.1115 28.9964 98.1605 29.0127 98.2257 29.029C98.2747 29.0453 98.3236 29.0453 98.3725 29.0616C98.4378 29.0779 98.4867 29.0942 98.552 29.0942C98.6009 29.1105 98.6498 29.1105 98.6988 29.1269C98.764 29.1432 98.8129 29.1432 98.8782 29.1432C98.9434 29.1432 99.0087 29.1595 99.0739 29.1595C99.1229 29.1595 99.1718 29.1758 99.2207 29.1758C99.3349 29.1758 99.4491 29.1921 99.5796 29.1921C102.173 29.1921 104.31 27.7077 105.321 25.1957C105.37 25.0489 106.316 22.6837 107.083 20.7263C107.311 20.1391 107.523 19.5845 107.687 19.1441C107.768 19.3235 107.866 19.5192 107.948 19.6987C108.257 20.3185 108.584 20.9547 108.926 21.6071C109.204 22.1291 109.497 22.6674 109.758 23.2057C110.557 24.8042 111.226 26.4354 111.226 28.034C111.226 32.7481 108.029 33.58 107.05 33.7268C106.398 33.8246 105.909 34.3303 105.811 34.9502C105.794 35.097 105.778 35.2438 105.811 35.3906C105.811 35.4395 105.827 35.4884 105.843 35.5211C106.006 36.1735 106.594 36.6466 107.262 36.6466C107.295 36.6466 107.328 36.6466 107.377 36.6466C107.409 36.6466 107.442 36.6466 107.491 36.6466C108.257 36.5324 109.073 36.2877 109.84 35.9125C112.107 34.6402 114.146 32.1608 114.146 27.9361ZM95.3549 20.7752C95.0776 22.7 93.8542 24.3965 92.2556 25.3588C92.2393 25.3752 92.2067 25.3915 92.1904 25.3915C92.1904 25.3915 92.1741 25.3915 92.1741 25.4078C91.3259 25.8971 90.3798 26.1744 89.4011 26.1744C88.9443 26.1744 88.5039 26.1092 88.0961 25.9787C87.3784 25.7503 86.7423 25.3425 86.2692 24.7716C85.7962 24.2007 85.5026 23.4993 85.3884 22.7163V22.7C85.3231 22.227 85.3231 21.7376 85.4047 21.232C85.5189 20.4816 85.7636 19.7639 86.1387 19.1114C86.6281 18.2306 87.3132 17.4803 88.1125 16.9094C89.0748 16.2406 90.2003 15.8328 91.3585 15.8328C92.1414 15.8328 92.8592 16.0122 93.4627 16.3711C93.8542 16.5994 94.1967 16.893 94.4903 17.2356C94.6371 17.415 94.7676 17.5945 94.8655 17.7902C95.2407 18.4427 95.4201 19.2093 95.4201 20.0249C95.4201 20.2696 95.4038 20.5143 95.3549 20.7752ZM45.1963 26.0276C44.397 25.8156 43.7119 25.3915 43.2063 24.7553C42.4396 23.8255 42.1297 22.5695 42.3254 21.2157V21.1994C42.3744 20.8568 42.4559 20.5632 42.5375 20.3185C42.6517 20.0249 42.7658 19.715 42.8963 19.4051C42.9127 19.3561 42.9453 19.3235 42.9616 19.2746C43.0105 19.193 43.0431 19.1114 43.0921 19.0299C43.1084 18.9973 43.1247 18.981 43.141 18.9483C43.4999 18.3448 43.9403 17.8065 44.446 17.3498C45.5225 16.4037 46.8764 15.8165 48.2792 15.8165C48.9154 15.8165 49.5189 15.947 50.0409 16.1753C50.5792 16.42 51.0359 16.7626 51.4111 17.2193C52.1777 18.1491 52.4876 19.4051 52.2919 20.7752C51.8515 23.744 49.1764 26.1744 46.3218 26.1744C45.9303 26.1744 45.5552 26.1255 45.1963 26.0276ZM8.28286 26.1744C6.99423 26.1744 5.88503 25.6688 5.13469 24.7716C5.05314 24.6738 4.98789 24.5759 4.92264 24.478C4.3028 23.5809 4.07443 22.439 4.25386 21.2157C4.69428 18.2469 7.38571 15.8165 10.2566 15.8165C11.5452 15.8165 12.6544 16.3221 13.4047 17.2193C14.1714 18.1491 14.4976 19.4051 14.2856 20.7752C14.2529 21.0036 14.204 21.232 14.1388 21.4603C13.4211 24.1028 10.9254 26.1744 8.28286 26.1744Z" fill="black"/>
</g>
<defs>
<clipPath id="clip0_1201_207">
<rect width="113.261" height="36" fill="white" transform="translate(0.869446 0.556396)"/>
</clipPath>
</defs>
</svg>
