<svg width="149" height="41" viewBox="0 0 149 41" fill="none" xmlns="http://www.w3.org/2000/svg">
<g clip-path="url(#clip0_1201_662)">
<path d="M147.487 0.504402C146.974 0.62572 146.134 1.23698 144.79 2.46882C144.477 2.75812 144.244 3.00076 144.267 3.00542C144.337 3.02875 145.662 2.75812 146.404 2.56681C147.986 2.16553 148.653 1.82957 148.896 1.32097C149.167 0.770369 148.817 0.443743 147.981 0.457741C147.809 0.462408 147.585 0.481072 147.487 0.504402Z" fill="black"/>
<path d="M11.1346 1.09227C10.9899 1.11093 9.38481 1.36757 9.10484 1.41889L8.94153 1.44689L9.1515 1.48888C9.26815 1.50755 9.86075 1.58687 10.4673 1.6662C12.2591 1.89017 12.987 2.07214 13.9436 2.53875C14.5362 2.82338 15.628 3.53263 15.9547 3.84059C16.076 3.95258 16.1973 4.0459 16.23 4.0459C16.2626 4.0459 16.3373 3.95724 16.3933 3.84526C16.5472 3.54663 16.5379 3.03336 16.3699 2.70207C16.1413 2.26812 15.6747 1.90883 15.0448 1.68953C14.5408 1.51221 13.5143 1.25558 12.917 1.15293C12.4038 1.06427 11.5592 1.03627 11.1346 1.09227Z" fill="black"/>
<path d="M30.7835 1.66613C29.2624 1.84344 28.1052 2.3707 27.074 3.36458C26.4674 3.95717 26.2761 4.31179 26.1874 5.01171C26.1314 5.46898 26.2107 6.12224 26.346 6.32288C26.3507 6.32754 26.5607 6.19689 26.808 6.03358C28.3198 5.02104 31.0681 4.66175 32.8786 5.23101L33.2052 5.33367L33.5551 5.10036C33.7605 4.96505 34.2224 4.55443 34.6797 4.09716C35.3563 3.42057 35.4776 3.27592 35.6456 2.93997C35.8415 2.56201 35.8835 2.4127 35.7949 2.4127C35.7669 2.4127 35.5756 2.50135 35.3609 2.60401C34.815 2.87931 34.6097 2.94463 33.6205 3.13128C33.1352 3.2246 32.6359 3.33192 32.5099 3.36925C32.3046 3.43457 31.5954 3.56989 30.1956 3.81719C29.9016 3.87318 29.351 4.01317 28.9731 4.13915C28.2638 4.36779 28.1565 4.36779 28.4131 4.12982C28.5718 3.9805 28.8751 3.80786 29.2577 3.64921C29.5796 3.51389 30.6062 3.2386 30.6575 3.27592C30.6762 3.28526 30.9515 3.25259 31.2734 3.20593C33.8211 2.80465 33.9471 2.78132 34.6423 2.54802C35.025 2.42203 35.4123 2.27738 35.5056 2.23072L35.6736 2.14673L35.4169 2.09074C33.7371 1.72678 31.796 1.54947 30.7835 1.66613Z" fill="black"/>
<path d="M8.56826 1.97886C8.58692 2.10018 8.65225 2.36148 8.71291 2.55279L8.82023 2.90274L9.39416 2.91207C10.5793 2.92607 11.6619 3.2807 13.0197 4.08326L13.5003 4.37256L13.7056 4.30257C13.9623 4.21391 14.2655 4.21391 14.8675 4.30257C15.4181 4.38189 15.5441 4.38656 15.5441 4.33056C15.5441 4.22324 14.6762 3.64465 14.0509 3.33202C13.0057 2.80475 11.8392 2.44547 9.77678 2.01619C9.21218 1.89953 8.70358 1.79221 8.64292 1.77822C8.5356 1.75489 8.5356 1.75955 8.56826 1.97886Z" fill="black"/>
<path d="M16.9392 2.99594C16.7992 3.31323 16.7106 3.85916 16.7106 4.40976C16.7106 5.17966 16.7946 5.41297 17.2985 6.08955C17.6485 6.56549 17.9937 7.23274 18.0684 7.58736C18.1337 7.90466 18.1011 8.24995 17.9704 8.53458C17.8491 8.80521 17.8818 8.96852 18.0824 9.09451C18.2037 9.17383 18.283 9.18316 18.6237 9.1645C18.843 9.1505 19.2723 9.15983 19.5802 9.18316C19.8882 9.21116 20.1868 9.21583 20.2475 9.20183C20.3221 9.18316 20.3968 9.09451 20.4808 8.90787C20.5834 8.68389 20.6021 8.57657 20.6068 8.22195C20.6068 7.70402 20.5461 7.57337 19.9208 6.7708C19.3889 6.08955 19.2676 5.88891 19.1136 5.42697C18.9596 4.96969 18.9503 4.35843 19.0856 3.74251C19.1883 3.2899 19.2069 3.03793 19.1416 3.0006C19.1229 2.98661 18.7357 2.94461 18.2924 2.90262C17.8444 2.86529 17.3778 2.82329 17.2565 2.80929L17.0325 2.7813L16.9392 2.99594Z" fill="black"/>
<path d="M20.5368 2.8792C20.1308 2.91187 20.0188 2.96319 19.8928 3.1685C19.6595 3.55112 19.5942 4.15304 19.6969 4.96961C19.7715 5.55753 20.0795 6.15479 20.6301 6.77538C20.7654 6.92936 20.9567 7.22333 21.0547 7.42397C21.2833 7.89058 21.288 8.10522 21.0967 8.7398C21.022 8.99177 20.9567 9.23907 20.9567 9.28107C20.9567 9.37439 21.4606 9.79434 21.7313 9.92499C21.8526 9.98565 22.0159 10.0183 22.2025 10.0183C22.5432 10.0183 22.9678 9.827 23.4064 9.47238L23.6864 9.24374L23.7004 8.71647C23.7097 8.2452 23.7004 8.16588 23.6024 7.95124C23.5417 7.81592 23.3551 7.54529 23.1918 7.33998C22.4125 6.3881 22.2632 6.13146 22.1419 5.53887C22.0859 5.24957 22.0719 4.9976 22.0859 4.55899C22.1046 4.01773 22.1186 3.94307 22.2539 3.64911C22.4499 3.22916 22.4499 3.09851 22.2445 3.00052C22.0859 2.92586 21.3627 2.82788 21.05 2.84187C20.9614 2.84187 20.7281 2.86054 20.5368 2.8792Z" fill="black"/>
<path d="M23.2571 2.95853C23.0938 2.9912 22.9865 3.16384 22.8278 3.65378C22.7018 4.0504 22.6832 4.16705 22.6832 4.64766C22.6832 4.99295 22.7065 5.28224 22.7532 5.42689C22.8511 5.75352 23.1544 6.23879 23.5931 6.76139C23.7984 7.0087 24.0177 7.30266 24.069 7.41464C24.1903 7.65728 24.3116 8.29187 24.349 8.88446C24.363 9.11776 24.3956 9.33707 24.4143 9.3744C24.4423 9.42106 24.6196 9.43506 25.1562 9.43506C25.7768 9.43039 25.8701 9.42106 25.9774 9.33707C26.2807 9.1131 26.5327 8.40385 26.5 7.88592C26.486 7.62462 26.4347 7.49397 26.0754 6.78472C25.6601 5.96816 25.4362 5.32424 25.4362 4.96962C25.4362 4.86696 25.4828 4.59166 25.5341 4.35836C25.7301 3.5278 25.6088 3.24317 24.9882 3.09385C24.405 2.95387 23.6071 2.89321 23.2571 2.95853Z" fill="black"/>
<path d="M7.16376 3.22916C6.95379 3.26182 6.72515 3.29915 6.65516 3.31781L6.52451 3.35048L6.68315 3.51379C6.88379 3.7191 7.41573 4.08772 7.77502 4.26503C8.25096 4.503 8.95087 4.74563 9.77677 4.95561L10.5653 5.15625L10.8266 5.0396C11.5312 4.71764 12.1331 4.49833 12.5158 4.41901C12.7491 4.36768 12.9497 4.32102 12.9637 4.31169C12.973 4.29769 12.7724 4.18104 12.5158 4.05039C11.7225 3.64444 10.6773 3.33648 9.61812 3.20583C9.09085 3.1405 7.63503 3.1545 7.16376 3.22916Z" fill="black"/>
<path d="M6.16522 3.93389C6.16989 4.68046 6.40319 5.42237 6.81847 6.02429C7.06578 6.38358 7.80768 7.12549 7.915 7.12549C7.94767 7.12549 8.19963 6.91085 8.4796 6.65421C9.11885 6.05696 9.36616 5.85631 9.64612 5.72566L9.86076 5.61834L9.47814 5.50636C8.1903 5.13307 7.24309 4.63847 6.51984 3.95255L6.16522 3.61193V3.93389Z" fill="black"/>
<path d="M35.4915 4.35854C34.9783 4.58251 33.8491 5.34308 33.9284 5.4084C33.9424 5.41774 34.2037 5.49706 34.507 5.57638C35.1043 5.7397 36.2848 6.22963 36.7747 6.51893C36.9427 6.61692 37.2787 6.86422 37.5213 7.06953C38.3332 7.75078 38.3332 7.8301 37.526 7.3355C36.1868 6.51427 35.4402 6.15498 34.633 5.94034C34.3997 5.87501 34.2084 5.83302 34.2084 5.84235C34.2084 5.85168 34.3204 5.91701 34.4557 5.99633C35.2676 6.45361 36.4948 7.57813 37.05 8.3667L37.3487 8.79131L37.6799 8.85197C38.7111 9.03395 40.1903 9.48656 41.0162 9.88318L41.5015 10.1118L41.4735 9.68254C41.3801 8.28271 40.7782 7.10686 39.509 5.84235C38.5572 4.89514 37.6146 4.38187 36.5647 4.23722C36.0375 4.16256 35.9022 4.17656 35.4915 4.35854Z" fill="black"/>
<path d="M63.4881 4.25118C62.3915 4.40982 61.4303 4.78778 60.4318 5.45036C59.7645 5.88897 58.8313 6.84552 58.3414 7.58276C57.6694 8.59997 57.2542 9.59851 57.0022 10.8117C56.8995 11.2923 56.8715 11.5676 56.8529 12.3562C56.8156 13.742 56.9369 14.6425 57.3288 15.8417C58.2154 18.5341 60.2078 20.4938 62.5875 21.0117C63.1148 21.1284 64.0946 21.1471 64.6546 21.0584C66.3344 20.7784 67.8788 19.7659 68.994 18.2074C70.2259 16.495 70.8698 13.9706 70.6505 11.7402C70.6225 11.4743 70.5898 11.199 70.5758 11.1243L70.5478 10.9983L66.4184 11.0077C62.8021 11.0217 62.2795 11.031 62.2422 11.0917C62.2095 11.143 62.4382 11.6189 63.1008 12.8974C63.8753 14.3906 64.0153 14.6379 64.104 14.6379C64.1833 14.6379 64.3 14.5166 64.5706 14.1479L64.9345 13.6627L66.4417 13.658C67.4962 13.658 67.9442 13.672 67.9442 13.7093C67.9442 13.8726 67.7342 14.7405 67.6129 15.0905C66.9596 16.9523 65.6811 18.1934 64.188 18.4174C61.6543 18.8 59.3866 15.9071 59.5125 12.4448C59.5405 11.6842 59.6199 11.241 59.8485 10.5457C60.7537 7.82073 63.2781 6.30892 65.6671 7.06016C66.3157 7.26547 66.871 7.58276 67.3749 8.03537C67.5755 8.21735 67.6409 8.25001 67.7389 8.22668C67.8368 8.19868 67.8555 8.17535 67.8322 8.06803C67.8182 7.99804 67.7015 7.17681 67.5709 6.23893C67.4402 5.30104 67.3236 4.47981 67.3096 4.41449C67.2676 4.21385 67.1229 4.21385 66.9083 4.41449L66.717 4.58713L66.4557 4.50314C65.6484 4.23718 64.3466 4.12519 63.4881 4.25118Z" fill="black"/>
<path d="M72.0503 4.61045C71.9803 4.73176 71.971 4.72243 72.7316 5.38502L73.3568 5.92628V11.2969C73.3568 15.7484 73.3708 16.7423 73.4268 17.1109C73.5341 17.8388 73.7394 18.3754 74.1267 18.954C74.8686 20.0692 76.1051 20.8018 77.6729 21.0537C78.2935 21.1564 79.474 21.147 80.132 21.0304C82.2177 20.6711 83.6642 19.4439 84.1681 17.6008L84.2988 17.1342L84.3221 11.5256L84.3454 5.91228L84.8354 5.48767C85.7406 4.69444 85.6939 4.75043 85.6333 4.62444L85.582 4.51246H82.9923H80.4026L80.3466 4.62911C80.3046 4.7271 80.3093 4.75976 80.3653 4.80642C80.4073 4.83442 80.7152 5.10505 81.0512 5.39901L81.6624 5.93095V11.241C81.6624 14.9458 81.6484 16.6209 81.6111 16.7936C81.4525 17.5542 80.8739 18.0908 79.936 18.3567C79.502 18.478 78.1769 18.478 77.7429 18.3567C76.7817 18.0861 76.2125 17.5402 76.0631 16.7423C76.0351 16.5836 76.0165 14.5539 76.0165 11.213V5.93561L76.5577 5.46901C76.8517 5.21237 77.1597 4.95107 77.2343 4.88574C77.351 4.78776 77.3696 4.74576 77.3463 4.63844L77.3137 4.51246H74.7053C72.1203 4.51246 72.1016 4.51246 72.0503 4.61045Z" fill="black"/>
<path d="M89.7815 10.5224C88.7176 13.798 87.6117 17.2089 87.3224 18.0955L86.7952 19.7099L86.0953 20.3072C85.7126 20.6338 85.3953 20.9185 85.3953 20.9371C85.3953 21.1284 85.3207 21.1238 88.013 21.1238C90.4954 21.1238 90.5747 21.1191 90.6214 21.0351C90.6634 20.9558 90.5934 20.8578 90.1548 20.3492C89.8748 20.0226 89.6415 19.7333 89.6415 19.7053C89.6368 19.6026 90.6914 16.411 90.7287 16.411C90.7473 16.411 91.2653 16.8496 91.8719 17.3816C92.4785 17.9135 93.0057 18.3661 93.0384 18.3894C93.0757 18.4128 93.5003 18.0675 94.2702 17.3909C94.9655 16.789 95.4601 16.3877 95.4694 16.4204C95.4788 16.453 95.7261 17.2136 96.0154 18.1048L96.5426 19.7286L96.034 20.3165C95.7494 20.6385 95.5207 20.9231 95.5207 20.9558C95.5254 21.1238 95.5301 21.1238 98.1618 21.1144L100.723 21.1004L100.737 20.9978C100.751 20.9138 100.611 20.7738 100.056 20.3025L99.3563 19.7099L96.8926 12.1322L94.4289 4.55917H93.0757H91.7179L89.7815 10.5224ZM94.0743 12.1276C94.6109 13.7887 95.0681 15.1792 95.0821 15.2165C95.1101 15.2818 94.9095 15.2912 93.0944 15.2912C91.1346 15.2912 91.0833 15.2865 91.0973 15.2025C91.116 15.0812 93.0664 9.08994 93.0804 9.10394C93.0851 9.10861 93.533 10.4711 94.0743 12.1276Z" fill="black"/>
<path d="M98.5817 4.66184C98.563 4.73649 98.5817 4.79249 98.6377 4.83915C98.6843 4.87648 99.0203 5.17044 99.3889 5.4924L100.061 6.07566L102.175 10.3405L104.293 14.6053V17.1389V19.6726L103.724 20.1766C103.411 20.4519 103.094 20.7318 103.024 20.7972C102.926 20.8858 102.902 20.9418 102.921 21.0165L102.949 21.1238H105.627C107.223 21.1238 108.306 21.1051 108.306 21.0818C108.306 21.0585 108.315 21.0071 108.329 20.9745C108.348 20.9325 108.105 20.6898 107.657 20.3025L106.957 19.7006V17.1529L106.953 14.6006L109.066 10.3405L111.185 6.07566L111.857 5.4924C112.225 5.17044 112.561 4.87648 112.608 4.83915C112.664 4.79249 112.683 4.73649 112.664 4.66184L112.636 4.55918H109.962H107.284L107.256 4.65717C107.219 4.76916 107.205 4.75982 107.839 5.30576C108.082 5.5204 108.287 5.70704 108.296 5.7257C108.31 5.76303 105.655 11.1384 105.623 11.1384C105.59 11.1384 102.94 5.79103 102.94 5.73504C102.94 5.71637 103.182 5.4924 103.476 5.24043C104.33 4.50319 104.517 4.55918 101.283 4.55918H98.6097L98.5817 4.66184Z" fill="black"/>
<path d="M114.516 12.0808C113.172 16.2196 112.048 19.6445 112.02 19.6865C111.992 19.7285 111.67 20.0178 111.306 20.3304C110.289 21.1936 110.116 21.1236 113.252 21.1236C115.944 21.1236 115.865 21.1283 115.865 20.937C115.865 20.9137 115.636 20.6337 115.356 20.3117L114.848 19.7285L115.24 18.5246C115.454 17.862 115.697 17.1155 115.776 16.8635C115.86 16.6162 115.939 16.4109 115.963 16.4109C115.981 16.4109 116.518 16.8635 117.148 17.4141C117.881 18.058 118.315 18.408 118.352 18.3846C118.38 18.366 118.907 17.9134 119.514 17.3814C120.12 16.8495 120.638 16.4109 120.662 16.4109C120.68 16.4109 120.942 17.1575 121.24 18.0674L121.777 19.7238L121.268 20.3117C120.839 20.8017 120.76 20.9137 120.783 21.0117L120.811 21.1236H123.373C126.07 21.1236 125.99 21.1283 125.99 20.937C125.99 20.9137 125.673 20.629 125.29 20.3024L124.59 19.7098L124.18 18.4453C123.956 17.7501 122.845 14.3392 121.721 10.8723L119.668 4.55904H118.315H116.957L114.516 12.0808ZM119.336 12.2114C119.864 13.8445 120.298 15.2024 120.298 15.235C120.298 15.277 119.826 15.291 118.296 15.291H116.289L116.355 15.0904C116.392 14.9831 116.565 14.4418 116.747 13.8912C118.1 9.71973 118.305 9.11781 118.338 9.18313C118.357 9.22046 118.804 10.583 119.336 12.2114Z" fill="black"/>
<path d="M141.538 4.67121C141.491 4.77853 141.528 4.81586 142.182 5.38045L142.877 5.98238V12.8415L142.882 19.7053L142.205 20.2839C141.645 20.7692 141.533 20.8858 141.542 20.9838L141.552 21.1005L144.207 21.1145C146.941 21.1238 146.936 21.1238 146.941 20.9512C146.941 20.9232 146.638 20.6292 146.264 20.3026L145.588 19.7147V12.8462V5.98238L146.148 5.49244C146.46 5.22181 146.764 4.95584 146.834 4.90451C146.927 4.82519 146.946 4.77853 146.922 4.68054L146.894 4.55922H144.239H141.589L141.538 4.67121Z" fill="black"/>
<path d="M126.909 4.63844C126.798 4.74576 126.919 4.89507 127.558 5.44567L128.23 6.02426V12.8647V19.7052L127.553 20.2838C126.993 20.7691 126.881 20.8857 126.891 20.9837L126.9 21.1004L129.574 21.1144C131.188 21.119 132.243 21.1097 132.243 21.0817C132.243 21.0584 132.252 21.0071 132.266 20.9744C132.285 20.9324 132.042 20.6898 131.613 20.3165L130.936 19.7192V17.2369L130.941 14.7545L132.317 13.224C133.073 12.3841 133.708 11.6982 133.727 11.6982C133.745 11.6982 134.347 13.4947 135.061 15.6924L136.358 19.6912L135.742 20.3071C135.229 20.8204 135.131 20.9417 135.159 21.0257L135.187 21.1237H137.87C140.702 21.1237 140.548 21.133 140.567 20.9324C140.572 20.9091 140.259 20.6058 139.877 20.2698L139.181 19.6539L137.511 14.5025C136.592 11.6702 135.854 9.32785 135.868 9.29986C135.896 9.25786 139.298 5.46433 139.783 4.9324C139.858 4.85308 139.881 4.77842 139.863 4.70843L139.839 4.60577H137.324C134.319 4.60577 134.543 4.54045 135.047 5.25903C135.229 5.51566 135.369 5.75363 135.355 5.78629C135.332 5.84229 131.403 10.2191 131.095 10.5317L130.936 10.695V8.35264V6.01027L131.613 5.41301C132.042 5.03972 132.285 4.79708 132.266 4.75509C132.252 4.72243 132.243 4.6711 132.243 4.64777C132.243 4.60111 126.956 4.58711 126.909 4.63844Z" fill="black"/>
<path d="M13.8922 4.91383C12.931 5.06315 12.0305 5.36178 10.6213 6.00103C9.24483 6.62628 8.49825 7.18155 7.84967 8.05877C7.29907 8.79601 7.00511 9.4726 6.81846 10.4198C6.70648 10.9797 6.64115 12.3749 6.70181 12.9348L6.73447 13.2475L6.94911 13.3454C7.07043 13.3968 7.50438 13.5228 7.91499 13.6207C8.59624 13.7887 8.73156 13.8074 9.50146 13.8307C10.3134 13.854 10.36 13.854 10.8033 13.7327C11.6152 13.5088 12.2918 13.1681 13.3883 12.4169C13.7056 12.2023 14.1815 11.9176 14.4382 11.7916C14.6995 11.6657 14.9794 11.5163 15.0588 11.4557C15.1381 11.395 15.3574 11.2317 15.5487 11.0871C15.74 10.9471 16.0946 10.7138 16.3373 10.5785C16.7899 10.3218 17.2238 9.9532 17.4618 9.62658C17.6204 9.41194 17.6391 9.10864 17.5225 8.6467C17.3825 8.10077 16.9252 7.35886 16.7246 7.35886C16.5846 7.35886 15.1474 7.78814 14.5035 8.02144C12.5764 8.71669 10.7473 9.64991 8.6289 11.0171C8.47959 11.1104 8.35827 11.1804 8.35827 11.1664C8.35827 11.1524 8.64757 10.9191 9.00219 10.6438C9.98673 9.87388 10.794 9.16463 10.7333 9.11797C10.724 9.10864 10.5887 9.05265 10.4347 8.99199C10.2807 8.93133 10.136 8.87067 10.1174 8.85201C10.0661 8.80535 10.8593 8.58137 12.5018 8.18009C13.281 7.99345 13.9249 7.82547 13.9389 7.81147C13.9996 7.75548 13.8829 7.66682 13.5563 7.51284C13.365 7.42885 13.211 7.34953 13.211 7.3402C13.211 7.33086 13.365 7.33553 13.5516 7.34486C13.8363 7.36353 13.9809 7.3402 14.4662 7.20021C14.7881 7.10689 15.0961 7.03223 15.1568 7.03223C15.3807 7.03223 15.2641 6.8036 14.9048 6.52363C14.7041 6.36965 14.6248 6.197 14.7881 6.26233C14.8301 6.28099 15.1428 6.33699 15.474 6.38831C15.81 6.43498 16.1506 6.49563 16.2346 6.51896C16.4073 6.56563 16.4026 6.57962 16.3093 6.24833C16.2486 6.04769 16.2393 5.88904 16.2626 5.56708C16.2859 5.24979 16.2813 5.12381 16.2346 5.06315C16.0806 4.86251 14.7601 4.77852 13.8922 4.91383Z" fill="black"/>
<path d="M29.2903 5.47369C28.4224 5.609 27.5545 5.96363 26.9993 6.41157C26.6446 6.70087 26.6073 6.76619 26.7146 6.88751C26.8546 7.04149 27.0926 7.12548 27.6339 7.2188C28.1098 7.29813 28.2171 7.33545 28.9077 7.68075C29.3976 7.92338 29.8362 8.10536 30.1722 8.19868C31.2127 8.49731 32.3606 9.01524 33.1492 9.53785C33.5598 9.81314 34.3017 10.4244 34.3017 10.4897C34.3017 10.5084 33.8444 10.2984 33.2892 10.0185C31.5207 9.14123 29.8362 8.40399 28.5251 7.93738C27.7925 7.67608 26.8593 7.41011 26.822 7.45211C26.808 7.46611 26.8453 7.62009 26.9106 7.80206C27.1113 8.38999 27.0273 8.94059 26.668 9.35587L26.5 9.55184L26.64 9.72916C26.7193 9.82248 26.9526 10.0698 27.1672 10.2751C28.5157 11.5676 30.1815 12.5661 31.5767 12.9208C31.9453 13.0141 32.104 13.0281 33.0185 13.0281C33.8911 13.0281 34.1197 13.0094 34.5583 12.9208C35.5755 12.7154 36.4108 12.3562 36.9194 11.8942L37.1947 11.6422V11.0917C37.1947 9.71049 36.8587 8.87993 35.9395 7.96538C35.1649 7.19547 33.8771 6.28559 33.0652 5.9403C31.95 5.45969 30.5128 5.28238 29.2903 5.47369Z" fill="black"/>
<path d="M5.09202 6.44883C4.32211 6.63547 3.74818 7.05542 2.90829 8.0493L2.44168 8.60456L3.97682 8.66522C5.17601 8.71188 5.60995 8.71655 5.95991 8.66989C6.47784 8.60923 6.8558 8.48791 7.08443 8.3106C7.24775 8.18461 7.51838 7.80666 7.51838 7.70401C7.51838 7.55469 6.72515 7.5127 5.76393 7.61069C4.59275 7.72734 4.48543 7.70401 5.37198 7.51736C5.7966 7.43337 6.34719 7.32605 6.60383 7.28873C6.8558 7.2514 7.0751 7.2094 7.0891 7.1954C7.1031 7.18141 7.09377 7.17207 7.06577 7.17207C7.04244 7.17207 6.91646 7.04142 6.79047 6.87811C6.38919 6.36951 6.40785 6.37884 5.84326 6.38351C5.57262 6.38351 5.232 6.41617 5.09202 6.44883Z" fill="black"/>
<path d="M3.80419 9.29522C3.37491 9.36988 3.17894 9.4352 2.80098 9.62651C1.79311 10.1305 0.971879 11.241 0.407283 12.8601C0.122652 13.6813 0.0339966 14.1806 0.0339966 15.0578C0.0339966 15.5104 0.0526609 15.8604 0.0806574 15.9117C0.13665 16.0097 0.225306 15.9444 1.94242 14.5772C3.46357 13.364 4.29413 12.8134 5.08737 12.4915C5.6193 12.2768 5.65196 12.2535 5.76861 12.0482C5.94126 11.7589 6.1559 11.059 6.18856 10.695C6.20723 10.5131 6.25855 10.1631 6.30988 9.91581C6.35654 9.66851 6.39853 9.44454 6.39853 9.42121C6.39853 9.35121 5.27867 9.22523 4.69075 9.2299C4.38279 9.2299 3.98617 9.26256 3.80419 9.29522Z" fill="black"/>
<path d="M37.7359 9.58446C37.8713 10.1537 37.8666 10.8396 37.7266 11.8615C37.7033 12.0435 37.7079 12.0528 37.9133 12.1788C38.0299 12.2535 38.3519 12.5521 38.6225 12.8414C38.8931 13.1307 39.1918 13.42 39.2851 13.4853C39.3784 13.546 39.6444 13.7186 39.8683 13.8633C40.4329 14.2319 40.8389 14.6518 41.2868 15.3237C41.4921 15.641 41.6554 15.8977 41.6415 15.8977C41.6321 15.8977 41.3242 15.683 40.9602 15.4171C40.3816 14.9924 39.2384 14.1992 39.0751 14.1059C39.0144 14.0732 39.0471 14.1992 39.2711 14.8151C39.3364 14.9971 39.4064 15.2724 39.4251 15.4171L39.4577 15.683L39.9243 16.0003C40.4423 16.3503 40.9322 16.5789 41.5575 16.7609C42.0147 16.8915 42.8546 17.0455 43.2606 17.0735C43.5545 17.0922 43.5685 17.0735 43.7132 16.5463C43.8345 16.117 43.8298 14.7918 43.7085 14.1479C43.5965 13.5506 43.3819 12.8274 43.2279 12.5194C42.6213 11.3202 41.4035 10.4057 39.6024 9.80376C39.1078 9.64045 37.8713 9.32316 37.7033 9.31849C37.6846 9.31849 37.7033 9.43981 37.7359 9.58446Z" fill="black"/>
<path d="M21.2133 12.1462C18.5397 12.4355 16.258 14.2506 15.4274 16.7516C15.1474 17.5915 15.1008 17.9135 15.1008 18.954C15.1008 19.9945 15.1474 20.3165 15.4274 21.1564C16.4213 24.138 19.4216 26.0698 22.5665 25.7432C25.2028 25.4725 27.4519 23.7227 28.3198 21.259C28.6091 20.4425 28.6791 19.9852 28.6791 18.954C28.6791 18.2308 28.6604 17.9321 28.5951 17.6288C28.2965 16.2337 27.6945 15.1231 26.7193 14.1433C25.7208 13.1401 24.4656 12.4728 23.1264 12.2348C22.7112 12.1602 21.5773 12.1089 21.2133 12.1462ZM23.4951 12.8274C24.321 13.0467 25.1655 13.4667 25.8001 13.9753C25.9727 14.1106 26.1127 14.2599 26.1127 14.3019C26.1174 14.4232 26.1827 14.5912 26.234 14.5912C26.2574 14.5912 26.276 14.6145 26.276 14.6425C26.276 14.6752 26.3087 14.7219 26.346 14.7499C26.388 14.7779 26.4254 14.8572 26.43 14.9178C26.4487 15.0858 26.7007 15.4264 26.836 15.4591C26.9013 15.4731 26.976 15.4918 27.0086 15.5011C27.0413 15.5104 27.1346 15.6737 27.2233 15.8604C27.3072 16.047 27.4472 16.2803 27.5266 16.3737C27.6805 16.5463 27.7179 16.6676 27.6199 16.7003C27.5779 16.7143 27.5872 16.7703 27.6525 16.9009C27.7085 17.0222 27.7412 17.2136 27.7459 17.4422C27.7645 17.9228 28.0818 19.262 28.1751 19.2246C28.2545 19.192 28.2265 19.5139 28.0911 20.1998C27.6012 22.6869 25.6695 24.6233 23.1358 25.1692C22.8465 25.2345 22.5385 25.2532 21.8899 25.2532C20.9614 25.2532 20.6021 25.2019 19.8975 24.9686C19.3656 24.7866 18.9176 24.53 18.9783 24.432C18.9923 24.4087 18.9456 24.3667 18.8756 24.3433C18.8103 24.3153 18.6983 24.2547 18.633 24.1987C18.549 24.1334 18.4743 24.1147 18.3857 24.1334C18.2877 24.1567 18.227 24.1287 18.0824 23.9887C17.9797 23.8954 17.7698 23.7134 17.6111 23.5874C17.4478 23.4568 17.3172 23.3168 17.3172 23.2748C17.3172 23.2281 17.2612 23.1441 17.1958 23.0788C17.1305 23.0182 16.9812 22.7895 16.8692 22.5702C16.7526 22.3509 16.5053 21.9636 16.314 21.707C15.9453 21.2077 15.8147 20.8951 15.6514 20.1205C15.544 19.5886 15.544 18.3427 15.6514 17.7968C15.8427 16.8403 16.258 15.9117 16.8319 15.1511C17.1958 14.6705 17.4851 14.3672 17.5318 14.4186C17.5645 14.4512 17.9238 14.2739 17.9797 14.1993C17.9937 14.1759 18.0824 14.1526 18.1711 14.1526C18.2644 14.1479 18.3764 14.1153 18.423 14.0733C18.4697 14.0359 18.563 13.98 18.6283 13.952C18.6983 13.924 18.7916 13.8213 18.8383 13.7233C18.9176 13.5693 18.969 13.5367 19.2909 13.4247C19.4869 13.3547 19.7622 13.2287 19.8928 13.1494C20.1168 13.0094 20.1401 13.0047 20.1961 13.0794C20.2475 13.1494 20.2708 13.1494 20.4061 13.0934C20.5088 13.0514 20.7141 13.0327 21.0267 13.0421C21.3113 13.0467 21.7406 13.0141 22.1232 12.9581C22.4685 12.9068 22.8091 12.8601 22.8838 12.8554C23.0144 12.8461 23.0518 12.7948 22.9538 12.7574C22.7858 12.6874 23.1684 12.7388 23.4951 12.8274Z" fill="black"/>
<path d="M20.3595 14.6613C20.1868 14.7873 20.0002 14.8199 19.7855 14.7686C19.6409 14.7313 19.5662 14.7313 19.5056 14.7686C19.4589 14.8013 19.3749 14.8246 19.3189 14.8246C19.2676 14.8246 19.1089 14.8573 18.969 14.8992C18.773 14.9552 18.6937 15.0112 18.577 15.1652C18.5024 15.2679 18.437 15.3892 18.437 15.4265C18.437 15.4638 18.2877 15.6365 18.1057 15.8091C17.7698 16.1264 17.7698 16.1264 17.8304 16.2757C17.8678 16.3644 17.9518 16.4484 18.0404 16.4857C18.1197 16.5184 18.2224 16.6164 18.269 16.7004C18.353 16.8543 18.353 16.859 18.2317 17.111C18.0824 17.4189 18.0824 17.4656 18.2224 17.7222C18.2877 17.8342 18.3577 18.0629 18.3857 18.2308C18.437 18.5668 18.5677 18.7254 18.815 18.7768C18.8896 18.7908 18.9643 18.8234 18.9783 18.8421C18.9923 18.8654 19.0343 18.8841 19.0763 18.8841C19.1603 18.8841 19.9302 19.4767 19.9302 19.542C19.9302 19.6167 20.4061 19.8173 20.5928 19.8173C20.7327 19.8173 20.7887 19.8453 20.8774 19.9666C20.9987 20.1299 21.0267 20.2372 21.092 20.7972C21.1247 21.0818 21.1807 21.2358 21.3953 21.6604C21.54 21.9404 21.6566 22.2063 21.6566 22.2437C21.6566 22.3883 21.8666 22.9762 21.9693 23.1116C22.0299 23.1909 22.0952 23.3542 22.1186 23.4755C22.1699 23.7461 22.3425 24.0074 22.6925 24.3527C22.8791 24.5347 23.0331 24.6374 23.1638 24.6747C23.677 24.824 23.8637 24.838 23.943 24.74C24.0363 24.628 23.943 24.3201 23.6817 23.8581C23.5697 23.6575 23.4764 23.4615 23.4764 23.4242C23.4764 23.3869 23.4531 23.3169 23.4251 23.2655C23.3551 23.1256 23.3644 22.5983 23.4484 22.4443C23.4857 22.3743 23.5697 22.2577 23.635 22.1877C23.7004 22.1177 23.7564 22.0477 23.7564 22.0337C23.7564 21.9917 24.0037 21.6231 24.1203 21.4971C24.1763 21.4318 24.223 21.3618 24.223 21.3338C24.223 21.1611 24.3536 20.8998 24.5449 20.6805C24.7969 20.3912 24.8529 20.2279 24.7549 20.0413C24.7036 19.9433 24.6989 19.892 24.7456 19.794C24.7736 19.7286 24.8202 19.6773 24.8436 19.6773C24.8996 19.6773 25.3475 19.3414 25.4875 19.1967C25.7301 18.9401 25.9354 18.3288 25.8841 18.0115C25.7954 17.4703 25.7861 17.5263 26.0147 17.2743C26.1314 17.1436 26.2807 16.9383 26.346 16.8123C26.4487 16.6164 26.458 16.565 26.416 16.4391C26.304 16.1218 25.4128 15.5712 25.0115 15.5712C24.9322 15.5712 24.7642 15.6178 24.6383 15.6692C24.4096 15.7671 24.4003 15.7671 24.1063 15.6878C23.9383 15.6458 23.7517 15.6178 23.6864 15.6272C23.5744 15.6505 23.2991 15.4685 23.1591 15.2819C23.0658 15.1559 22.6972 14.9552 22.4872 14.9179C22.3565 14.8946 22.2306 14.9039 22.0906 14.9506C21.8059 15.0486 21.5633 15.0112 21.1294 14.8059C20.6814 14.5913 20.5041 14.5586 20.3595 14.6613Z" fill="black"/>
<path d="M5.93191 12.5894C5.64728 12.8413 4.78405 13.4106 3.45888 14.2178C2.45101 14.8291 0.934532 15.8136 0.663899 16.0283C0.556579 16.1169 0.561245 16.1169 1.48046 16.0983C3.46822 16.0609 3.85083 15.9536 4.86337 15.151C5.6846 14.4978 6.10922 13.7326 6.19787 12.734C6.21187 12.5474 6.20721 12.3981 6.18388 12.3981C6.16055 12.4027 6.04856 12.4867 5.93191 12.5894Z" fill="black"/>
<path d="M36.8354 12.6782C36.4621 13.0002 35.9442 13.2428 35.0716 13.4994C34.661 13.6207 34.3157 13.7281 34.3064 13.7374C34.297 13.7421 34.675 14.2273 35.1416 14.8059C36.4108 16.3831 36.9287 17.223 37.3067 18.3148C37.4 18.5808 37.4746 18.8094 37.4746 18.8234C37.4746 18.8374 37.176 18.4501 36.8074 17.9695C36.4434 17.4843 35.7435 16.5837 35.2536 15.9678C34.7683 15.3519 34.2504 14.6893 34.1011 14.4933C33.9564 14.2973 33.7464 14.0547 33.6344 13.9474C33.3825 13.7187 33.2098 13.6814 32.1926 13.6161C31.5954 13.5787 31.4087 13.5508 31.1754 13.4574C30.8348 13.3174 30.8441 13.2895 31.0168 14.0687C31.6607 16.9477 33.3545 18.8234 36.1261 19.7426C36.7701 19.9573 37.6286 20.1673 38.0812 20.2186L38.3379 20.2466L38.3425 20.0086C38.3472 19.8173 38.3985 19.6727 38.6178 19.248C38.9398 18.6181 39.0098 18.2915 39.0144 17.4143C39.0191 15.8045 38.5898 14.176 37.9272 13.2521C37.6146 12.8228 37.2647 12.4449 37.1713 12.4449C37.1387 12.4449 36.9847 12.5475 36.8354 12.6782Z" fill="black"/>
<path d="M5.99723 14.4559C5.32531 15.3425 4.91936 15.7391 4.44342 15.9864C4.1028 16.1637 4.06547 16.1964 4.03747 16.3503C3.99081 16.6023 4.05147 17.1296 4.18212 17.6242C4.29877 18.0535 4.47142 18.4781 5.10601 19.9339C5.27865 20.3165 5.46996 20.8344 5.53995 21.0771C5.60994 21.3197 5.6706 21.525 5.67527 21.5297C5.6846 21.5483 6.64115 21.1191 7.23841 20.8298C7.79367 20.5638 8.47958 20.1579 8.79688 19.9106C9.02085 19.7286 9.33814 19.3553 9.9914 18.4967C10.7846 17.4562 11.2932 16.0377 11.2372 15.0112C11.2232 14.7685 11.1812 14.4606 11.1393 14.3299L11.0646 14.0873L10.8406 14.1619C10.696 14.2086 10.346 14.2413 9.78609 14.2599L8.94619 14.2879L8.79221 14.6752C8.70356 14.8898 8.48892 15.5618 8.31161 16.173C7.94299 17.4422 7.73768 17.9928 7.43905 18.5667C7.23841 18.9447 6.7858 19.5699 6.7438 19.5233C6.73447 19.5139 6.7578 19.4159 6.79513 19.3086C6.83246 19.1966 6.96777 18.7114 7.09842 18.2308C7.45305 16.8963 7.77501 15.8511 8.05964 15.1278C8.37227 14.3393 8.38626 14.2833 8.30694 14.1899C8.20895 14.0733 8.05497 14.0313 7.35506 13.938C6.99577 13.8866 6.65981 13.8353 6.60382 13.8213C6.51983 13.7933 6.42651 13.896 5.99723 14.4559Z" fill="black"/>
<path d="M2.82897 16.4015C2.42769 16.5415 2.15706 16.7328 1.63912 17.2461C1.20051 17.68 1.11185 17.7967 0.906546 18.2073C0.197301 19.6118 -0.0360028 20.6243 0.0199902 22.0801C0.0479867 22.7474 0.2113 24.2125 0.276625 24.3852C0.304621 24.4598 0.55659 24.3992 2.78231 23.8066L5.25534 23.144L5.24134 22.892C5.20401 22.1968 4.84939 20.8623 4.38278 19.6864L4.10281 18.9772L3.9535 19.1732C3.86951 19.2852 3.4449 19.8777 3.01562 20.4937C2.28304 21.5342 1.43381 22.6867 1.14918 23.0134L1.02786 23.1533L1.14918 22.906C1.21451 22.7707 1.45248 22.3928 1.67178 22.0661C3.04828 20.0457 3.26758 19.6631 3.53355 18.8559C3.68753 18.3706 3.68753 18.3706 3.12294 18.3706C2.89896 18.3706 2.70765 18.3519 2.69366 18.3333C2.67966 18.3099 2.8383 18.212 3.03895 18.114C3.39823 17.9413 3.64554 17.7593 3.64554 17.6707C3.64554 17.6474 3.62221 17.3581 3.59421 17.0314C3.55688 16.5788 3.52889 16.4202 3.46823 16.3735C3.36557 16.2942 3.10427 16.3035 2.82897 16.4015Z" fill="black"/>
<path d="M39.6071 17.3302C39.5651 18.5854 39.3971 19.402 39.0051 20.2512L38.8092 20.6665L37.7826 20.6338L36.7514 20.6058L36.2988 21.1331C36.0515 21.4224 35.3796 22.2389 34.801 22.9482C33.5225 24.5347 32.7152 25.4772 32.7152 25.3932C32.7152 25.2999 33.5691 23.8954 34.2411 22.8782C34.6657 22.2343 34.969 21.735 34.9223 21.749C34.8057 21.7957 34.423 21.8563 34.0684 21.889L33.7651 21.9123L33.9051 21.7957C34.4557 21.3291 35.3469 20.6805 35.7622 20.4425L35.9442 20.3399L35.3423 20.1439C35.0156 20.0366 34.5863 19.8686 34.395 19.7659L34.0451 19.5793L33.7698 19.8732C32.4679 21.2591 31.7774 23.6621 32.02 25.9392C32.048 26.2051 32.0853 26.4384 32.1087 26.4571C32.188 26.5411 35.4869 26.2005 36.0982 26.0465C36.4808 25.9532 37.3767 25.5005 37.6333 25.2719C37.7593 25.1599 37.9366 24.9173 38.0719 24.6793C38.1979 24.4553 38.4219 24.0961 38.5712 23.8767C39.1124 23.0695 39.5977 21.931 39.873 20.7971C40.1297 19.7426 40.2836 17.9788 40.195 17.1809C40.1577 16.8636 40.153 16.8543 39.9243 16.6816C39.7984 16.5837 39.677 16.5043 39.663 16.5043C39.649 16.5043 39.6211 16.8776 39.6071 17.3302Z" fill="black"/>
<path d="M40.7409 17.0595C40.7409 17.1062 40.7736 17.3395 40.8155 17.5775C40.8995 18.0674 41.0209 18.4827 41.4315 19.6772C41.6928 20.4331 41.8234 20.9417 41.8747 21.441C41.8887 21.553 41.8794 21.6276 41.8561 21.609C41.8328 21.595 41.8141 21.553 41.8141 21.5156C41.8141 21.329 41.3568 20.0972 41.0768 19.5372L40.7642 18.9073L40.7316 19.2199C40.7176 19.3972 40.6522 19.7425 40.5962 19.9898C40.5263 20.2931 40.4889 20.5918 40.4889 20.8671C40.4889 21.2403 40.5123 21.357 40.7082 21.9403C40.8295 22.3042 40.9462 22.7102 40.9742 22.8501C41.0489 23.2468 41.2028 23.3587 41.9587 23.5781C42.2014 23.6434 42.458 23.732 42.5327 23.7694L42.668 23.8394L42.6353 23.6807C42.5607 23.2654 42.556 22.1502 42.626 21.0584C42.7426 19.2666 42.7146 18.5154 42.5233 17.9274C42.4533 17.7268 42.4113 17.6755 42.2107 17.5681C42.0847 17.4981 41.8094 17.3815 41.6041 17.3162C41.3988 17.2462 41.1188 17.1435 40.9882 17.0829C40.7596 16.9849 40.7409 16.9849 40.7409 17.0595Z" fill="black"/>
<path d="M11.1253 17.7222C11.0973 17.7828 10.9386 17.9975 10.7706 18.1981C10.6027 18.4034 10.43 18.6414 10.3834 18.7347C10.3087 18.8934 10.3087 18.898 10.416 18.9867C10.696 19.2107 11.3632 19.6306 11.4426 19.6306C11.6385 19.6306 11.5079 18.4128 11.2419 17.7688L11.1766 17.6102L11.1253 17.7222Z" fill="black"/>
<path d="M32.2766 18.2306C32.1833 19.4625 31.81 20.7923 31.2174 21.9822C31.0448 22.3321 30.9561 22.5561 30.9841 22.5841C31.0541 22.6541 31.3294 22.5794 31.5581 22.4301C31.824 22.2528 32.0107 21.9682 32.5893 20.867C32.8412 20.3817 33.1352 19.8218 33.2379 19.6258C33.4665 19.2059 33.4572 19.1312 33.1539 18.7859C33.0372 18.6553 32.8692 18.4313 32.7759 18.2866C32.5613 17.9554 32.4353 17.8107 32.3653 17.8107C32.328 17.8107 32.3 17.9554 32.2766 18.2306Z" fill="black"/>
<path d="M10.0381 19.4627C9.97741 19.6587 9.62746 19.9853 9.10019 20.3492C8.88088 20.4986 8.65224 20.6945 8.59625 20.7785C8.42827 21.0212 8.4656 21.1705 9.13752 22.8643C9.37549 23.4802 9.63679 24.2221 9.71611 24.5207C9.79077 24.824 9.94475 25.3513 10.0567 25.6966C10.3647 26.6578 10.3694 26.7978 10.0707 26.1585C9.93075 25.8599 9.63212 25.2626 9.40815 24.8287C8.10631 22.3417 7.79369 21.6464 7.85901 21.4038C7.88234 21.3105 7.88234 21.3105 7.76102 21.3991C7.53705 21.5531 7.22909 21.6931 6.49185 21.973C6.0999 22.1224 5.75927 22.2577 5.74061 22.281C5.68928 22.3323 5.78727 23.0929 5.90392 23.5688C6.02991 24.0634 6.58517 25.5099 6.9118 26.2005C7.52772 27.493 8.30695 28.3096 9.24484 28.6455C9.67412 28.7948 10.542 28.7995 10.9246 28.6455C11.7225 28.3282 12.3991 27.6097 12.931 26.5131C13.2577 25.8412 13.3277 25.5006 13.323 24.6467C13.3183 23.8068 13.253 23.4802 12.9544 22.7896C12.3524 21.3991 10.696 19.304 10.1967 19.304C10.1174 19.304 10.0801 19.346 10.0381 19.4627Z" fill="black"/>
<path d="M40.2136 22.1363C40.2043 22.1549 40.1437 22.3182 40.0877 22.4956C39.8544 23.2048 38.7018 25.2439 38.2539 25.7385C37.8853 26.1491 37.5866 26.625 37.0314 27.7076C36.4994 28.7388 36.1961 29.21 35.8369 29.546C35.6502 29.7233 35.6455 29.728 35.7435 29.5787C35.9208 29.322 36.0655 28.9021 36.2801 28.0295C36.4155 27.4836 36.5461 27.0683 36.6488 26.863C36.7841 26.597 36.7981 26.5364 36.7327 26.5364C36.6348 26.541 34.1151 27.0776 34.1011 27.101C34.0917 27.1103 34.1011 27.5303 34.1197 28.0295C34.1571 29.1214 34.2364 29.4947 34.5863 30.2133C35.0623 31.1978 35.4076 31.3658 36.5461 31.1745C37.3627 31.0345 37.9879 30.7872 38.8511 30.2646C39.4204 29.924 39.5837 29.7327 39.9617 28.9861C40.5636 27.7869 40.8716 25.9298 40.7409 24.2967C40.6476 23.0835 40.3536 21.889 40.2136 22.1363Z" fill="black"/>
<path d="M31.3901 22.9014C31.0775 23.1767 30.7135 23.6386 29.9996 24.6699C29.6543 25.1691 29.141 25.9064 28.8611 26.303C27.8159 27.7915 27.4892 28.4727 27.2419 29.6859C27.1533 30.1292 27.1393 30.3438 27.1393 31.2957C27.1393 32.4715 27.1626 32.6862 27.4052 33.6847C27.5219 34.17 27.5639 34.282 27.6339 34.282C27.6759 34.282 27.9512 34.24 28.2451 34.1887C29.5563 33.9647 30.6622 33.5214 31.6794 32.8262C32.384 32.3362 33.2565 31.4077 33.7231 30.6331L33.8958 30.3485L33.8118 30.1338C33.5551 29.4713 33.4152 28.608 33.4152 27.6981V27.1429H33.1725C32.9719 27.1429 31.9687 27.3062 31.9407 27.3435C31.9034 27.3902 29.0804 31.6876 28.8937 31.9816C28.7584 32.1962 28.6371 32.3689 28.6324 32.3689C28.6231 32.3689 28.7491 31.9676 28.9124 31.4823C29.379 30.1105 29.7523 29.4013 30.6715 28.1787C31.4134 27.1895 31.4087 27.2035 31.4554 24.9965C31.4834 23.634 31.5067 23.2374 31.5674 23.0181C31.6094 22.8687 31.6374 22.7334 31.6281 22.7241C31.6187 22.7148 31.5114 22.7941 31.3901 22.9014Z" fill="black"/>
<path d="M5.02669 23.7459C5.01736 23.7786 4.95204 23.9932 4.88205 24.2265C4.81205 24.4552 4.6814 24.8238 4.59275 25.0431C4.4341 25.4304 3.79018 26.6529 3.76219 26.6202C3.75285 26.6109 3.86951 26.2936 4.02349 25.911C4.26612 25.3091 4.58808 24.3339 4.69074 23.9092C4.71873 23.7879 4.71407 23.7833 4.59275 23.8113C4.51809 23.8253 4.02349 23.9839 3.48222 24.1612L2.50234 24.4785L2.46968 24.6558C2.41835 24.9451 2.43235 25.7523 2.50234 26.6762C2.53967 27.1522 2.57233 27.7868 2.57233 28.0854C2.57233 28.72 2.53501 28.692 3.08094 28.538C4.03748 28.272 4.73273 27.7961 5.47464 26.9049C6.04857 26.205 6.03923 26.233 5.82926 25.799C5.73127 25.603 5.56796 25.1644 5.46064 24.8331C5.22734 24.0912 5.08735 23.6899 5.05936 23.6899C5.05002 23.6899 5.03603 23.7179 5.02669 23.7459Z" fill="black"/>
<path d="M14.0229 24.8613C14.0369 24.922 14.0836 25.1506 14.1256 25.3699C14.4382 27.0031 15.2314 28.7435 16.3699 30.3066C17.0092 31.1839 17.3918 31.6271 18.549 32.8543L19.2536 33.6009L18.7403 33.181C18.4604 32.9476 17.8818 32.481 17.4571 32.1358C17.0325 31.7905 16.4166 31.2399 16.09 30.9086C15.7587 30.5773 15.4787 30.3206 15.4601 30.3346C15.4461 30.3533 15.4181 30.7593 15.3994 31.2399C15.3294 32.915 15.1894 33.7316 14.8255 34.6601C14.8021 34.7114 14.8488 34.7441 15.0214 34.7908C15.1474 34.8187 15.5067 34.9727 15.8193 35.122C16.5099 35.458 16.7759 35.542 17.1585 35.542C17.3825 35.542 19.7155 35.122 20.3921 34.9587L20.5041 34.9307L20.4714 34.4315C20.4108 33.4236 20.0935 32.2897 19.6129 31.3705C19.1789 30.54 18.2877 29.0701 17.9098 28.5662C17.1958 27.6097 16.3513 26.7511 14.9375 25.5379C13.9203 24.67 13.9949 24.7213 14.0229 24.8613Z" fill="black"/>
<path d="M28.0258 26.289C27.9232 26.3777 27.3352 26.863 26.7193 27.3669C24.3489 29.3173 23.3317 30.2505 22.4545 31.2957C21.8059 32.0703 21.0594 33.1575 21.12 33.2508C21.1293 33.2742 21.1993 33.3068 21.2693 33.3255C21.344 33.3395 21.8993 33.5448 22.5105 33.7734C23.1218 34.0021 23.635 34.1887 23.6537 34.1887C23.6724 34.1887 23.7237 34.0907 23.775 33.9647C24.027 33.3255 24.7082 32.5043 25.6275 31.7344C25.8234 31.571 26.0427 31.3611 26.1174 31.2631C26.2434 31.0998 26.2527 31.0578 26.2527 30.6658C26.2527 30.2832 26.2714 30.2039 26.4533 29.7466C26.7146 29.0887 26.71 29.042 26.4114 29.2987C26.0101 29.6393 25.9634 29.6533 26.2154 29.35C26.6307 28.8461 27.0413 28.2208 27.6059 27.2363C27.9045 26.709 28.1705 26.2517 28.1985 26.2191C28.3058 26.0931 28.2031 26.1351 28.0258 26.289Z" fill="black"/>
<path d="M98.395 27.8988C98.1011 28.804 97.3592 31.0857 96.7526 32.9662L95.642 36.3864L95.1941 36.7643C94.9515 36.9697 94.7508 37.175 94.7508 37.217C94.7508 37.2823 94.9141 37.2916 96.4446 37.3056C97.9191 37.3149 98.1384 37.3056 98.1617 37.245C98.1804 37.1983 98.0731 37.0443 97.8584 36.8063C97.6765 36.6057 97.5271 36.4097 97.5271 36.3771C97.5271 36.2697 98.2177 34.212 98.2504 34.2213C98.2644 34.226 98.619 34.5246 99.0296 34.8839C99.7762 35.5325 99.7855 35.5372 99.8788 35.4532C100.653 34.7626 101.358 34.1933 101.377 34.2447C101.386 34.2773 101.549 34.7719 101.731 35.3459L102.063 36.3817L101.955 36.5217C101.895 36.5964 101.741 36.7737 101.615 36.9137C101.475 37.077 101.4 37.203 101.419 37.245C101.442 37.3056 101.666 37.3149 103.122 37.3149C104.344 37.3149 104.811 37.3009 104.834 37.2589C104.853 37.231 104.792 37.1376 104.68 37.0396C104.578 36.9463 104.358 36.7457 104.195 36.5917L103.892 36.3117L102.263 31.2817L100.635 26.2563H99.7855H98.9316L98.395 27.8988ZM100.443 31.389C100.793 32.4529 101.087 33.3534 101.097 33.3814C101.111 33.4281 100.831 33.4421 99.7902 33.4421H98.465L98.5304 33.2415C98.5677 33.1341 98.8616 32.2289 99.1836 31.235C99.5102 30.2365 99.7809 29.4293 99.7902 29.4386C99.7995 29.4479 100.093 30.3251 100.443 31.389Z" fill="black"/>
<path d="M126.672 26.4523C126.611 26.6109 124.077 34.4313 123.573 35.9991L123.452 36.3864L122.995 36.7643C122.724 36.993 122.537 37.1796 122.537 37.231C122.537 37.3103 122.621 37.3149 124.25 37.3056C125.505 37.2963 125.962 37.2776 125.976 37.2356C125.986 37.2076 125.836 37.007 125.645 36.7877L125.295 36.3911L125.64 35.3505C125.832 34.7766 126 34.2773 126.014 34.2447C126.028 34.2073 126.326 34.436 126.811 34.8652L127.586 35.5465L127.712 35.4345C127.777 35.3739 128.085 35.1079 128.393 34.8419C128.701 34.576 129 34.3193 129.056 34.268L129.154 34.1793L129.513 35.2852L129.868 36.3911L129.644 36.6477C129.238 37.1143 129.215 37.1516 129.21 37.231C129.21 37.3103 129.322 37.3149 130.908 37.3149C132.359 37.3149 132.611 37.3056 132.635 37.245C132.649 37.1983 132.509 37.049 132.196 36.7923L131.739 36.4051L131.394 35.3552C131.202 34.7766 130.46 32.4949 129.746 30.2832L128.44 26.2563H127.591H126.746L126.672 26.4523ZM127.605 33.4328C126.891 33.4374 126.298 33.4374 126.289 33.4281C126.275 33.4141 127.493 29.6346 127.558 29.4759C127.577 29.4339 127.875 30.2738 128.249 31.4123L128.911 33.4188L127.605 33.4328Z" fill="black"/>
<path d="M13.6123 26.6344C13.5143 26.9704 13.3183 27.2924 13.015 27.633C12.6791 28.0063 12.0678 28.7902 11.9232 29.0375C11.7785 29.2848 11.7319 29.6721 11.8112 29.924C11.8812 30.1387 12.1798 30.4653 12.6511 30.8432C13.071 31.1792 13.4817 31.5665 13.547 31.6878C13.5843 31.7531 13.5796 31.7671 13.5283 31.7391C13.379 31.6505 12.6791 31.1559 12.1752 30.7779C11.8765 30.5539 11.5826 30.358 11.5266 30.3393C11.3913 30.2926 11.3399 30.386 11.3679 30.6426C11.3773 30.7593 11.4099 31.1045 11.4379 31.4125C11.4659 31.7205 11.5826 32.663 11.6945 33.5122C11.8065 34.3568 11.9092 35.1967 11.9232 35.3787L11.9512 35.7053L11.7692 35.1687C11.3726 34.0068 11.102 32.6723 11.0086 31.4312L10.9526 30.6799L10.878 30.9506C10.7613 31.3798 10.6074 31.6598 10.3227 31.9491C9.99609 32.2757 9.55748 32.5417 8.8669 32.817C8.57294 32.9336 8.3163 33.0503 8.29297 33.069C8.23698 33.125 8.33497 33.7315 8.47028 34.1702C8.63826 34.6881 8.96022 35.2107 9.39417 35.6633C9.84678 36.1299 10.2994 36.4752 11.3866 37.1751C12.0445 37.5951 12.2125 37.6837 12.2545 37.6324C12.3618 37.5204 13.1224 36.4145 13.379 35.9946C14.3682 34.3988 14.8628 32.817 14.7462 31.6178C14.6668 30.7779 14.4102 28.9535 14.2842 28.3002C14.1536 27.6656 13.8876 26.7604 13.7476 26.4945C13.6916 26.3825 13.687 26.3871 13.6123 26.6344Z" fill="black"/>
<path d="M56.5589 26.5783C56.5589 26.6343 56.7456 26.8256 57.0349 27.0775L57.5108 27.4928L58.878 30.2551L60.2451 33.0128L60.2405 34.7113V36.405L59.8019 36.7783C59.5592 36.9836 59.3679 37.1843 59.3726 37.2216C59.3819 37.2823 59.6199 37.2916 61.1457 37.3056C62.8115 37.3149 62.9048 37.3103 62.9048 37.2309C62.9048 37.1843 62.7135 36.979 62.4615 36.7597L62.0182 36.3724V34.7253V33.0828L63.3901 30.3065L64.7572 27.5348L65.2425 27.0962C65.5085 26.8582 65.7278 26.6296 65.7278 26.5876C65.7278 26.5223 65.5505 26.5129 63.9873 26.499C62.4335 26.4896 62.2469 26.4943 62.2189 26.5643C62.1956 26.6343 62.2562 26.6996 62.7835 27.1475L62.9141 27.2642L62.0276 29.0326L61.141 30.8057L60.2638 29.042L59.3819 27.2782L59.5452 27.1289C59.6339 27.0449 59.7972 26.9049 59.9092 26.8116C60.0445 26.6949 60.0958 26.6203 60.0772 26.5643C60.0492 26.499 59.8765 26.4896 58.304 26.4896C56.6243 26.4896 56.5589 26.4943 56.5589 26.5783Z" fill="black"/>
<path d="M66.731 26.5783C66.731 26.6296 66.913 26.8209 67.1743 27.0449L67.6175 27.4322V31.907V36.3771L67.1743 36.7643C66.9316 36.979 66.731 37.189 66.731 37.231C66.731 37.3103 66.9316 37.3149 70.3425 37.3149H73.9541L74.0007 37.0443C74.2807 35.4392 74.3974 34.6039 74.3507 34.5573C74.318 34.5246 74.1174 34.6506 73.6321 35.0239L72.9602 35.5418H71.1778H69.3907V33.9087V32.2756H70.5012H71.607L71.9197 32.6349C72.3769 33.1715 72.4189 33.2088 72.4936 33.1808C72.5543 33.1575 72.5636 32.9102 72.5636 31.4077C72.5636 29.3359 72.5963 29.4153 71.999 30.1058L71.6164 30.5491H70.5058H69.3907V29.4059V28.2627H71.1778H72.9649L73.6041 28.7573C74.2061 29.2193 74.4254 29.3266 74.3974 29.1493C74.3927 29.112 74.29 28.51 74.1734 27.8101C74.0567 27.1149 73.9634 26.5316 73.9634 26.5176C73.9634 26.5036 72.335 26.4896 70.3472 26.4896C66.857 26.4896 66.731 26.4943 66.731 26.5783Z" fill="black"/>
<path d="M75.9418 26.5596C75.9232 26.6016 75.9278 26.6529 75.9512 26.6716C75.9745 26.6903 76.1751 26.8676 76.4038 27.0682L76.8097 27.4322V31.9209L76.8051 36.4051L76.3665 36.7783C76.1238 36.9836 75.9325 37.1843 75.9372 37.2216C75.9465 37.2823 76.1845 37.2916 77.7103 37.3056C79.796 37.3196 79.712 37.3523 79.0261 36.755L78.5828 36.3724L78.5922 34.4033L78.6062 32.4389L78.9375 32.4249L79.2641 32.4109L80.5426 34.8652L81.8211 37.3149H83.1649C84.4295 37.3149 84.5088 37.3103 84.5088 37.231C84.5088 37.1796 84.2335 36.909 83.8089 36.5404L83.1089 35.9384L82.1944 34.198C81.6905 33.2368 81.2892 32.4482 81.2985 32.4436C81.3078 32.4389 81.4572 32.4109 81.6345 32.3782C82.619 32.2196 83.4636 31.3937 83.7482 30.3158C83.8555 29.9052 83.8555 29.0466 83.7482 28.636C83.6362 28.2254 83.3936 27.7308 83.1603 27.4368C82.913 27.1335 82.3624 26.7603 81.9518 26.6203C81.6438 26.5176 81.6065 26.513 78.8022 26.499C76.2311 26.485 75.9652 26.4943 75.9418 26.5596ZM81.6018 28.4121C81.8351 28.566 82.0218 28.9207 82.0637 29.3033C82.1337 29.9005 81.8071 30.5118 81.3592 30.6378C81.2425 30.6704 80.6733 30.6891 79.88 30.6891H78.5828V29.4759V28.2581L79.9967 28.2721L81.4152 28.2861L81.6018 28.4121Z" fill="black"/>
<path d="M85.8013 26.5223C85.7266 26.5969 85.7966 26.6856 86.2119 27.0449L86.6552 27.4322V31.907V36.3771L86.2119 36.7643C85.9693 36.979 85.7686 37.189 85.7686 37.231C85.7686 37.3103 85.9273 37.3149 88.4656 37.3149C91.4986 37.3149 91.5406 37.3103 92.2078 36.9836C94.1116 36.0411 94.5175 33.1528 92.9637 31.5663L92.7071 31.3004L92.8471 31.0297C93.127 30.5025 93.211 30.1292 93.2064 29.4293C93.2017 28.8787 93.1877 28.7527 93.0757 28.4167C92.9264 27.9641 92.5764 27.4135 92.2638 27.1429C92.1425 27.0402 91.8999 26.8816 91.7179 26.7929C91.1393 26.5036 91.0133 26.4896 88.2836 26.4896C86.9351 26.4896 85.8153 26.5036 85.8013 26.5223ZM90.8406 28.3327C91.074 28.4307 91.1719 28.524 91.3073 28.79C91.4659 29.1026 91.4986 29.5552 91.3912 29.9192C91.2933 30.2552 91.018 30.5585 90.738 30.6378C90.626 30.6658 90.1221 30.6891 89.4922 30.6891H88.4283V29.4759V28.2627H89.5481C90.4534 28.2627 90.7053 28.2767 90.8406 28.3327ZM91.3819 32.5742C91.9418 32.8448 92.2405 33.5494 92.1192 34.2913C92.0305 34.8279 91.7879 35.2059 91.3912 35.4158C91.2139 35.5138 91.1346 35.5185 89.8188 35.5325L88.4283 35.5465V33.9787V32.4109L89.7721 32.4249L91.1113 32.4389L91.3819 32.5742Z" fill="black"/>
<path d="M111.619 26.5738C111.619 26.6251 111.801 26.8211 112.062 27.0497L112.505 27.437V31.9071V36.3725L112.062 36.7645C111.819 36.9791 111.619 37.1891 111.619 37.2358C111.619 37.3104 111.726 37.3151 113.382 37.3058C114.918 37.2918 115.142 37.2824 115.142 37.2218C115.142 37.1798 114.946 36.9745 114.712 36.7645L114.278 36.3772L114.283 33.2883V30.1993L115.389 32.4064C116.266 34.1562 116.513 34.6088 116.574 34.5994C116.635 34.5901 116.994 33.9135 117.75 32.3924L118.842 30.1993L118.846 33.3023V36.4052L118.408 36.7925C118.109 37.0491 117.979 37.1984 117.993 37.2451C118.035 37.3478 121.487 37.3524 121.525 37.2498C121.543 37.2031 121.394 37.0398 121.086 36.7785L120.624 36.3725V31.9071V27.4417L121.068 27.059C121.749 26.4664 121.791 26.4898 120.102 26.4898H118.688L117.643 28.6128C117.069 29.7794 116.583 30.7359 116.569 30.7359C116.555 30.7359 116.065 29.7794 115.478 28.6128L114.418 26.4898H113.019C111.689 26.4898 111.619 26.4944 111.619 26.5738Z" fill="black"/>
<path d="M132.803 26.5224C132.803 26.5458 132.709 27.1057 132.597 27.773C132.485 28.4402 132.401 29.0001 132.415 29.0188C132.462 29.1028 132.579 29.0375 133.064 28.6595L133.573 28.2629H134.45H135.322V32.3177V36.3725L134.86 36.7785C134.553 37.0398 134.403 37.2031 134.422 37.2498C134.459 37.3524 137.912 37.3478 137.954 37.2451C137.968 37.1984 137.837 37.0491 137.539 36.7925L137.1 36.4052V32.3317L137.096 28.2629H137.954H138.808L139.326 28.6595C139.844 29.0561 139.914 29.0935 139.965 29.0095C139.989 28.9768 139.704 27.171 139.587 26.6158L139.559 26.4898H136.181C134.324 26.4898 132.803 26.5038 132.803 26.5224Z" fill="black"/>
<path d="M141.15 26.5363C141.146 26.5596 141.141 26.5969 141.136 26.6203C141.132 26.6389 141.328 26.8303 141.566 27.0402L141.995 27.4275V31.9163L141.99 36.4051L141.547 36.797C141.304 37.0116 141.113 37.2076 141.122 37.2403C141.136 37.2776 142.098 37.2963 144.739 37.3056L148.341 37.3149L148.364 37.2123C148.373 37.1516 148.481 36.5404 148.597 35.8498C148.765 34.8699 148.798 34.5853 148.756 34.5573C148.681 34.5106 148.714 34.492 147.977 35.0612L147.361 35.5418H145.565H143.768L143.777 33.918L143.791 32.2989L144.893 32.2849L145.998 32.2756L146.404 32.7422C146.628 33.0035 146.838 33.2041 146.866 33.1948C146.904 33.1808 146.922 32.6582 146.932 31.4217C146.941 29.7606 146.936 29.6626 146.857 29.6626C146.81 29.6626 146.61 29.8539 146.39 30.1058L146.003 30.5491L144.897 30.5398L143.791 30.5258L143.777 29.3919L143.768 28.2627H145.565H147.366L148.028 28.776C148.555 29.182 148.7 29.2753 148.747 29.2286C148.793 29.182 148.761 28.9207 148.597 27.9361C148.481 27.2549 148.373 26.6529 148.364 26.5923L148.341 26.4896H144.748C142.387 26.4896 141.15 26.5036 141.15 26.5363Z" fill="black"/>
<path d="M6.16522 27.1709C5.84793 27.4929 5.33466 27.9128 4.86805 28.2255L4.5181 28.4588L4.54143 29.0747C4.56942 29.7979 4.64875 30.1385 5.02203 31.1231C5.30667 31.8697 5.43732 32.3316 5.48864 32.7562L5.5213 33.0269L5.78727 32.9989C6.49652 32.9149 7.07978 32.8169 7.56505 32.6956C9.42215 32.2336 10.444 31.2537 10.752 29.6346L10.8173 29.3127L10.3414 29.3267C9.5808 29.3546 8.94621 29.14 8.11098 28.5614C7.91034 28.4214 7.72836 28.3094 7.7097 28.3094C7.69103 28.3094 7.63037 28.5148 7.56972 28.7621C7.40174 29.4713 7.07978 30.4045 6.84181 30.8851C6.56651 31.4404 6.50585 31.4964 6.65516 31.0671C6.72049 30.8758 6.81381 30.5072 6.86047 30.2505C7.00045 29.5273 7.1591 28.1275 7.1311 27.8802C7.08444 27.5115 6.8838 27.2036 6.53851 26.9843C6.41719 26.9143 6.41253 26.9143 6.16522 27.1709Z" fill="black"/>
<path d="M19.3376 29.4853C19.6222 29.8912 19.9348 30.4231 20.4808 31.4357C20.7374 31.9069 20.966 32.3036 20.9847 32.3082C21.008 32.3176 21.064 32.2662 21.106 32.1916C21.148 32.1216 21.302 31.8976 21.4466 31.6923C21.5866 31.487 21.6986 31.2957 21.6939 31.263C21.6753 31.1837 20.3408 29.9332 20.0002 29.6766C19.7575 29.4946 19.2396 29.196 19.1603 29.196C19.1463 29.196 19.2256 29.3266 19.3376 29.4853Z" fill="black"/>
<path d="M34.2504 31.2585C34.1431 31.4685 33.6998 32.0284 33.3218 32.4297L32.9345 32.8403L33.1772 33.3303C33.5971 34.1935 33.9751 34.7114 34.4557 35.0614C34.6703 35.2201 34.689 35.2247 34.731 35.1407C34.759 35.0941 34.9876 34.8514 35.2489 34.6088C36.6067 33.335 36.98 32.8777 37.2833 32.1404C37.428 31.7998 37.5026 31.5292 37.4513 31.5292C37.4373 31.5292 37.3487 31.5665 37.2507 31.6178C36.868 31.8091 35.3469 32.1264 35.1976 32.0471C35.1463 32.0191 34.9876 31.8511 34.843 31.6692C34.5583 31.3192 34.3997 31.1559 34.339 31.1559C34.3204 31.1559 34.2784 31.2026 34.2504 31.2585Z" fill="black"/>
<path d="M25.9727 32.2336C25.0022 32.8869 24.3349 33.9834 23.8683 35.6818C23.705 36.2744 23.3831 37.7116 23.3831 37.8469C23.3831 37.8982 23.4251 37.9216 23.5137 37.9216C23.803 37.9216 24.2789 38.0802 24.8295 38.3602C25.1515 38.5235 25.5201 38.6915 25.6461 38.7335C25.9727 38.8454 27.2839 39.0041 27.8858 39.0041C28.6931 39.0088 29.5563 38.7428 30.3915 38.2435C30.8581 37.9636 32.8925 36.4331 33.1585 36.1671C33.3358 35.9851 33.6484 35.4719 33.6484 35.3599C33.6484 35.3319 33.5598 35.2199 33.4478 35.1126C33.3405 35.0006 33.1492 34.744 33.0232 34.5386C32.6406 33.9041 32.3793 33.5354 32.2906 33.4841C32.2253 33.4515 32.1366 33.4841 31.8893 33.6428C31.7167 33.7547 31.4087 33.9181 31.2127 34.0114C30.6901 34.2587 29.9622 34.6833 29.0057 35.3086C28.5437 35.6072 27.9791 35.9618 27.7505 36.0971C27.1626 36.4424 25.3428 37.3476 25.3428 37.2963C25.3428 37.287 25.4641 37.2076 25.6134 37.1143C25.9821 36.8857 26.374 36.5684 27.1159 35.8918C27.8532 35.2199 27.9418 35.1452 28.2824 34.9213C28.4224 34.8233 28.5111 34.7486 28.4784 34.7486C28.4458 34.7486 28.1705 34.8139 27.8718 34.8886C27.2372 35.0566 27.3072 35.0892 27.0179 34.492C26.7846 34.0207 26.6213 33.4934 26.4627 32.7002C26.3973 32.3549 26.3227 32.0656 26.2947 32.0563C26.2714 32.0516 26.1267 32.1309 25.9727 32.2336Z" fill="black"/>
<path d="M20.9427 34.0347C20.9614 34.184 20.9801 34.4546 20.9801 34.6412V34.9725L20.6861 35.2758C20.5274 35.4438 20.3968 35.6025 20.3968 35.6305C20.3968 35.6538 20.7701 35.9664 21.2274 36.3164C21.68 36.671 22.2259 37.1329 22.4405 37.3522C22.6505 37.5669 22.8511 37.7349 22.8838 37.7209C22.9678 37.6929 23.0845 37.2169 23.2478 36.2231C23.3271 35.7378 23.4297 35.2012 23.4764 35.0332C23.5231 34.8652 23.5557 34.7159 23.5464 34.7066C23.4857 34.6506 21.2973 33.8433 21.0594 33.792L20.9007 33.7594L20.9427 34.0347Z" fill="black"/>
<path d="M14.3309 35.5046C14.2189 35.7519 14.2049 36.3772 14.3075 36.7551C14.4009 37.1051 14.6622 37.623 14.8675 37.8656C15.0401 38.0663 15.6654 38.5702 15.964 38.7475C16.0526 38.8035 16.3746 38.9295 16.6732 39.0368C16.9719 39.1395 17.2845 39.2561 17.3685 39.2981L17.5178 39.3774L17.4851 39.2421C17.4058 38.9015 17.4011 38.1596 17.4758 37.6183C17.6344 36.4658 17.6578 36.2512 17.6251 36.1718C17.6018 36.1065 17.5831 36.1019 17.5271 36.1485C17.4385 36.2232 16.8412 36.2232 16.5706 36.1485C16.4539 36.1205 16.0666 35.9572 15.7074 35.7892C15.1241 35.5139 14.5875 35.3086 14.4662 35.3086C14.4382 35.3086 14.3775 35.3973 14.3309 35.5046Z" fill="black"/>
<path d="M19.2536 35.8732C19.0763 35.9199 18.8196 35.9619 18.6843 35.9619H18.4417L18.3717 36.2092C18.269 36.5591 18.1617 37.0351 18.0637 37.567L17.9797 38.0289L18.1524 38.1876C19.5895 39.5267 22.0299 40.404 24.3629 40.4133L24.9929 40.418V39.8114C24.9929 39.3448 24.9742 39.1535 24.9089 38.9901L24.8295 38.7755L24.1856 38.6262C23.8357 38.5469 23.4997 38.4815 23.4437 38.4815C23.2944 38.4815 23.3457 38.6029 23.6677 38.9901C23.817 39.1768 23.943 39.3494 23.943 39.3774C23.943 39.5221 22.7391 38.3462 22.0532 37.525C21.3906 36.7364 20.7094 36.1252 20.2008 35.8639C19.9815 35.7519 19.6829 35.7566 19.2536 35.8732Z" fill="black"/>
</g>
<defs>
<clipPath id="clip0_1201_662">
<rect width="149.011" height="40" fill="white" transform="translate(-0.00567627 0.441406)"/>
</clipPath>
</defs>
</svg>
