<svg width="131" height="31" viewBox="0 0 131 31" fill="none" xmlns="http://www.w3.org/2000/svg">
<g clip-path="url(#clip0_1201_212)">
<path d="M4.91024 19.1654C4.91024 21.2749 5.44474 21.6527 6.98537 22.4729V22.7247H0.0964966V22.4729C1.57426 21.6542 2.07733 21.2764 2.07733 19.1654V4.23436C2.07733 2.12484 1.57426 1.74702 0.0964966 0.928396V0.676514H10.0368C14.598 0.676514 18.2783 2.2193 18.2783 6.50414C18.2783 10.4102 15.0084 11.9851 11.7667 12.0166V12.1425C14.565 12.4889 15.9192 13.8427 16.6742 16.1431L17.586 18.7879C18.3092 21.0234 19.3152 21.7175 21.1703 22.4735V22.7254H16.1403C15.5429 21.4345 15.3542 20.8677 14.7568 19.3234L13.7507 16.3323C12.9018 13.8764 12.0528 12.6781 9.03224 12.6781H4.91149L4.91024 19.1654ZM9.56581 11.4162C12.5528 11.4162 15.1335 10.2827 15.1335 6.53374C15.1335 3.22777 12.8697 1.90318 9.56581 1.90318H4.91024V11.4162H9.56581Z" fill="black"/>
<path d="M24.8233 16.86C24.8233 19.038 25.7078 21.0916 28.2035 21.0916C30.699 21.0916 32.6595 18.9768 32.6595 15.2492V10.2912C32.6595 8.52358 31.7433 7.92383 30.4798 7.1347V6.94531H35.5058V19.1968C35.5058 21.3433 35.948 21.6273 37.338 22.5126V22.7336H32.6612V18.7545C31.7765 21.5338 29.818 23.0496 27.0671 23.0496C23.8133 23.0496 22.0101 20.9031 22.0101 17.4598V10.2912C22.0101 8.52358 21.0625 7.92383 19.8305 7.1347V6.94531H24.8243L24.8233 16.86Z" fill="black"/>
<path d="M40.8775 15.0172C40.8775 10.7669 42.865 8.21676 45.8622 8.21676C48.0705 8.21676 50.6575 9.79094 50.6575 13.2856V15.4265C50.6575 18.5118 48.733 21.251 45.799 21.251C42.7073 21.251 40.8775 18.7953 40.8775 15.0172ZM37.7856 15.0172C37.7856 20.1175 40.8143 23.014 44.821 23.014C47.8182 23.014 49.9003 21.0935 50.6575 18.7953L50.689 22.6363C50.689 26.7292 49.3008 29.0905 46.0513 29.0905C43.7168 29.0905 41.3506 27.3903 40.8775 24.242L37.8173 25.0605C38.7636 29.2478 42.2025 30.5072 45.3258 30.5072C50.405 30.5072 53.4652 27.7367 53.4968 22.6363V13.8523C53.4968 10.9873 53.4968 8.53159 53.9385 6.64258H53.5283C52.3927 7.27224 51.4147 8.43714 51.036 9.85391C50.2788 8.18528 48.1335 6.64258 45.2311 6.64258C41.193 6.64258 37.7856 9.91687 37.7856 15.0172Z" fill="black"/>
<path d="M58.7739 15.0172C58.7739 10.7669 60.7614 8.21676 63.7585 8.21676C65.9669 8.21676 68.5539 9.79094 68.5539 13.2856V15.4265C68.5539 18.5118 66.6294 21.251 63.6954 21.251C60.6037 21.251 58.7739 18.7953 58.7739 15.0172ZM55.682 15.0172C55.682 20.1175 58.7107 23.014 62.7174 23.014C65.7145 23.014 67.7967 21.0935 68.5539 18.7953L68.5854 22.6363C68.5854 26.7292 67.1972 29.0905 63.9477 29.0905C61.6132 29.0905 59.247 27.3903 58.7739 24.242L55.7137 25.0605C56.66 29.2478 60.0989 30.5072 63.2222 30.5072C68.3014 30.5072 71.3615 27.7367 71.3932 22.6363V13.8523C71.3932 10.9873 71.3932 8.53159 71.8349 6.64258H71.4247C70.2891 7.27224 69.311 8.43714 68.9324 9.85391C68.1752 8.18528 66.0299 6.64258 63.1275 6.64258C59.0894 6.64258 55.682 9.91687 55.682 15.0172Z" fill="black"/>
<path d="M89.4397 6.62085H89.8514C89.4081 8.51553 89.4081 10.9808 89.4081 13.8557V19.195C89.4081 21.3423 89.8514 21.6265 91.2449 22.5123V22.7333H86.5882L86.5566 18.8156C85.7964 21.121 83.7062 23.0495 80.6947 23.0495C76.6709 23.0495 73.6292 20.1426 73.6292 15.0248C73.6292 9.90688 77.0496 6.62085 81.1067 6.62085C84.0204 6.62085 86.1761 8.16818 86.9369 9.8434C87.3169 8.42175 88.2992 7.25273 89.4397 6.62085ZM86.5577 13.287C86.5577 9.78183 83.9609 8.2007 81.7417 8.2007C78.7332 8.2007 76.7354 10.7585 76.7354 15.0248C76.7354 18.8141 78.5722 21.2801 81.6784 21.2801C84.6237 21.2801 86.5577 18.5328 86.5577 15.4353V13.287Z" fill="black"/>
<path d="M92.9509 23.0497H92.5744C92.9824 21.1597 92.9824 18.7007 92.9824 15.896V4.07836C92.9824 2.31445 92.0724 1.71597 90.7859 0.960002V0.676514H95.8086V10.8855C96.5617 8.55462 98.6328 6.6625 101.617 6.6625C105.572 6.6625 108.618 9.56196 108.618 14.6039C108.618 19.7722 105.229 23.0497 101.177 23.0497C98.2901 23.0497 96.2169 21.5062 95.4008 19.8037C95.0543 21.2534 94.0812 22.4194 92.9509 23.0497ZM95.8064 16.4318C95.8064 19.8337 98.3796 21.4424 100.547 21.4424C103.528 21.4424 105.539 18.9224 105.539 14.6039C105.539 10.8855 103.687 8.42737 100.641 8.42737C97.7544 8.42737 95.8064 11.1993 95.8064 14.2889V16.4318Z" fill="black"/>
<path d="M113.955 19.2918C113.955 21.37 114.397 21.6533 115.756 22.505V22.7253H109.403V22.505C110.762 21.6548 111.204 21.3715 111.204 19.2918V3.95104C111.204 2.21932 110.256 1.65257 109.056 0.896915V0.676514H113.955L113.955 19.2918Z" fill="black"/>
<path d="M131 14.55H119.566C119.566 18.7198 121.575 21.3103 125 21.3103C127.449 21.3103 129.209 20.1103 130.183 17.616L130.842 17.837C130.12 21.1523 127.765 23.0495 124.152 23.0495C119.942 23.0495 116.518 20.143 116.518 15.0255C116.518 9.90813 119.88 6.62085 124.027 6.62085C128.456 6.62085 131 9.55891 131 14.55ZM127.953 13.3186C127.89 10.5715 127.074 7.9167 123.995 7.9167C121.452 7.9167 119.911 10.0954 119.629 13.3186H127.953Z" fill="black"/>
</g>
<defs>
<clipPath id="clip0_1201_212">
<rect width="131.004" height="30" fill="white" transform="translate(-0.00219727 0.556396)"/>
</clipPath>
</defs>
</svg>
