<svg width="117" height="30" viewBox="0 0 117 30" fill="none" xmlns="http://www.w3.org/2000/svg">
<g clip-path="url(#clip0_1201_173)">
<path d="M116.541 1.36182L105.793 29.0851L105.884 28.8499C105.606 28.7412 105.357 28.6414 105.13 28.5416L115.636 1.36182H116.541Z" fill="black"/>
<path d="M105.884 28.85L105.793 29.0852H104.92L105.13 28.5417C105.356 28.6415 105.606 28.7413 105.884 28.85Z" fill="black"/>
<path d="M105.129 28.5436L104.918 29.0871H97.0677V28.8643C99.2522 28.0126 99.7689 27.6794 99.7689 24.718C99.7689 22.1629 99.8063 19.2746 99.8063 17.5712C99.8063 13.9416 98.5466 12.9064 96.6596 12.9064C94.7727 12.9064 93.1423 13.906 91.6616 16.0157V24.718C91.6616 27.6794 92.1427 28.0126 94.3272 28.8643V29.0871H85.4787V28.8643C87.6632 28.0126 88.1817 27.6794 88.1817 24.718V7.35246C88.1817 4.16657 87.8111 3.61243 85.4413 2.65025V2.42752C87.6632 2.27963 89.6999 1.87159 91.6616 1.28003V14.9038C93.2154 12.5714 95.4017 10.9054 98.2152 10.9054C100.843 10.9054 103.213 12.4591 103.213 16.274V24.7163C103.213 27.2821 103.602 27.8754 105.127 28.5418H105.129V28.5436Z" fill="black"/>
<path d="M85.8028 23.0877L86.1004 23.1982C85.1008 26.9383 82.5831 29.456 78.843 29.456C74.2156 29.456 70.8462 25.7159 70.8462 20.3117C70.8462 14.6098 74.5863 10.9072 78.8074 10.9072C81.5835 10.9072 83.9533 12.6106 85.4358 14.6473L82.437 17.0171L82.2517 16.9423C81.7706 13.7581 80.4378 11.7215 78.476 11.7215C76.5142 11.7215 74.0321 14.0539 74.0321 18.7187C74.0321 23.8646 76.9579 26.7155 80.5126 26.7155C83.1408 26.7155 84.9173 25.1244 85.8064 23.0877H85.8028Z" fill="black"/>
<path d="M68.3285 12.1278L68.6617 16.3489L68.4016 16.3863C66.4398 13.3501 64.4032 11.6841 62.6267 11.6841C61.146 11.6841 60.109 12.7585 60.109 14.4245C60.109 16.0905 61.1834 17.1258 64.478 18.6831C68.2181 20.4221 69.8466 22.2734 69.8466 24.7181C69.8466 27.6421 67.5517 29.5308 63.9221 29.5308C61.9977 29.5308 59.8489 29.0123 57.5913 27.9378L57.1102 23.3835L57.3329 23.3461C59.8506 27.0113 61.9995 28.7521 64.0361 28.7521C65.7395 28.7521 66.8122 27.6777 66.8122 25.9761C66.8122 24.2744 65.7378 23.1626 62.4058 21.5696C58.8136 19.8306 57.1476 17.9793 57.1476 15.5346C57.1476 12.7211 59.3695 10.9072 62.8494 10.9072C64.4424 10.9072 66.4416 11.3509 68.3303 12.1278H68.3285Z" fill="black"/>
<path d="M54.3786 17.4321C54.3786 18.617 53.3042 19.6166 52.1567 19.6166C51.0092 19.6166 49.8991 18.617 49.8991 17.4321C49.8991 16.322 50.9718 15.2832 52.1567 15.2832C53.3416 15.2832 54.3786 16.3202 54.3786 17.4321Z" fill="black"/>
<path d="M49.4269 26.5123L49.5748 26.6976C48.2402 28.7342 46.7969 29.5485 44.9831 29.5485C42.5384 29.5485 40.4287 28.0286 40.4287 24.661V12.443H38.54V12.0724C40.0938 11.1833 42.5758 8.96136 43.538 6.96216H43.8712V11.5165H49.0545L48.9066 12.4413H43.9086L43.8356 24.1407C43.7982 27.0664 45.3893 27.8807 46.7221 27.8807C47.5738 27.8807 48.4629 27.5475 49.4251 26.5105H49.4269V26.5123Z" fill="black"/>
<path d="M38.4687 29.03V29.2528H29.6451V29.03C29.6451 29.03 29.6362 29.0265 29.6327 29.0247C31.8065 28.1766 32.3232 27.838 32.3232 24.882V17.0705C32.3232 13.8864 31.9526 13.3304 29.5828 12.3683V12.1455C31.8047 11.9602 33.8413 11.5896 35.8013 10.998V24.882C35.8013 27.8434 36.2824 28.1783 38.4687 29.03Z" fill="black"/>
<path d="M35.764 5.92695C35.764 7.11186 34.6895 8.11146 33.542 8.11146C32.3946 8.11146 31.2845 7.11186 31.2845 5.92695C31.2845 4.81688 32.3589 3.77808 33.542 3.77808C34.7252 3.77808 35.764 4.81509 35.764 5.92695Z" fill="black"/>
<path d="M29.6595 29.0328V29.3742H29.6185V29.0328C29.6185 29.0328 29.6322 29.0274 29.6404 29.0247C29.6458 29.0301 29.654 29.0301 29.6595 29.0328Z" fill="black"/>
<path d="M29.6328 29.0247C29.6328 29.0247 29.6239 29.0283 29.6185 29.03V29.2528H24.2766L17.6126 20.6644H16.9819V24.8837C16.9819 27.8451 17.463 28.1801 19.6492 29.0318V29.2545H10.8007V29.0318C12.9852 28.1801 13.502 27.8469 13.502 24.8837V7.51816C13.502 4.67973 13.208 3.92958 11.4671 3.11885L11.6988 2.52195C11.1161 2.57896 10.7669 2.595 10.7669 2.595C12.987 2.44711 15.0236 2.03907 16.9836 1.44751V20.219L22.7977 15.1087C23.3144 14.665 23.539 14.2214 23.539 13.8133C23.539 13.0721 22.7977 12.37 21.3901 11.7411V11.5183H28.9806V11.7411C26.7231 13.0364 25.5756 13.8133 23.9826 15.1853L20.0947 18.5547L26.3881 26.5515C27.2006 27.585 28.5619 28.5792 29.6346 29.0283V29.0247H29.6328Z" fill="black"/>
<path d="M11.697 2.52009L11.4654 3.117C11.2533 3.019 11.0181 2.91922 10.7615 2.81409V2.59136H10.7651C10.7651 2.59136 11.1143 2.57533 11.697 2.51831V2.52009Z" fill="black"/>
<path d="M11.4653 3.11868L1.33213 29.2526H0.459045L10.7615 2.59839V2.81577C11.0181 2.9209 11.2533 3.02068 11.4653 3.11868Z" fill="black"/>
<path d="M10.7778 2.59131V2.60582H10.7633L10.7778 2.59131Z" fill="black"/>
<path d="M10.7684 2.59326L10.7615 2.61399V2.59326H10.7684Z" fill="black"/>
</g>
<defs>
<clipPath id="clip0_1201_173">
<rect width="117" height="29" fill="white" transform="translate(0 0.556396)"/>
</clipPath>
</defs>
</svg>
