<svg width="107" height="35" viewBox="0 0 107 35" fill="none" xmlns="http://www.w3.org/2000/svg">
<g clip-path="url(#clip0_1201_450)">
<path d="M0.463135 23.762L5.01945 22.9974C6.10369 27.5976 9.57576 30.7124 16.3444 30.7124C21.6215 30.7124 25.2377 29.133 25.2377 25.1157C25.2377 21.5057 22.8937 20.152 18.2434 19.4751L11.2053 18.5288C5.47069 17.6702 2.04249 15.1444 2.04249 9.72951C2.04249 4.03882 6.91217 0.516602 15.1724 0.516602C23.4327 0.516602 28.2585 3.53743 29.6561 9.905L25.2314 10.9892C24.1033 6.47679 21.0323 4.08269 15.0346 4.08269C9.80138 4.08269 6.5988 5.97541 6.5988 9.35974C6.5988 12.5185 8.40378 14.0101 12.9601 14.6869L19.8228 15.6772C26.1402 16.6235 29.8441 19.0176 29.8441 24.7021C29.8441 30.3865 25.4194 34.36 16.2629 34.36C7.10645 34.36 1.773 30.3489 0.463135 23.762Z" fill="black"/>
<path d="M16.2567 34.4414C7.25688 34.4414 1.77301 30.7562 0.381675 23.7745L0.369141 23.693L0.450615 23.6805L5.08213 22.9033L5.10093 22.9723C6.27918 27.9798 10.1712 30.6309 16.3507 30.6309C20.368 30.6309 25.1625 29.672 25.1625 25.1157C25.1625 21.324 22.5114 20.1771 18.2371 19.5503L11.199 18.604C4.98812 17.6764 1.9673 14.7684 1.9673 9.72325C1.96103 3.91348 6.89964 0.441406 15.1724 0.441406C23.4453 0.441406 28.3776 3.70666 29.7376 9.89247L29.7564 9.96767L25.1813 11.0895L25.1625 11.0143C23.9968 6.34519 20.7754 4.17044 15.0408 4.17044C9.72619 4.17044 6.68029 6.06942 6.68029 9.37228C6.68029 12.4746 8.44766 13.9474 12.9789 14.618L19.8353 15.6082C26.8108 16.6549 29.9194 19.4626 29.9194 24.7083C29.9194 27.6101 28.7474 30.0292 26.5288 31.7151C24.1472 33.5264 20.6877 34.4414 16.2567 34.4414ZM0.557159 23.8246C1.95476 30.6685 7.38222 34.2847 16.2567 34.2847C20.6563 34.2847 24.0782 33.376 26.4347 31.5898C28.6095 29.9352 29.7627 27.5599 29.7627 24.7083C29.7627 19.5503 26.6917 16.7927 19.8102 15.7586L12.9538 14.7684C8.32858 14.079 6.52361 12.5686 6.52361 9.36601C6.52361 6.16343 9.70738 4.00749 15.0408 4.00749C20.8318 4.00749 24.0908 6.19477 25.2941 10.8952L29.5684 9.8486C28.2021 3.7944 23.2259 0.598088 15.1724 0.598088C7.119 0.598088 2.11771 4.00749 2.11771 9.72325C2.11771 14.7433 5.00693 17.5197 11.2115 18.4473L18.2497 19.3937C24.1096 20.246 25.3129 22.2954 25.3129 25.1094C25.3129 28.8197 22.2106 30.7813 16.3444 30.7813C10.1085 30.7813 6.17264 28.1177 4.95679 23.0726L0.550892 23.8121L0.557159 23.8246Z" fill="black"/>
<path d="M62.5655 29.7661V33.4638H38.0167V1.41919H62.2522V5.11688H42.4414V15.1821H61.4876V18.8798H42.4414V29.7536H62.5718L62.5655 29.7661Z" fill="black"/>
<path d="M62.6409 33.539H37.9352V1.34399H62.3276V5.19837H42.5166V15.1069H61.5629V18.9613H42.5166V29.6783H62.6472V33.5327L62.6409 33.539ZM38.0919 33.3823H62.4842V29.8413H42.3537V18.8109H61.4V15.2699H42.3537V5.04169H62.1646V1.50068H38.0857V33.3823H38.0919Z" fill="black"/>
<path d="M96.9792 5.16702H84.7517V33.4638H80.327V5.16702H68.0996V1.41919H96.9792V5.16702Z" fill="black"/>
<path d="M84.8269 33.539H80.2455V5.24851H68.0181V1.34399H97.0543V5.24851H84.8269V33.5453V33.539ZM80.4022 33.3823H84.6702V5.09183H96.8977V1.50068H68.1747V5.09183H80.4022V33.3886V33.3823Z" fill="black"/>
<path d="M101.592 1.97072H100.207V5.34251H99.4547V1.97072H98.0696V1.34399H101.592V1.97072Z" fill="black"/>
<path d="M102.156 1.34399H103.24L104.274 4.13293C104.331 4.30841 104.362 4.40242 104.381 4.5403H104.393C104.412 4.40242 104.45 4.30214 104.506 4.13293L105.534 1.34399H106.631V5.34251H105.948V2.44703C105.948 2.28408 105.96 2.1086 105.973 1.96445H105.954C105.935 2.0522 105.872 2.27782 105.816 2.4345L104.726 5.34251H104.036L102.946 2.4345C102.889 2.28408 102.839 2.07726 102.814 1.96445H102.795C102.814 2.10233 102.82 2.27155 102.82 2.44703V5.34251H102.156V1.34399Z" fill="black"/>
</g>
<defs>
<clipPath id="clip0_1201_450">
<rect width="106.262" height="34" fill="white" transform="translate(0.369141 0.441406)"/>
</clipPath>
</defs>
</svg>
