<svg width="171" height="26" viewBox="0 0 171 26" fill="none" xmlns="http://www.w3.org/2000/svg">
<path d="M151.187 17.8745C148.36 17.8745 146.188 15.8022 146.188 12.6939C146.188 9.58546 148.36 7.51319 151.187 7.51319C154.014 7.51319 156.186 9.58546 156.186 12.6939C156.186 15.8022 154.014 17.8745 151.187 17.8745ZM161.765 18.7034C163.086 16.9443 163.84 14.7796 163.84 12.3485C163.84 5.30278 158.427 0.398438 151.187 0.398438C146.498 0.398438 142.578 2.51531 140.396 5.976V0.743814H132.673V24.9893H140.396V19.3965C142.578 22.858 146.498 24.9893 151.187 24.9893H165.405L170.046 18.7034H161.765ZM70.269 18.2199C67.3384 18.2199 65.0976 16.0785 65.0976 12.8665C65.0976 9.65454 67.3384 7.51319 70.269 7.51319C73.1995 7.51319 75.4406 9.65454 75.4406 12.8665C75.4406 16.0785 73.1995 18.2199 70.269 18.2199ZM22.1045 21.0859L16.0159 12.6593L22.1045 4.5159V21.0859ZM97.1268 0.743814V12.0031L89.4039 0.743814H81.2329V6.09082C79.0265 2.55935 75.0423 0.398438 70.269 0.398438C66.5949 0.398438 63.3869 1.67806 61.0981 3.87812V0.743814H15.5607L7.76891 11.3711V0.743814H0.0460205V24.9893H7.76891V14.4184L15.2367 24.9893H40.791V18.7034H29.8274V15.9059H40.8255V9.79269H29.8274V6.99514H45.6525V24.9893H53.3754V6.99514H58.7965C57.928 8.70618 57.4435 10.6866 57.4435 12.8665C57.4435 20.2231 62.9253 25.3347 70.269 25.3347C75.0423 25.3347 79.0265 23.1738 81.2329 19.642V24.9893H88.9558V13.4191L96.9543 24.9893H117.055V18.7034H106.091V15.9059H117.089V9.79269H106.091V6.99514H117.089V0.743814H97.1268ZM119.158 15.9059H130.604V9.79269H119.158V15.9059Z" fill="black"/>
</svg>
