<svg width="161" height="38" viewBox="0 0 161 38" fill="none" xmlns="http://www.w3.org/2000/svg">
<g clip-path="url(#clip0_1286_243)">
<path d="M72.1843 16.9846C70.4055 17.1624 68.182 17.3403 66.759 18.5855C64.6245 20.4533 64.1798 24.7225 65.336 27.124C66.2254 28.9028 68.0042 29.8812 69.8719 30.148C71.3838 30.4149 73.4294 30.148 74.4077 28.3692C74.4967 28.2802 74.4967 28.2802 74.4967 28.1024C74.5856 27.9245 74.5856 27.9245 74.8524 27.9245C75.1192 27.9245 75.1192 27.9245 75.2082 28.1913C75.2971 28.4581 75.2082 28.9918 75.1192 29.3475C74.6745 30.237 74.1409 30.8596 73.0736 31.2153C72.4511 31.4822 71.5617 31.66 70.4055 31.5711C69.2493 31.5711 67.1148 30.8596 66.0475 29.9701C66.0475 31.3932 66.0475 33.9725 66.0475 35.2177C66.0475 35.6624 67.2927 36.1961 67.5595 36.374C68.182 36.6408 68.8935 36.9076 69.605 37.0855C71.0281 37.4413 72.4511 37.5302 73.8741 37.3523C75.6529 37.1745 77.2537 36.4629 78.4099 35.0399C79.6551 33.5278 80.0108 31.66 80.0108 29.7033C80.0108 28.5471 80.0108 16.1841 80.0108 16.1841C80.0108 16.1841 74.9413 16.6288 72.1843 16.9846ZM71.4728 23.2995C71.4728 22.0543 71.9174 21.0759 72.4511 21.0759C73.0736 21.0759 73.4294 21.9653 73.5183 23.2105C73.5183 24.4557 73.0736 25.4341 72.54 25.4341C72.0064 25.523 71.4728 24.4557 71.4728 23.2995Z" fill="black"/>
<path d="M146.803 31.66C148.404 31.66 149.827 30.6817 150.539 28.8139V31.3043H160.5L159.344 12.4485H150.361L150.45 20.2754C149.65 18.4076 148.226 17.4293 146.626 17.5182C143.691 17.5182 141.645 20.5422 141.734 24.6336C141.734 28.8139 143.869 31.66 146.803 31.66ZM148.404 23.2105C149.294 23.2105 149.916 23.8331 150.183 24.3668V25.1672C150.005 25.6119 149.294 26.2345 148.493 26.2345C147.604 26.2345 146.892 25.7009 146.892 24.7225C146.892 23.8331 147.604 23.2105 148.404 23.2105Z" fill="black"/>
<path d="M12.9514 26.8571C13.8407 26.8571 14.4633 26.2345 14.4633 25.3451C14.4633 24.4556 13.7518 23.922 12.9514 23.922C12.1509 23.922 11.4394 24.5446 11.2615 24.9893V25.7898C11.5284 26.3234 12.062 26.8571 12.9514 26.8571ZM34.9191 17.696C36.4311 17.696 37.8541 18.4965 38.6545 20.0975V17.785H43.9019L45.9475 29.3475H38.7435V27.3018C38.032 28.9028 36.609 29.7922 35.097 29.7922C32.251 29.7922 30.2054 27.3907 30.2054 23.833C30.1165 20.2754 32.162 17.785 34.9191 17.696ZM20.5111 19.297L28.5156 17.4292L30.2054 35.6624H20.7779L20.5111 19.297ZM2.54558 19.1191H10.9058V21.5205C11.6173 19.7417 13.0403 18.7633 14.5523 18.7633C17.3093 18.7633 19.3549 21.5205 19.4439 25.523C19.5328 29.5254 17.4872 32.3715 14.7301 32.3715C13.2182 32.3715 11.7952 31.3931 11.0837 29.7032L11.1726 35.6624H0.5L2.54558 19.1191ZM61.3338 31.571C60.7112 34.3282 59.0214 35.6624 55.9975 35.6624H32.5178L31.8063 31.2153L52.1732 31.3931C53.0625 31.3931 53.4183 31.1263 53.5962 30.5037V29.3475H47.8152L45.5917 17.785H52.5289L53.4183 24.2778H54.3966L55.1971 17.785H64.2688L61.3338 31.571ZM36.4311 25.523C36.7868 25.523 37.1426 24.8114 37.2315 24.2778V23.2994C37.1426 22.6768 36.7868 21.9653 36.4311 21.9653C36.0753 21.9653 35.7196 22.6768 35.7196 23.7441C35.7196 24.8114 36.0753 25.523 36.4311 25.523Z" fill="black"/>
<path d="M88.0153 24.4556L89.883 31.3042H81.7007V17.785H88.0153V21.4316C88.7268 18.9412 90.2388 17.4292 92.0175 17.4292V24.1888C90.8613 24.2778 88.8157 24.3667 88.0153 24.4556Z" fill="black"/>
<path d="M100.022 31.66C95.2193 31.66 92.2843 28.7249 92.2843 24.3668C92.2843 20.0975 95.3082 17.0735 100.022 17.0735C104.736 17.0735 107.76 20.0975 107.76 24.3668C107.849 28.7249 104.825 31.66 100.022 31.66ZM97.3538 24.4557C97.3538 25.1672 98.51 25.6119 100.022 25.6119C101.534 25.6119 102.69 25.1672 102.69 24.4557C102.69 23.7442 101.534 23.2994 100.022 23.2994C98.51 23.2994 97.3538 23.7442 97.3538 24.4557Z" fill="black"/>
<path d="M117.276 27.5688C116.387 29.5255 113.807 31.5712 111.851 31.5712C109.538 31.5712 108.115 29.8813 108.115 27.0352V17.7852H114.43V23.2106C114.43 24.1001 114.786 24.5448 115.586 24.5448C115.942 24.5448 116.387 24.4558 116.653 24.2779V17.8741H124.213L122.879 31.3044H116.564L117.276 27.5688Z" fill="black"/>
<path d="M124.48 31.3042L125.547 17.785H131.684L134.708 22.8547H133.285L133.552 16.8066L141.2 18.4965L141.023 31.3042H133.552L130.617 25.9677H130.795V31.3042H124.48Z" fill="black"/>
<path d="M74.9413 0.441312L74.8524 6.04468H74.1409V2.9317V0.35237L67.7373 0.263428V2.84275L67.6484 8.44612H70.1387L70.2276 2.84275H70.9391V5.95574V8.53506H74.1409H74.8524H77.3427V5.95574L77.4316 0.441312H74.9413ZM83.1237 3.02064H83.8352V3.73218H83.1237V3.02064ZM84.5467 3.10958H85.2582V3.82112H84.5467V3.10958ZM78.1431 0.441312V3.02064V6.13362V8.71295H80.6334L87.037 8.80189V6.22256L81.3449 6.13362H80.6334V3.02064H81.3449V5.42208H85.2582H87.037V3.02064V0.441312H78.1431ZM94.9525 0.619197V2.04227L90.3277 1.95333V0.530255H87.8374V4.26583H89.6162V4.97737H87.8374V8.71295H90.3277V7.28987L94.9525 7.37881V8.80189H97.4427V5.06631H95.664V4.35477H97.4427V0.619197H94.9525Z" fill="black"/>
</g>
<defs>
<clipPath id="clip0_1286_243">
<rect width="160" height="37" fill="white" transform="translate(0.5 0.441406)"/>
</clipPath>
</defs>
</svg>
