<svg width="137" height="30" viewBox="0 0 137 30" fill="none" xmlns="http://www.w3.org/2000/svg">
<g clip-path="url(#clip0_1289_239)">
<path d="M107.4 24.1074H102.857V6.97228H107.113V9.09411C108.072 7.91188 108.938 6.71708 110.581 6.56145C111.817 6.45031 113.056 6.74629 114.106 7.40341C113.631 8.72871 113.161 10.0405 112.713 11.2894C112.107 11.0452 111.484 10.8458 110.848 10.693C110.291 10.5777 109.711 10.6659 109.215 10.9411C108.718 11.2164 108.339 11.6601 108.148 12.1903C107.657 13.4892 107.437 14.8729 107.502 16.2581C107.46 18.7144 107.446 21.1697 107.423 23.626C107.419 23.7662 107.408 23.9112 107.4 24.1074Z" fill="black"/>
<path d="M99.6228 21.512C98.2073 23.2404 96.0578 24.1046 93.1742 24.1046C90.2906 24.1046 88.141 23.2404 86.7256 21.512C85.3475 19.7202 84.6013 17.5309 84.6013 15.2794C84.6013 13.0279 85.3475 10.8385 86.7256 9.04679C88.141 7.29197 90.2906 6.41488 93.1742 6.41553C96.0578 6.41617 98.2073 7.29326 99.6228 9.04679C101 10.8387 101.746 13.028 101.746 15.2794C101.746 17.5307 101 19.72 99.6228 21.512ZM96.1132 19.1146C96.7889 17.9445 97.1443 16.6202 97.1443 15.2726C97.1443 13.925 96.7889 12.6007 96.1132 11.4306C95.7475 11.0085 95.2938 10.6697 94.7833 10.4374C94.2727 10.2051 93.7176 10.0849 93.1557 10.0849C92.5938 10.0849 92.0385 10.2051 91.528 10.4374C91.0175 10.6697 90.5637 11.0085 90.198 11.4306C89.5176 12.5991 89.1596 13.924 89.1596 15.2726C89.1596 16.6212 89.5176 17.9461 90.198 19.1146C90.5627 19.5383 91.0161 19.8786 91.5267 20.1119C92.0373 20.3452 92.5932 20.4661 93.1557 20.4661C93.7182 20.4661 94.2739 20.3452 94.7846 20.1119C95.2952 19.8786 95.7485 19.5383 96.1132 19.1146Z" fill="black"/>
<path d="M11.8554 18.2455C11.8801 18.8417 12.0907 19.4158 12.4582 19.8888C12.8797 20.2251 13.3645 20.4751 13.8845 20.6245C14.4044 20.7738 14.9492 20.8195 15.4871 20.7588C16.1957 20.7895 16.9019 20.6592 17.5517 20.378C17.7664 20.2834 17.951 20.1325 18.0854 19.9417C18.2198 19.7509 18.2989 19.5273 18.3142 19.2952C18.3295 19.0631 18.2804 18.8313 18.1722 18.6248C18.0639 18.4184 17.9007 18.2451 17.7002 18.1237C16.2147 17.5446 14.6771 17.1061 13.108 16.8139C11.6455 16.5493 10.2659 15.9498 9.07957 15.0632C8.67618 14.6804 8.36223 14.215 8.1597 13.6995C7.95718 13.184 7.87096 12.631 7.9071 12.0791C7.90372 11.329 8.06529 10.5871 8.38062 9.90489C8.69595 9.22269 9.15748 8.6165 9.73322 8.12837C11.1726 6.95075 13.0114 6.35999 14.8755 6.47634C16.6706 6.38472 18.4535 6.81628 20.0031 7.71754C20.6979 8.20277 21.2664 8.84424 21.6619 9.58921C22.0573 10.3342 22.2684 11.1614 22.2777 12.0028H17.8936C17.8621 11.5261 17.6962 11.0676 17.4149 10.6794C17.0973 10.3577 16.7104 10.1113 16.283 9.95843C15.8556 9.8056 15.3988 9.75036 14.9468 9.79684C14.2359 9.73763 13.5234 9.89121 12.9018 10.2376C12.7218 10.347 12.572 10.4989 12.4658 10.6795C12.3596 10.8602 12.3003 11.0641 12.2931 11.2729C12.2809 11.4961 12.336 11.7179 12.4513 11.9101C12.5666 12.1024 12.737 12.2564 12.9409 12.3527C14.4298 12.8805 15.9611 13.2827 17.5184 13.5552C18.9678 13.8162 20.3223 14.4496 21.4462 15.3919C21.8688 15.7947 22.202 16.2802 22.4246 16.8175C22.6471 17.3547 22.7542 17.9319 22.7389 18.5123C22.7593 19.279 22.6028 20.0403 22.2811 20.7381C21.9594 21.436 21.4811 22.052 20.8825 22.5394C19.6449 23.5789 17.7308 24.0987 15.1403 24.0987C12.5501 24.0987 10.5481 23.5486 9.28963 22.4466C8.67916 21.9275 8.19307 21.2806 7.86657 20.5526C7.54008 19.8246 7.38137 19.0339 7.40195 18.2378H11.8456L11.8554 18.2455Z" fill="black"/>
<path d="M38.408 21.512C36.9925 23.2404 34.843 24.1046 31.9594 24.1046C29.0758 24.1046 26.9262 23.2404 25.5108 21.512C24.1329 19.7202 23.3867 17.5308 23.3867 15.2794C23.3867 13.0279 24.1329 10.8386 25.5108 9.04679C26.9262 7.29197 29.0758 6.41488 31.9594 6.41553C34.843 6.41617 36.9925 7.29326 38.408 9.04679C39.7859 10.8386 40.5321 13.0279 40.5321 15.2794C40.5321 17.5308 39.7859 19.7202 38.408 21.512ZM34.8994 19.1146C35.5746 17.9444 35.9297 16.6201 35.9297 15.2726C35.9297 13.9251 35.5746 12.6009 34.8994 11.4306C34.5337 11.0084 34.0799 10.6694 33.5693 10.437C33.0587 10.2046 32.5033 10.0843 31.9413 10.0843C31.3793 10.0843 30.8239 10.2046 30.3133 10.437C29.8027 10.6694 29.349 11.0084 28.9833 11.4306C28.3028 12.5991 27.9447 13.924 27.9447 15.2726C27.9447 16.6212 28.3028 17.9461 28.9833 19.1146C29.348 19.5385 29.8014 19.8789 30.3121 20.1123C30.8228 20.3457 31.3787 20.4666 31.9413 20.4666C32.5039 20.4666 33.0598 20.3457 33.5705 20.1123C34.0813 19.8789 34.5347 19.5385 34.8994 19.1146Z" fill="black"/>
<path d="M125.32 7.28618C126.503 7.81472 127.508 8.6662 128.218 9.74054C128.922 10.7686 129.379 11.942 129.554 13.1712C129.689 14.264 129.737 15.3655 129.698 16.4656H117.484C117.448 17.149 117.59 17.8302 117.897 18.4434C118.204 19.0567 118.666 19.5813 119.237 19.9669C119.966 20.3992 120.805 20.6159 121.655 20.5914C122.34 20.6446 123.026 20.4911 123.622 20.1512C124.218 19.8112 124.695 19.3008 124.992 18.687H129.468C129.266 19.8328 128.696 20.8836 127.842 21.6837C127.027 22.51 126.042 23.1534 124.953 23.5703C123.865 23.9873 122.699 24.168 121.533 24.1004C119.383 24.1283 117.291 23.4058 115.626 22.0597C113.919 20.698 113.066 18.4837 113.066 15.4168C113.066 12.5419 113.836 10.3379 115.377 8.80481C116.164 8.0359 117.103 7.435 118.134 7.03928C119.166 6.64356 120.269 6.46142 121.374 6.50414C122.731 6.48489 124.076 6.75147 125.32 7.28618ZM118.759 11.0339C118.101 11.7442 117.69 12.6443 117.586 13.6024H125.141C125.136 13.1094 125.03 12.6224 124.829 12.1716C124.627 11.7207 124.334 11.3155 123.968 10.9808C123.243 10.3752 122.317 10.0566 121.368 10.0866C120.891 10.0588 120.413 10.1284 119.964 10.2913C119.515 10.4541 119.105 10.7075 118.759 11.0339Z" fill="black"/>
<path d="M45.9392 24.1076H41.5551V1.56104H45.9392V24.1076Z" fill="black"/>
<path d="M51.7537 5.53597H47.3061V1.56104H51.7537V5.53597ZM47.3081 7.51474H51.7556V24.1076H47.3081V7.51474Z" fill="black"/>
<path d="M78.7215 19.6464C78.4459 19.9425 78.1044 20.1709 77.7239 20.3136C77.3435 20.4562 76.9347 20.5091 76.53 20.4681C75.873 20.5017 75.2237 20.3156 74.6865 19.9399C74.1494 19.5641 73.7555 19.0205 73.5685 18.3965C73.249 17.4528 73.1027 16.4602 73.1366 15.4656C73.1018 14.4265 73.2479 13.3893 73.5685 12.3993C73.7543 11.7516 74.1551 11.1847 74.7064 10.7899C75.2577 10.3952 75.9272 10.1956 76.6071 10.2233C77.0445 10.19 77.4833 10.2644 77.8845 10.4399C78.2857 10.6153 78.6367 10.8863 78.9062 11.2287C79.2468 11.73 79.4637 12.3035 79.5393 12.9029H84.0338C83.7869 10.5378 82.9932 8.88837 81.6527 7.95457C80.1204 6.9665 78.3143 6.47679 76.487 6.55387C75.3992 6.49818 74.3126 6.68238 73.3057 7.09315C72.2987 7.50391 71.3966 8.13097 70.6647 8.92897C70.0556 9.62252 69.5789 10.4197 69.2577 11.2818V1.56104H64.8101V9.06623C64.3375 8.30249 63.6761 7.67041 62.8883 7.22957C62.0596 6.77783 61.1258 6.54885 60.1798 6.56547C59.1674 6.531 58.161 6.73368 57.2428 7.15701C56.3246 7.58034 55.5204 8.21232 54.8959 9.00147C53.4797 10.9377 52.7812 13.2978 52.9183 15.684C52.8268 17.8701 53.5403 20.0148 54.9262 21.7199C55.5147 22.4593 56.2665 23.0556 57.1239 23.4631C57.9814 23.8706 58.9218 24.0785 59.8731 24.0708C60.9097 24.1059 61.9378 23.8755 62.858 23.4019C63.7403 22.8738 64.4755 22.1362 64.9967 21.2559V24.0989H69.2587V19.6406C69.5523 20.3945 69.9594 21.1001 70.4663 21.7334C71.7391 23.3168 73.7258 24.1085 76.4264 24.1085C77.6055 24.179 78.7836 23.9549 79.8522 23.4569C80.9209 22.9589 81.8458 22.203 82.5418 21.2588C83.3697 20.1694 83.8714 18.8718 83.9898 17.5139H79.512C79.4565 18.2842 79.1825 19.0233 78.7215 19.6464ZM63.9679 19.05C63.6528 19.4983 63.227 19.8595 62.7311 20.0992C62.2352 20.3389 61.6855 20.4493 61.1344 20.4197C60.5897 20.4522 60.0461 20.3419 59.5583 20.0998C59.0706 19.8578 58.656 19.4926 58.3567 19.0413C57.6954 17.9315 57.3768 16.6546 57.4401 15.3679C57.3953 14.118 57.7072 12.8808 58.34 11.798C58.6342 11.3273 59.0524 10.9447 59.5497 10.6913C60.047 10.4379 60.6046 10.3233 61.1628 10.3596C61.9741 10.3487 62.7617 10.6301 63.3787 11.1513C64.415 12.0239 64.9329 13.4739 64.9323 15.5013C64.9912 16.7546 64.6541 17.9949 63.9679 19.05Z" fill="black"/>
<path fill-rule="evenodd" clip-rule="evenodd" d="M0.5 0.441406H8.90272V4.62224H4.72579V25.2606H8.90272V29.4414H0.5V0.441406Z" fill="black"/>
<path fill-rule="evenodd" clip-rule="evenodd" d="M136.5 0.441406H128.097V4.62224H132.278V25.2606H128.097V29.4414H136.5V0.441406Z" fill="black"/>
</g>
<defs>
<clipPath id="clip0_1289_239">
<rect width="136" height="29" fill="white" transform="translate(0.5 0.441406)"/>
</clipPath>
</defs>
</svg>
