<svg width="153" height="51" viewBox="0 0 153 51" fill="none" xmlns="http://www.w3.org/2000/svg">
<path d="M38.5428 3.43133C36.5985 6.34778 36.0267 6.86244 34.1395 7.14837C31.3375 7.66303 27.1058 10.5223 24.8184 13.5531L22.9884 15.9549L21.4444 13.6675C19.0998 10.0648 15.6116 8.80674 7.03378 8.34926L0 8.00615V24.018V40.0298H6.00444H12.0089V35.1691C12.0089 30.3655 12.0089 30.3084 13.6101 29.9652C15.6116 29.4506 20.5867 26.8201 20.5867 26.191C20.5867 24.933 21.6732 25.9623 22.0163 27.5635C23.2744 33.282 28.4782 38.4858 34.1967 39.7439C36.2554 40.2014 36.2554 40.1442 35.2261 46.4918C34.8258 48.8935 34.597 50.895 34.6542 50.895C34.7686 50.895 36.141 48.4932 37.7422 45.5196C40.4871 40.3729 40.7158 40.1442 43.232 39.458C48.2643 38.0284 52.9535 33.2248 54.3831 27.9066L54.9549 25.7335L57.0708 27.3919C58.2145 28.3069 60.2732 29.3934 61.5884 29.7937L63.9902 30.4799L64.1618 35.3978L64.3333 40.3158L71.0812 40.4873L77.7718 40.6589V32.8817V25.1617H84.634C90.3526 25.1617 91.4963 24.9901 91.4963 24.3039C91.4963 23.5605 90.3526 23.4461 84.634 23.4461H77.7718V16.8698V10.2936H85.4918H93.2118V25.4476V40.6017L112.483 40.4873L131.812 40.3158L136.387 33.6251C138.903 29.9081 141.133 26.8772 141.305 26.8772C141.476 26.8772 143.649 29.8509 146.051 33.4535C150.054 39.5152 151.655 41.2307 152.456 40.4301C152.627 40.2586 150.454 36.6559 147.595 32.4242L142.448 24.7042L147.423 17.3273C150.168 13.3244 152.627 9.66452 152.856 9.26422C153.199 8.80674 152.913 8.578 152.17 8.578C151.255 8.578 149.768 10.4079 146.28 15.7261C143.649 19.6147 141.419 22.8171 141.247 22.8171C141.076 22.8171 138.846 19.6147 136.215 15.7261L131.526 8.578H121.518H111.511V23.389V38.2571L109.109 38.6002C107.737 38.7718 104.134 38.8861 101.046 38.7718L95.442 38.6002L95.4992 23.5605L95.5564 8.578H79.6589C70.9096 8.578 62.9037 8.80674 61.8172 9.14985C59.0723 9.95044 55.9271 12.2378 54.669 14.4109L53.5825 16.2408L52.6675 14.8112C50.6661 11.666 46.949 8.63518 43.6895 7.60585L40.4871 6.6337L40.8302 3.31696C41.0018 1.48704 41.0589 0.000222161 40.9446 0.000222161C40.8302 0.000222161 39.7437 1.54422 38.5428 3.43133ZM38.3712 11.5516C37.3991 18.8713 36.9988 18.2995 42.7745 18.3567C51.1807 18.471 51.1235 17.3845 43.861 31.0518C40.4299 37.5709 37.5135 42.8319 37.3991 42.7175C37.2275 42.6032 37.685 38.9433 38.3141 34.6544C38.9431 30.3655 39.4578 26.477 39.4578 26.0195C39.4578 25.3904 38.0853 25.1617 32.9387 25.0473L26.3624 24.8758L32.4812 15.3258C35.8551 10.0648 38.7144 6.06185 38.7715 6.34778C38.8859 6.6337 38.7144 8.97829 38.3712 11.5516ZM135.186 17.5561L140.046 24.7614L135.357 31.6808C132.784 35.5122 130.497 38.543 130.268 38.4287C129.982 38.3715 126.208 38.3143 121.804 38.3143H113.798V31.738V25.1617H120.661C126.379 25.1617 127.523 24.9901 127.523 24.3039C127.523 23.5605 126.379 23.4461 120.661 23.4461H113.798V16.8698V10.2936H122.09H130.382L135.186 17.5561Z" fill="black"/>
</svg>
