<svg width="151" height="44" viewBox="0 0 151 44" fill="none" xmlns="http://www.w3.org/2000/svg">
<g clip-path="url(#clip0_1354_231)">
<mask id="mask0_1354_231" style="mask-type:luminance" maskUnits="userSpaceOnUse" x="1" y="0" width="148" height="44">
<path d="M1.17575 0.705078H148.733V43.1761H1.17575V0.705078Z" fill="white"/>
</mask>
<g mask="url(#mask0_1354_231)">
<mask id="mask1_1354_231" style="mask-type:luminance" maskUnits="userSpaceOnUse" x="1" y="0" width="41" height="44">
<path d="M41.8262 0.705078H1.17575V43.169H41.8262V0.705078Z" fill="white"/>
</mask>
<g mask="url(#mask1_1354_231)">
<path fill-rule="evenodd" clip-rule="evenodd" d="M27.2289 0.801672L3.73109 2.53307C1.83547 2.69588 1.17575 3.9332 1.17575 5.41402V31.1161C1.17575 32.2713 1.5863 33.258 2.57729 34.576L8.10136 41.7437C9.0074 42.8975 9.83276 43.1453 11.5656 43.0603L38.8532 41.4139C41.1608 41.2496 41.8219 40.178 41.8219 38.3659V9.4516C41.8219 8.51441 41.451 8.24401 40.3581 7.44697C40.2957 7.40125 40.2335 7.35548 40.1712 7.30965L32.6708 2.03758C30.8573 0.720977 30.1127 0.553925 27.2289 0.801672ZM12.1842 8.97734C9.95592 9.1274 9.45052 9.16138 8.18488 8.13358L4.967 5.57966C4.63855 5.2498 4.80419 4.83783 5.62813 4.75714L28.2185 3.10926C30.1141 2.94363 31.1036 3.60476 31.8455 4.17953L35.7202 6.9812C35.8845 7.06331 36.2964 7.55739 35.8024 7.55739L12.4716 8.95894L12.1842 8.97734ZM9.58501 38.1181V13.5699C9.58501 12.4996 9.91487 12.0055 10.9044 11.922L37.698 10.3576C38.6069 10.2755 39.0188 10.8531 39.0188 11.922V36.3046C39.0188 37.3777 38.8532 38.2837 37.3681 38.3659L11.7298 39.8495C10.2433 39.9316 9.58501 39.439 9.58501 38.1181ZM34.8977 14.8865C35.0619 15.6297 34.8977 16.3715 34.1531 16.4551L32.9186 16.7014V34.8224C31.8455 35.4 30.8559 35.7284 30.032 35.7284C28.7125 35.7284 28.3827 35.3179 27.3931 34.082L19.3137 21.3973V33.6714L21.8705 34.2476C21.8705 34.2476 21.8705 35.7298 19.8064 35.7298L14.1195 36.0597C13.9539 35.7298 14.1195 34.9059 14.6971 34.7417L16.1808 34.3311V18.1001L14.1195 17.9345C13.9553 17.1926 14.3658 16.1224 15.521 16.0403L21.6227 15.6297L30.032 28.48V17.112L27.8886 16.8656C27.723 15.9582 28.3827 15.2984 29.2066 15.2177L34.8977 14.8865Z" fill="black"/>
</g>
<path d="M73.3694 10.6433V33.5918H69.707L58.8499 17.8917H58.6602V33.5918H54.5363V10.6433H58.2341L69.0671 26.3392H69.2794V10.6447H73.3708L73.3694 10.6433ZM84.2915 33.9259C82.6111 33.9259 81.1543 33.5564 79.9212 32.816C78.6902 32.078 77.6983 31.0005 77.0643 29.7128C76.3933 28.3834 76.0564 26.8304 76.0564 25.0523C76.0564 23.2742 76.3919 21.7169 77.0643 20.3805C77.7368 19.0441 78.6896 18.0049 79.9212 17.2659C81.1529 16.5269 82.6111 16.156 84.2915 16.156C85.9648 16.156 87.4174 16.5269 88.649 17.2659C89.8807 18.0049 90.8349 19.0441 91.5059 20.3805C92.1854 21.7169 92.5252 23.2742 92.5252 25.0523C92.5252 26.8304 92.1854 28.3834 91.5059 29.7128C90.8722 31.001 89.8802 32.079 88.649 32.8174C87.4174 33.5564 85.9648 33.9259 84.2915 33.9259ZM84.3028 30.6981C85.2287 30.6981 85.9974 30.4489 86.6104 29.9478C87.2234 29.441 87.6821 28.7614 87.9879 27.9092C88.2951 27.0498 88.448 26.0942 88.448 25.041C88.448 23.9877 88.2951 23.0321 87.9879 22.1728C87.6821 21.3134 87.2234 20.6296 86.6104 20.1228C85.9974 19.6075 85.2287 19.3498 84.3028 19.3498C83.3685 19.3498 82.5912 19.6075 81.9726 20.1228C81.3525 20.6311 80.8896 21.3134 80.5824 22.1728C80.2851 23.0321 80.135 23.9877 80.135 25.041C80.135 26.0942 80.2836 27.0513 80.5824 27.9092C80.8896 28.7614 81.3525 29.441 81.9726 29.9478C82.5927 30.4489 83.3685 30.6981 84.3028 30.6981ZM103.573 16.3825V19.4971H93.7144V16.3825H103.573ZM96.1551 12.2572H100.178V28.4245C100.178 28.9695 100.261 29.3872 100.425 29.6802C100.596 29.9704 100.821 30.1686 101.097 30.2734C101.373 30.3781 101.683 30.4291 102.027 30.4291C102.26 30.4311 102.492 30.4126 102.721 30.3739C102.931 30.3371 103.095 30.3031 103.215 30.2734L103.886 33.4219C103.585 33.5198 103.279 33.602 102.969 33.6682C102.572 33.7574 102.087 33.8098 101.511 33.824C100.503 33.8551 99.5924 33.7022 98.7784 33.3653C97.9944 33.0401 97.324 32.4905 96.8516 31.7854C96.3802 31.069 96.1494 30.1686 96.1565 29.0856V12.2572H96.1551ZM106.041 33.5904V16.3811H110.076V33.5904H106.041ZM108.07 13.9263C107.427 13.9263 106.878 13.7139 106.422 13.2892C106.205 13.0944 106.032 12.8557 105.914 12.5889C105.796 12.3222 105.736 12.0335 105.738 11.7419C105.738 11.1374 105.966 10.6221 106.422 10.1959C106.864 9.77107 107.455 9.53759 108.068 9.54612C108.711 9.54612 109.26 9.76273 109.716 10.1973C110.179 10.6221 110.41 11.1374 110.41 11.7419C110.41 12.3393 110.179 12.8546 109.716 13.2878C109.26 13.7139 108.711 13.9277 108.07 13.9277V13.9263ZM120.797 33.9259C119.116 33.9259 117.66 33.5564 116.426 32.816C115.195 32.078 114.203 31.0005 113.57 29.7128C112.899 28.3834 112.562 26.8304 112.562 25.0523C112.562 23.2742 112.899 21.7169 113.57 20.3805C114.242 19.0441 115.195 18.0049 116.426 17.2659C117.66 16.5269 119.116 16.156 120.797 16.156C122.47 16.156 123.923 16.5269 125.154 17.2659C126.387 18.0049 127.34 19.0441 128.013 20.3805C128.692 21.7169 129.032 23.2742 129.032 25.0523C129.032 26.8304 128.692 28.3834 128.013 29.7128C127.379 31.0013 126.386 32.0793 125.154 32.8174C123.923 33.5564 122.47 33.9259 120.797 33.9259ZM120.808 30.6981C121.734 30.6981 122.503 30.4489 123.116 29.9478C123.729 29.441 124.187 28.7614 124.495 27.9092C124.8 27.0498 124.953 26.0942 124.953 25.041C124.953 23.9877 124.8 23.0321 124.495 22.1728C124.187 21.3134 123.729 20.6296 123.116 20.1228C122.503 19.6075 121.734 19.3498 120.808 19.3498C119.874 19.3498 119.098 19.6075 118.478 20.1228C117.858 20.6311 117.395 21.3134 117.088 22.1728C116.79 23.0321 116.64 23.9877 116.64 25.041C116.64 26.0942 116.789 27.0513 117.088 27.9092C117.395 28.7614 117.858 29.441 118.478 29.9478C119.098 30.4489 119.874 30.6981 120.808 30.6981ZM135.54 23.495V33.589H131.508V16.3825H135.361V19.2946H135.564C135.945 18.3566 136.606 17.5587 137.457 17.0097C138.33 16.442 139.41 16.1574 140.696 16.1574C141.875 16.1574 142.906 16.4123 143.788 16.9205C144.68 17.4332 145.398 18.2021 145.849 19.1276C146.342 20.0903 146.588 21.2596 146.588 22.6343V33.5918H142.567V23.2501C142.567 22.0991 142.267 21.2002 141.67 20.5504C141.071 19.8935 140.246 19.5636 139.192 19.5636C138.484 19.5636 137.853 19.7208 137.3 20.035C136.747 20.3408 136.314 20.7882 136 21.38C135.694 21.9604 135.54 22.6682 135.54 23.4964V23.495Z" fill="black"/>
</g>
</g>
<defs>
<clipPath id="clip0_1354_231">
<rect width="149.193" height="42.471" fill="white" transform="translate(0.903503 0.705078)"/>
</clipPath>
</defs>
</svg>
