<svg width="60" height="60" viewBox="0 0 60 60" fill="none" xmlns="http://www.w3.org/2000/svg">
<rect width="60" height="60" fill="#F5F5F5"/>
<g clip-path="url(#clip0_0_1)">
<path d="M0 0H60V60H0V0Z" fill="black"/>
<path d="M13.5469 32.8683H14.2969L15.0938 32.9624L15.8906 33.1505L16.875 33.5737L17.625 34.0439L18.2344 34.5611L18.6562 34.9843L19.125 35.5956L19.5938 36.442L19.875 37.1473L20.0625 37.8527L20.1562 38.464V46.1756L20.0156 47.022L19.6875 48.0094L19.1719 48.9969L18.7031 49.6552L18.4688 49.9373L18.6094 50.5016L19.2656 52.6176L19.9688 54.9216L20.1562 55.5329V55.674H16.4531L15.7969 53.7461L15.1406 51.7712L14.6719 51.8182H13.125L12.4219 51.6771L11.6719 51.442L10.9219 51.1129L10.1719 50.6426L9.65625 50.1724L9.32812 49.8903L8.90625 49.373L8.53125 48.8558L8.15625 48.1505L7.82812 47.2571L7.64062 46.3166V38.3699L7.82812 37.4295L8.15625 36.5361L8.53125 35.8307L8.90625 35.3135L9.42188 34.7022L9.89062 34.279L10.5469 33.8088L11.3438 33.3856L12.0938 33.1035L13.0312 32.9154L13.5469 32.8683Z" fill="white"/>
<path d="M45.7031 32.8683H46.4531L47.2969 32.9624L48.0469 33.1505L48.9375 33.5267L49.6406 33.9499L50.25 34.4201L50.8594 35.0314L51.375 35.7367L51.8906 36.7241L52.1719 37.5705L52.3125 38.3699V46.3166L52.125 47.2571L51.8438 48.0564L51.375 48.9499L50.9531 49.5141L50.5312 49.9843L50.1094 50.4075L49.4531 50.8778L48.7969 51.2539L47.9531 51.5831L47.2031 51.7712L46.875 51.8182H45.3281L44.5781 51.6771L43.8281 51.442L42.9375 51.0188L42.375 50.6426L41.7656 50.1254L41.3438 49.7022L40.7812 48.9499L40.3125 48.0564L39.9844 47.069L39.8438 46.2226V38.464L39.9844 37.6176L40.2656 36.7712L40.6406 36.0188L41.0156 35.4075L41.5312 34.7962L41.9531 34.373L42.6562 33.8558L43.3125 33.4796L44.0156 33.1975L44.6719 33.0094L45.1875 32.9154L45.7031 32.8683Z" fill="white"/>
<path d="M25.2656 8.18182H29.1094L29.4844 8.93417L30.2344 10.5329L30.8438 11.8966L31.7344 13.8245L32.5781 15.6583L33 16.5988L33.8438 18.4326L34.0312 18.8558L34.0781 8.18182H37.9219V27.1317H34.0312L33.4219 25.768L32.5312 23.8401L31.7344 22.1003L31.0312 20.5486L30.2344 18.8088L29.3906 16.9749L29.1562 16.4107L29.1094 27.1317H25.2656V8.18182Z" fill="white"/>
<path d="M7.64062 8.18182H11.3906L11.4375 21.2539L11.5781 21.8182L11.8594 22.3354L12.2812 22.8056L12.7031 23.0878L13.125 23.2759L13.5469 23.3699H14.2969L14.8594 23.2288L15.375 22.9467L15.8438 22.5235L16.1719 22.0063L16.3594 21.489L16.4062 21.2539L16.4531 8.18182H20.1562V21.5361L20.0156 22.4295L19.7344 23.2759L19.3594 24.0752L18.9844 24.6395L18.5625 25.1567L18 25.721L17.3438 26.1912L16.6875 26.5674L15.9844 26.8495L15 27.0846L14.5781 27.1317H13.2656L12.375 26.9906L11.625 26.7555L10.6406 26.2853L10.0781 25.9091L9.375 25.2978L8.8125 24.6395L8.34375 23.8872L7.96875 23.0408L7.73438 22.2414L7.64062 21.6301V8.18182Z" fill="white"/>
<path d="M25.2656 32.8683H29.1094V47.9624H37.9219V51.8182H25.2656V32.8683Z" fill="white"/>
<path d="M44.1562 8.18182H48.0469V27.1317H44.1562V8.18182Z" fill="white"/>
<path d="M45.5625 36.6301H46.5938L47.1562 36.8182L47.5781 37.0533L48.0469 37.4765L48.375 37.9937L48.5625 38.4169L48.6094 38.652V46.0345L48.375 46.6457L48.0938 47.0219L47.8594 47.304L47.3906 47.6332L46.875 47.8683L46.5 47.9624H45.6562L44.9531 47.7272L44.4375 47.3981L43.9688 46.9279L43.6406 46.3166L43.5469 45.9404V38.7461L43.6875 38.1818L43.9688 37.6645L44.3906 37.1943L44.9062 36.8652L45.375 36.6771L45.5625 36.6301Z" fill="black"/>
<path d="M13.4062 36.6301H14.4375L15 36.8182L15.5625 37.1473L15.8906 37.4765L16.2188 37.9937L16.4062 38.5109L16.4531 38.7461V45.9404L16.2656 46.5047L15.9844 46.9749L15.5156 47.4451L14.9531 47.7743L14.3438 47.9624H13.5L12.8906 47.7743L12.375 47.4921L11.8125 46.9279L11.4375 46.1755L11.3906 45.9404V38.7461L11.5312 38.1818L11.8125 37.6645L12.2812 37.1473L12.75 36.8652L13.2188 36.6771L13.4062 36.6301Z" fill="black"/>
</g>
<defs>
<clipPath id="clip0_0_1">
<rect width="60" height="60" fill="white"/>
</clipPath>
</defs>
</svg>
