<svg xmlns="http://www.w3.org/2000/svg" fill="none" viewBox="11.66 33.66 86.68 42.46" style="max-height: 500px" width="86.68" height="42.46">
<path fill="black" d="M70.644 39.4836C70.2259 38.701 69.7114 37.9899 69.1004 37.3467C68.4893 36.7035 67.8033 36.1533 67.0422 35.6995C66.2811 35.2457 65.4735 34.899 64.6195 34.6632C63.7619 34.4309 62.8936 34.313 62.0074 34.3166H34.654C34.4647 34.3201 34.2896 34.3738 34.1323 34.481C33.9751 34.5846 33.8608 34.7275 33.7893 34.9026C33.7179 35.0777 33.6999 35.2564 33.7357 35.4422C33.775 35.628 33.8572 35.7888 33.993 35.9246L39.9496 41.917C40.4999 42.4672 41.161 42.7424 41.9399 42.7424H61.2213C61.5536 42.7388 61.8681 42.7995 62.1754 42.921C62.4827 43.0461 62.7542 43.2212 62.9901 43.4535C63.2259 43.6857 63.4082 43.9501 63.5368 44.2539C63.6654 44.5576 63.7333 44.8756 63.7333 45.2044C63.7369 45.5331 63.6797 45.8511 63.5547 46.1584C63.4332 46.4657 63.2545 46.7337 63.0222 46.9695C62.7936 47.2054 62.5256 47.3876 62.2218 47.5163C61.9181 47.6485 61.6037 47.7128 61.2713 47.7164H47.9788C47.7894 47.7164 47.6143 47.77 47.4571 47.8772C47.2999 47.9808 47.1855 48.1237 47.1105 48.2988C47.039 48.4739 47.0211 48.6561 47.0569 48.842C47.0962 49.0278 47.1784 49.1886 47.3142 49.3243L53.2744 55.3203C53.8247 55.8706 54.4857 56.1457 55.2647 56.1457H61.2749C69.1004 56.1457 75.0142 47.7807 70.644 39.48"/>
<path fill="black" d="M14.3402 67.8473V73.657H15.8355C16.0261 73.6548 16.2146 73.6355 16.3989 73.5948C16.5852 73.5563 16.7652 73.5006 16.9408 73.4256C17.1144 73.3506 17.2793 73.2606 17.4357 73.1535C17.5921 73.0464 17.7377 72.9265 17.8706 72.7915C18.0034 72.6544 18.1212 72.5087 18.224 72.3502C18.3268 72.1917 18.4147 72.0246 18.4832 71.8511C18.5539 71.6754 18.6075 71.4955 18.6417 71.3091C18.676 71.1228 18.691 70.9364 18.6888 70.7479C18.6953 70.5594 18.6803 70.3708 18.6482 70.1845C18.616 69.9981 18.5646 69.816 18.4961 69.6404C18.4254 69.4647 18.3397 69.2976 18.2369 69.1369C18.134 68.9784 18.0141 68.8328 17.8813 68.6957C17.7484 68.5607 17.6028 68.4407 17.4464 68.3336C17.2879 68.2287 17.1208 68.1387 16.9451 68.0659C16.7695 67.993 16.5895 67.9373 16.4032 67.9009C16.2146 67.8645 16.0261 67.8473 15.8355 67.8473H14.3402ZM15.8355 66.0265C18.6225 66.0265 20.7304 68.1173 20.7304 70.7479C20.7304 73.3785 18.6225 75.4821 15.8355 75.4821H12.5387C12.4744 75.4821 12.4187 75.4585 12.3716 75.4136C12.3245 75.3664 12.303 75.3107 12.303 75.2465V66.2707C12.303 66.2064 12.3244 66.1507 12.3716 66.1036C12.4187 66.0586 12.4744 66.0351 12.5387 66.0351L15.8355 66.0265Z"/>
<path fill="black" d="M27.9153 73.8604C28.1209 73.8604 28.3244 73.8411 28.5258 73.8026C28.7272 73.7619 28.9221 73.7041 29.1128 73.6269C29.3034 73.5498 29.4834 73.4534 29.6547 73.3399C29.8261 73.2285 29.9846 73.1 30.1303 72.9564C30.276 72.8108 30.4045 72.6544 30.5202 72.4852C30.6337 72.3159 30.7301 72.1381 30.8094 71.9496C30.8886 71.7611 30.9486 71.5662 30.9893 71.3669C31.03 71.1656 31.0514 70.9642 31.0514 70.7607C31.0514 70.5572 31.0322 70.3537 30.9936 70.1545C30.9529 69.9531 30.8951 69.7582 30.8158 69.5696C30.7387 69.3811 30.6423 69.2033 30.5287 69.032C30.4152 68.8627 30.2845 68.7042 30.141 68.5607C29.9953 68.415 29.8368 68.2865 29.6676 68.1729C29.4962 68.0594 29.3163 67.963 29.1278 67.8837C28.9371 67.8066 28.7422 67.7466 28.5408 67.7059C28.3394 67.6652 28.1359 67.646 27.9303 67.646C27.7246 67.646 27.5211 67.6652 27.3198 67.7038C27.1184 67.7423 26.9234 67.8023 26.7328 67.8795C26.5421 67.9566 26.3622 68.053 26.1908 68.1665C26.0194 68.2801 25.8631 68.4086 25.7174 68.5521C25.5717 68.6956 25.4411 68.852 25.3275 69.0212C25.2118 69.1905 25.1154 69.3704 25.0362 69.5589C24.9591 69.7474 24.8991 69.9424 24.8584 70.1416C24.8177 70.3408 24.7963 70.5443 24.7963 70.7479C24.7963 70.9514 24.8177 71.1527 24.8562 71.3541C24.8969 71.5533 24.9548 71.7461 25.034 71.9346C25.1112 72.1231 25.2076 72.3031 25.3211 72.4723C25.4346 72.6415 25.5653 72.7979 25.7088 72.9436C25.8545 73.0871 26.0109 73.2156 26.1823 73.3313C26.3515 73.4449 26.5314 73.5391 26.7199 73.6184C26.9106 73.6976 27.1055 73.7576 27.3048 73.7983C27.5061 73.839 27.7096 73.8583 27.9153 73.8604ZM27.9153 65.8123C30.8479 65.8123 33.0908 68.053 33.0908 70.7479C33.0908 73.4427 30.8479 75.6834 27.9153 75.6834C24.9805 75.6834 22.7569 73.4556 22.7569 70.7479C22.7569 68.0401 24.9998 65.8123 27.9153 65.8123Z"/>
<path fill="black" d="M40.2157 73.8604C40.4214 73.8583 40.6227 73.839 40.8241 73.7983C41.0255 73.7576 41.2204 73.6998 41.4111 73.6205C41.5996 73.5434 41.7795 73.447 41.9509 73.3335C42.1201 73.2199 42.2786 73.0914 42.4222 72.9457C42.5678 72.8022 42.6964 72.6437 42.812 72.4744C42.9256 72.3052 43.0198 72.1253 43.0991 71.9368C43.1784 71.7504 43.2362 71.5555 43.2769 71.3562C43.3154 71.1549 43.3347 70.9535 43.3347 70.75C43.3347 70.5465 43.3155 70.343 43.2748 70.1438C43.2341 69.9445 43.1762 69.7496 43.097 69.5611C43.0177 69.3726 42.9213 69.1948 42.8078 69.0255C42.6942 68.8563 42.5635 68.6978 42.4179 68.5542C42.2744 68.4107 42.1158 68.2822 41.9445 68.1687C41.7752 68.0551 41.5953 67.9609 41.4046 67.8816C41.2161 67.8045 41.019 67.7445 40.8177 67.7059C40.6184 67.6652 40.4149 67.646 40.2093 67.646C40.0036 67.646 39.8001 67.6652 39.5988 67.7059C39.3974 67.7445 39.2025 67.8045 39.0139 67.8816C38.8233 67.9587 38.6433 68.0551 38.472 68.1687C38.3027 68.2801 38.1442 68.4086 37.9986 68.5542C37.8529 68.6978 37.7243 68.8542 37.6108 69.0234C37.4951 69.1926 37.3987 69.3726 37.3216 69.5611C37.2424 69.7474 37.1824 69.9424 37.1417 70.1416C37.101 70.343 37.0817 70.5443 37.0817 70.7479C37.0817 70.9514 37.1009 71.1549 37.1417 71.3562C37.1824 71.5555 37.2402 71.7504 37.3195 71.9389C37.3987 72.1274 37.4951 72.3074 37.6087 72.4766C37.7243 72.648 37.8529 72.8043 37.9986 72.95C38.1442 73.0935 38.3027 73.2221 38.4741 73.3356C38.6455 73.4491 38.8254 73.5455 39.0161 73.6227C39.2067 73.7019 39.4017 73.7598 39.603 73.8005C39.8066 73.839 40.0101 73.8604 40.2157 73.8604ZM40.2157 65.8123C43.1398 65.8123 45.3827 68.0401 45.3827 70.7479C45.3827 73.4556 43.1291 75.6834 40.2157 75.6834C37.3002 75.6834 35.0402 73.4556 35.0402 70.7479C35.0402 68.0401 37.2831 65.8123 40.2157 65.8123Z"/>
<path fill="black" d="M52.2205 67.8474H50.1126V70.3473H52.2205C52.3876 70.3558 52.5504 70.3301 52.7068 70.2723C52.8653 70.2145 53.0045 70.1288 53.1267 70.0131C53.2488 69.8996 53.343 69.7646 53.4094 69.6125C53.4758 69.4604 53.5101 69.2998 53.5123 69.1327C53.5186 68.9613 53.4887 68.7963 53.4266 68.6357C53.3623 68.475 53.2702 68.3336 53.1459 68.2137C53.0238 68.0916 52.8824 67.9995 52.7218 67.9352C52.5611 67.8731 52.394 67.8431 52.2205 67.8495M48.0732 66.2707C48.0732 66.2064 48.0968 66.1507 48.1439 66.1036C48.1889 66.0586 48.2446 66.0351 48.311 66.0351H52.2805C54.172 66.0351 55.5409 67.4125 55.5409 69.1434C55.5453 69.4283 55.5088 69.7111 55.4316 69.9874C55.3567 70.2637 55.2431 70.5251 55.0932 70.7693C54.9432 71.0135 54.7611 71.2342 54.5491 71.4269C54.337 71.6219 54.1013 71.7825 53.8421 71.9111L55.6737 75.1265C55.7294 75.2079 55.7337 75.2915 55.6823 75.3771C55.633 75.4628 55.558 75.5014 55.4595 75.4928H53.8528C53.7543 75.4949 53.6836 75.4521 53.6365 75.3664L51.8735 72.1831H50.1062V75.24C50.1062 75.3043 50.0826 75.36 50.0355 75.405C49.9905 75.4521 49.9348 75.4735 49.8684 75.4735H48.3217C48.2574 75.4735 48.2017 75.4521 48.1546 75.405C48.1075 75.36 48.0861 75.3043 48.0861 75.24L48.0732 66.2707Z"/>
<path fill="black" d="M60.8578 67.8923V73.7019H62.3509C62.5416 73.6998 62.7301 73.6805 62.9143 73.6398C63.1007 73.6013 63.2806 73.5456 63.4563 73.4706C63.6298 73.3977 63.7947 73.3056 63.9511 73.2007C64.1075 73.0936 64.2532 72.9715 64.386 72.8386C64.5188 72.7037 64.6366 72.5559 64.7395 72.3973C64.8423 72.241 64.9301 72.0739 65.0008 71.8982C65.0715 71.7226 65.1229 71.5426 65.1593 71.3584C65.1936 71.172 65.2086 70.9856 65.2064 70.7971C65.2128 70.6086 65.2001 70.4201 65.1679 70.2337C65.1336 70.0452 65.0843 69.8653 65.0137 69.6875C64.9451 69.5118 64.8594 69.3426 64.7566 69.1841C64.6516 69.0255 64.5338 68.8777 64.401 68.7428C64.2682 68.6057 64.1225 68.4857 63.964 68.3786C63.8055 68.2736 63.6384 68.1837 63.4627 68.1108C63.2871 68.0359 63.105 67.9823 62.9186 67.9459C62.7322 67.9095 62.5437 67.8902 62.3509 67.8923L60.8578 67.8923ZM62.3509 66.0693C65.1379 66.0693 67.2458 68.1622 67.2458 70.7971C67.2458 73.432 65.1379 75.5249 62.3509 75.5249H59.0648C58.9984 75.5249 58.9427 75.5035 58.8956 75.4564C58.8506 75.4114 58.827 75.3557 58.827 75.2914V66.3157C58.827 66.2493 58.8506 66.1957 58.8956 66.1486C58.9427 66.1036 58.9984 66.08 59.0648 66.08L62.3509 66.0693Z"/>
<path fill="black" d="M73.4646 68.3786L72.3078 71.4869H74.6192L73.4646 68.3786ZM71.6287 73.2414L70.8725 75.3107C70.8361 75.4242 70.7568 75.4778 70.6369 75.4714H68.9938C68.9039 75.4799 68.831 75.4478 68.7796 75.3728C68.726 75.2979 68.7196 75.2207 68.7582 75.1372L72.3056 66.1721C72.3463 66.0607 72.4256 66.0093 72.5434 66.0158H74.3814C74.4992 66.0094 74.5764 66.0607 74.6171 66.1721L78.1645 75.1372C78.2052 75.2207 78.1966 75.2979 78.1452 75.3728C78.0917 75.4478 78.021 75.4799 77.9289 75.4714H76.288C76.1659 75.4778 76.0887 75.4242 76.0502 75.3107L75.294 73.2414H71.6287Z"/>
<path fill="black" d="M80.0689 68.5799C80.0689 67.0954 81.3607 65.8122 83.4 65.8122C83.9463 65.7994 84.4776 65.8894 84.9874 66.08C85.4994 66.2707 85.9578 66.5513 86.3605 66.9198C86.4098 66.9647 86.4355 67.0226 86.4355 67.0911C86.4355 67.1597 86.4098 67.2175 86.3605 67.2646L85.448 68.1622C85.403 68.2093 85.3473 68.2329 85.2809 68.2329C85.2145 68.2329 85.1588 68.2093 85.1138 68.1622C84.6661 67.7595 84.1391 67.5517 83.535 67.5453C82.7188 67.5453 82.1169 68.0144 82.1169 68.5564C82.1169 70.313 86.9368 69.2997 86.9368 72.6779C86.9346 74.3874 85.6343 75.6834 83.3315 75.6834C82.6888 75.692 82.0697 75.5763 81.4742 75.3385C80.8787 75.1008 80.3517 74.758 79.8933 74.3103C79.8419 74.2653 79.8162 74.2075 79.8162 74.1389C79.8162 74.0704 79.8419 74.0125 79.8933 73.9654L80.7716 73.0914C80.8187 73.0421 80.8765 73.0186 80.943 73.0186C81.0115 73.0186 81.0693 73.0421 81.1143 73.0914C81.697 73.6462 82.3889 73.9247 83.1944 73.9333C84.2141 73.9333 84.8867 73.3913 84.8867 72.7144C84.8867 70.9599 80.0668 71.9732 80.0668 68.5949"/>
<path fill="black" d="M95.679 66.2579V69.8075H91.6003V66.2579C91.6003 66.1936 91.5767 66.1379 91.5296 66.0929C91.4846 66.0458 91.4289 66.0244 91.3625 66.0244H89.8159C89.7495 66.0244 89.6938 66.0458 89.6488 66.0929C89.6017 66.1379 89.5802 66.1936 89.5802 66.2579V75.225C89.5781 75.2893 89.6017 75.345 89.6488 75.3921C89.6937 75.4371 89.7495 75.4607 89.8159 75.4607H91.3625C91.4289 75.4607 91.4846 75.4371 91.5296 75.3921C91.5767 75.345 91.6003 75.2893 91.6003 75.225V71.6197H95.6769V75.225C95.6769 75.2893 95.7004 75.345 95.7476 75.3921C95.7925 75.4371 95.8483 75.4607 95.9147 75.4607H97.4613C97.5256 75.4607 97.5813 75.4371 97.6284 75.3921C97.6755 75.345 97.697 75.2893 97.697 75.225V66.2579C97.697 66.1936 97.6755 66.1379 97.6284 66.0929C97.5813 66.0458 97.5256 66.0244 97.4613 66.0244H95.9147C95.8483 66.0244 95.7947 66.0479 95.7476 66.0929C95.7026 66.14 95.679 66.1936 95.679 66.2579Z"/>
</svg>