<svg width="168" height="25" viewBox="0 0 168 25" fill="none" xmlns="http://www.w3.org/2000/svg">
<g clip-path="url(#clip0_1623_138)">
<mask id="mask0_1623_138" style="mask-type:luminance" maskUnits="userSpaceOnUse" x="0" y="0" width="168" height="25">
<path d="M167.5 0H0.5V25H167.5V0Z" fill="white"/>
</mask>
<g mask="url(#mask0_1623_138)">
<path d="M21.2215 10.943C20.8859 8.28555 19.8487 5.92728 17.8836 4.00798C15.1562 1.34263 11.798 0.165467 7.97675 0.133971C5.52229 0.114286 3.06986 0.206808 0.619447 0.364288C0.506226 0.496178 0.564861 0.655625 0.564861 0.799326C0.564861 8.61035 0.564861 16.4187 0.564861 24.2245C0.556778 24.3624 0.560836 24.5007 0.576991 24.6379C0.58263 24.646 0.58944 24.6533 0.59721 24.6596C0.696934 24.7426 0.82614 24.7843 0.957089 24.7757C2.3036 24.8879 3.65416 24.9096 5.00067 24.943H6.13894C6.39571 24.9647 6.65854 24.8958 6.90924 24.9844H10.2331C10.2573 24.8938 10.3321 24.9076 10.4009 24.9017C11.3488 24.839 12.2866 24.6739 13.197 24.4096C16.8363 23.3387 19.503 21.2324 20.6777 17.6064C21.3974 15.4214 21.5046 13.1891 21.2215 10.943ZM18.9774 17.0001C17.9543 20.3466 15.516 22.2166 12.1457 23.0867C10.4534 23.5237 8.70863 23.5277 6.98607 23.4804C5.55464 23.4411 4.12321 23.4056 2.69582 23.2678C2.33797 23.2324 2.25912 23.1182 2.26114 22.7934C2.27125 19.3623 2.26114 15.9312 2.26114 12.5001C2.26114 9.06901 2.26114 5.6635 2.25103 2.24618C2.25103 1.90563 2.34403 1.79933 2.68369 1.78555C4.92384 1.69106 7.16399 1.52964 9.40211 1.74618C14.1493 2.20484 18.668 5.61625 19.3655 11.0277C19.6304 13.0454 19.5758 15.0454 18.9774 17.0001Z" fill="black"/>
<path d="M90.484 23.7638C88.796 23.4437 87.2745 22.5629 86.1796 21.2717C84.2569 19.0788 82.4979 16.7599 80.7208 14.4489C80.559 14.2402 80.6359 14.1556 80.8077 14.0355C81.2774 13.7012 81.7133 13.3241 82.1097 12.9095C83.8121 11.1595 84.9726 9.19887 84.8432 6.67919C84.736 4.5906 83.9071 2.9036 82.1097 1.70675C80.7216 0.803344 79.0985 0.30228 77.4293 0.261863C75.4702 0.177217 73.5151 0.328793 71.5661 0.423282C71.182 0.442967 71.0789 0.547299 71.0789 0.923283C71.091 8.46265 71.091 16.002 71.0789 23.5414C71.0789 23.9134 70.9515 24.4075 71.1456 24.6221C71.37 24.8701 71.8957 24.6556 72.2859 24.7087C72.6761 24.7619 72.765 24.5847 72.765 24.2264C72.7509 21.2205 72.765 18.2166 72.7448 15.2127C72.7448 14.7697 72.8722 14.6949 73.2887 14.7264C75.0153 14.8583 76.7459 14.9233 78.4766 14.8898C78.6341 14.8765 78.7924 14.9063 78.9335 14.9759C79.0746 15.0454 79.1929 15.152 79.2752 15.2835C81.0625 17.6654 82.8093 20.0788 84.7987 22.3111C85.9289 23.5808 87.3057 24.4922 89.0445 24.8012C89.366 24.8583 89.7137 24.817 90.0109 24.9981H90.1807C90.3365 24.9488 90.5019 24.9354 90.6639 24.9587H90.7125C91.135 25.0099 90.9146 24.6575 91.0198 24.502C91.0764 23.876 91.0764 23.8741 90.484 23.7638ZM77.3424 13.5276C75.9817 13.4686 74.619 13.4371 73.2583 13.3997C72.8762 13.3898 72.7428 13.2796 72.7488 12.8741C72.7772 11.1123 72.761 9.34848 72.761 7.5847C72.761 5.82092 72.761 4.02958 72.761 2.25202C72.761 1.93313 72.8499 1.83667 73.1815 1.82092C74.5422 1.75399 75.9049 1.69297 77.2655 1.75202C78.189 1.78596 79.0979 1.98619 79.9464 2.34257C82.2776 3.32682 83.1186 5.07289 83.0094 7.3662C82.9083 9.53155 81.8489 11.2363 80.1789 12.6123C79.3965 13.269 78.3788 13.5974 77.3484 13.5256L77.3424 13.5276Z" fill="black"/>
<path d="M0.6194 0.364215C0.6194 0.513821 0.603228 0.665393 0.603228 0.816968V24.1792C0.603228 24.3307 0.613333 24.4823 0.617376 24.6339C0.595137 24.6811 0.56279 24.691 0.518311 24.6595V0.338623L0.6194 0.364215Z" fill="black"/>
<path d="M0.518254 24.6596L0.617321 24.634L5.03292 24.9195C5.06257 24.9339 5.07268 24.9496 5.06324 24.9667C5.06324 24.9825 5.04504 24.9903 5.03494 24.9903C3.64192 24.9903 2.24688 24.9805 0.851849 25.0002C0.556667 25.0002 0.457601 24.9352 0.518254 24.6596Z" fill="black"/>
<path d="M90.7023 24.9193C91.0804 24.9725 90.9045 24.6123 91.0359 24.4922C91.0359 24.6575 91.046 24.8249 91.0501 24.9902H90.7084C90.6841 24.9784 90.674 24.9627 90.6801 24.9469C90.6861 24.9312 90.6942 24.9193 90.7023 24.9193Z" fill="black"/>
<path d="M6.13473 24.9175C6.39352 24.9353 6.66646 24.829 6.9111 24.9904H6.14282C6.11856 24.9786 6.10845 24.9628 6.11451 24.9451C6.12058 24.9274 6.12664 24.9175 6.13473 24.9175Z" fill="black"/>
<path d="M6.1348 24.9175C6.13767 24.9417 6.13767 24.9661 6.1348 24.9903H5.52826C5.50198 24.9765 5.49389 24.9608 5.49996 24.945C5.50602 24.9293 5.51613 24.9195 5.52422 24.9195L6.1348 24.9175Z" fill="black"/>
<path d="M5.5424 24.9194C5.54542 24.943 5.54542 24.9668 5.5424 24.9903H5.03088C5.03391 24.9668 5.03391 24.943 5.03088 24.9194H5.5424Z" fill="black"/>
<path d="M90.7023 24.9193C90.7043 24.9429 90.7043 24.9666 90.7023 24.9902H90.1908C90.3444 24.8288 90.5325 24.9351 90.7023 24.9193Z" fill="black"/>
<path d="M167.348 24.2717C165.606 20.2415 163.863 16.2107 162.122 12.1792C160.445 8.30126 158.768 4.4233 157.09 0.545348C157.037 0.425269 157.029 0.22645 156.888 0.206765C156.607 0.168383 156.321 0.168383 156.04 0.206765C155.838 0.234324 155.838 0.478419 155.766 0.631962C153.532 5.80519 151.303 10.9791 149.077 16.1536C147.903 18.8807 146.725 21.6057 145.543 24.3288C145.416 24.6221 145.418 24.7481 145.8 24.7225C146.111 24.693 146.425 24.693 146.736 24.7225C147.086 24.756 147.256 24.628 147.389 24.3111C148.467 21.752 149.569 19.2068 150.648 16.6497C150.682 16.5267 150.761 16.4201 150.87 16.35C150.98 16.28 151.111 16.2514 151.241 16.2698C152.973 16.2855 154.706 16.2698 156.439 16.2698C158.115 16.2698 159.793 16.2875 161.469 16.2579C161.904 16.2481 162.076 16.3997 162.229 16.7678C163.299 19.3131 164.395 21.8465 165.464 24.3898C165.489 24.4947 165.554 24.5864 165.646 24.6463C165.738 24.7063 165.85 24.73 165.959 24.7127C166.327 24.6891 166.697 24.7127 167.067 24.7127C167.534 24.7028 167.534 24.7028 167.348 24.2717ZM151.894 14.8544C151.413 14.8544 151.413 14.8544 151.603 14.4076C153.018 11.0394 154.514 7.70086 155.867 4.30519C156.024 3.91149 156.154 3.50007 156.301 3.08669C158.046 6.95283 159.674 10.8308 161.323 14.7009C161.339 14.7516 161.349 14.8037 161.354 14.8564L151.894 14.8544Z" fill="black"/>
<path d="M65.7493 24.2894C64.4513 21.315 63.1756 18.3327 61.8857 15.3544C59.7507 10.4108 57.6136 5.46857 55.4746 0.527623C55.422 0.407544 55.4099 0.254004 55.2542 0.192981C55.0439 0.115722 54.8113 0.119562 54.6039 0.203716C54.3965 0.287869 54.2299 0.44598 54.1382 0.645734C51.5044 6.75859 48.87 12.8708 46.235 18.9823C45.4627 20.7697 44.6984 22.5611 43.92 24.3446C43.7967 24.628 43.8169 24.7383 44.1647 24.7087C44.476 24.6802 44.7894 24.6802 45.1007 24.7087C45.4707 24.7481 45.6426 24.6162 45.7841 24.2796C46.8577 21.7205 47.9596 19.1733 49.0392 16.6162C49.0723 16.5001 49.1475 16.3997 49.2508 16.3334C49.3542 16.2672 49.4787 16.2397 49.6013 16.256C53.0545 16.2678 56.507 16.2678 59.9589 16.256C60.3087 16.256 60.4421 16.3721 60.5654 16.6674C61.5763 19.0709 62.6135 21.4686 63.6426 23.8662C64.0005 24.7048 64.0025 24.7028 64.9264 24.7028C65.1102 24.692 65.2946 24.692 65.4784 24.7028C65.905 24.7579 65.8929 24.6182 65.7493 24.2894ZM50.2846 14.8544C49.8055 14.8544 49.8055 14.8544 49.9915 14.4095C51.3865 11.1208 52.7788 7.83077 54.1685 4.53943C54.3707 4.07093 54.5162 3.58274 54.6962 3.08077C55.2784 4.27565 59.6071 14.3701 59.7507 14.8544H50.2846Z" fill="black"/>
<path d="M124.581 24.1988C121.174 16.3169 117.771 8.43309 114.373 0.54726C114.206 0.153559 113.969 0.196867 113.652 0.179151C113.522 0.152503 113.388 0.174967 113.275 0.24194C113.162 0.308912 113.08 0.415322 113.045 0.539384C110.413 6.68112 107.772 12.8189 105.124 18.9528C104.347 20.754 103.583 22.5591 102.795 24.3524C102.653 24.6752 102.736 24.7244 103.047 24.7067C103.384 24.6845 103.722 24.6845 104.058 24.7067C104.364 24.7303 104.499 24.6162 104.614 24.3445C105.7 21.7855 106.81 19.2264 107.894 16.6496C107.929 16.5208 108.013 16.4094 108.128 16.3367C108.242 16.2641 108.381 16.2353 108.516 16.2559C111.953 16.2677 115.39 16.2677 118.827 16.2559C118.957 16.2373 119.088 16.2653 119.198 16.3345C119.307 16.4038 119.387 16.5095 119.422 16.6319C120.433 19.0512 121.476 21.4606 122.505 23.8721C122.859 24.7008 122.859 24.7008 123.797 24.7008H124.234C124.8 24.7028 124.8 24.7028 124.581 24.1988ZM118.136 14.8543H108.704C110.302 10.8977 112.113 7.07285 113.585 3.12206C115.273 6.84647 116.846 10.6299 118.47 14.3937C118.67 14.8543 118.67 14.8543 118.136 14.8543Z" fill="black"/>
<path d="M29.1165 12.5414C29.1165 8.63985 29.1165 4.73828 29.1165 0.836708C29.1165 0.498125 29.167 0.364264 29.5693 0.366232C33.1641 0.383293 36.7582 0.383293 40.3516 0.366232C40.6872 0.366232 40.8085 0.448913 40.766 0.775684C40.7236 1.10246 40.9156 1.56309 40.6892 1.75994C40.4991 1.92726 40.0442 1.82096 39.7066 1.82096C36.8761 1.82096 34.0456 1.82096 31.2252 1.82096C30.9118 1.82096 30.8208 1.88592 30.8208 2.20285C30.8343 4.91938 30.8343 7.63526 30.8208 10.3505C30.8208 10.6891 30.93 10.756 31.2535 10.754C33.9667 10.7442 36.682 10.754 39.3952 10.7383C39.7571 10.7383 39.838 10.8328 39.8299 11.1694C39.8057 12.1536 39.8299 12.1536 38.819 12.1536C36.3059 12.1536 33.7908 12.1536 31.2757 12.1536C30.9421 12.1536 30.8188 12.2048 30.8188 12.571C30.835 16.0027 30.835 19.4351 30.8188 22.8682C30.8188 23.2048 30.926 23.2619 31.2454 23.2619C34.3994 23.2521 37.5534 23.2619 40.7074 23.2481C41.0592 23.2481 41.1603 23.3249 41.1522 23.6753C41.1279 24.7048 41.1522 24.7048 40.0928 24.7048C36.6112 24.7048 33.1317 24.7048 29.6502 24.7147C29.2458 24.7147 29.1023 24.6438 29.1063 24.2068C29.1245 20.317 29.1165 16.4292 29.1165 12.5414Z" fill="black"/>
<path d="M123.793 0.378161C124.353 0.378161 124.85 0.39194 125.348 0.378161C125.457 0.362208 125.568 0.386426 125.66 0.446105C125.752 0.505783 125.818 0.596644 125.845 0.700992C127.462 4.42737 129.08 8.1439 130.697 11.8703C132.113 15.1282 133.599 18.3506 134.895 21.6537C134.99 21.8978 135.072 22.1459 135.18 22.4412C135.679 20.7797 136.403 19.2541 137.072 17.7167C139.516 12.0737 141.959 6.43065 144.401 0.787607C144.54 0.464772 144.706 0.344694 145.054 0.37619C145.38 0.398831 145.708 0.398831 146.035 0.37619C146.332 0.358474 146.403 0.415561 146.271 0.708868C145.616 2.15572 144.981 3.61241 144.34 5.06517C141.492 11.531 138.647 18.0041 135.804 24.4845C135.663 24.8112 135.503 24.9352 135.129 24.9234C134.755 24.9116 134.571 24.8447 134.411 24.4786C130.942 16.5849 127.461 8.69574 123.969 0.811228C123.914 0.687212 123.868 0.559263 123.793 0.378161Z" fill="black"/>
</g>
</g>
<defs>
<clipPath id="clip0_1623_138">
<rect width="167" height="25" fill="white" transform="translate(0.5)"/>
</clipPath>
</defs>
</svg>
