<svg width="95" height="44" viewBox="0 0 95 44" fill="none" xmlns="http://www.w3.org/2000/svg">
<g clip-path="url(#clip0_1557_5964)">
<path d="M41.4872 11.2375C41.4233 10.944 41.3394 10.6551 41.236 10.3731C41.1642 10.1887 41.0727 10.0126 40.963 9.8479C40.8357 9.63982 40.638 9.48449 40.4059 9.41023C40.1273 9.36637 39.8436 9.36637 39.5649 9.41023C39.4783 9.43089 39.402 9.48202 39.3499 9.55432C39.2978 9.62663 39.2733 9.71528 39.281 9.80414V19.6517C39.281 19.8487 39.412 20.0128 39.5649 20.0019C39.9228 19.9797 40.2672 19.8571 40.5589 19.6482C40.8505 19.4392 41.0776 19.1523 41.2142 18.8202C41.3537 18.5142 41.4493 18.19 41.4981 17.8573C41.5746 17.4415 41.6401 17.0367 41.6947 16.4786C41.7493 15.9206 41.7712 15.286 41.7603 14.5419C41.7493 13.7979 41.7603 13.2289 41.7603 12.7256C41.7603 12.2223 41.5637 11.5986 41.4872 11.2375ZM14.5319 15.2531C14.3663 15.3151 14.2245 15.4277 14.1264 15.575C14.0284 15.7223 13.9792 15.8969 13.9858 16.0738V21.8839C13.9886 21.969 14.0244 22.0497 14.0855 22.1089C14.1467 22.1681 14.2284 22.2012 14.3134 22.2012C14.7503 22.2012 15.493 21.9495 15.7988 20.549C16.149 19.0935 16.1973 17.5815 15.9408 16.1066C15.6241 14.9249 14.8923 15.0343 14.5319 15.2531ZM54.4734 11.3798C54.3423 11.3798 54.2877 11.4673 54.255 11.8831C54.2222 12.2989 53.1628 23.8096 53.0754 24.2473C53.0734 24.3153 53.0967 24.3816 53.1409 24.4333C53.1943 24.4744 53.2593 24.4974 53.3266 24.4989L55.6093 24.4223C55.6751 24.4117 55.736 24.3811 55.784 24.3348C55.8096 24.3094 55.8289 24.2784 55.8403 24.2442C55.8516 24.21 55.8548 24.1735 55.8496 24.1379C55.8496 24.1379 54.7574 12.3973 54.7574 11.8721C54.7574 11.3469 54.5935 11.3579 54.4734 11.3798ZM26.961 13.4696C26.961 13.2617 26.9064 13.0648 26.7535 13.0648C26.6006 13.0648 26.5569 13.218 26.5242 13.5134C26.4914 13.8088 26.1965 16.3801 25.8798 18.9843C25.6613 20.8225 25.4429 22.42 25.3664 23.0984C25.3625 23.1671 25.3836 23.2349 25.4258 23.2892C25.468 23.3435 25.5284 23.3807 25.5958 23.3938C26.2948 23.4923 26.961 23.547 27.671 23.5908C27.7048 23.5936 27.7388 23.5892 27.7708 23.5779C27.8028 23.5666 27.8321 23.5486 27.8566 23.5251C27.8813 23.5014 27.9001 23.4722 27.9115 23.4399C27.9229 23.4076 27.9265 23.3731 27.9222 23.3391L27.802 22.3762C27.5399 19.5642 26.972 13.6338 26.961 13.4696ZM68.4316 11.8612C68.1246 11.573 67.7483 11.3695 67.3394 11.2703C67.3074 11.2596 67.2732 11.2569 67.2398 11.2624C67.2065 11.2679 67.175 11.2815 67.1481 11.302C67.1211 11.3225 67.0996 11.3492 67.0854 11.38C67.0712 11.4107 67.0646 11.4444 67.0664 11.4782V31.9722C67.0646 32.006 67.0712 32.0397 67.0854 32.0704C67.0996 32.1012 67.1211 32.1279 67.1481 32.1484C67.175 32.1689 67.2065 32.1825 67.2398 32.188C67.2732 32.1935 67.3074 32.1908 67.3394 32.1801C67.7456 32.074 68.1203 31.8713 68.4316 31.5892C68.7158 31.2366 68.9253 30.8296 69.0474 30.3932C69.1694 29.9567 69.2015 29.5 69.1416 29.0507V13.9073C69.1835 13.1582 68.9283 12.4228 68.4316 11.8612Z" fill="black"/>
<path d="M47.2212 0.000289917C21.3253 0.000289917 0.333313 9.84789 0.333313 21.8838C0.333313 33.9198 21.3253 43.7674 47.2212 43.7674C73.1171 43.7674 94.12 33.9745 94.12 21.8838C94.12 9.79318 73.128 0.000289917 47.2212 0.000289917ZM19.7744 21.6759C19.583 22.9331 18.9752 24.0892 18.0487 24.9585C16.9298 25.7357 15.5858 26.1204 14.226 26.0527C14.1507 26.0527 14.0785 26.0826 14.0252 26.136C13.972 26.1893 13.942 26.2617 13.942 26.3371V29.4337C13.9664 29.8909 13.8996 30.3484 13.7455 30.7795C13.6725 31.0003 13.5205 31.1862 13.3189 31.3014C13.1172 31.4166 12.8801 31.4528 12.6533 31.4032C12.3316 31.378 12.0189 31.2848 11.7358 31.1296C11.3251 30.9201 10.9551 30.6384 10.6436 30.2981C10.365 30.0102 10.1493 29.6674 10.0101 29.2914C9.90521 28.9541 9.84283 28.6049 9.82448 28.252V16.413C9.79914 16.0085 9.79914 15.6029 9.82448 15.1984C9.87526 14.7006 10.0317 14.2193 10.2832 13.7869C10.5626 13.4173 10.8894 13.0862 11.2552 12.8022C12.0913 12.0743 13.0117 11.4498 13.9967 10.9421C14.8952 10.4815 15.9378 10.3912 16.9019 10.6904C17.5381 10.9162 18.1111 11.2914 18.5729 11.7846C18.9017 12.2027 19.1667 12.6673 19.3593 13.1632C19.8317 14.3216 20.0907 15.556 20.1239 16.8069C20.2519 18.4383 20.1341 20.0797 19.7744 21.6759ZM31.6465 37.7604C31.3817 37.9771 31.0491 38.0934 30.7072 38.0886H30.3577C30.0316 38.0286 29.7219 37.9 29.4489 37.7115C29.1759 37.5229 28.9459 37.2785 28.774 36.9944C28.4682 36.4782 28.3095 35.8878 28.3153 35.2875V28.5802C28.3126 28.5085 28.283 28.4405 28.2323 28.3898C28.1817 28.3391 28.1138 28.3094 28.0423 28.3067C27.0156 28.2301 26.2838 28.1316 25.3773 27.9894C25.3209 27.9684 25.2589 27.9684 25.2026 27.9894C25.176 28.0096 25.1551 28.0364 25.1417 28.067C25.1283 28.0976 25.123 28.1311 25.1261 28.1644V33.7994C25.1738 34.1994 25.1287 34.605 24.9941 34.9846C24.8596 35.3642 24.6394 35.7075 24.3507 35.9878C24.1353 36.1334 23.8909 36.2304 23.6344 36.272C23.3779 36.3136 23.1155 36.2987 22.8653 36.2285C22.2931 36.0435 21.7999 35.6708 21.465 35.1706C21.1302 34.6703 20.9732 34.0717 21.0195 33.4712V25.3414C21.2925 23.7439 23.2038 11.522 23.2038 11.3469C23.3131 10.7013 23.3786 10.3403 23.4769 9.83695C23.5682 9.35127 23.7148 8.87768 23.9138 8.42546C24.0959 7.99797 24.3509 7.6055 24.6674 7.26563C25.006 6.88498 25.4453 6.60807 25.9343 6.46688C26.3483 6.35789 26.7675 6.27024 27.1904 6.20428C27.7025 6.05857 28.2501 6.10526 28.7304 6.33558C29.1122 6.56385 29.4195 6.89837 29.615 7.29846C29.8201 7.73509 29.9741 8.19405 30.0737 8.66618C30.172 9.14762 30.3468 10.198 30.3468 10.209L32.4438 26.1074V35.6158C32.4677 36.0092 32.4091 36.4033 32.2718 36.7726C32.1345 37.142 31.9215 37.4785 31.6465 37.7604ZM46.7079 36.1082C46.7258 36.6923 46.6217 37.2737 46.402 37.8151C46.2199 38.3243 45.8871 38.7657 45.448 39.0805C45.0089 39.3952 44.4845 39.5683 43.9446 39.5767C43.5106 39.5739 43.0854 39.4534 42.7143 39.228C42.3431 39.0026 42.0399 38.6807 41.8367 38.2965C41.3778 37.3117 41.1606 36.2313 41.2032 35.1453V29.3571C41.2032 28.6568 41.2032 27.9018 41.1267 27.311C41.0943 26.8394 41.0249 26.3711 40.9192 25.9104C40.8362 25.5976 40.6745 25.3112 40.4496 25.0788C40.3331 24.9795 40.1971 24.9057 40.0503 24.8623C39.9036 24.819 39.7494 24.807 39.5977 24.8272C39.5186 24.8378 39.446 24.8771 39.3937 24.9375C39.3415 24.998 39.313 25.0755 39.3137 25.1554V36.6334C39.3137 37.8151 38.6912 39.1937 37.0092 39.0296C36.3316 38.9215 35.7202 38.5597 35.2985 38.0175C34.8768 37.4752 34.6763 36.7928 34.7374 36.1082V8.75371C34.7438 8.14023 34.8059 7.52861 34.9231 6.92643C35.0085 6.40141 35.2141 5.90332 35.5238 5.47118C35.9013 4.96274 36.4614 4.62135 37.0856 4.51924C38.1912 4.31194 39.3139 4.20937 40.4387 4.21287C41.0251 4.20218 41.6078 4.30786 42.1533 4.52382C42.6988 4.73978 43.1962 5.06175 43.617 5.47118C43.992 5.86189 44.3252 6.29097 44.6108 6.75137C44.9737 7.38228 45.2597 8.05453 45.4628 8.75371C45.7291 9.60814 45.9263 10.4827 46.0525 11.3688C46.206 12.5111 46.279 13.6629 46.271 14.8155V15.9096C46.271 16.3582 46.1945 16.8506 46.1181 17.3868C46.0416 17.9229 45.9324 18.481 45.8013 19.0499C45.6692 19.6253 45.4902 20.1889 45.2662 20.735C45.0476 21.2738 44.7653 21.7844 44.4252 22.2559C44.2861 22.456 44.1289 22.6428 43.9555 22.8139C43.9002 22.8711 43.8692 22.9476 43.8692 23.0273C43.8692 23.1069 43.9002 23.1835 43.9555 23.2406C44.0299 23.3277 44.0992 23.419 44.163 23.5142C44.4978 23.9991 44.7694 24.5249 44.9713 25.0788C45.2519 25.7846 45.4569 26.5181 45.5829 27.2672C45.7301 28.5711 45.7921 29.8833 45.7686 31.1953V33.7776C45.774 34.0417 45.7996 34.3051 45.845 34.5654C45.8878 34.7033 45.9597 34.8303 46.0558 34.9379C46.1519 35.0456 46.27 35.1312 46.402 35.189C46.5691 35.2884 46.6907 35.4495 46.7406 35.6377C46.7477 35.7952 46.7367 35.9531 46.7079 36.1082ZM60.3384 36.2285C60.3829 36.8699 60.1818 37.5041 59.776 38.0021C59.3702 38.5001 58.7902 38.8245 58.154 38.9093C57.8988 38.9485 57.6382 38.9327 57.3895 38.8629C57.1409 38.7931 56.91 38.6708 56.7124 38.5044C56.4706 38.247 56.2854 37.9416 56.1688 37.608C56.0521 37.2744 56.0066 36.92 56.0352 36.5677V29.5431C56.0365 29.51 56.0303 29.4771 56.017 29.4468C56.0038 29.4164 55.9839 29.3895 55.9587 29.368C55.9346 29.344 55.9054 29.3256 55.8733 29.3142C55.8412 29.3029 55.8069 29.2988 55.7731 29.3024C54.5935 29.379 54.102 29.379 52.9661 29.3899C52.8956 29.3898 52.8277 29.4172 52.7768 29.4661C52.7259 29.5151 52.6959 29.5819 52.6931 29.6525V36.699C52.6931 38.1652 52.2344 39.3688 50.5961 39.4345H50.4868C49.965 39.4491 49.4585 39.2564 49.0779 38.8983C48.8496 38.658 48.6713 38.3747 48.5532 38.0647C48.435 37.7548 48.3795 37.4245 48.3898 37.0929V26.5779C48.5537 25.2867 48.7393 23.93 48.8813 22.6607C49.0561 21.0742 50.2684 12.0691 50.6507 9.23515C50.7271 8.63335 50.8364 8.0425 50.9347 7.47352C51.0346 6.93783 51.1883 6.41361 51.3934 5.90885C51.576 5.45642 51.86 5.05211 52.2234 4.72714C52.4274 4.55949 52.6634 4.4352 52.9169 4.36184C53.1703 4.28848 53.4361 4.26758 53.6979 4.30041C54.2197 4.28852 54.7416 4.31412 55.2597 4.377C55.7875 4.44639 56.2803 4.67982 56.6687 5.04445C57.0015 5.41517 57.2675 5.84092 57.455 6.30275C57.6581 6.81109 57.8082 7.33911 57.9028 7.87837C58.0011 8.4364 58.0885 8.97255 58.1759 9.61811C59.006 15.5595 60.3603 26.1949 60.3603 26.3043C60.404 27.3547 60.404 36.1738 60.3384 36.1847V36.2285ZM73.2154 30.2981C73.1937 31.9992 72.6356 33.6499 71.6208 35.014C70.7116 36.0006 69.5222 36.6842 68.2132 36.9726C67 37.3779 65.7482 37.6566 64.4779 37.8041C64.0706 37.7692 63.6865 37.5999 63.3857 37.3227C63.0796 37.0256 62.867 36.6452 62.774 36.2285C62.6544 35.6415 62.5922 35.0441 62.5884 34.445V8.98349C62.5991 8.41371 62.6612 7.84608 62.774 7.28751C62.8626 6.86916 63.0759 6.4876 63.3857 6.19334C63.6825 5.90852 64.0682 5.73467 64.4779 5.70096C65.7481 5.8551 66.9995 6.13738 68.2132 6.54347C69.5267 6.82019 70.7194 7.50569 71.6208 8.50205C72.6275 9.83708 73.1858 11.4575 73.2154 13.1304C73.3137 14.2246 73.2919 15.0671 73.2919 16.0409V27.3547C73.2919 28.3176 73.3137 29.1164 73.2154 30.2543V30.2981ZM79.987 19.4985L81.7345 19.7174C82.211 19.7553 82.6593 19.9586 83.0022 20.2921C83.3452 20.6257 83.5612 21.0686 83.6131 21.5446C83.6131 22.8467 82.7939 23.4813 81.4287 23.733L80.0307 24.0065C79.9534 24.0213 79.8833 24.0617 79.8318 24.1212C79.7802 24.1808 79.7503 24.2561 79.7467 24.3348V27.114C79.7444 27.1458 79.7508 27.1776 79.7652 27.206C79.7796 27.2344 79.8014 27.2584 79.8284 27.2753C79.8554 27.2921 79.8864 27.3013 79.9182 27.3018C79.95 27.3024 79.9813 27.2942 80.0088 27.2781C80.544 27.0374 81.9311 26.4247 82.2697 26.3153C82.6578 26.1609 83.0788 26.1082 83.4929 26.1621C83.6698 26.1707 83.8431 26.2149 84.0026 26.292C84.1621 26.369 84.3045 26.4774 84.4213 26.6107C84.6908 26.9102 84.8354 27.3018 84.8254 27.7049C84.8385 28.163 84.7292 28.6163 84.5087 29.0179C84.0631 29.6893 83.464 30.2445 82.7612 30.6373C81.3375 31.6621 79.8241 32.5557 78.2395 33.3071C77.6815 33.5272 77.0609 33.5272 76.5029 33.3071C76.3227 33.2051 76.1643 33.0686 76.0369 32.9052C75.9094 32.7419 75.8154 32.5549 75.7602 32.3551C75.63 31.9376 75.5709 31.5011 75.5855 31.064V12.3864C75.6011 11.9598 75.6708 11.537 75.793 11.1281C75.9041 10.7219 76.1658 10.3736 76.5247 10.1543C76.7367 10.0354 76.9754 9.97302 77.2183 9.97302C77.4611 9.97302 77.6999 10.0354 77.9118 10.1543C79.1685 10.7423 80.3934 11.3961 81.5816 12.1128C81.8547 12.266 82.5864 12.7475 82.8704 12.9444C83.1886 13.1483 83.4915 13.375 83.7769 13.6228C84.0608 13.8727 84.3008 14.1686 84.4868 14.4981C84.697 14.823 84.8002 15.2057 84.7817 15.5923C84.811 15.9868 84.69 16.3778 84.4432 16.6865C84.1815 16.9794 83.8397 17.1887 83.4602 17.2883C83.1398 17.3575 82.8085 17.3575 82.4881 17.2883C81.9093 17.1461 80.5113 16.7193 79.9761 16.5552C79.9449 16.5448 79.9117 16.542 79.8793 16.5469C79.8468 16.5519 79.816 16.5645 79.7893 16.5837C79.7626 16.603 79.7409 16.6283 79.7259 16.6575C79.7109 16.6868 79.7031 16.7192 79.703 16.7522V19.1484C79.7074 19.2246 79.7382 19.2968 79.79 19.3527C79.8419 19.4086 79.9115 19.4447 79.987 19.4548V19.4985Z" fill="black"/>
</g>
<defs>
<clipPath id="clip0_1557_5964">
<rect width="93.7867" height="43.7671" fill="white" transform="translate(0.333313 0.000289917)"/>
</clipPath>
</defs>
</svg>
