<svg width="119" height="31" viewBox="0 0 119 31" fill="none" xmlns="http://www.w3.org/2000/svg">
<g clip-path="url(#clip0_1623_136)">
<path d="M4.99509 10.3607C5.20747 10.5805 5.35774 10.8527 5.43054 11.1494L5.55377 11.5015C5.48358 11.5417 5.41821 11.5897 5.35893 11.6448C5.2667 11.6882 5.1819 11.746 5.1078 11.8161C4.3786 12.1001 3.66413 12.4205 2.96707 12.7761C3.51397 13.8137 4.10081 14.823 4.67121 15.8475C4.71112 15.8581 4.73576 15.9074 4.77919 15.9802L4.8496 16.2313C5.3883 17.0294 5.71924 18.0399 6.3354 18.7781C6.36124 18.8274 6.36124 18.8955 6.4164 18.9248C6.42932 18.9495 6.43051 19.0141 6.47042 19.0234C6.51021 19.0872 6.54664 19.153 6.57953 19.2206C6.62063 19.2312 6.60771 19.338 6.70277 19.4401L7.04668 19.25C7.36806 19.021 7.70893 18.8207 8.06539 18.6514C8.42922 18.5763 8.76955 18.1714 8.97378 18.7277C9.17041 18.9801 9.33479 19.2561 9.46318 19.5492C9.85872 20.7135 8.34236 20.2699 8.08297 20.9905C7.66398 21.4458 8.08297 21.3309 8.09236 21.7557C9.07236 23.5162 9.99135 25.3048 10.9666 27.0676C11.3127 27.8897 11.7384 28.6759 12.2377 29.4149C11.9278 29.9055 11.1814 30.0464 10.746 30.4055L10.5946 30.3574H10.4878C10.4822 30.3431 10.4734 30.3303 10.4619 30.3201C10.4505 30.31 10.4368 30.3026 10.4221 30.2987C10.3798 30.2165 10.3364 30.1344 10.293 30.0534C10.1954 29.6867 10.0367 29.3391 9.82349 29.0253C9.64217 28.5163 9.38327 28.0385 9.05592 27.6087C8.70386 26.989 8.38579 26.3482 8.03954 25.7226C7.41361 24.5951 6.78767 23.4688 6.16174 22.3437C4.82143 19.926 3.48932 17.5094 2.14434 15.0964C1.95184 14.6216 1.70912 14.1687 1.4202 13.7456C1.30283 13.5331 0.412028 12.3454 0.507085 12.0825C0.706592 11.5379 2.43538 11.2774 2.8262 10.8912L3.06094 10.7621C3.59263 10.6174 4.10174 10.3997 4.57377 10.1155C4.69114 10.0814 4.84021 10.16 4.98923 10.3666L4.99509 10.3607ZM19.438 6.18022C19.8335 7.65434 20.1962 9.13666 20.5882 10.6119C21.087 11.6107 21.0318 12.85 21.5177 13.8547C21.5884 14.0691 21.6371 14.2901 21.6632 14.5143C22.2501 16.2748 22.6691 18.1092 23.189 19.8931C23.3004 20.1417 23.3793 20.4036 23.4237 20.6724C24.0681 21.5761 24.0833 23.1089 25.5985 22.826C27.1395 22.5385 27.2076 20.8696 27.0069 19.6349C26.6759 17.6397 26.1161 15.6844 25.6525 13.7221C24.9002 10.5297 24.0282 7.36092 23.2007 4.18971C23.3427 3.95502 24.1009 3.93385 24.3121 3.89395C24.503 3.79514 24.7126 3.73792 24.9272 3.72614C25.2912 4.61255 25.5893 5.52458 25.8191 6.45486C25.9593 7.51667 26.2354 8.556 26.6407 9.5474C26.9048 11.5145 27.6348 13.5378 28.0937 15.4732C28.2093 15.7903 28.2966 16.117 28.3542 16.4496C28.1934 18.4683 29.8351 20.6747 28.5009 22.6347C28.4821 22.8695 28.1735 23.0984 28.0901 23.326C27.5994 23.9921 26.8923 24.4668 26.0901 24.6689C25.2878 24.8711 24.4403 24.788 23.6925 24.4339C22.4977 23.6277 21.8452 21.8191 21.3722 20.5187C20.7536 18.8145 20.3253 17.0458 19.8582 15.2948L18.4357 9.94175C18.0988 8.93547 17.8245 7.90933 17.6141 6.86918C17.5672 6.8251 17.5336 6.76869 17.5172 6.70643C17.5008 6.64416 17.5023 6.57852 17.5215 6.51707C17.4836 6.41001 17.4641 6.29731 17.4639 6.18374C17.4254 6.1401 17.4002 6.08635 17.3912 6.02881C16.9628 5.44201 18.4639 5.37041 18.7397 5.44201C18.8746 5.37394 19.1763 5.31058 19.2291 5.51476C19.3188 5.7324 19.3895 5.95742 19.4404 6.18727L19.438 6.18022ZM34.2926 2.90108C35.0342 4.51967 35.462 6.26387 35.5543 8.04163C35.7894 10.1542 35.7248 12.917 34.1672 14.5354C35.3713 14.9192 36.2796 15.1457 36.8035 16.4367C37.4815 18.0725 37.8398 19.8231 37.8593 21.5937C37.8805 21.7443 37.9267 21.8902 37.9956 22.0256C37.7426 22.2031 37.456 22.3283 37.1542 22.394C36.8518 22.4597 36.5396 22.4645 36.2351 22.4082C35.93 22.1935 35.9463 20.8567 35.8713 20.4424C35.7389 19.286 35.4349 18.1559 34.9691 17.0893C34.734 16.6515 32.7096 15.222 32.6754 16.0506C32.8225 16.8569 32.9441 17.669 33.0956 18.4777C33.3915 19.4708 33.5717 20.4948 33.632 21.5292C33.6461 21.8107 33.7058 22.0881 33.8084 22.3508C33.8209 22.4329 33.835 22.5162 33.8502 22.5984C33.6765 22.7966 33.461 22.9539 33.2188 23.059C32.9773 23.1641 32.7151 23.2145 32.4512 23.2063C31.6765 23.2732 31.7134 23.0631 31.5902 22.3378C31.4268 21.3836 31.3025 20.4224 31.1651 19.4659C31.0034 18.3404 30.8801 17.2125 30.6842 16.0929C30.4274 15.2194 30.2911 14.3153 30.2781 13.4052L30.2097 13.0156C30.1326 12.8416 30.0995 12.6514 30.1136 12.4616C29.6391 10.4068 29.307 8.32175 29.1194 6.22131C29.0072 5.91144 28.9407 5.5868 28.9222 5.25776C28.826 4.78122 28.2591 2.62411 28.7215 2.3518C29.2019 2.24339 29.6701 2.08606 30.1179 1.88232C30.4627 1.87917 30.8052 1.82863 31.1358 1.73211C31.3486 1.71121 31.5625 1.70257 31.7764 1.70627C32.2693 1.61718 32.7775 1.68422 33.2302 1.89801C33.683 2.11179 34.0581 2.46162 34.3024 2.89869L34.2926 2.90108ZM30.4713 3.70855C30.6852 5.50895 31.0381 7.29002 31.5278 9.03569C31.7721 10.4206 32.1146 11.8161 32.3155 13.2045C32.3665 13.2933 32.423 13.3791 32.4843 13.4615L32.6135 13.4956C34.1944 12.5731 33.9316 9.57911 33.7329 8.09679C33.5723 6.89497 33.2411 3.01845 31.3541 3.27664C31.2205 3.26389 31.0864 3.25878 30.9529 3.26139C30.9198 3.30482 30.6956 3.4128 30.632 3.37876C30.5788 3.41589 30.5359 3.4667 30.5083 3.52593C30.4811 3.5851 30.4697 3.65063 30.4762 3.71556L30.4713 3.70855ZM49.5106 0.483328C49.687 0.60781 49.8157 0.788751 49.8754 0.996238C50.0127 1.19889 50.118 1.42185 50.1864 1.65697C50.3037 1.92461 50.3319 2.22151 50.4492 2.48795C50.631 3.32442 50.732 4.17657 50.7499 5.03241C50.7103 5.0911 50.6924 5.16156 50.6995 5.23192C50.7109 5.2424 50.7201 5.25526 50.7261 5.26965C50.732 5.28409 50.7353 5.29962 50.7342 5.31525C50.4448 5.61921 49.5974 5.48311 49.2543 5.4596C49.0415 5.39875 48.8542 5.27122 48.7196 5.09577C48.5231 4.28476 48.8482 1.46805 47.3955 1.6922C47.3608 1.71598 47.3201 1.72831 47.2783 1.72744C45.1502 2.3999 46.2701 5.26829 47.0307 6.53938C48.187 8.27235 49.2505 10.0659 50.2158 11.9123C50.2364 12.1011 50.276 12.2875 50.333 12.4686C50.4481 12.5851 50.5388 12.7231 50.6006 12.8747C50.6392 13.0132 50.7499 13.3442 50.9351 13.8958C50.9351 14.7737 51.3493 15.7138 51.4247 16.6046C51.5811 17.7826 51.4237 18.9811 50.9682 20.0785C50.8922 20.3201 50.7467 20.534 50.5502 20.6935C50.5246 20.7792 50.3509 20.9283 50.061 21.1454C49.7809 21.283 49.4747 21.3587 49.1631 21.3672C49.016 21.4133 48.8602 21.4221 48.7087 21.393C48.1773 21.4796 47.6327 21.452 47.1127 21.3122C46.5926 21.1724 46.1078 20.9235 45.6914 20.5821C45.1453 19.4992 44.9347 18.2784 45.0856 17.0752C45.0025 16.8608 44.9884 16.6255 45.0459 16.4027C45.002 16.3267 44.9765 16.2414 44.9716 16.1538C44.9661 16.0662 44.9819 15.9786 45.0166 15.898C44.9097 15.8076 45.0389 15.5964 44.9319 15.5083C44.9591 15.4227 45.1361 15.3546 45.465 15.249C45.5161 15.2454 45.566 15.2327 45.6127 15.2114C45.8695 15.1927 46.6816 15.134 46.7804 15.4227C46.8673 16.6292 46.6784 18.3146 47.3944 19.365C48.2332 20.5973 49.5583 19.3802 49.4622 18.1632C50.0399 14.465 47.5681 11.0333 45.8863 8.00053C45.0411 6.47483 44.0367 4.72607 44.217 2.921C44.2381 2.32927 44.4455 1.75936 44.8103 1.29297C45.1751 0.826587 45.6784 0.48767 46.2479 0.324916C47.1865 0.0362143 48.7299 -0.2995 49.5106 0.485716V0.483328ZM55.2906 2.51846C55.2998 4.25078 55.3997 5.98538 55.4219 7.71889C55.4339 8.58738 55.4409 9.45588 55.4583 10.3244C55.4675 10.8126 55.5066 11.2985 55.5088 11.7867C55.4073 12.3718 55.4051 12.9698 55.5028 13.5554C55.537 15.9614 55.5886 18.3673 55.5674 20.7734C55.3926 21.3391 54.5479 21.1771 54.0267 21.1008C53.2835 20.825 53.4763 20.3814 53.4725 19.6924L53.4573 16.5013C53.448 14.6008 53.4399 12.6995 53.4328 10.7974C53.4247 9.23639 53.3845 7.66726 53.4008 6.10275C53.4106 5.22725 53.4008 4.35756 53.3764 3.48082C53.2206 2.45234 53.2341 1.4054 53.416 0.381268C53.3894 0.338652 53.3552 0.301247 53.3156 0.270901C53.3156 0.220467 53.7287 0.233388 53.7998 0.239251C54.1098 0.177797 54.4279 0.173019 54.739 0.225136C55.5712 0.212215 55.2775 1.95273 55.2846 2.5208L55.2906 2.51846ZM65.2382 5.52887C65.2312 5.71193 65.3088 6.20253 65.1785 6.37152C65.1758 6.38678 65.1682 6.40057 65.1562 6.4105C65.1443 6.42038 65.1296 6.4257 65.1139 6.42554C65.0824 6.45133 65.052 6.45133 64.9614 6.44666C64.8995 6.47364 64.8441 6.47011 64.7773 6.49595C64.3007 6.40556 63.5097 6.29878 63.3349 5.88565C63.2963 5.62925 63.2963 5.36862 63.3349 5.11222C63.3067 3.76485 63.3056 2.13117 61.5591 2.16282C59.551 2.19806 59.7986 4.61695 59.7047 6.03587C59.5158 8.97939 59.4007 11.9405 59.4229 14.8898C59.3388 16.0021 59.4805 17.12 59.8399 18.1761C60.146 18.8556 61.5439 20.3133 62.4066 19.2781C62.4066 19.1748 62.6796 18.9483 62.7584 18.8697C63.3137 17.7948 63.507 16.5694 63.3099 15.3758C63.3099 15.2584 63.3181 15.1809 63.2877 15.1492C62.57 15.3046 61.8317 15.3441 61.1015 15.2666C61.0885 15.2769 61.0738 15.2844 61.0581 15.2886C61.0423 15.2928 61.026 15.2937 61.0098 15.2913C61.0098 15.2631 60.9794 15.2619 60.9522 15.2326C60.8539 14.894 60.8355 14.5371 60.8995 14.1904C60.6542 13.0601 62.425 13.458 63.1693 13.4627C63.7958 13.4627 64.419 13.5413 65.0471 13.5589C65.1079 13.5894 65.1318 13.7596 65.1492 14.1258C65.3799 15.52 65.3023 16.9476 64.9228 18.3087C64.7811 19.1615 64.4006 19.9565 63.824 20.6008C63.039 21.3801 62.2513 21.1348 61.3045 21.3848H61.1813C61.0635 21.4834 60.456 21.3003 60.3382 21.2992C58.2916 20.69 57.8057 18.7863 57.6765 16.8475C57.752 15.5917 57.6765 14.3054 57.721 13.0425C57.8394 11.6623 57.8589 10.2756 57.7813 8.89253C57.7948 8.7427 57.7905 8.59178 57.7682 8.44303C57.8399 6.45838 57.5815 4.05008 58.3301 2.19686C58.7395 1.34759 59.4598 0.688534 60.342 0.356566C61.2247 0.0245968 62.2008 0.0451733 63.0683 0.414112C65.1807 1.22745 65.1622 3.62989 65.2431 5.52887H65.2382ZM71.7136 1.61707C71.7136 2.61352 71.8825 3.64634 71.9693 4.63921C72.1751 5.67073 72.2929 6.71788 72.3211 7.76932C72.3439 7.89277 72.3597 8.01736 72.3683 8.14255C72.4015 8.25465 72.4188 8.37077 72.4199 8.4876C72.4786 8.74699 72.5269 8.86903 72.5231 8.8972C72.6539 9.15339 72.7332 9.43237 72.7581 9.71879L72.8939 9.33851C72.9693 9.23536 73.0155 9.11365 73.0269 8.9864C73.7766 7.29284 74.4432 6.04292 75.1642 4.34584C75.7662 3.48674 75.8824 2.3037 76.5724 1.45746C76.6245 1.30899 76.7059 1.17246 76.8118 1.05606C76.9795 0.94461 77.3525 1.10655 77.5403 1.08663C77.7336 1.09553 77.9241 1.13516 78.1049 1.20394C78.1321 1.23565 78.1929 1.2439 78.2493 1.27788L78.3666 1.292C78.435 1.31854 78.4931 1.36572 78.5332 1.42696C78.5604 1.45866 78.5604 1.45866 78.5571 1.48683C78.6331 1.57717 78.5018 2.13351 78.4676 2.21212C78.5007 3.35916 78.4171 4.50658 78.2189 5.63685C78.2406 6.72597 78.1326 7.81384 77.8959 8.87728C77.6907 10.6565 77.4269 12.4311 77.2379 14.2103C77.1332 15.195 76.9785 16.1762 76.853 17.1597C76.7472 17.9813 76.618 18.8028 76.4817 19.6161C76.4345 20.48 76.2678 21.3331 75.9866 22.1512C75.9741 22.2615 75.7874 22.2955 75.4258 22.2533C75.2716 22.2686 74.3249 22.2991 74.2288 22.0549C74.244 21.9693 74.2988 21.69 74.2472 21.6325C74.5616 18.9882 75.137 16.3828 75.4209 13.7362C75.6788 12.52 75.8357 11.2847 75.8905 10.0427C76.0208 8.93949 76.0702 7.8304 76.1918 6.72716L76.0523 6.87971C75.871 7.19284 75.7287 7.52709 75.6289 7.87497C75.2385 8.46247 74.9362 9.10377 74.7309 9.77862C74.3938 10.5251 73.9807 11.2328 73.6322 11.971C73.3211 12.633 73.1935 14.066 72.6371 14.5437C71.9948 15.0964 71.4503 13.8664 71.5035 13.2984C71.4645 13.1935 71.4362 13.085 71.4189 12.9745L71.3906 12.6893C71.3906 12.6611 71.3483 12.5414 71.313 12.3114C71.0264 11.3026 70.8401 10.2679 70.7571 9.22233C70.5855 8.12029 70.4151 7.02406 70.211 5.92789C69.9379 8.21415 69.7039 10.5051 69.433 12.7879C69.2332 14.4709 69.0047 16.1562 68.7756 17.8345C68.7159 18.8851 68.5715 19.9291 68.344 20.9564C68.2067 21.386 68.2995 21.3543 67.8006 21.4259C67.5373 21.4712 67.2664 21.449 67.014 21.3614C66.6937 21.244 66.5531 21.1372 66.533 21.0504L66.5493 20.9095C66.4814 19.9343 66.5764 18.9546 66.8299 18.0106C66.9472 16.9414 67.1421 15.8347 67.1573 14.7596C67.5406 12.7277 67.8212 10.6779 67.9987 8.61789C68.1654 7.47948 68.3288 6.34101 68.5047 5.20374C68.6996 3.94443 69.142 2.62172 69.2626 1.37299C69.5069 1.1946 69.2626 0.752106 69.5682 0.560797C70.0524 0.490331 70.5465 0.5292 71.0139 0.674636C71.705 0.857749 71.6252 0.976259 71.718 1.62179L71.7136 1.61707ZM84.5928 21.7569C84.5928 21.1066 85.2866 18.6772 84.8029 18.2101C84.6949 18.1815 84.5831 18.1669 84.4707 18.1667C83.8773 18.0387 83.2975 17.8791 82.6998 17.7547C82.5136 17.6768 82.3149 17.6338 82.113 17.628C81.848 17.5681 81.3915 17.4097 81.1353 17.5611C80.3454 19.2957 79.9018 21.1677 79.0826 22.8941C78.7309 22.9047 77.1885 22.6852 77.1885 22.3414C77.2662 22.1066 77.3693 21.8848 77.4584 21.6536C78.1603 20.2323 78.7108 18.7415 79.1016 17.2055C79.4008 16.3769 79.7292 15.5624 80.0403 14.7326C80.9062 12.8106 81.6238 10.8252 82.1868 8.79395C82.4886 8.08973 82.7541 7.37031 83.0836 6.6814C83.3334 5.8819 83.6428 5.10239 84.0098 4.34937C84.1417 3.8212 84.3491 3.31481 84.6259 2.84593C84.7296 2.83111 84.835 2.85445 84.9229 2.91161C85.0309 2.93626 85.139 2.95977 85.2481 2.98202C85.9522 2.68979 87.6563 3.38815 88.2686 3.77897C88.2111 6.72244 87.7936 9.66125 87.4473 12.5813C87.2562 14.197 87.0998 15.8151 86.9777 17.4355C86.7497 19.0067 86.6145 20.5899 86.5727 22.177C86.4044 22.9234 86.3224 23.6865 86.3279 24.4516C85.6574 24.5625 84.9701 24.4139 84.405 24.0361C84.3996 23.6323 84.5309 22.454 84.5907 21.7475L84.5928 21.7569ZM84.0733 15.7267C84.4653 15.8253 84.8686 15.8675 85.2676 15.9309C85.8154 12.3762 86.146 8.79156 86.2584 5.19669C86.2367 5.15619 86.2003 5.12552 86.1569 5.11091C86.1129 5.09631 86.0657 5.09886 86.0239 5.11808C85.9392 5.11439 85.8577 5.0867 85.7888 5.03828C85.1205 6.4693 84.5326 7.93669 84.0282 9.43356C83.4311 11.3584 82.5239 13.2644 82.0956 15.2255C82.3627 15.3539 82.6428 15.4526 82.9311 15.5201C83.3203 15.5297 83.7052 15.5994 84.0733 15.7267ZM96.2706 5.95253L97.4916 6.33043C97.7896 6.42201 98.7016 6.52999 98.909 6.7682C98.9904 7.01853 99.0094 7.28481 98.9644 7.54408C98.9199 7.80336 98.8124 8.04787 98.6522 8.25639C98.2141 8.58032 96.6333 7.84212 96.0513 7.67899C95.2614 10.2493 94.4444 12.8195 93.5763 15.3652C93.1431 16.6328 92.7039 17.8991 92.2848 19.1725C91.9776 20.1114 91.6774 21.0504 91.3837 21.9893C91.2474 22.4235 91.1019 23.6676 90.7192 24.0279C90.6823 24.1545 90.6334 24.2774 90.5737 24.3952C90.5384 24.5415 90.4841 24.6827 90.413 24.8154C90.3929 24.9492 90.4027 25.1956 90.2957 25.3083C90.2664 25.4272 90.2208 25.5415 90.1595 25.6475C90.0694 26.2519 88.9342 25.8905 88.6259 25.6627C87.9109 25.1358 88.6888 24.7109 88.7513 23.9504C88.8669 23.5748 88.9842 23.1989 89.103 22.8225C89.4174 22.2128 89.64 21.5604 89.7643 20.886L90.4249 18.7464C90.9602 17.0247 91.5737 15.3335 92.1041 13.6141C92.7756 11.437 93.4656 9.28568 94.1431 7.11912L91.1725 6.26002C90.7946 6.06171 91.3272 4.63687 91.6866 4.59344C91.8283 4.67585 91.9868 4.72482 92.1502 4.73665L92.5536 4.86103C92.7235 4.9537 92.9097 5.01157 93.1019 5.03122C94.1431 5.35988 95.2088 5.64738 96.2706 5.95253ZM102.438 10.1272C101.746 11.7104 101.196 13.37 100.547 14.9755C100.223 15.7807 99.8976 16.5858 99.5724 17.3909C99.4313 17.7398 99.2945 18.0892 99.1615 18.439C98.9524 18.9964 98.3634 19.7922 98.3634 20.3896C97.8292 21.7119 97.2945 23.0346 96.7603 24.3577C96.49 25.4432 96.0502 26.4793 95.4574 27.428C95.3293 27.7495 95.136 27.6626 94.8049 27.5876C94.6382 27.2554 93.838 27.3657 93.73 26.9326C93.7099 26.854 93.8472 26.6862 93.8565 26.6076C94.0362 25.9888 94.2718 25.3878 94.5606 24.8119L96.6067 19.6197C97.5138 17.3181 98.4655 15.0425 99.3916 12.7445C99.6837 12.0203 100.003 11.3079 100.295 10.5826C100.483 10.119 100.689 9.66477 100.882 9.20355C100.951 9.03808 101.159 8.21296 101.308 8.15428C101.296 8.13137 101.292 8.10514 101.297 8.07968C101.301 8.05422 101.313 8.03093 101.333 8.01345C101.499 7.9836 101.671 8.02067 101.81 8.11676C102.152 8.171 102.475 8.30932 102.749 8.51931C103.102 8.94183 102.638 9.62607 102.438 10.1201V10.1272ZM100.598 20.9177C101.53 18.7911 102.548 16.6398 103.687 14.6187C104.197 13.634 104.792 12.6958 105.466 11.8149C105.933 11.1295 106.584 10.5896 107.344 10.2575C107.674 10.1481 108.024 10.1124 108.37 10.153C108.58 10.1742 108.977 10.3772 109.17 10.3244C109.452 10.4299 109.701 10.6066 109.895 10.8373C110.35 11.226 110.695 11.7274 110.897 12.2915C111.098 12.8557 111.147 13.4627 111.04 14.0519C110.952 14.6629 110.764 15.2553 110.484 15.8053C110.426 15.9285 110.122 16.3722 110.172 16.5201C109.925 17.0247 108.567 16.5435 108.395 16.0506C108.976 15.178 109.27 14.1457 109.237 13.0977C109.135 12.4534 108.768 11.8724 108.02 11.9698C107.305 12.0626 106.713 12.9909 106.364 13.5402C105.937 14.0858 105.602 14.697 105.37 15.3499C104.901 16.2407 104.454 17.1362 104.016 18.0493C102.902 20.352 101.903 22.785 100.659 25.0149C100.36 25.7002 100.168 26.428 100.092 27.1721C100.11 27.4024 100.198 27.6216 100.345 27.8C100.492 27.9783 100.69 28.1071 100.913 28.1688C101.135 28.2304 101.372 28.2221 101.59 28.1447C101.807 28.0674 101.996 27.9249 102.129 27.7366C102.305 27.5868 102.449 27.4042 102.554 27.1991C102.725 26.9863 102.863 26.7489 102.963 26.4949C103.362 26.124 103.397 25.252 103.881 24.9797C104.364 24.7074 105.086 25.2802 105.465 25.5912C105.04 26.4673 104.562 27.317 104.034 28.1356C103.458 28.9572 102.085 30.6425 100.933 30.1836C100.1 30.0241 99.3629 29.5432 98.8808 28.8445C98.6028 28.3781 98.4226 27.8599 98.3515 27.3215C98.2804 26.7831 98.32 26.2358 98.4677 25.7132C99.0333 24.0512 99.7483 22.4438 100.604 20.9107L100.598 20.9177ZM20.7314 24.2825C20.6762 24.0654 20.6328 23.8753 20.614 23.7344C20.23 22.9669 19.9766 22.1407 19.864 21.2898C19.8138 21.1375 19.7341 20.9968 19.6293 20.8754C19.2152 19.4754 18.7119 18.1033 18.1224 16.7677C17.6655 15.9138 17.3245 15.0029 17.1083 14.0589C17.0663 13.9182 17.0022 13.7851 16.9182 13.6646C16.8847 13.5872 16.8626 13.5054 16.8525 13.4216C16.7829 13.1886 16.6742 12.9691 16.5309 12.7726C15.9431 10.8929 14.7827 9.24372 13.2118 8.05569L13.8784 7.80808C13.9796 7.73311 14.0891 7.67014 14.2047 7.6203C14.3418 7.51938 14.4438 7.37796 14.4963 7.21602C14.5487 7.05408 14.5491 6.87977 14.4972 6.71761C14.4454 6.55545 14.344 6.41365 14.2073 6.31219C14.0706 6.21073 13.9055 6.1547 13.7353 6.15204C12.5992 6.48303 11.557 7.04404 10.4584 7.47009C7.75904 8.72234 9.30005 11.8513 9.6369 13.8841C10.4584 15.9156 10.8598 18.1209 11.7389 20.1337C12.0276 20.7933 12.3257 21.4247 12.5874 22.0996C12.8105 22.6618 13.0193 23.2321 13.2693 23.7826C13.605 24.5208 14.1695 25.2004 14.443 25.955C14.9482 26.7517 15.7099 27.3524 16.6025 27.658C17.4335 27.6751 18.2589 27.5188 19.0261 27.1991C19.9368 26.7484 21.1445 25.4362 20.7314 24.2825ZM18.4592 25.279C17.8348 26.2801 16.6271 25.7485 16.0262 25.0795C15.6212 24.5858 15.2968 24.0313 15.065 23.4363C14.504 22.19 13.9876 20.913 13.5029 19.6349C12.706 17.5306 12.1497 15.3288 11.3117 13.2444C11.3856 13.0977 11.2366 12.7879 11.1685 12.6435C10.9983 12.4604 10.9925 12.0308 10.9338 11.8138C11.0054 11.6611 10.8164 11.315 10.8012 11.1518C10.7438 10.7909 10.7716 10.4215 10.8822 10.0732C10.888 9.92297 11.0124 9.75283 11.2776 9.52748C11.5334 9.4587 11.8034 9.46483 12.0558 9.54507C12.175 9.5511 12.2875 9.60229 12.3703 9.68828C14.5169 10.8549 15.349 14.3829 16.1694 16.5119C16.7711 18.0767 17.3786 19.6416 17.9921 21.2064C18.4803 22.454 19.1904 23.9985 18.4557 25.2825L18.4592 25.279ZM116.056 14.2467C116.08 13.7866 116.015 13.3793 115.532 13.2104C115.664 13.1501 115.777 13.0556 115.86 12.9367C115.943 12.8177 115.992 12.6788 116.002 12.5344C115.98 12.0649 116.119 11.4687 115.462 11.3607C115.419 11.3501 115.376 11.3419 115.332 11.3337C115.261 11.3333 115.19 11.3246 115.122 11.3079C114.841 11.3337 114.705 11.3267 114.777 11.7081C114.767 11.7546 114.77 11.803 114.786 11.8478C114.771 12.1445 114.771 12.4418 114.786 12.7386C114.777 12.7643 114.777 12.7926 114.786 12.8184V12.8736C114.692 13.3311 114.687 13.8027 114.773 14.262C114.754 14.2127 115.205 14.3993 115.205 14.2937V14.2831V14.2479C115.194 14.2097 115.192 14.1697 115.198 14.1305C115.202 14.121 115.205 14.1109 115.205 14.1006C115.205 14.0903 115.202 14.0801 115.198 14.0706C115.182 13.819 115.182 13.5665 115.198 13.3148C115.363 13.3476 115.509 13.4431 115.605 13.5812C115.68 13.816 115.575 14.6375 116.063 14.4028C116.054 14.3826 116.049 14.3605 116.049 14.3382C116.056 14.3102 116.058 14.2813 116.056 14.2526V14.2467ZM115.442 12.8829C115.392 12.9425 115.323 12.9838 115.247 13.0003L115.223 12.9897C115.213 12.9765 115.204 12.9624 115.197 12.9475C115.198 12.9141 115.195 12.8806 115.189 12.8477C115.169 12.6752 115.05 11.5567 115.167 11.5368C115.167 11.5368 115.186 11.5368 115.191 11.5368C115.198 11.5397 115.206 11.5411 115.213 11.5411C115.22 11.5411 115.228 11.5397 115.234 11.5368C115.252 11.5426 115.284 11.5473 115.315 11.5579C115.824 11.6342 115.667 12.6188 115.442 12.8888V12.8829ZM115.377 10.4006C112.163 10.4006 112.164 15.3851 115.377 15.3851C118.589 15.3851 118.593 10.41 115.377 10.4065V10.4006ZM113.53 11.9581C113.524 12.0017 113.506 12.0426 113.477 12.0755C113.492 12.0348 113.511 11.9955 113.534 11.9581H113.53ZM115.377 14.9603C115.05 14.9597 114.728 14.8817 114.437 14.7326C114.244 14.4864 114.002 14.2824 113.726 14.1329C113.522 13.8603 113.387 13.5414 113.335 13.2044C113.283 12.8673 113.315 12.5227 113.428 12.201L113.743 11.6635C113.708 11.6962 113.675 11.7306 113.643 11.7668C113.696 11.6843 113.756 11.6059 113.82 11.5321L113.743 11.6611C113.836 11.5806 113.914 11.483 113.972 11.3736C114.332 11.0371 114.8 10.8403 115.292 10.8188C115.785 10.7973 116.269 10.9524 116.657 11.2563C116.681 11.3259 116.721 11.3888 116.775 11.44C116.827 11.4912 116.892 11.5291 116.962 11.5508C117.214 11.8541 117.375 12.2227 117.427 12.6138C117.477 13.0049 117.416 13.4025 117.25 13.7602C117.084 14.118 116.82 14.4212 116.488 14.6347C116.156 14.8482 115.771 14.9631 115.377 14.9661V14.9603Z" fill="black"/>
</g>
<defs>
<clipPath id="clip0_1623_136">
<rect width="118" height="31" fill="white" transform="translate(0.5)"/>
</clipPath>
</defs>
</svg>
