<svg width="200" height="80" viewBox="0 0 200 80" fill="none" xmlns="http://www.w3.org/2000/svg">
<mask id="mask0_1673_82" style="mask-type:luminance" maskUnits="userSpaceOnUse" x="14" y="29" width="172" height="22">
<path d="M185.5 29.9759H14.5V50.0241H185.5V29.9759Z" fill="white"/>
</mask>
<g mask="url(#mask0_1673_82)">
<mask id="mask1_1673_82" style="mask-type:luminance" maskUnits="userSpaceOnUse" x="14" y="29" width="171" height="22">
<path d="M184.998 29.9759H14.5874V50.0241H184.998V29.9759Z" fill="white"/>
</mask>
<g mask="url(#mask1_1673_82)">
<path d="M127.02 38.8107C126.941 34.6201 130.265 31.3823 134.111 31.4426C136.895 31.4426 139.137 32.9002 140.117 35.1055L138.395 36.3612C137.414 34.3578 136.032 33.4474 134.049 33.4474C131.406 33.4474 129.223 35.6527 129.223 38.8107C129.223 41.9068 131.307 44.1755 134.049 44.1755C135.991 44.1755 137.473 43.2032 138.496 41.2391L140.178 42.4329C139.356 43.7293 138.496 44.6804 137.573 45.2668C136.632 45.8743 135.451 46.1788 134.008 46.1788C130.065 46.2391 126.941 43.0404 127.02 38.8107ZM141.052 43.0615C141.052 41.1772 142.495 40.107 144.518 39.7829L147.682 39.2764V38.871C147.682 37.7163 146.961 37.1103 145.62 37.1103C144.317 37.1103 143.536 37.6982 143.536 38.4866C143.536 38.5876 143.556 38.669 143.576 38.7489L141.754 39.3774C141.648 39.1133 141.594 38.8314 141.592 38.5469C141.592 36.9671 143.173 35.5713 145.618 35.5713C148.281 35.5713 149.764 36.7863 149.764 39.0534V43.4052C149.764 44.5388 149.924 45.1462 150.404 45.8954H149.54C149.071 45.8962 148.621 45.7116 148.288 45.3819C147.955 45.0522 147.765 44.6039 147.76 44.1348V44.1137C147.139 45.41 145.838 46.1788 144.376 46.1788C142.394 46.1788 141.052 44.9231 141.052 43.0615ZM147.682 41.0778V40.7959L144.978 41.2617C143.758 41.4833 143.075 42.0501 143.075 42.962C143.075 43.8725 143.758 44.4393 144.819 44.4393C146.52 44.4393 147.682 43.0404 147.682 41.0778ZM151.232 35.8547H153.314V37.4947C153.955 36.3823 155.316 35.5728 156.839 35.5728C159.422 35.5728 161.444 37.6982 161.444 40.8758C161.444 43.972 159.361 46.1803 156.678 46.1803C155.236 46.1803 154.035 45.5321 153.314 44.48V50.0241H151.232V35.8547ZM159.322 40.8743C159.322 38.9312 158.039 37.4932 156.237 37.4932C154.476 37.4932 153.154 38.9705 153.154 40.8743C153.154 42.7766 154.476 44.2554 156.237 44.2554C158.041 44.2554 159.322 42.8188 159.322 40.8743ZM163.492 31.9294H163.531C163.683 31.9302 163.833 31.961 163.973 32.0199C164.113 32.0788 164.24 32.1647 164.347 32.2728C164.453 32.3808 164.538 32.5089 164.596 32.6497C164.653 32.7904 164.682 32.9411 164.681 33.0931C164.682 33.3999 164.562 33.6946 164.346 33.9125C164.13 34.1304 163.837 34.2537 163.531 34.2553H163.492C163.34 34.2547 163.19 34.2242 163.049 34.1655C162.91 34.1068 162.782 34.021 162.676 33.9131C162.568 33.8051 162.484 33.6772 162.426 33.5365C162.369 33.3958 162.34 33.2452 162.34 33.0931C162.34 32.941 162.368 32.7902 162.426 32.6493C162.483 32.5085 162.568 32.3803 162.675 32.2722C162.782 32.1642 162.909 32.0783 163.049 32.0194C163.189 31.9606 163.34 31.93 163.492 31.9294ZM162.46 35.8547H164.544V45.8939H162.46V35.8547ZM167.339 43.1429V37.5354H165.738V35.8562H167.339V33.1429H169.402V35.8562H171.664V37.5354H169.402V42.8399C169.402 43.8318 169.843 44.3367 170.724 44.3367C170.984 44.3367 171.266 44.2976 171.525 44.2162L171.724 45.9376C171.248 46.1034 170.746 46.1855 170.242 46.1803C168.501 46.1803 167.339 45.2683 167.339 43.1429ZM172.467 43.0615C172.467 41.1772 173.907 40.107 175.93 39.7829L179.095 39.2764V38.871C179.095 37.7163 178.376 37.1103 177.033 37.1103C175.732 37.1103 174.949 37.6982 174.949 38.4866C174.949 38.5876 174.971 38.669 174.988 38.7489L173.167 39.3774C173.062 39.1132 173.008 38.8314 173.008 38.5469C173.008 36.9671 174.59 35.5713 177.031 35.5713C179.694 35.5713 181.177 36.7863 181.177 39.0534V43.4052C181.177 44.5388 181.338 45.1462 181.817 45.8954H180.954C180.486 45.8962 180.036 45.7116 179.702 45.3819C179.369 45.0522 179.179 44.6039 179.175 44.1348V44.1137C178.553 45.41 177.251 46.1788 175.789 46.1788C173.808 46.1788 172.467 44.9231 172.467 43.0615ZM179.095 41.0778V40.7959L176.393 41.2617C175.172 41.4833 174.49 42.0501 174.49 42.962C174.49 43.8725 175.172 44.4393 176.232 44.4393C177.934 44.4393 179.095 43.0404 179.095 41.0778ZM182.914 31.7259H184.998V45.8954H182.914V31.7259ZM66.0191 31.7244H68.1823V37.6786H74.791V31.7244H76.9545V45.8939H74.791V39.6608H68.1823V45.8954H66.0191V31.7259V31.7244ZM88.8425 35.8547H90.9258V37.3124C91.5656 36.1998 92.6676 35.5713 93.8493 35.5713C95.2114 35.5713 96.1914 36.2391 96.5936 37.3922C96.9173 36.8396 97.379 36.381 97.9338 36.0618C98.4887 35.7424 99.1167 35.5734 99.7565 35.5713C101.7 35.5713 102.882 36.7863 102.882 38.7293V45.8954H100.819V39.3579C100.819 38.0419 100.238 37.3937 99.0778 37.3937C97.8159 37.3937 96.8949 38.467 96.8949 40.4085V45.8939H94.8322V39.4181C94.8322 38.1218 94.2302 37.3937 93.0904 37.3937C91.8875 37.3937 90.9276 38.5062 90.9276 40.3482V45.8939H88.8437V35.8547H88.8425ZM103.962 43.0615C103.962 41.1772 105.405 40.107 107.428 39.7829L110.592 39.2764V38.871C110.592 37.7163 109.871 37.1103 108.53 37.1103C107.227 37.1103 106.446 37.6982 106.446 38.4866C106.446 38.5876 106.467 38.669 106.486 38.7489L104.664 39.3774C104.559 39.1133 104.504 38.8314 104.503 38.5469C104.503 36.9671 106.086 35.5713 108.528 35.5713C111.193 35.5713 112.674 36.7863 112.674 39.0534V43.4052C112.674 44.5388 112.834 45.1462 113.314 45.8954H112.45C111.981 45.8962 111.531 45.7116 111.198 45.3819C110.865 45.0522 110.675 44.6039 110.67 44.1348V44.1137C110.049 45.41 108.748 46.1788 107.286 46.1788C105.305 46.1788 103.964 44.9231 103.964 43.0615H103.962ZM110.592 41.0778V40.7959L107.888 41.2617C106.669 41.4833 105.987 42.0501 105.987 42.9605C105.987 43.8725 106.668 44.4377 107.729 44.4377C109.43 44.4377 110.592 43.0404 110.592 41.0778ZM114.544 35.8547H116.626V37.558C117.348 36.322 118.608 35.5743 120.031 35.5743C122.093 35.5743 123.516 36.8706 123.516 39.0564V45.8969H121.433V39.8025C121.433 38.3464 120.653 37.4962 119.23 37.4962C117.789 37.4962 116.626 38.8107 116.626 40.5924V45.8954H114.546V35.8562L114.544 35.8547ZM78.4098 42.252V35.8562H80.4936V41.848C80.4936 43.4067 81.2731 44.2568 82.696 44.2568C84.1984 44.2568 85.2999 42.9605 85.2999 41.12V35.8547H87.3625V45.8939H85.2999V44.2358C84.9909 44.8279 84.5239 45.3228 83.9513 45.6658C83.3782 46.0086 82.7219 46.1862 82.0544 46.1788C79.911 46.1788 78.4098 44.8221 78.4098 42.252ZM18.6369 29.9759H14.5874V47.6455H18.6369V29.9759ZM32.0499 29.9759H28.0004V47.6455H32.0499V29.9759ZM55.525 34.079V29.9864H38.0444V34.079H55.5265H55.525ZM55.525 47.6364V43.5424H38.0444V47.6364H55.5265H55.525Z" fill="black"/>
</g>
</g>
</svg>
