<svg width="200" height="80" viewBox="0 0 200 80" fill="none" xmlns="http://www.w3.org/2000/svg">
<mask id="mask0_1673_127" style="mask-type:luminance" maskUnits="userSpaceOnUse" x="67" y="11" width="66" height="54">
<path d="M132.581 11H67.4194V65H132.581V11Z" fill="white"/>
</mask>
<g mask="url(#mask0_1673_127)">
<path d="M109.102 65.0607C108.965 65.0607 108.829 65.0607 108.663 65.0489C108.305 65.0104 108.001 64.9086 107.721 64.7356C107.245 64.4428 106.922 64.0165 106.669 63.5305C106.279 62.7804 106.071 61.9732 105.934 61.1443C105.908 60.988 105.885 60.8313 105.86 60.6657C103.999 61.1075 102.138 61.3407 100.253 61.3722C98.3615 61.4037 96.4875 61.2335 94.622 60.8589C94.6037 60.9385 94.59 60.9961 94.5773 61.0541C94.4789 61.501 94.3972 61.9527 94.2784 62.3942C94.1307 62.9438 93.9073 63.4649 93.585 63.9388C93.2103 64.4895 92.7254 64.8838 92.055 65.0155C92.0262 65.0211 92.001 65.0453 91.9742 65.0607C91.7973 65.0607 91.6205 65.0607 91.4136 65.0487C91.2691 65.0354 91.1548 65.0343 91.0242 65.0253C90.6404 64.9736 90.27 64.9449 89.9056 64.8819C89.0268 64.7306 88.1653 64.5081 87.3261 64.2035C86.2993 63.8306 85.3189 63.3682 84.4501 62.6954C83.9047 62.2733 83.4394 61.7811 83.143 61.1469C82.9625 60.7607 82.8715 60.3526 82.8943 59.9296C82.9228 59.4026 83.0471 58.8904 83.2141 58.3898C83.4625 57.6453 83.7784 56.9295 84.1357 56.2315C84.1716 56.1612 84.2011 56.0877 84.2338 56.0155C81.3865 53.6867 79.2318 50.8621 77.8755 47.4376C77.7445 47.4376 77.6233 47.4393 77.5023 47.4373C77.0163 47.4295 76.5282 47.4461 76.0447 47.4058C75.1032 47.3282 74.3122 46.9117 73.6673 46.2302C73.1313 45.6641 72.8492 44.9879 72.8499 44.1973C72.853 41.0251 72.8504 37.8527 72.8534 34.6803C72.8536 34.513 72.8698 34.3421 72.9058 34.1789C73.1473 33.0839 74.1623 32.3607 75.1592 32.3766C76.1398 32.3922 77.1208 32.3803 78.1016 32.3794C78.1756 32.3794 78.2497 32.3732 78.3235 32.3672C78.4478 32.3572 78.5235 32.296 78.5826 32.1788C78.7647 31.8171 78.9588 31.4613 79.1551 31.107C79.4625 30.552 79.7727 29.9985 80.0877 29.4477C80.1872 29.2737 80.3056 29.1106 80.4163 28.9411C80.1721 28.6074 79.9443 28.2804 79.6987 27.9672C79.5717 27.8053 79.5752 27.6604 79.6548 27.4825C80.2664 26.115 80.8719 24.7448 81.4799 23.3757C81.7675 22.7281 82.0556 22.0808 82.3454 21.4341C82.4234 21.2599 82.558 21.2168 82.7229 21.3066C82.7466 21.3195 82.7688 21.3353 82.791 21.3506C83.5765 21.8896 84.3616 22.429 85.1474 22.9674C85.3577 23.1115 85.5698 23.2528 85.8049 23.4115C85.8015 23.3348 85.8031 23.2895 85.7969 23.2452C85.7048 22.5919 85.6174 21.9378 85.5173 21.2856C85.3811 20.398 85.1781 19.5254 84.916 18.6658C84.7727 18.1958 84.5785 17.7404 84.5261 17.2436C84.4349 16.3771 84.8787 15.7013 85.7261 15.5145C86.4531 15.3542 87.1864 15.3837 87.9156 15.5322C88.8246 15.7174 89.6674 16.0723 90.4707 16.5273C91.7307 17.2411 92.8465 18.1444 93.8825 19.1491C94.2316 19.4875 94.5616 19.8457 94.8966 20.1984C94.9498 20.2544 94.9989 20.2725 95.0735 20.2588C95.2789 20.2211 95.4856 20.191 95.6916 20.1565C96.7831 19.9732 97.8828 19.8647 98.9884 19.8435C99.9736 19.8246 100.961 19.8137 101.943 19.9198C102.485 19.9783 103.03 20.0224 103.57 20.0994C104.753 20.2681 105.918 20.5224 107.064 20.8611C108.414 21.2598 109.723 21.7637 110.985 22.386C112.217 22.9937 113.389 23.7026 114.499 24.5133C115.758 25.4327 116.91 26.4699 117.949 27.6316C118.706 28.4786 119.391 29.382 120 30.3427C120.835 31.6602 121.511 33.0534 122.015 34.5299C122.377 35.5921 122.646 36.6783 122.808 37.7883C122.885 38.3073 122.931 38.8313 122.973 39.3545C123.003 39.7376 123.002 40.1229 123.016 40.5071C123.018 40.5568 123.028 40.6063 123.034 40.6564C123.77 40.5192 125.293 39.9623 125.495 39.7795C125.354 39.6186 125.219 39.449 125.068 39.2943C124.234 38.4376 123.72 37.424 123.603 36.2314C123.485 35.0322 123.839 33.9812 124.729 33.1527C125.534 32.4031 126.499 32.1378 127.576 32.3818C128.5 32.5909 129.139 33.1806 129.566 34.0044C129.928 34.7045 130.054 35.4524 129.974 36.2403C129.921 36.7578 129.781 37.2449 129.558 37.7119C129.229 38.4023 128.785 39.0096 128.237 39.5415C128.185 39.5913 128.139 39.6456 128.081 39.7069C128.146 39.7384 128.187 39.7623 128.231 39.7786C128.654 39.9375 129.072 40.1125 129.502 40.2497C130.281 40.4986 131.08 40.6671 131.894 40.7498C132.254 40.7863 132.526 40.9115 132.642 41.2774C132.642 41.3736 132.642 41.4698 132.642 41.5994C132.594 41.7198 132.558 41.816 132.497 41.8922C132.335 42.0939 132.115 42.1645 131.863 42.1304C131.49 42.0798 131.115 42.0314 130.744 41.9642C129.739 41.7822 128.758 41.5092 127.82 41.1002C127.487 40.9554 127.162 40.792 126.843 40.6418C125.62 41.3213 124.343 41.8326 122.965 42.0759C122.945 42.264 122.926 42.4438 122.908 42.6238C122.828 43.4093 122.693 44.1852 122.51 44.9533C122.152 46.4502 121.62 47.8817 120.918 49.252C120.415 50.2347 119.834 51.1676 119.179 52.0555C118.738 52.6534 118.274 53.2333 117.76 53.7697C117.33 54.2177 116.885 54.6511 116.444 55.0882C116.297 55.2336 116.141 55.3708 115.997 55.505C116.242 56.0146 116.488 56.5029 116.714 57.0004C117.056 57.7575 117.361 58.529 117.524 59.3486C117.6 59.7288 117.625 60.1113 117.557 60.4949C117.465 61.0273 117.218 61.4886 116.876 61.9001C116.367 62.5112 115.737 62.9744 115.047 63.3569C113.615 64.1503 112.077 64.6369 110.466 64.8999C110.135 64.9539 109.8 64.989 109.449 65.0318C109.322 65.0408 109.212 65.0509 109.102 65.0607ZM103.575 35.7373C103.58 35.5076 103.585 35.2779 103.589 35.0483C103.598 34.3391 103.61 33.63 103.615 32.9208C103.622 31.866 103.623 30.8111 103.63 29.7563C103.632 29.4461 103.652 29.1361 103.655 28.8259C103.662 28.1296 103.664 27.4332 103.67 26.7368C103.671 26.637 103.63 26.5932 103.527 26.5843C103.299 26.5645 103.073 26.5294 102.845 26.5087C102.557 26.4826 102.268 26.46 101.978 26.4447C101.682 26.4291 101.385 26.4241 101.088 26.4146C100.983 26.4113 100.942 26.4662 100.95 26.5666C100.952 26.5935 100.951 26.6207 100.95 26.6477C100.946 28.2166 100.941 29.7855 100.937 31.3544C100.936 31.9631 100.937 32.5718 100.937 33.1806C100.937 33.2368 100.937 33.2931 100.937 33.3493C100.889 33.3181 100.87 33.2845 100.859 33.2487C100.637 32.5195 100.418 31.7894 100.194 31.0608C99.8771 30.0292 99.5574 28.9984 99.2373 27.9677C99.1012 27.5295 98.9622 27.0922 98.8213 26.6555C98.7744 26.5092 98.7516 26.4979 98.6225 26.5141C98.2085 26.566 97.7936 26.6114 97.3808 26.6722C97.0545 26.7203 96.73 26.7842 96.406 26.8475C96.262 26.8756 96.231 26.9306 96.2479 27.0759C96.2566 27.1492 96.2676 27.2227 96.2687 27.2962C96.2833 28.1876 96.2974 29.0791 96.3098 29.9706C96.3241 31.0041 96.3359 32.0377 96.3511 33.0713C96.3626 33.8613 96.3787 34.6513 96.3908 35.4414C96.4054 36.387 96.4203 37.3326 96.431 38.2782C96.4391 38.9949 96.4405 39.7117 96.4456 40.4283C96.447 40.6525 96.4529 40.6592 96.672 40.6595C97.3889 40.6601 98.1058 40.6601 98.8227 40.6589C98.8883 40.6589 98.9535 40.6505 99.0295 40.6452C99.0295 39.4991 99.0205 38.3717 99.032 37.2445C99.0435 36.1173 98.9836 34.9901 99.0075 33.8183C99.046 33.8783 99.061 33.8936 99.0666 33.9118C99.2581 34.5302 99.4519 35.1481 99.6392 35.7679C100.115 37.3434 100.588 38.9199 101.062 40.4961C101.109 40.6516 101.114 40.6587 101.27 40.6589C101.96 40.6606 102.65 40.6603 103.34 40.6592C103.522 40.6587 103.532 40.646 103.534 40.4612C103.539 40.0489 103.544 39.6366 103.548 39.2243C103.557 38.4205 103.567 37.6166 103.574 36.8127C103.578 36.4678 103.575 36.1229 103.575 35.7373ZM106.903 45.2802C106.881 44.4254 106.859 43.571 106.836 42.7157C106.785 42.7031 106.76 42.6912 106.735 42.6912C106.045 42.6898 105.355 42.6907 104.665 42.6882C104.561 42.6879 104.517 42.7318 104.522 42.8344C104.532 43.0698 104.544 43.3055 104.548 43.5415C104.564 44.4735 104.579 45.4056 104.589 46.3379C104.597 47.1018 104.599 47.866 104.603 48.6298C104.604 48.6942 104.603 48.7587 104.603 48.8231C103.923 46.7947 103.324 44.7477 102.721 42.7025C101.995 42.7025 101.288 42.7025 100.585 42.7025C100.531 42.8746 100.528 55.6178 100.586 55.8121C100.765 55.8121 100.953 55.8192 101.141 55.8107C101.693 55.7865 102.245 55.7578 102.797 55.7266C102.963 55.7173 102.979 55.6974 102.979 55.5295C102.979 55.3604 102.969 55.1917 102.967 55.0229C102.957 54.1176 102.947 53.2122 102.94 52.3069C102.933 51.4955 102.93 50.6841 102.926 49.8727C102.925 49.7543 102.926 49.6362 102.926 49.5177C102.97 49.5349 102.976 49.5577 102.983 49.5796C103.233 50.3708 103.48 51.1631 103.736 51.9525C104.095 53.0637 104.461 54.1727 104.826 55.2822C104.877 55.4367 104.882 55.442 105.039 55.406C105.631 55.2716 106.223 55.1366 106.812 54.9934C107.086 54.9268 107.085 54.918 107.079 54.6373C107.066 53.9893 107.052 53.3411 107.039 52.6931C107.025 52.0383 107.012 51.3836 106.998 50.7285C106.985 50.0805 106.971 49.4325 106.957 48.7845C106.944 48.1298 106.928 47.475 106.917 46.8203C106.91 46.3202 106.908 45.8199 106.903 45.2802ZM95.9042 48.4406C95.9177 47.8738 95.9332 47.3074 95.9441 46.7407C95.952 46.3351 95.9531 45.9298 95.9585 45.5243C95.9672 44.8695 95.9765 44.2145 95.9858 43.5595C95.9866 43.5192 95.9945 43.479 95.9948 43.4385C95.9956 43.1975 95.995 42.9565 95.995 42.7101C95.9399 42.7005 95.9079 42.6901 95.8758 42.6901C95.1321 42.6893 94.3882 42.6882 93.6444 42.6901C93.4977 42.6904 93.4877 42.7053 93.4828 42.8558C93.4688 43.2875 93.4536 43.7189 93.4425 44.1504C93.4271 44.7508 93.4151 45.3516 93.4014 45.9521C93.3881 46.5323 93.3742 47.1125 93.361 47.6927C93.3471 48.3067 93.3323 48.9207 93.3206 49.5349C93.3055 50.3314 93.2932 51.1282 93.2793 51.925C93.2787 51.9587 93.2743 51.9922 93.2724 52.0259C93.2462 52.4942 93.2804 52.958 93.4192 53.4072C93.6953 54.301 94.3064 54.8553 95.1959 55.1056C95.8516 55.2904 96.5193 55.4248 97.1932 55.5261C97.4786 55.5691 97.7607 55.6136 98.0558 55.5739C98.6703 55.4909 99.0801 55.1577 99.3231 54.6025C99.5045 54.1879 99.5633 53.7466 99.5689 53.2994C99.583 52.2253 99.5911 51.151 99.597 50.0769C99.604 48.7587 99.608 47.4402 99.6108 46.1219C99.613 45.0467 99.6114 43.9715 99.6108 42.8963C99.6108 42.8319 99.6043 42.7677 99.6007 42.7011C98.7603 42.7011 97.9447 42.7011 97.115 42.7011C97.1074 42.7632 97.0964 42.815 97.0956 42.8667C97.081 43.704 97.0669 44.541 97.0545 45.3783C97.0399 46.3306 97.0253 47.2827 97.014 48.235C96.9988 49.5588 96.9867 50.8829 96.9727 52.2071C96.9713 52.3353 96.967 52.4638 96.9586 52.5918C96.946 52.7845 96.8545 52.8596 96.6675 52.832C96.5078 52.8081 96.3483 52.7808 96.1894 52.7518C95.9104 52.7009 95.8342 52.6132 95.8378 52.3288C95.8423 51.9781 95.8575 51.6274 95.8631 51.2767C95.8783 50.3449 95.8907 49.4131 95.9042 48.4406ZM92.9829 39.6397C93.0362 39.9246 93.0867 40.2098 93.1437 40.4938C93.1762 40.6561 93.181 40.6587 93.3409 40.6589C94.1591 40.6603 94.9774 40.6606 95.7956 40.6589C95.9934 40.6587 96.0046 40.6426 95.9635 40.4469C95.7326 39.3449 95.5037 38.2429 95.269 37.142C94.9879 35.8235 94.7086 34.5046 94.416 33.1887C94.0282 31.4449 93.6286 29.7037 93.2322 27.9618C93.2168 27.894 93.1825 27.8305 93.1577 27.7666C93.114 27.7747 93.0937 27.7757 93.0754 27.7822C92.0028 28.1586 90.9703 28.623 89.9815 29.1845C89.901 29.2302 89.8708 29.2892 89.8558 29.3754C89.7816 29.8 89.7055 30.2244 89.6235 30.6476C89.3017 32.3081 88.9947 33.9717 88.6491 35.6272C88.3117 37.2437 87.9341 38.8519 87.5736 40.4635C87.534 40.6409 87.5453 40.6589 87.7371 40.6592C88.5351 40.6603 89.3331 40.6603 90.1311 40.6592C90.298 40.6589 90.3127 40.6454 90.3418 40.4823C90.375 40.2964 90.4051 40.1102 90.4359 39.924C90.4897 39.5989 90.543 39.2741 90.5958 38.9536C90.8457 38.8892 92.6196 38.7797 92.8252 38.816C92.8765 39.0768 92.9284 39.3407 92.9829 39.6397ZM111.208 53.2648C111.513 53.0922 111.819 52.9203 112.125 52.7473C112.556 52.5024 112.947 52.2065 113.272 51.8277C113.769 51.2474 114.045 50.582 114.046 49.8133C114.048 48.0145 114.047 46.2156 114.045 44.4167C114.045 44.2693 114.034 44.1192 114.005 43.9749C113.903 43.4543 113.609 43.0794 113.116 42.8752C112.821 42.7528 112.509 42.6912 112.189 42.6904C110.823 42.6873 109.457 42.689 108.09 42.6898C108.039 42.6898 107.988 42.7019 107.918 42.7109C107.918 42.79 107.916 42.8561 107.918 42.9224C107.931 43.3674 107.946 43.8123 107.958 44.2575C107.973 44.8647 107.985 45.4722 107.999 46.0795C108.012 46.66 108.026 47.2402 108.039 47.8204C108.053 48.4347 108.066 49.0486 108.08 49.6626C108.093 50.2296 108.108 50.7963 108.12 51.363C108.135 52.0448 108.148 52.7268 108.161 53.4086C108.167 53.7261 108.17 54.0436 108.175 54.3612C108.179 54.5459 108.198 54.558 108.381 54.4947C108.489 54.4573 108.597 54.4191 108.705 54.3797C109.556 54.0703 110.387 53.716 111.208 53.2648ZM105.501 29.7142C105.705 29.755 105.909 29.7959 106.132 29.8403C106.132 29.9157 106.133 29.982 106.132 30.0482C106.123 30.3651 106.112 30.6818 106.105 30.9987C106.091 31.7346 106.076 32.4704 106.065 33.2063C106.05 34.1518 106.039 35.0974 106.023 36.0429C106.013 36.6503 105.995 37.2576 105.984 37.8649C105.968 38.7293 105.955 39.5936 105.943 40.4581C105.941 40.6463 105.954 40.6587 106.134 40.6589C106.952 40.6603 107.771 40.6603 108.589 40.6589C108.751 40.6587 108.764 40.6437 108.77 40.4885C108.784 40.0706 108.8 39.6523 108.81 39.2344C108.826 38.6067 108.838 37.979 108.851 37.3514C108.865 36.7102 108.878 36.069 108.892 35.4278C108.905 34.8069 108.921 34.186 108.932 33.5651C108.94 33.1394 108.94 32.7135 108.947 32.2877C108.954 31.8221 108.963 31.3565 108.974 30.8909C108.976 30.7977 108.989 30.7048 108.999 30.586C109.625 30.762 110.213 31.0053 110.836 31.2346C110.844 31.1339 110.852 31.0691 110.853 31.0041C110.855 30.8418 110.851 30.6794 110.855 30.5172C110.867 29.9909 110.879 29.4647 110.896 28.9386C110.899 28.8412 110.858 28.7902 110.775 28.7527C110.572 28.6612 110.372 28.5648 110.169 28.4713C108.347 27.6277 106.44 27.0548 104.462 26.7152C104.399 26.7043 104.334 26.7069 104.238 26.7015C104.224 27.648 104.211 28.5697 104.197 29.509C104.631 29.5779 105.048 29.6442 105.501 29.7142ZM89.8571 52.5356C89.8616 52.4548 89.8689 52.3741 89.8701 52.2931C89.8799 51.6586 89.8887 51.0238 89.8975 50.3893C89.9024 50.0381 89.9048 49.6868 89.9126 49.3355C89.9143 49.2593 89.9339 49.1836 89.9466 49.0984C90.743 49.3569 91.5142 49.612 92.3155 49.7788C92.3306 49.7259 92.3435 49.7008 92.3441 49.6752C92.3591 49.041 92.3716 48.4068 92.3881 47.7726C92.3909 47.6643 92.3498 47.6187 92.2419 47.5982C91.7191 47.4989 91.1972 47.3943 90.6761 47.286C90.4343 47.236 90.195 47.1738 89.9844 47.124C89.9844 46.3396 89.9844 45.5859 89.9844 44.8108C90.3287 44.8408 90.6417 44.8681 90.9547 44.8957C91.2632 44.923 91.5715 44.9508 91.88 44.9784C92.1909 45.0062 92.5009 45.0585 92.8204 45.04C92.8346 44.7826 92.8528 44.5481 92.8592 44.3132C92.8729 43.814 92.879 43.3145 92.892 42.8153C92.8943 42.7281 92.8605 42.6907 92.7775 42.6896C92.7437 42.6893 92.7099 42.689 92.676 42.689C91.033 42.689 89.39 42.689 87.7469 42.689C87.6812 42.689 87.6155 42.689 87.5297 42.689C87.5245 42.7987 87.5169 42.8842 87.5169 42.9697C87.5163 45.7282 87.5184 48.487 87.5116 51.2457C87.5112 51.4249 87.5724 51.5292 87.7102 51.6282C88.2975 52.0501 88.9038 52.4419 89.5323 52.7994C89.6184 52.8483 89.7076 52.8919 89.7959 52.9383C89.8974 52.8168 89.8401 52.6903 89.8571 52.5356ZM114.019 35.2503C114.019 33.8035 114.018 32.3567 114.022 30.9099C114.023 30.7811 113.986 30.6981 113.882 30.6228C113.152 30.0968 112.395 29.6167 111.603 29.1905C111.554 29.1643 111.497 29.1538 111.433 29.1322C111.422 29.1999 111.411 29.2388 111.409 29.2781C111.399 29.561 111.387 29.8439 111.382 30.127C111.366 30.8896 111.354 31.6524 111.341 32.4151C111.327 33.1642 111.312 33.9134 111.3 34.6626C111.285 35.6956 111.275 36.7288 111.258 37.7618C111.251 38.2474 111.23 38.7328 111.22 39.2184C111.211 39.6304 111.208 40.0424 111.206 40.4547C111.205 40.6502 111.215 40.6592 111.413 40.6592C112.211 40.6601 113.008 40.6601 113.806 40.6589C113.871 40.6589 113.936 40.6488 114.019 40.6421C114.019 38.8447 114.019 37.0678 114.019 35.2503ZM127.288 38.5414C127.761 38.0782 128.148 37.5532 128.398 36.9388C128.722 36.1424 128.732 35.3455 128.31 34.5783C127.911 33.851 127.256 33.5293 126.443 33.7292C125.939 33.8533 125.57 34.169 125.299 34.6037C124.931 35.1944 124.889 35.8343 125.033 36.4962C125.179 37.1652 125.507 37.7409 125.968 38.2409C126.22 38.5135 126.493 38.7633 126.818 38.9747C126.971 38.8348 127.119 38.6983 127.288 38.5414ZM83.448 35.5387C83.7899 35.804 84.1707 35.9165 84.6022 35.8362C85.1898 35.7269 85.7137 35.2199 85.7547 34.5442C85.8153 33.5429 84.9066 32.8091 83.9453 33.0854C83.4267 33.2344 83.0883 33.5905 82.9635 34.1189C82.8327 34.6734 83.0031 35.1411 83.448 35.5387Z" fill="black"/>
<path d="M67.7678 11.0406C67.8187 11.077 67.8475 11.1213 67.8877 11.1488C69.2085 12.0538 70.5303 12.9571 71.852 13.8607C72.1086 14.0361 72.3653 14.2112 72.6214 14.3872C72.7865 14.5007 72.7987 14.5383 72.7179 14.7211C72.4314 15.3691 72.1432 16.0163 71.8557 16.6639C71.8529 16.67 71.8499 16.6761 71.847 16.6821C71.7426 16.9015 71.6226 16.9175 71.4802 16.7262C71.2502 16.4175 71.0229 16.1068 70.7957 15.7961C70.0104 14.7222 69.2255 13.648 68.4406 12.5739C68.1498 12.1759 67.8598 11.7773 67.5684 11.3797C67.5449 11.3476 67.5141 11.3209 67.4733 11.2879C67.46 11.2537 67.46 11.2232 67.4719 11.1733C67.5165 11.116 67.5491 11.0783 67.5817 11.0406C67.6381 11.0406 67.6945 11.0406 67.7678 11.0406Z" fill="black"/>
<path d="M80.0917 22.698C79.615 23.7729 79.1452 24.8339 78.6754 25.8949C78.6672 25.9134 78.659 25.932 78.6498 25.95C78.5511 26.142 78.3836 26.1602 78.2558 25.9885C78.0503 25.7122 77.8488 25.433 77.6456 25.1551C77.1991 24.5446 76.7564 23.9314 76.3036 23.3257C76.1856 23.168 76.1603 23.0358 76.2457 22.8459C76.8772 21.4434 77.5003 20.0372 78.1159 18.6276C78.2538 18.312 78.3885 18.3309 78.621 18.4922C79.3926 19.0272 80.1692 19.5549 80.9443 20.0848C81.1516 20.2265 81.1684 20.2729 81.0674 20.5012C80.7455 21.2293 80.4217 21.9566 80.0917 22.698Z" fill="black"/>
<path d="M72.8665 18.1952C73.2381 17.3617 73.6035 16.5423 73.9687 15.7229C73.9825 15.6921 73.9921 15.6591 74.0089 15.6301C74.0814 15.5049 74.191 15.4736 74.3162 15.5536C74.504 15.6736 74.6871 15.8009 74.871 15.9268C75.5063 16.3618 76.141 16.7976 76.776 17.233C76.9407 17.3459 76.9648 17.421 76.8826 17.6066C76.3473 18.8155 75.8109 20.0239 75.2744 21.2323C75.258 21.2693 75.2396 21.3057 75.2188 21.3404C75.1311 21.4865 75.0105 21.5011 74.8892 21.3778C74.8469 21.3347 74.8104 21.2853 74.7745 21.2364C74.1646 20.4028 73.5552 19.5689 72.9456 18.735C72.9376 18.7241 72.9302 18.7126 72.9211 18.7027C72.7819 18.5529 72.7418 18.3909 72.8665 18.1952Z" fill="black"/>
<path d="M91.0975 35.7761C91.2626 34.7175 91.4223 33.6758 91.5826 32.6298C91.6605 32.765 92.075 34.7938 92.3263 36.266C91.8921 36.334 91.4578 36.402 90.9984 36.474C91.0306 36.2397 91.0614 36.0164 91.0975 35.7761Z" fill="black"/>
<path d="M111.611 46.4454C111.616 47.1195 111.617 47.7746 111.626 48.4296C111.636 49.1783 111.646 49.927 111.669 50.6751C111.676 50.9139 111.581 51.0579 111.369 51.1451C111.133 51.2424 110.899 51.345 110.644 51.4539C110.632 51.3073 110.613 51.1819 110.611 51.0559C110.603 50.5699 110.604 50.0839 110.596 49.5976C110.585 48.9842 110.569 48.3708 110.556 47.7574C110.542 47.171 110.53 46.5846 110.515 45.9982C110.504 45.621 110.489 45.2442 110.477 44.867C110.475 44.8338 110.481 44.8003 110.484 44.75C110.677 44.7303 110.868 44.7095 111.06 44.6921C111.147 44.6839 111.235 44.6788 111.322 44.6783C111.518 44.6769 111.564 44.7188 111.57 44.91C111.577 45.126 111.581 45.3418 111.584 45.5578C111.586 45.7603 111.582 45.963 111.586 46.1658C111.587 46.2527 111.602 46.3393 111.611 46.4454Z" fill="black"/>
</g>
</svg>
