<svg width="200" height="80" viewBox="0 0 200 80" fill="none" xmlns="http://www.w3.org/2000/svg">
<mask id="mask0_1673_6" style="mask-type:luminance" maskUnits="userSpaceOnUse" x="58" y="22" width="84" height="36">
<path d="M142 22.3158H58V57.6842H142V22.3158Z" fill="white"/>
</mask>
<g mask="url(#mask0_1673_6)">
<path fill-rule="evenodd" clip-rule="evenodd" d="M141.372 40.5783C141.372 34.6573 138.504 29.9854 133.023 29.9854C127.518 29.9854 124.188 34.6573 124.188 40.532C124.188 47.4938 128.12 51.0093 133.763 51.0093C136.516 51.0093 138.597 50.3849 140.17 49.506V44.8802C138.597 45.6666 136.793 46.1523 134.503 46.1523C132.26 46.1523 130.271 45.3659 130.016 42.6367H141.326C141.326 42.3361 141.372 41.1334 141.372 40.5783ZM129.947 38.3811C129.947 35.7675 131.543 34.6805 132.999 34.6805C134.411 34.6805 135.914 35.7675 135.914 38.3811H129.947Z" fill="black"/>
<path fill-rule="evenodd" clip-rule="evenodd" d="M115.26 29.9854C112.993 29.9854 111.536 31.0493 110.727 31.7894L110.426 30.3554H105.338V57.3235L111.12 56.0976L111.143 49.5522C111.976 50.1536 113.202 51.0093 115.237 51.0093C119.377 51.0093 123.147 47.6788 123.147 40.347C123.124 33.6397 119.308 29.9854 115.26 29.9854ZM113.872 45.921C112.508 45.921 111.698 45.4353 111.143 44.834L111.12 36.2533C111.721 35.5825 112.554 35.1199 113.872 35.1199C115.977 35.1199 117.434 37.4791 117.434 40.5089C117.434 43.6081 116 45.921 113.872 45.921Z" fill="black"/>
<path fill-rule="evenodd" clip-rule="evenodd" d="M97.3817 28.6207L103.187 27.3718V22.6767L97.3817 23.9025V28.6207Z" fill="black"/>
<path d="M103.187 30.3786H97.3817V50.6162H103.187V30.3786Z" fill="black"/>
<path fill-rule="evenodd" clip-rule="evenodd" d="M91.16 32.0899L90.79 30.3784H85.7942V50.616H91.5763V36.9007C92.941 35.1198 95.2538 35.4436 95.9708 35.698V30.3784C95.2307 30.1009 92.5247 29.592 91.16 32.0899Z" fill="black"/>
<path fill-rule="evenodd" clip-rule="evenodd" d="M79.5957 25.3596L73.9523 26.5623L73.9292 45.0883C73.9292 48.5113 76.4964 51.0324 79.9195 51.0324C81.8161 51.0324 83.2038 50.6855 83.967 50.2692V45.574C83.2269 45.8747 79.5726 46.9386 79.5726 43.5156V35.3049H83.967V30.3785H79.5726L79.5957 25.3596Z" fill="black"/>
<path fill-rule="evenodd" clip-rule="evenodd" d="M63.9607 36.2533C63.9607 35.3512 64.7009 35.0043 65.9266 35.0043C67.6845 35.0043 69.9048 35.5362 71.6626 36.4846V31.0493C69.7429 30.286 67.8463 29.9854 65.9266 29.9854C61.2316 29.9854 58.1092 32.437 58.1092 36.5308C58.1092 42.9143 66.8981 41.8967 66.8981 44.6489C66.8981 45.7128 65.9729 46.0598 64.6777 46.0598C62.7581 46.0598 60.3064 45.2734 58.3636 44.2095V49.7141C60.5146 50.6393 62.6887 51.0325 64.6777 51.0325C69.4885 51.0325 72.7959 48.6502 72.7959 44.5102C72.7727 37.6178 63.9607 38.8436 63.9607 36.2533Z" fill="black"/>
</g>
</svg>
