<svg width="200" height="80" viewBox="0 0 200 80" fill="none" xmlns="http://www.w3.org/2000/svg">
<mask id="mask0_1673_114" style="mask-type:luminance" maskUnits="userSpaceOnUse" x="73" y="14" width="54" height="52">
<path d="M126.676 14H73.324V66H126.676V14Z" fill="white"/>
</mask>
<g mask="url(#mask0_1673_114)">
<path d="M73.324 52.6464L86.9688 66L97.3168 55.8809L94.9248 53.5408L87.2912 61.0082L76.028 50.0048L73.324 52.6464ZM104.243 38.9704C105.689 40.416 105.782 41.3832 105.741 42.4544C105.72 43.6296 104.992 44.888 103.91 45.9696L103.9 45.98C102.808 47.0616 101.602 47.748 100.416 47.7688C99.3448 47.8104 98.4296 47.6648 96.9736 46.2192L89.2048 38.4608L86.6568 41.0088L94.228 48.5696C96.6928 51.0344 98.5544 51.44 100.551 51.3256C102.382 51.2216 104.389 50.2128 106.261 48.3512C108.122 46.4792 109.194 44.42 109.298 42.6C109.412 40.6136 109.058 38.7 106.583 36.2352L99.0224 28.664L96.464 31.212L104.243 38.9704Z" fill="black"/>
<path d="M116.276 14H113.031V24.3792H102.652V27.624H113.031V38.0032H116.276V27.624H126.655V24.3792H116.276V14Z" fill="black"/>
</g>
</svg>
