<svg width="200" height="80" viewBox="0 0 200 80" fill="none" xmlns="http://www.w3.org/2000/svg">
<mask id="mask0_1673_98" style="mask-type:luminance" maskUnits="userSpaceOnUse" x="12" y="31" width="176" height="18">
<path d="M188 31.2H12V48.8H188V31.2Z" fill="white"/>
</mask>
<g mask="url(#mask0_1673_98)">
<path d="M97.0811 31.236C98.724 31.2946 100.367 31.7054 101.834 32.4095C102.127 32.5562 102.421 32.6442 102.714 32.7029C102.831 32.7029 102.949 32.6735 103.007 32.5855L103.154 32.4682C103.242 32.3802 103.33 32.3508 103.448 32.3508C103.682 32.3508 103.8 32.4975 103.8 32.7909V33.6417L103.741 35.314L103.77 36.1941C103.8 36.3995 103.8 36.6342 103.829 36.8982C103.829 36.9863 103.829 37.0743 103.829 37.1036C103.829 37.3676 103.712 37.485 103.448 37.485C103.271 37.485 103.154 37.309 103.095 36.9863C102.89 35.9007 102.333 34.9032 101.54 34.1404C100.425 32.8789 98.7822 32.1454 97.1102 32.1748C95.5553 32.1454 94.0593 32.8496 93.1495 34.1404C92.0935 35.666 91.5655 37.485 91.6535 39.3333C91.5946 41.387 92.1226 43.4407 93.1786 45.2009C94.2055 46.7852 95.4673 47.5773 96.9633 47.5773C97.5502 47.548 98.108 47.46 98.6651 47.284C99.2222 47.1373 99.7509 46.9319 100.249 46.6385C100.572 46.4331 100.807 46.0811 100.924 45.7291C101.071 45.1129 101.13 44.4675 101.1 43.8514C101.188 43.1473 100.983 42.4138 100.572 41.8271C100.015 41.387 99.3109 41.1523 98.6062 41.1816C98.3422 41.1523 98.2251 41.0349 98.2251 40.8296C98.2251 40.5949 98.372 40.4775 98.6651 40.4775C98.7531 40.4775 98.9 40.4775 99.1051 40.5068C99.8971 40.5655 100.807 40.6242 101.804 40.6242C102.567 40.6242 103.33 40.5949 104.093 40.5362C104.386 40.4775 104.709 40.4775 105.002 40.4482C105.296 40.4482 105.442 40.5655 105.442 40.7709C105.442 40.9763 105.296 41.0936 105.002 41.1523C104.562 41.2109 104.21 41.5043 104.034 41.9151C103.829 42.5898 103.712 43.2647 103.77 43.9687C103.77 44.2328 103.77 44.4969 103.8 44.7609C103.829 45.1716 103.858 45.4357 103.858 45.6117C103.888 45.8171 103.829 45.9931 103.712 46.1691C103.536 46.3451 103.33 46.4625 103.095 46.5212C102.919 46.5798 102.274 46.8732 101.159 47.3427C99.5749 48.1054 97.8433 48.5162 96.0833 48.6042C94.0593 48.6629 92.0935 47.8707 90.7146 46.3745C89.2769 44.7902 88.5438 42.7365 88.6318 40.6242C88.5729 38.1891 89.4238 35.8127 91.0369 33.9938C92.5626 32.1748 94.7633 31.1773 97.0811 31.236ZM111.926 44.3795C111.926 45.9051 112.102 46.7559 112.483 46.9319C112.865 47.0786 113.276 47.108 113.686 47.0786C116.444 47.0786 118.38 46.2571 119.524 44.6436C119.876 44.1448 120.111 43.9101 120.199 43.9101C120.346 43.9101 120.434 44.0861 120.434 44.4088C120.434 45.4357 120.082 46.4038 119.436 47.1667C118.85 47.8707 117.94 48.2815 117.002 48.2521C116.796 48.2521 116.415 48.2228 115.858 48.1935L114.391 48.1054L113.07 48.0468C112.63 48.0174 112.102 48.0174 111.545 48.0174C110.518 48.0174 109.52 48.0761 108.493 48.1935C108.17 48.2228 107.936 48.2521 107.818 48.2521C107.584 48.2521 107.466 48.1348 107.466 47.9294C107.466 47.7827 107.584 47.6653 107.789 47.6067C108.258 47.4893 108.64 47.196 108.875 46.7559C109.109 46.1104 109.227 45.4063 109.168 44.7022V34.5512C109.168 33.2603 108.64 32.5268 107.554 32.3508L106.821 32.2335C106.528 32.1748 106.352 32.0574 106.352 31.8521C106.322 31.676 106.44 31.5 106.616 31.4707C106.645 31.4707 106.674 31.4707 106.704 31.4707C106.821 31.4707 106.938 31.5 107.056 31.5C107.173 31.5 107.32 31.5293 107.525 31.5587L108.053 31.588C108.552 31.6467 108.933 31.676 109.168 31.676C109.784 31.6467 110.4 31.6174 111.046 31.5293C111.691 31.4707 112.337 31.4413 112.982 31.4413C113.481 31.4413 113.716 31.5587 113.716 31.7934C113.716 31.9988 113.54 32.1161 113.188 32.1161C112.366 32.1748 111.955 32.7322 111.955 33.8177L111.926 44.3795ZM130.38 31.2066C132.639 31.1186 134.839 31.9107 136.511 33.407C138.096 34.9326 138.947 37.0449 138.859 39.216C138.917 41.651 138.066 44.0274 136.453 45.8464C134.898 47.6067 132.727 48.5162 129.969 48.5162C127.651 48.6335 125.363 47.7827 123.661 46.1984C122.047 44.5555 121.197 42.3258 121.285 40.0374C121.285 38.9226 121.49 37.8077 121.871 36.7516C122.634 34.5512 124.307 32.7909 126.507 31.9694C127.74 31.4413 129.06 31.2066 130.38 31.2066ZM129.5 32.1161C128.004 32.0574 126.566 32.7322 125.686 33.9351C124.776 35.138 124.307 36.8396 124.307 38.9812C124.219 41.1816 124.805 43.3527 126.038 45.2009C127.035 46.6972 128.737 47.6067 130.527 47.6067C132.111 47.636 133.607 46.9026 134.516 45.641C135.572 44.0861 136.101 42.2378 136.013 40.3601C136.013 39.0693 135.778 37.8077 135.308 36.6342C134.927 35.5487 134.281 34.5512 133.46 33.7297C132.404 32.6735 130.967 32.0868 129.5 32.1161ZM142.731 35.0499C142.731 33.407 142.057 32.5268 140.736 32.3508L140.179 32.2921C140.003 32.2628 139.915 32.1454 139.915 31.9401C139.915 31.7054 140.032 31.588 140.267 31.588H140.56L141.47 31.6467C142.233 31.676 142.702 31.7054 142.907 31.7054C143.494 31.7054 144.55 31.6467 146.105 31.5C147.073 31.412 147.865 31.3533 148.54 31.3533C150.007 31.2946 151.474 31.676 152.706 32.4682C153.704 33.1136 154.291 34.2578 154.261 35.4313C154.349 36.7516 153.557 37.9544 152.325 38.4239C152.031 38.5412 151.885 38.6585 151.855 38.7465C151.855 38.8932 152.002 38.9812 152.325 39.0399C153.264 39.1866 154.115 39.6561 154.731 40.3601C155.317 41.0936 155.64 42.0325 155.611 43.0006C155.669 44.4382 155.083 45.8464 153.997 46.8146C152.765 47.812 151.21 48.3108 149.626 48.2228L147.161 48.1641L145.254 48.1348C144.198 48.1348 143.142 48.1641 142.086 48.2815C141.822 48.3108 141.558 48.3402 141.323 48.3402C141.088 48.3402 140.942 48.2228 140.942 48.0174C140.942 47.8414 141.059 47.724 141.265 47.6653C142.233 47.4893 142.731 46.6679 142.731 45.1422V35.0499ZM145.518 33.9938V37.485C145.489 37.8664 145.606 38.2185 145.87 38.4825C146.222 38.7172 146.633 38.8052 147.073 38.7759L148.745 38.8052L149.508 38.7759C150.887 38.5999 151.591 37.7784 151.591 36.2821C151.65 35.1966 151.21 34.1111 150.447 33.3483C149.626 32.5855 148.511 32.1748 147.396 32.2335C146.868 32.1748 146.339 32.2921 145.929 32.5855C145.606 32.9963 145.459 33.495 145.518 33.9938ZM145.518 42.0911V44.1154L145.547 44.5849L145.635 45.6117C145.723 46.7852 146.662 47.372 148.423 47.372C150.154 47.372 151.327 46.9613 151.973 46.1104C152.501 45.377 152.765 44.4969 152.765 43.6167C152.765 41.7097 151.914 40.5362 150.212 40.0961C149.127 39.8321 147.982 39.7147 146.868 39.7147C146.281 39.7147 145.899 39.8614 145.753 40.1254C145.547 40.7709 145.489 41.4456 145.518 42.0911ZM165.879 32.9082L171.424 45.641C171.629 46.1984 171.981 46.6679 172.392 47.0786C172.803 47.4013 173.301 47.636 173.83 47.724C173.976 47.7534 174.035 47.8707 174.035 48.0761C174.035 48.3108 173.947 48.3989 173.742 48.3989C173.595 48.3989 173.419 48.3695 173.272 48.3402C172.274 48.1641 171.248 48.1054 170.25 48.1348C169.282 48.1054 168.344 48.1641 167.405 48.3402C167.317 48.3695 167.2 48.3989 167.082 48.3989C166.906 48.4282 166.759 48.3108 166.73 48.1348C166.73 48.1054 166.73 48.0761 166.73 48.0468C166.73 47.9294 166.818 47.8414 166.994 47.7827C167.376 47.6653 167.698 47.46 167.962 47.1667C168.197 46.9026 168.344 46.5798 168.344 46.2278C168.138 45.1716 167.786 44.1741 167.288 43.2353C167.053 42.7659 166.818 42.5018 166.554 42.4138C165.615 42.2965 164.676 42.2671 163.767 42.2965H162.182L161.097 42.5018C160.803 42.6485 160.451 43.1766 160.07 44.1154L159.688 45.0542C159.571 45.3183 159.512 45.5824 159.512 45.8758C159.512 46.9026 160.217 47.4893 161.654 47.6653C161.948 47.6947 162.124 47.812 162.094 48.0174C162.065 48.2228 161.918 48.3402 161.654 48.3402C161.449 48.3402 161.243 48.3108 161.038 48.2815C160.569 48.1935 160.07 48.1348 159.6 48.1054C159.219 48.1054 158.603 48.1348 157.752 48.2228C157.107 48.2815 156.725 48.3108 156.579 48.3108C156.344 48.3108 156.227 48.2228 156.227 48.0174C156.227 47.8414 156.344 47.724 156.579 47.636C156.989 47.5187 157.371 47.2253 157.635 46.8733C158.104 46.1398 158.485 45.3476 158.808 44.5555L162.124 36.8982C162.388 36.2821 162.564 35.8714 162.681 35.6367L163.825 33.319L164.412 32.1748V32.2041C164.676 31.588 164.852 31.2653 164.94 31.2653C165.058 31.2653 165.292 31.6174 165.615 32.2921L165.879 32.9082ZM166.349 40.5068L164.764 36.7809C164.383 35.9007 164.119 35.4607 163.943 35.4607C163.855 35.4607 163.679 35.7541 163.415 36.3115L163.18 36.8102L161.772 40.0667L161.625 40.3601C161.566 40.4482 161.537 40.5655 161.537 40.6829C161.537 40.9469 161.83 41.0936 162.417 41.0936H165.997C166.29 41.0936 166.466 41.0056 166.466 40.8296C166.466 40.7709 166.437 40.6829 166.407 40.6242L166.349 40.5068ZM179.522 44.3795C179.522 45.9051 179.698 46.7559 180.079 46.9319C180.46 47.0786 180.871 47.108 181.252 47.0786C184.01 47.0786 185.946 46.2571 187.09 44.6436C187.443 44.1448 187.677 43.9101 187.765 43.9101C187.912 43.9101 188 44.0861 188 44.4088C188 45.4357 187.648 46.4038 187.002 47.1667C186.416 47.8707 185.506 48.2815 184.567 48.2521C184.362 48.2521 183.98 48.2228 183.394 48.1935L181.927 48.1054L180.607 48.0468C180.167 48.0174 179.639 48.0174 179.081 48.0174C178.055 48.0174 177.057 48.0761 176.03 48.1935C175.707 48.2228 175.473 48.2521 175.355 48.2521C175.121 48.2521 175.003 48.1348 175.003 47.9294C175.003 47.7827 175.121 47.6653 175.326 47.6067C175.795 47.4893 176.177 47.196 176.411 46.7559C176.646 46.1104 176.734 45.4063 176.705 44.7022V34.5512C176.705 33.2603 176.177 32.5268 175.091 32.3508L174.358 32.2335C174.035 32.1748 173.888 32.0574 173.888 31.8521C173.859 31.676 173.976 31.5 174.152 31.4707C174.182 31.4707 174.211 31.4707 174.24 31.4707C174.358 31.4707 174.475 31.5 174.592 31.5C174.71 31.5 174.856 31.5293 175.062 31.5587L175.59 31.588C176.089 31.6467 176.47 31.676 176.705 31.676C177.086 31.676 177.732 31.6174 178.583 31.5293C179.228 31.4707 179.874 31.4413 180.519 31.4413C181.018 31.4413 181.252 31.5587 181.252 31.7934C181.252 31.9988 181.076 32.1161 180.724 32.1161C179.903 32.1748 179.492 32.7322 179.492 33.8177L179.522 44.3795Z" fill="black"/>
<path d="M21.4762 34.4628V43.6456C21.3882 44.6432 21.5936 45.67 22.063 46.5795C22.5911 47.1956 23.3539 47.577 24.1753 47.5476C24.4687 47.577 24.6154 47.7237 24.6154 47.9877C24.6154 48.1638 24.4981 48.2811 24.234 48.2811C24.1753 48.2811 24.0873 48.2811 23.9407 48.2811L23.0311 48.2518L21.5056 48.1638C21.3882 48.1638 21.2122 48.1638 21.0068 48.1638C20.5374 48.1638 20.0974 48.1638 19.7453 48.1931L17.0462 48.3398C16.7528 48.3692 16.5768 48.3985 16.4594 48.3985C16.1954 48.3985 16.078 48.2811 16.078 48.0758C16.078 47.9584 16.1074 47.8117 16.1954 47.7237C16.3421 47.665 16.5181 47.6063 16.6648 47.6063C17.2222 47.6063 17.7503 47.3423 18.1317 46.9316C18.5131 46.4328 18.6891 45.8461 18.6598 45.2299V44.6432V33.7587C18.6598 33.1133 18.3077 32.7905 17.6329 32.7905C16.5181 32.7319 15.3739 32.8492 14.3177 33.1426C13.9657 33.2599 13.6723 33.4653 13.4669 33.7587C13.2029 34.2868 13.0268 34.8442 12.8801 35.431L12.7921 35.783C12.7041 36.1057 12.5574 36.2818 12.3814 36.2818C12.1174 36.2818 12 36.1644 12 35.9004C12.0293 35.5777 12.0587 35.2549 12.1174 34.9616L12.2347 33.9054L12.3814 32.8199L12.4694 32.0864C12.4694 31.8224 12.6748 31.617 12.9095 31.617C12.9388 31.617 12.9388 31.617 12.9682 31.617C13.0562 31.617 13.2029 31.617 13.3789 31.6463C13.7016 31.6757 14.1417 31.6757 14.7285 31.6757L17.2222 31.705L20.1854 31.7344C22.0924 31.7344 24.1167 31.6757 26.2584 31.5877C26.6691 31.5583 26.9625 31.5583 27.0798 31.5583C27.52 31.5583 27.7546 31.7344 27.784 32.1158L27.8426 32.9959C27.8426 33.1426 27.9013 33.4653 27.96 33.9934C28.0186 34.3455 28.048 34.6975 28.048 35.0202C28.048 35.2843 27.9306 35.431 27.7253 35.431C27.5493 35.431 27.4026 35.2843 27.3439 34.9616C27.2265 34.3161 26.9038 33.7294 26.3757 33.3186C25.7303 32.9372 24.9969 32.7612 24.2634 32.8199C23.4713 32.7612 22.7085 32.8492 21.9456 33.1132C21.6229 33.2306 21.4762 33.7 21.4762 34.4628ZM33.7983 44.4085L33.8863 45.6407C33.945 46.1981 34.209 46.6969 34.5904 47.0783C35.0012 47.4303 35.5292 47.6063 36.0574 47.577C36.4681 47.577 36.6441 47.6943 36.6441 47.9584C36.6441 48.1931 36.3801 48.3105 35.852 48.3105C35.6172 48.3105 35.2945 48.2811 34.8838 48.2518C34.033 48.1344 33.1822 48.0758 32.3021 48.0758C31.6566 48.0758 31.0112 48.1051 30.3657 48.1931C30.0724 48.2518 29.779 48.2811 29.4856 48.3105C29.3095 48.3105 29.1628 48.2225 29.1335 48.0464L29.1042 47.9584L29.4562 47.665C29.9257 47.5476 30.3364 47.2836 30.6298 46.9022C30.8645 46.4328 30.9525 45.9047 30.9232 45.3766V44.2911V34.6095C30.9818 34.0521 30.8351 33.4947 30.5417 33.0252C30.1604 32.6438 29.6616 32.4091 29.1042 32.3798C28.8402 32.3505 28.5761 32.2918 28.312 32.2038C28.1947 32.1451 28.136 32.0277 28.136 31.8811C28.136 31.6463 28.224 31.529 28.4294 31.5583C28.6641 31.5877 28.8695 31.617 29.0748 31.6463C29.5736 31.7344 30.043 31.7637 30.5417 31.7344C30.9818 31.7344 31.5686 31.705 32.2434 31.6463L33.1235 31.5877C33.945 31.529 34.5904 31.4996 35.0599 31.4996C35.3239 31.4996 35.4706 31.5877 35.4706 31.793C35.4706 31.9104 35.4706 31.9984 35.4119 32.0864C35.3239 32.1451 35.2066 32.2038 35.1186 32.2038C34.7078 32.2331 34.297 32.4091 34.0037 32.7025C33.7983 33.1426 33.7103 33.612 33.769 34.0814L33.7983 44.4085ZM46.0617 31.2356C47.7047 31.2943 49.3182 31.705 50.8144 32.4091C51.1079 32.5558 51.4013 32.6438 51.6946 32.7025C51.812 32.7025 51.9293 32.6732 51.988 32.5852L52.1347 32.4678C52.2227 32.3798 52.3107 32.3505 52.4281 32.3505C52.6628 32.3505 52.7802 32.4972 52.7802 32.7905V33.6413L52.7215 35.3136L52.7508 36.1938C52.7802 36.3991 52.7802 36.6338 52.8388 36.8979C52.8388 36.9859 52.8388 37.0739 52.8388 37.1032C52.8388 37.3673 52.7215 37.4847 52.4574 37.4847C52.2814 37.4847 52.164 37.3086 52.1053 36.9859C51.8706 35.9004 51.3426 34.9029 50.5504 34.1401C49.4355 32.8785 47.7927 32.1451 46.1204 32.1744C44.5654 32.1158 43.0691 32.8492 42.1597 34.1401C41.1035 35.6657 40.5754 37.4846 40.6634 39.333C40.6047 41.3866 41.1329 43.4403 42.189 45.2006C43.2159 46.7849 44.4774 47.577 45.9737 47.577C46.5604 47.5476 47.1178 47.4596 47.6753 47.2836C48.2327 47.1369 48.7608 46.9316 49.2302 46.6382C49.5529 46.4328 49.7876 46.0807 49.905 45.7287C50.0517 45.1126 50.1104 44.4672 50.081 43.851C50.1691 43.1469 49.9637 42.4134 49.5529 41.8267C48.9955 41.3866 48.2914 41.1519 47.5873 41.1812C47.3232 41.1519 47.2059 41.0346 47.2059 40.8292C47.2059 40.5945 47.3526 40.4772 47.646 40.4772C47.734 40.4772 47.8806 40.4772 48.086 40.5065C48.8782 40.5652 49.7876 40.6239 50.7851 40.6239C51.548 40.6239 52.3107 40.5945 53.0735 40.5358C53.3669 40.4772 53.6896 40.4772 53.983 40.4478C54.2764 40.4478 54.423 40.5652 54.423 40.7706C54.423 40.9759 54.2764 41.0932 53.983 41.1519C53.5429 41.2106 53.1908 41.504 53.0148 41.9147C52.8095 42.5895 52.7215 43.2643 52.7508 43.9684C52.7508 44.2324 52.7508 44.4965 52.7802 44.7605C52.8095 45.1712 52.8388 45.4353 52.8388 45.6114C52.8682 45.8167 52.8095 45.9927 52.6921 46.1687C52.5161 46.3448 52.3107 46.4621 52.076 46.5208C51.9 46.5795 51.2546 46.8729 50.1397 47.3423C48.5554 48.1051 46.8244 48.5158 45.0642 48.6038C43.0398 48.6625 41.0742 47.8704 39.6953 46.3741C38.2577 44.7899 37.5243 42.7362 37.6123 40.6239C37.5536 38.1888 38.4044 35.8124 40.018 33.9934C41.5729 32.1744 43.7733 31.1769 46.0617 31.2356ZM60.9068 34.3455V36.9859C60.8775 37.4846 60.9361 37.9541 61.0828 38.4235C61.2002 38.6288 61.4643 38.7168 61.875 38.7168H62.2564H62.7845H63.8113C64.6328 38.6875 65.3956 38.1595 65.6889 37.3966L65.9823 36.8099C66.041 36.6632 66.1877 36.5752 66.3344 36.5752C66.5104 36.5752 66.5985 36.6925 66.5985 36.8979C66.5985 36.9566 66.5985 37.1326 66.5691 37.426C66.5398 37.6313 66.5398 37.8074 66.5398 37.9541C66.5398 38.2181 66.5691 38.8342 66.6571 39.773C66.7158 40.3891 66.7158 40.9466 66.7158 41.416L66.7451 42.0321C66.7451 42.1201 66.7451 42.1788 66.7158 42.2668C66.6571 42.3254 66.5985 42.3548 66.5104 42.3548C66.3051 42.3841 66.1877 42.2081 66.129 41.8854C66.0703 41.2986 65.8063 40.7412 65.3956 40.3011C65.1902 40.0957 64.8968 39.9784 64.6328 39.9197C64.0754 39.861 63.4886 39.8317 62.9312 39.8317H62.1097C61.8456 39.8024 61.5523 39.861 61.3176 40.0077C61.1415 40.2131 61.0535 40.4478 61.0242 40.7119C60.9655 41.3573 60.9361 42.0028 60.9361 42.6482V43.7337C60.9068 44.5552 60.9948 45.406 61.2002 46.1981C61.3176 46.8142 61.9336 47.2249 62.5498 47.1369C65.8356 47.1369 68.0067 46.1394 69.0042 44.1151C69.0629 44.0271 69.1216 43.9684 69.1509 43.9684C69.2389 43.939 69.3269 43.9977 69.3856 44.0564C69.4442 44.1151 69.5029 44.2324 69.5029 44.3205C69.5029 45.1419 69.2682 45.9341 68.8575 46.6382C68.5641 47.2249 68.0947 47.6943 67.5079 47.9877C66.8331 48.2811 66.0997 48.4278 65.3663 48.3985C64.7795 48.3985 64.2221 48.3692 63.6353 48.3105L62.227 48.1931C61.699 48.1344 60.9948 48.1051 60.1147 48.1051C59.5279 48.1051 58.6184 48.1344 57.4156 48.2225C57.0928 48.2518 56.8581 48.2518 56.7115 48.2518C56.5648 48.2811 56.4181 48.1638 56.3888 48.0171V47.9877C56.3888 47.841 56.4768 47.7237 56.6528 47.6356C57.0048 47.5183 57.3276 47.3423 57.5916 47.0783C57.797 46.7555 57.9437 46.4034 57.973 46.0221C58.0903 45.4353 58.1197 44.8485 58.1197 44.2618V34.6388C58.1783 33.9934 58.0317 33.348 57.6796 32.7905C57.1515 32.3798 56.5061 32.1451 55.8313 32.1158C55.6553 32.1158 55.5086 31.9691 55.5086 31.7637C55.5086 31.5877 55.6552 31.4703 55.9193 31.4703C55.978 31.4703 56.0954 31.4703 56.3007 31.4996C56.4474 31.4996 56.6528 31.4996 56.8875 31.4996L58.1197 31.5583L62.7258 31.617C65.3956 31.617 67.0091 31.5877 67.6253 31.4996C67.684 31.4996 67.7427 31.4996 67.8013 31.4996C68.036 31.4996 68.1533 31.6463 68.1533 31.9104C68.1533 32.0864 68.1827 32.4385 68.2413 32.9079C68.3 33.612 68.3294 34.1401 68.3294 34.4335C68.3294 35.0496 68.1827 35.3723 67.86 35.3723C67.7133 35.3723 67.6253 35.1963 67.6253 34.8442C67.684 34.1401 67.3319 33.4653 66.7451 33.0839C65.865 32.6732 64.8675 32.4678 63.8993 32.5558H62.4031L61.5816 32.6438C61.1709 32.7612 60.9655 33.1719 60.9655 33.876L60.9068 34.3455ZM75.6053 43.4403C75.5173 44.4965 75.6639 45.582 76.0453 46.5795C76.3974 47.1663 77.0428 47.5183 77.7176 47.5183C78.0697 47.5476 78.2164 47.6943 78.2164 47.9291C78.2164 48.1638 78.0697 48.2811 77.8057 48.2811C77.7176 48.2811 77.5416 48.2811 77.3069 48.2518C76.6028 48.1931 75.928 48.1638 75.2826 48.1638C74.7544 48.1638 74.2557 48.1931 73.845 48.2225L72.8182 48.3105L71.9966 48.3692C71.762 48.3985 71.6153 48.3985 71.5273 48.3985C71.2339 48.3985 71.0872 48.2811 71.0872 48.0758C71.0578 47.9291 71.1752 47.7824 71.3219 47.7237C71.762 47.6357 72.1727 47.3716 72.4661 47.0489C72.7008 46.6675 72.8182 46.1981 72.7888 45.7287V44.5845L72.8182 44.1151V35.3136C72.8768 34.6388 72.7595 33.9641 72.4367 33.348C71.9673 32.7612 71.2339 32.4091 70.5004 32.3798C70.1777 32.3211 70.0017 32.1744 70.0017 31.9691C69.9723 31.793 70.0897 31.6463 70.2657 31.617C70.2951 31.617 70.3244 31.617 70.3538 31.617C70.5004 31.617 70.6471 31.617 70.7938 31.6463C71.4686 31.705 72.1727 31.7637 72.8475 31.7344C73.6689 31.7344 74.6664 31.6757 75.8399 31.5877C77.2188 31.4703 78.1577 31.441 78.6858 31.441C80.0646 31.3823 81.4435 31.8517 82.5293 32.7025C83.4973 33.4653 84.0842 34.6388 84.0544 35.8711C84.0544 36.6632 83.8202 37.426 83.3802 38.0714C82.9104 38.7462 82.2653 39.2743 81.5315 39.5677C81.3846 39.6264 81.2966 39.7144 81.2966 39.8024C81.3264 39.9197 81.3555 40.0077 81.4144 40.0957C81.4726 40.2131 81.5904 40.3891 81.7366 40.6532L82.8224 42.5895L84.0842 44.8192C84.3773 45.406 84.7591 45.9341 85.2282 46.3741C85.5511 46.6675 85.9911 46.8142 86.4311 46.8142C86.6071 46.8142 86.7831 46.8142 86.9591 46.7555C87.0471 46.7262 87.1351 46.7262 87.2231 46.7262C87.37 46.7262 87.458 46.8142 87.458 47.0196C87.458 47.2543 87.1351 47.5183 86.4602 47.8117C85.9031 48.0758 85.3162 48.2518 84.7002 48.2518C83.7904 48.2225 82.9395 47.753 82.3824 47.0196C81.2966 45.582 80.3875 44.0271 79.6246 42.3548C79.3606 41.7387 79.0085 41.1519 78.5391 40.6532C78.1284 40.3891 77.6296 40.2424 77.1602 40.3011H76.3974L75.8399 40.3891C75.7226 40.4478 75.6639 40.6532 75.6639 40.9759L75.6053 43.4403ZM75.6053 33.9347V38.1595C75.5759 38.5115 75.6346 38.8342 75.8106 39.1569C76.104 39.333 76.4268 39.421 76.7788 39.3623C77.6883 39.3917 78.5684 39.3623 79.4779 39.2743C79.8297 39.2156 80.1817 39.0396 80.4464 38.7755C81.0624 38.2181 81.3846 37.3966 81.3264 36.5458C81.3846 34.2868 79.6246 32.3798 77.3362 32.3211C77.2482 32.3211 77.1602 32.3211 77.0428 32.3211C76.6321 32.2624 76.2214 32.4091 75.8986 32.6732C75.6639 33.0252 75.5466 33.4947 75.6053 33.9347Z" fill="black"/>
</g>
</svg>
