<svg width="200" height="80" viewBox="0 0 200 80" fill="none" xmlns="http://www.w3.org/2000/svg">
<mask id="mask0_1673_64" style="mask-type:luminance" maskUnits="userSpaceOnUse" x="40" y="24" width="120" height="32">
<path d="M159.625 24.0753H40.375V55.9247H159.625V24.0753Z" fill="white"/>
</mask>
<g mask="url(#mask0_1673_64)">
<path d="M159.221 39.6043V24.2037H143.898L159.221 39.6043Z" fill="black"/>
<path d="M51.6603 38.599C52.7654 38.214 53.6155 37.6364 54.1894 36.8664C54.7632 36.0964 55.0607 35.1552 55.0607 34.0216C55.0607 32.1607 54.4444 30.7489 53.2118 29.7864C51.9791 28.8025 50.2151 28.3319 47.941 28.3319H40.375V49.7003H48.3873C50.7889 49.7003 52.6379 49.1869 53.9131 48.1816C55.1883 47.1549 55.8471 45.7004 55.8471 43.7967C55.8471 42.4491 55.4858 41.3369 54.7845 40.4599C54.0831 39.5615 53.0417 38.9412 51.6603 38.599ZM47.771 31.2623C49.0462 31.2623 50.0238 31.519 50.7039 32.0323C51.384 32.5457 51.7453 33.2943 51.7453 34.2569C51.7453 35.2408 51.4053 35.968 50.7039 36.4814C50.0238 36.9948 49.0462 37.2514 47.771 37.2514H43.7117V31.2623H47.771ZM48.1748 46.7057H43.7117V40.0749H48.1748C49.5563 40.0749 50.5976 40.3529 51.3415 40.9305C52.0854 41.508 52.4467 42.3208 52.4467 43.3689C52.4467 44.417 52.0854 45.2512 51.3415 45.8287C50.5976 46.4277 49.5563 46.7057 48.1748 46.7057ZM65.9635 33.8291C64.8158 33.8291 63.7107 33.9788 62.648 34.2996C61.5854 34.6205 60.6715 35.0696 59.8639 35.69L61.4154 38.0642C62.0955 37.5937 62.8393 37.2301 63.6044 36.9733C64.3695 36.7167 65.1346 36.5883 65.8998 36.5883C66.9836 36.5883 67.8338 36.845 68.4076 37.337C69.0026 37.829 69.2789 38.5562 69.2789 39.5188V40.139H66.4311C63.9869 40.139 62.138 40.5668 60.8841 41.4438C59.6301 42.3422 58.9925 43.6042 58.9925 45.2512C58.9925 46.7271 59.5026 47.8821 60.5015 48.7591C61.5217 49.6361 62.8606 50.0639 64.5396 50.0639C65.7084 50.0639 66.7073 49.8286 67.5362 49.3367C68.3651 48.8661 68.9814 48.1816 69.4065 47.2832L69.4702 47.3688V49.6575H72.4031V39.1765C72.4031 37.4439 71.8506 36.1178 70.7666 35.198C69.6827 34.2782 68.0675 33.8291 65.9635 33.8291ZM65.3046 47.5185C64.3695 47.5185 63.6256 47.3046 63.0731 46.8555C62.5205 46.4277 62.2443 45.8287 62.2443 45.1015C62.2443 43.4545 63.7107 42.6202 66.6648 42.6202H69.3002V43.6897C69.3002 44.909 68.9601 45.8501 68.2588 46.5132C67.5575 47.1763 66.5799 47.5185 65.3046 47.5185ZM85.4736 46.5988C85.0273 46.8341 84.6236 47.0266 84.2835 47.1335C83.9222 47.2405 83.5609 47.3046 83.1996 47.3046C82.5833 47.3046 82.0944 47.1121 81.7544 46.7271C81.4143 46.3421 81.2443 45.7646 81.2443 45.0159V36.7594H85.6436V34.2355H81.2443V29.765H78.0989V34.2141H75.2085V36.7381H78.0989V45.4437C78.0989 46.9196 78.5027 48.0746 79.2891 48.8661C80.0967 49.6575 81.2231 50.0639 82.7108 50.0639C83.5609 50.0639 84.2835 49.9783 84.8998 49.7858C85.5162 49.5933 86.1325 49.2939 86.7701 48.8661L85.4736 46.5988ZM98.5442 46.5988C98.0979 46.8341 97.694 47.0266 97.354 47.1335C96.9928 47.2405 96.6315 47.3046 96.2701 47.3046C95.6326 47.3046 95.165 47.1121 94.8249 46.7271C94.4849 46.3421 94.3149 45.7646 94.3149 45.0159V36.7594H98.7142V34.2355H94.3149V29.765H91.1694V34.2141H88.2791V36.7381H91.1694V45.4437C91.1694 46.9196 91.5732 48.0746 92.3596 48.8661C93.1672 49.6575 94.2936 50.0639 95.7813 50.0639C96.6314 50.0639 97.354 49.9783 97.9704 49.7858C98.5867 49.5933 99.203 49.2939 99.8406 48.8661L98.5442 46.5988ZM116.503 41.9144C116.503 40.3102 116.184 38.8985 115.568 37.6792C114.951 36.46 114.08 35.5189 112.954 34.8344C111.827 34.1713 110.488 33.8291 108.979 33.8291C107.47 33.8291 106.131 34.1713 105.005 34.8344C103.879 35.4975 102.986 36.46 102.37 37.6792C101.732 38.8985 101.435 40.3102 101.435 41.9144C101.435 44.417 102.157 46.4062 103.624 47.8607C105.09 49.3153 107.067 50.0639 109.596 50.0639C112.295 50.0639 114.378 49.3794 115.865 47.9891L114.208 45.7646C112.89 46.8127 111.36 47.326 109.596 47.326C108.193 47.326 107.067 46.941 106.216 46.1709C105.366 45.4009 104.856 44.3314 104.686 42.9411H116.503V41.9144ZM108.979 36.5242C110.106 36.5242 111.062 36.8878 111.806 37.6151C112.571 38.3423 113.06 39.3476 113.272 40.6097H104.686C104.899 39.3476 105.366 38.3423 106.11 37.6151C106.875 36.8878 107.832 36.5242 108.979 36.5242ZM127.618 33.8291C126.619 33.8291 125.769 34.1071 125.046 34.6632C124.324 35.2194 123.771 35.9894 123.41 37.0162V34.2355H120.435V49.6789H123.601V40.5454C123.601 39.3262 123.941 38.3851 124.622 37.722C125.302 37.0589 126.173 36.7381 127.236 36.7381C127.81 36.7381 128.383 36.8237 128.999 36.9733L129.404 34.0643C128.999 33.9146 128.404 33.8291 127.618 33.8291ZM144.238 34.2355L139.881 45.5507L135.354 34.2355H131.783L138.266 49.4436L137.479 51.3901C137.225 52.0104 136.863 52.4596 136.438 52.7376C136.013 52.9943 135.418 53.144 134.674 53.144H133.017V55.7963H135.376C136.693 55.7963 137.735 55.4969 138.478 54.9194C139.244 54.3419 139.881 53.4007 140.412 52.096L147.681 34.2355H144.238Z" fill="black"/>
</g>
</svg>
