<svg width="40" height="41" viewBox="0 0 40 41" fill="none" xmlns="http://www.w3.org/2000/svg">
<g clip-path="url(#clip0_6634_30785)">
<path d="M20.0065 0.274902C11.6649 0.274902 9.22525 0.283508 8.75103 0.322846C7.03918 0.465142 5.97396 0.734674 4.81347 1.31246C3.91912 1.75656 3.21379 2.27135 2.51768 2.99297C1.24993 4.30897 0.481591 5.92801 0.203454 7.85253C0.0682267 8.78683 0.0288879 8.97738 0.0208972 13.7497C0.0178238 15.3404 0.0208972 17.434 0.0208972 20.2421C0.0208972 28.577 0.0301172 31.0142 0.0700706 31.4875C0.208371 33.1532 0.469605 34.2012 1.02281 35.3476C2.08004 37.5419 4.09922 39.1893 6.47799 39.8039C7.30164 40.016 8.21135 40.1328 9.37922 40.1881C9.87403 40.2096 14.9174 40.225 19.9638 40.225C25.0102 40.225 30.0567 40.2188 30.5392 40.1942C31.8915 40.1306 32.6767 40.0252 33.5449 39.8008C34.7244 39.4984 35.8236 38.9421 36.7659 38.1708C37.7081 37.3995 38.4706 36.4318 39.0001 35.3353C39.5425 34.2166 39.8176 33.1286 39.9421 31.5498C39.9691 31.2056 39.9805 25.7176 39.9805 20.2369C39.9805 14.7553 39.9682 9.27734 39.9411 8.93312C39.8151 7.32884 39.5401 6.25009 38.9801 5.10988C38.5206 4.17651 38.0105 3.47948 37.2698 2.76677C35.9483 1.50424 34.3317 0.735904 32.405 0.458074C31.4716 0.323154 31.2857 0.2832 26.5097 0.274902H20.0065Z" fill="url(#paint0_radial_6634_30785)"/>
<path d="M20.0065 0.274902C11.6649 0.274902 9.22525 0.283508 8.75103 0.322846C7.03918 0.465142 5.97396 0.734674 4.81347 1.31246C3.91912 1.75656 3.21379 2.27135 2.51768 2.99297C1.24993 4.30897 0.481591 5.92801 0.203454 7.85253C0.0682267 8.78683 0.0288879 8.97738 0.0208972 13.7497C0.0178238 15.3404 0.0208972 17.434 0.0208972 20.2421C0.0208972 28.577 0.0301172 31.0142 0.0700706 31.4875C0.208371 33.1532 0.469605 34.2012 1.02281 35.3476C2.08004 37.5419 4.09922 39.1893 6.47799 39.8039C7.30164 40.016 8.21135 40.1328 9.37922 40.1881C9.87403 40.2096 14.9174 40.225 19.9638 40.225C25.0102 40.225 30.0567 40.2188 30.5392 40.1942C31.8915 40.1306 32.6767 40.0252 33.5449 39.8008C34.7244 39.4984 35.8236 38.9421 36.7659 38.1708C37.7081 37.3995 38.4706 36.4318 39.0001 35.3353C39.5425 34.2166 39.8176 33.1286 39.9421 31.5498C39.9691 31.2056 39.9805 25.7176 39.9805 20.2369C39.9805 14.7553 39.9682 9.27734 39.9411 8.93312C39.8151 7.32884 39.5401 6.25009 38.9801 5.10988C38.5206 4.17651 38.0105 3.47948 37.2698 2.76677C35.9483 1.50424 34.3317 0.735904 32.405 0.458074C31.4716 0.323154 31.2857 0.2832 26.5097 0.274902H20.0065Z" fill="url(#paint1_radial_6634_30785)"/>
<path d="M19.9973 5.49976C15.9909 5.49976 15.4881 5.51727 13.9146 5.58888C12.3441 5.6608 11.2721 5.90943 10.3341 6.27424C9.36389 6.65103 8.54085 7.15506 7.72088 7.97533C6.9003 8.7953 6.39627 9.61834 6.01825 10.5883C5.65252 11.5266 5.40358 12.5989 5.3329 14.1687C5.26282 15.7423 5.24438 16.2454 5.24438 20.2518C5.24438 24.2582 5.26221 24.7595 5.33351 26.333C5.40574 27.9035 5.65437 28.9755 6.01887 29.9135C6.39597 30.8837 6.89999 31.7068 7.72027 32.5267C8.53993 33.3473 9.36297 33.8526 10.3326 34.2294C11.2712 34.5942 12.3435 34.8428 13.9137 34.9147C15.4872 34.9863 15.9897 35.0038 19.9958 35.0038C24.0025 35.0038 24.5038 34.9863 26.0773 34.9147C27.6478 34.8428 28.721 34.5942 29.6596 34.2294C30.6296 33.8526 31.4514 33.3473 32.271 32.5267C33.0916 31.7068 33.5957 30.8837 33.9737 29.9138C34.3363 28.9755 34.5853 27.9032 34.659 26.3333C34.7297 24.7598 34.7482 24.2582 34.7482 20.2518C34.7482 16.2454 34.7297 15.7426 34.659 14.169C34.5853 12.5986 34.3363 11.5266 33.9737 10.5886C33.5957 9.61834 33.0916 8.7953 32.271 7.97533C31.4505 7.15475 30.6299 6.65072 29.6587 6.27424C28.7183 5.90943 27.6457 5.6608 26.0752 5.58888C24.5016 5.51727 24.0007 5.49976 19.993 5.49976H19.9973ZM18.674 8.1582C19.0667 8.15758 19.505 8.1582 19.9973 8.1582C23.9361 8.1582 24.403 8.17233 25.9584 8.24302C27.3967 8.30879 28.1774 8.54913 28.6974 8.75104C29.3858 9.01843 29.8766 9.33805 30.3926 9.85437C30.9089 10.3707 31.2286 10.8624 31.4966 11.5509C31.6985 12.0703 31.9391 12.8509 32.0046 14.2892C32.0753 15.8443 32.0906 16.3115 32.0906 20.2484C32.0906 24.1854 32.0753 24.6525 32.0046 26.2076C31.9388 27.646 31.6985 28.4266 31.4966 28.946C31.2292 29.6344 30.9089 30.1246 30.3926 30.6406C29.8763 31.1569 29.3861 31.4766 28.6974 31.7439C28.178 31.9468 27.3967 32.1865 25.9584 32.2523C24.4033 32.323 23.9361 32.3383 19.9973 32.3383C16.0582 32.3383 15.5914 32.323 14.0363 32.2523C12.598 32.1859 11.8173 31.9456 11.297 31.7436C10.6086 31.4763 10.1169 31.1566 9.60054 30.6403C9.08422 30.124 8.76459 29.6335 8.4966 28.9447C8.29468 28.4254 8.05403 27.6447 7.98857 26.2064C7.91789 24.6513 7.90375 24.1841 7.90375 20.2447C7.90375 16.3053 7.91789 15.8406 7.98857 14.2855C8.05434 12.8472 8.29468 12.0666 8.4966 11.5466C8.76398 10.8581 9.08422 10.3664 9.60054 9.85007C10.1169 9.33375 10.6086 9.01412 11.297 8.74613C11.817 8.54329 12.598 8.30357 14.0363 8.23749C15.3972 8.17602 15.9246 8.15758 18.674 8.15451V8.1582ZM27.8719 10.6077C27.5217 10.6077 27.1794 10.7115 26.8883 10.906C26.5972 11.1006 26.3703 11.3771 26.2363 11.7006C26.1023 12.0241 26.0673 12.3801 26.1357 12.7235C26.204 13.0669 26.3727 13.3823 26.6203 13.6299C26.868 13.8774 27.1835 14.046 27.5269 14.1142C27.8703 14.1824 28.2263 14.1473 28.5497 14.0132C28.8732 13.8791 29.1496 13.6521 29.3441 13.3609C29.5385 13.0697 29.6422 12.7274 29.6421 12.3773C29.6421 11.4 28.8492 10.607 27.8719 10.607V10.6077ZM19.9973 12.676C15.8136 12.676 12.4216 16.0681 12.4216 20.2518C12.4216 24.4355 15.8136 27.826 19.9973 27.826C24.1811 27.826 27.5722 24.4355 27.5722 20.2518C27.5722 16.0681 24.1811 12.676 19.9973 12.676ZM19.9973 15.3345C22.713 15.3345 24.9147 17.5359 24.9147 20.2518C24.9147 22.9674 22.713 25.1691 19.9973 25.1691C17.2814 25.1691 15.08 22.9674 15.08 20.2518C15.08 17.5359 17.2814 15.3345 19.9973 15.3345Z" fill="white"/>
</g>
<defs>
<radialGradient id="paint0_radial_6634_30785" cx="0" cy="0" r="1" gradientUnits="userSpaceOnUse" gradientTransform="translate(10.6342 43.302) rotate(-90) scale(39.5935 36.8351)">
<stop stop-color="#FFDD55"/>
<stop offset="0.1" stop-color="#FFDD55"/>
<stop offset="0.5" stop-color="#FF543E"/>
<stop offset="1" stop-color="#C837AB"/>
</radialGradient>
<radialGradient id="paint1_radial_6634_30785" cx="0" cy="0" r="1" gradientUnits="userSpaceOnUse" gradientTransform="translate(-6.67414 3.15284) rotate(78.6776) scale(17.6986 72.9729)">
<stop stop-color="#3771C8"/>
<stop offset="0.128" stop-color="#3771C8"/>
<stop offset="1" stop-color="#6600FF" stop-opacity="0"/>
</radialGradient>
<clipPath id="clip0_6634_30785">
<rect y="0.25" width="40" height="40" rx="12" fill="white"/>
</clipPath>
</defs>
</svg>
