<svg width="40" height="41" viewBox="0 0 40 41" fill="none" xmlns="http://www.w3.org/2000/svg">
<path d="M25.0007 2.58301C25.5852 2.58301 26.0917 2.98809 26.2202 3.55831L27.118 7.54427C27.7735 10.4543 30.046 12.7268 32.956 13.3823L36.942 14.2802C37.5123 14.4087 37.9173 14.9152 37.9173 15.4997C37.9173 16.0842 37.5123 16.5907 36.942 16.7191L32.956 17.617C30.046 18.2725 27.7735 20.545 27.118 23.455L26.2202 27.441C26.0917 28.0113 25.5852 28.4163 25.0007 28.4163C24.4162 28.4163 23.9097 28.0113 23.7812 27.441L22.8833 23.455C22.2278 20.545 19.9553 18.2725 17.0453 17.617L13.0593 16.7191C12.4891 16.5907 12.084 16.0842 12.084 15.4997C12.084 14.9152 12.4891 14.4087 13.0593 14.2802L17.0453 13.3823C19.9553 12.7268 22.2278 10.4543 22.8833 7.54427L23.7812 3.55831C23.9097 2.98809 24.4162 2.58301 25.0007 2.58301Z" fill="black"/>
<path d="M11.6673 19.25C12.2518 19.25 12.7583 19.655 12.8868 20.2253L13.5281 23.0725C13.966 25.0165 15.4842 26.5347 17.4282 26.9725L20.2753 27.6138C20.8456 27.7423 21.2507 28.2488 21.2507 28.8333C21.2507 29.4178 20.8456 29.9243 20.2753 30.0528L17.4282 30.6942C15.4842 31.132 13.966 32.6502 13.5281 34.5942L12.8868 37.4413C12.7583 38.0117 12.2518 38.4167 11.6673 38.4167C11.0828 38.4167 10.5763 38.0117 10.4479 37.4413L9.80653 34.5942C9.3686 32.6502 7.85045 31.132 5.9064 30.6942L3.05928 30.0528C2.48907 29.9243 2.08398 29.4178 2.08398 28.8333C2.08398 28.2488 2.48907 27.7423 3.05928 27.6138L5.9064 26.9725C7.85045 26.5347 9.3686 25.0165 9.80653 23.0725L10.4479 20.2253C10.5763 19.655 11.0828 19.25 11.6673 19.25Z" fill="black"/>
</svg>
