<svg width="40" height="41" viewBox="0 0 40 41" fill="none" xmlns="http://www.w3.org/2000/svg">
<rect y="0.25" width="40" height="40" rx="12" fill="black"/>
<path fill-rule="evenodd" clip-rule="evenodd" d="M17.1594 16.758V15.5416C16.7373 15.4818 16.3115 15.4508 15.8851 15.4487C10.6709 15.4487 6.42871 19.6916 6.42871 24.9059C6.42871 28.1044 8.02728 30.9359 10.4659 32.648C8.83302 30.9018 7.92525 28.6001 7.92657 26.2094C7.92657 21.0694 12.048 16.878 17.1594 16.758Z" fill="#00F2EA"/>
<path fill-rule="evenodd" clip-rule="evenodd" d="M17.3823 30.528C19.7087 30.528 21.6066 28.6773 21.693 26.3709L21.7009 5.7816H25.4623C25.382 5.35171 25.3414 4.91535 25.3409 4.47803H20.2037L20.1952 25.068C20.1094 27.3737 18.2109 29.2237 15.8852 29.2237C15.1869 29.224 14.4992 29.0539 13.8816 28.728C14.2804 29.2844 14.8058 29.7378 15.4146 30.0508C16.0233 30.3638 16.6978 30.5274 17.3823 30.528ZM32.4887 12.7702V11.6259C31.1064 11.6272 29.7537 11.225 28.5966 10.4687C29.6111 11.6368 30.9763 12.4444 32.4887 12.7702Z" fill="#00F2EA"/>
<path fill-rule="evenodd" clip-rule="evenodd" d="M28.5966 10.4679C27.4627 9.17041 26.838 7.50546 26.8388 5.78223H25.4624C25.6406 6.73469 26.0103 7.64108 26.549 8.44649C27.0877 9.25191 27.7844 9.93961 28.5966 10.4679ZM15.8852 20.5865C14.7403 20.5878 13.6426 21.0433 12.833 21.8529C12.0234 22.6625 11.568 23.7601 11.5667 24.9051C11.5674 25.6927 11.7834 26.4651 12.1913 27.1389C12.5992 27.8126 13.1834 28.3621 13.8809 28.7279C13.3499 27.9956 13.0638 27.114 13.0638 26.2094C13.0649 25.0643 13.5203 23.9664 14.3299 23.1567C15.1395 22.3469 16.2373 21.8914 17.3824 21.8901C17.8274 21.8901 18.2538 21.9637 18.6566 22.0901V16.8451C18.2345 16.7853 17.8087 16.7543 17.3824 16.7522C17.3074 16.7522 17.2338 16.7565 17.1595 16.7579V20.7865C16.7474 20.6553 16.3177 20.5879 15.8852 20.5865Z" fill="#FF004F"/>
<path fill-rule="evenodd" clip-rule="evenodd" d="M32.4887 12.7702V16.7631C29.8244 16.7631 27.3565 15.911 25.3408 14.4645V24.9052C25.3408 30.1195 21.0994 34.3617 15.8851 34.3617C13.8701 34.3617 12.0015 33.726 10.4658 32.6474C11.3487 33.5995 12.4188 34.3591 13.609 34.8784C14.7991 35.3977 16.0837 35.6656 17.3822 35.6652C22.5965 35.6652 26.8387 31.4231 26.8387 26.2095V15.7688C28.921 17.2662 31.4217 18.0703 33.9865 18.0674V12.9288C33.4722 12.9288 32.9722 12.8738 32.4887 12.7702Z" fill="#FF004F"/>
<path fill-rule="evenodd" clip-rule="evenodd" d="M25.3408 24.9051V14.4644C27.4231 15.9619 29.9238 16.7661 32.4887 16.7629V12.7701C30.9764 12.4439 29.6107 11.6361 28.5965 10.4679C27.7842 9.93961 27.0876 9.25191 26.5489 8.44649C26.0101 7.64108 25.6404 6.73469 25.4622 5.78223H21.7008L21.6929 26.3715C21.6065 28.6772 19.7087 30.5279 17.3822 30.5279C16.6977 30.5272 16.0233 30.3636 15.4145 30.0506C14.8058 29.7376 14.2803 29.2842 13.8815 28.7279C13.1839 28.3622 12.5995 27.8128 12.1915 27.139C11.7834 26.4652 11.5673 25.6928 11.5665 24.9051C11.5678 23.7601 12.0233 22.6625 12.8329 21.8529C13.6425 21.0433 14.7401 20.5878 15.8851 20.5865C16.3294 20.5865 16.7558 20.6594 17.1594 20.7865V16.7579C12.0479 16.8779 7.92651 21.0694 7.92651 26.2094C7.92651 28.6951 8.89223 30.9579 10.4658 32.6479C12.0521 33.7647 13.9451 34.3632 15.8851 34.3615C21.0994 34.3615 25.3408 30.1194 25.3408 24.9051Z" fill="white"/>
</svg>
