<svg width="220" height="56" viewBox="0 0 220 56" fill="none" xmlns="http://www.w3.org/2000/svg">
<g clip-path="url(#clip0_7001_10265)">
<path d="M28.3 18.96H24V36.83H35.39V32.89H28.3V18.96ZM50.78 18.72C49.5578 18.679 48.3401 18.8875 47.2011 19.3327C46.0622 19.778 45.0259 20.4507 44.1556 21.3098C43.2853 22.1689 42.5992 23.1963 42.1392 24.3294C41.6791 25.4624 41.4549 26.6774 41.48 27.9C41.4549 29.1226 41.6791 30.3376 42.1392 31.4706C42.5992 32.6037 43.2853 33.6311 44.1556 34.4902C45.0259 35.3493 46.0622 36.022 47.2011 36.4673C48.3401 36.9125 49.5578 37.121 50.78 37.08C52.0022 37.121 53.2199 36.9125 54.3589 36.4673C55.4978 36.022 56.5341 35.3493 57.4044 34.4902C58.2747 33.6311 58.9608 32.6037 59.4208 31.4706C59.8809 30.3376 60.1051 29.1226 60.08 27.9C60.1051 26.6774 59.8809 25.4624 59.4208 24.3294C58.9608 23.1963 58.2747 22.1689 57.4044 21.3098C56.5341 20.4507 55.4978 19.778 54.3589 19.3327C53.2199 18.8875 52.0022 18.679 50.78 18.72ZM50.78 33.13C50.106 33.1224 49.4404 32.9802 48.8221 32.7118C48.2038 32.4434 47.6454 32.0542 47.1797 31.567C46.7139 31.0798 46.3501 30.5044 46.1098 29.8747C45.8694 29.245 45.7573 28.5736 45.78 27.9C45.78 26.5739 46.3068 25.3021 47.2445 24.3645C48.1821 23.4268 49.4539 22.9 50.78 22.9C52.1061 22.9 53.3779 23.4268 54.3155 24.3645C55.2532 25.3021 55.78 26.5739 55.78 27.9C55.8027 28.5736 55.6906 29.245 55.4502 29.8747C55.2099 30.5044 54.8461 31.0798 54.3803 31.567C53.9146 32.0542 53.3562 32.4434 52.7379 32.7118C52.1196 32.9802 51.454 33.1224 50.78 33.13ZM73.79 29.54L69.56 18.96H65.07L72.3 36.83H75.3L82.52 18.96H78.04L73.79 29.54Z" fill="#29CB5F"/>
<path d="M117.11 29.54L112.88 18.96H108.4L115.62 36.83H118.62L125.85 18.96H121.36L117.11 29.54ZM182.59 24.4L179.19 18.96H174.24L180.43 28.84V36.83H184.73V28.84L190.92 18.96H185.97L182.59 24.4ZM195.7 35.21C195.69 35.6033 195.565 35.9849 195.339 36.3072C195.113 36.6294 194.798 36.878 194.431 37.0217C194.065 37.1655 193.665 37.198 193.28 37.1153C192.895 37.0326 192.544 36.8382 192.269 36.5566C191.994 36.2751 191.809 35.9187 191.736 35.5322C191.662 35.1456 191.705 34.7461 191.857 34.3835C192.01 34.021 192.267 33.7115 192.594 33.4939C192.922 33.2763 193.307 33.1601 193.7 33.16C193.967 33.1599 194.231 33.2133 194.477 33.3169C194.723 33.4205 194.946 33.5723 195.132 33.7634C195.319 33.9544 195.465 34.1808 195.562 34.4293C195.66 34.6777 195.707 34.9432 195.7 35.21ZM195.34 35.21C195.328 34.8801 195.219 34.561 195.027 34.2925C194.835 34.0241 194.568 33.8181 194.26 33.7004C193.952 33.5827 193.615 33.5585 193.293 33.6308C192.971 33.703 192.678 33.8686 192.449 34.1067C192.22 34.3449 192.067 34.6451 192.008 34.9699C191.949 35.2947 191.987 35.6296 192.117 35.9329C192.248 36.2362 192.464 36.4945 192.74 36.6753C193.017 36.8562 193.34 36.9518 193.67 36.95C193.895 36.9516 194.118 36.9074 194.325 36.8203C194.532 36.7331 194.72 36.6047 194.876 36.4429C195.032 36.2812 195.154 36.0893 195.233 35.8791C195.313 35.6689 195.349 35.4447 195.34 35.22V35.21ZM194.02 35.4L194.5 36.13H194L193.61 35.51H193.37V36.13H193V34.22H193.77C193.855 34.2132 193.941 34.2238 194.022 34.2511C194.103 34.2784 194.177 34.322 194.241 34.379C194.305 34.4361 194.356 34.5055 194.392 34.583C194.428 34.6606 194.448 34.7446 194.45 34.83C194.455 34.9642 194.413 35.096 194.331 35.2021C194.248 35.3082 194.131 35.3818 194 35.41L194.02 35.4ZM193.75 35.11C193.786 35.1144 193.823 35.1109 193.857 35.0997C193.892 35.0884 193.924 35.0698 193.95 35.045C193.977 35.0203 193.998 34.99 194.012 34.9563C194.025 34.9226 194.032 34.8863 194.03 34.85C194.03 34.8145 194.023 34.7793 194.009 34.7469C193.994 34.7144 193.973 34.6854 193.947 34.6617C193.92 34.6381 193.889 34.6203 193.855 34.6097C193.821 34.599 193.785 34.5957 193.75 34.6H193.38V35.12L193.75 35.11ZM164.57 29.52C165.25 29.2706 165.866 28.8706 166.37 28.35C167.332 27.2966 167.858 25.9166 167.84 24.49C167.855 23.0668 167.33 21.6909 166.37 20.64C165.745 20.0357 164.997 19.5728 164.178 19.283C163.358 18.9931 162.486 18.8829 161.62 18.96H154.76V36.86H159.07V30.01H159.67L165.45 36.86H170.84L164.57 29.52ZM163.12 25.52C162.88 25.77 162.5 26.03 161.46 26.03H159.06V22.91H161.46C162.46 22.91 162.88 23.17 163.12 23.41C163.391 23.7037 163.538 24.0906 163.53 24.49C163.54 24.882 163.397 25.2625 163.13 25.55L163.12 25.52ZM101.56 32.88H94.47V29.61H99.64V25.66H94.47V22.88H101.32V18.93H90.16V36.83H101.56V32.88ZM144.97 32.88H137.87V29.61H143.04V25.66H137.87V22.88H144.73V18.93H133.56V36.83H144.97V32.88Z" fill="#514F4E"/>
</g>
<defs>
<clipPath id="clip0_7001_10265">
<rect width="171.7" height="18.56" fill="white" transform="translate(24 18.72)"/>
</clipPath>
</defs>
</svg>
