<svg width="220" height="56" viewBox="0 0 220 56" fill="none" xmlns="http://www.w3.org/2000/svg">
<path d="M171.774 31.1001H178.214L178.332 33.4632H177.623C177.347 32.8462 177.118 32.4261 176.934 32.2029C176.75 31.9666 176.474 31.8484 176.107 31.8484H175.949V36.4957C175.949 36.7583 176.008 36.9355 176.126 37.0274C176.245 37.1062 176.468 37.1587 176.796 37.185V37.8545H173.192V37.185C173.52 37.1587 173.737 37.1062 173.842 37.0274C173.96 36.9355 174.019 36.7583 174.019 36.4957V31.8484H173.882C173.501 31.8484 173.219 31.96 173.035 32.1832C172.851 32.4064 172.621 32.833 172.346 33.4632H171.637L171.774 31.1001ZM183.353 35.0582L184.318 31.8681C184.423 31.6056 184.476 31.3496 184.476 31.1001H187.508V31.8484C187.193 31.8484 186.977 31.901 186.859 32.006C186.74 32.0979 186.681 32.2817 186.681 32.5574L187.292 36.5548C187.331 36.7911 187.403 36.9487 187.508 37.0274C187.627 37.1062 187.83 37.1587 188.119 37.185V37.8545H184.436V37.185C184.804 37.1587 185.053 37.1062 185.185 37.0274C185.316 36.9487 185.382 36.7846 185.382 36.5351C185.382 36.3645 185.355 36.1216 185.303 35.8065L184.85 33.0496L183.235 37.8545H182.369L180.715 33.0496L180.301 35.8065C180.249 36.1216 180.222 36.3645 180.222 36.5351C180.222 36.7846 180.288 36.9487 180.419 37.0274C180.551 37.1062 180.8 37.1587 181.168 37.185V37.8545H178.411V37.185C178.713 37.1587 178.916 37.1128 179.021 37.0471C179.139 36.9684 179.218 36.8043 179.257 36.5548L179.868 32.5574C179.868 32.2948 179.809 32.111 179.691 32.006C179.586 31.901 179.382 31.8484 179.08 31.8484V31.1001H182.073C182.1 31.3758 182.152 31.6318 182.231 31.8681L183.353 35.0582Z" fill="black"/>
<path d="M167.68 31.5926V34.0935H170.299V35.5704H167.68V41.6355C167.68 42.5414 168.087 42.9943 168.901 42.9943C169.374 42.9943 169.86 42.8696 170.358 42.6201L170.752 43.6244C169.781 44.6222 168.567 45.121 167.109 45.121C164.996 45.121 163.939 44.0773 163.939 41.99V35.5704H162.639V34.4873C163.283 34.2773 163.952 33.9031 164.648 33.3649C165.357 32.8267 165.98 32.2359 166.519 31.5926H167.68Z" fill="black"/>
<path d="M162.085 44.924H156.177V43.6046C156.624 43.539 156.906 43.4471 157.024 43.3289C157.142 43.2108 157.201 42.9285 157.201 42.4822V37.4804C157.201 37.0341 157.103 36.719 156.906 36.5352C156.722 36.3383 156.394 36.2398 155.921 36.2398C155.54 36.2398 154.989 36.3514 154.267 36.5746V42.4822C154.267 42.9285 154.326 43.2108 154.444 43.3289C154.562 43.4471 154.851 43.539 155.311 43.6046V44.924H149.521V43.6046C149.981 43.539 150.27 43.4471 150.388 43.3289C150.506 43.2108 150.565 42.9285 150.565 42.4822V37.4804C150.565 37.0341 150.467 36.719 150.27 36.5352C150.086 36.3383 149.758 36.2398 149.285 36.2398C148.904 36.2398 148.353 36.3514 147.631 36.5746V42.4822C147.631 42.9285 147.69 43.2108 147.808 43.3289C147.926 43.4471 148.215 43.539 148.675 43.6046V44.924H142.728V43.6046C143.213 43.539 143.535 43.4471 143.692 43.3289C143.85 43.1976 143.929 42.9154 143.929 42.4822V36.7518L142.826 35.59V34.8811L146.981 33.798H147.631V35.9641C147.985 35.5572 148.294 35.2355 148.556 34.9992C148.819 34.7498 149.2 34.5069 149.699 34.2706C150.197 34.0212 150.716 33.8965 151.254 33.8965C151.937 33.8965 152.541 34.0803 153.066 34.4478C153.591 34.8023 153.945 35.3405 154.129 36.0626C155.442 34.6185 156.748 33.8965 158.048 33.8965C159.952 33.8965 160.903 34.9598 160.903 37.0866V42.4822C160.903 42.9154 160.982 43.1976 161.14 43.3289C161.297 43.4471 161.612 43.539 162.085 43.6046V44.924Z" fill="black"/>
<path d="M135.98 41.0444C135.166 41.0444 134.457 40.946 133.853 40.7491C133.512 41.156 133.341 41.4645 133.341 41.6746C133.341 41.9503 133.499 42.0881 133.814 42.0881H138.56C139.702 42.0881 140.562 42.3507 141.14 42.8758C141.73 43.3878 142.026 44.1033 142.026 45.0222C142.026 46.2694 141.474 47.2409 140.372 47.9366C139.269 48.6456 137.785 49 135.921 49C134.293 49 133.026 48.8031 132.121 48.4093C131.215 48.0285 130.762 47.4575 130.762 46.696C130.762 46.2497 130.939 45.8887 131.294 45.613C131.648 45.3373 132.055 45.1601 132.514 45.0813C131.556 44.7137 131.077 44.0311 131.077 43.0333C131.077 42.5213 131.241 42.075 131.569 41.6943C131.911 41.3004 132.449 40.9 133.184 40.4931C131.924 39.9023 131.294 38.9571 131.294 37.6574C131.294 36.5022 131.746 35.5898 132.652 34.9202C133.558 34.2376 134.726 33.8963 136.157 33.8963C136.827 33.8963 137.49 33.9816 138.146 34.1523L141.789 34.0144V35.8261H140.923L139.387 35.4913V35.6095C140.306 36.0164 140.765 36.686 140.765 37.618C140.765 38.6814 140.319 39.5216 139.426 40.1386C138.534 40.7425 137.385 41.0444 135.98 41.0444ZM138.166 45.5736H133.085C132.994 45.6786 132.948 45.8755 132.948 46.1644C132.948 47.254 133.958 47.7988 135.98 47.7988C138.12 47.7988 139.19 47.3065 139.19 46.3219C139.19 45.823 138.849 45.5736 138.166 45.5736ZM136.118 39.922C136.827 39.922 137.181 39.2131 137.181 37.7953C137.181 36.9682 137.07 36.3052 136.847 35.8064C136.623 35.2944 136.295 35.0384 135.862 35.0384C135.153 35.0384 134.799 35.7473 134.799 37.1651C134.799 37.9659 134.91 38.6289 135.133 39.154C135.357 39.666 135.685 39.922 136.118 39.922Z" fill="black"/>
<path d="M124.541 41.8126L123.615 35.393L120.228 44.9239H118.673L115.089 35.3733L114.222 41.8126C114.196 42.0226 114.183 42.1867 114.183 42.3049C114.183 42.7644 114.314 43.0794 114.577 43.2501C114.852 43.4208 115.345 43.5258 116.054 43.5652V44.9239H110.717V43.5652C111.282 43.5389 111.675 43.447 111.899 43.2895C112.135 43.1188 112.286 42.8103 112.351 42.364L113.592 33.8964C113.592 33.3713 113.474 33.0103 113.238 32.8133C113.014 32.6033 112.581 32.4851 111.938 32.4589V31.1001H117.59C117.616 31.4152 117.721 31.8353 117.905 32.3604L120.563 39.5086L123.064 32.3604C123.261 31.7828 123.372 31.3627 123.399 31.1001H128.952V32.4589C128.309 32.4851 127.875 32.6033 127.652 32.8133C127.429 33.0103 127.317 33.3713 127.317 33.8964L128.538 42.364C128.604 42.8234 128.748 43.1319 128.972 43.2895C129.208 43.447 129.615 43.5389 130.192 43.5652V44.9239H122.709V43.5652C123.432 43.5258 123.924 43.4208 124.186 43.2501C124.449 43.0794 124.58 42.7644 124.58 42.3049C124.58 42.1867 124.567 42.0226 124.541 41.8126Z" fill="black"/>
<path d="M98.4159 29.9384V35.9642C99.65 34.5857 100.917 33.8965 102.216 33.8965C104.225 33.8965 105.229 34.973 105.229 37.126V42.4822C105.229 42.9155 105.308 43.1977 105.466 43.329C105.623 43.4471 105.938 43.539 106.411 43.6047V44.924H100.425V43.6047C100.884 43.539 101.179 43.4471 101.311 43.329C101.455 43.1977 101.527 42.9155 101.527 42.4822V37.4805C101.527 37.0604 101.435 36.7519 101.252 36.5549C101.068 36.3449 100.753 36.2399 100.306 36.2399C99.7156 36.2399 99.0855 36.3515 98.4159 36.5746V42.4822C98.4159 42.9155 98.4816 43.1977 98.6129 43.329C98.7573 43.4471 99.0592 43.539 99.5187 43.6047V44.924H93.5126V43.6047C93.9984 43.539 94.32 43.4471 94.4775 43.329C94.6351 43.1977 94.7138 42.9155 94.7138 42.4822V32.5969L93.6111 31.435V30.7064L97.7858 29.9384H98.4159Z" fill="black"/>
<path d="M89.9706 31.5926V34.0935H92.5897V35.5704H89.9706V41.6355C89.9706 42.5414 90.3776 42.9943 91.1915 42.9943C91.6642 42.9943 92.1499 42.8696 92.6488 42.6201L93.0426 43.6244C92.0711 44.6222 90.8568 45.121 89.3996 45.121C87.286 45.121 86.2292 44.0773 86.2292 41.99V35.5704H84.9295V34.4873C85.5728 34.2773 86.2423 33.9031 86.9381 33.3649C87.647 32.8267 88.2706 32.2359 88.8088 31.5926H89.9706Z" fill="black"/>
<path d="M80.3135 40.1582L81.6722 36.7515C81.7641 36.5151 81.8101 36.2985 81.8101 36.1016C81.8101 35.8784 81.7379 35.7209 81.5935 35.629C81.4491 35.524 81.2193 35.4452 80.9042 35.3927V34.093H84.6654V35.3927C84.2978 35.524 84.0418 35.6356 83.8974 35.7275C83.753 35.8194 83.6414 35.9703 83.5627 36.1804L79.9 45.0024H78.6987L76.1388 38.7994L73.3819 45.0024H72.2004L68.2423 36.1804C68.1504 35.9703 68.0322 35.8194 67.8878 35.7275C67.7434 35.6224 67.494 35.5109 67.1395 35.3927V34.093H73.185V35.3927C72.6861 35.4846 72.4367 35.7012 72.4367 36.0425C72.4367 36.2001 72.5023 36.4429 72.6336 36.7711L74.012 40.2763L75.3905 37.0862L75.036 36.1804C74.9441 35.9441 74.8325 35.7669 74.7013 35.6487C74.5831 35.5305 74.4059 35.4452 74.1696 35.3927V34.093H79.8015V35.3927C79.447 35.4452 79.2042 35.5174 79.0729 35.6093C78.9547 35.7012 78.8957 35.8522 78.8957 36.0622C78.8957 36.2329 78.9482 36.4626 79.0532 36.7515L80.3135 40.1582Z" fill="black"/>
<path d="M61.3465 43.7226C61.8585 43.7226 62.2589 43.3944 62.5477 42.738C62.8365 42.0684 62.9809 41.1889 62.9809 40.0992C62.9809 38.6814 62.8037 37.5261 62.4492 36.6334C62.0948 35.7276 61.6025 35.2747 60.9723 35.2747C60.4472 35.2747 60.0402 35.6095 59.7514 36.279C59.4626 36.9485 59.3182 37.8281 59.3182 38.9177C59.3182 40.3355 59.4954 41.4908 59.8499 42.3835C60.2175 43.2762 60.7163 43.7226 61.3465 43.7226ZM60.992 45.1207C59.3641 45.1207 58.0448 44.6087 57.0339 43.5847C56.0231 42.5476 55.5176 41.2479 55.5176 39.6857C55.5176 37.9397 56.0559 36.5415 57.1324 35.4913C58.222 34.4279 59.6136 33.8963 61.3071 33.8963C62.9481 33.8963 64.274 34.4148 65.2849 35.4519C66.2957 36.4759 66.8011 37.7624 66.8011 39.3116C66.8011 41.0707 66.2563 42.482 65.1667 43.5453C64.0771 44.5956 62.6855 45.1207 60.992 45.1207Z" fill="black"/>
<path d="M50.9408 33.798V37.2441C51.3215 35.9707 51.735 35.0977 52.1814 34.6251C52.6277 34.1393 53.2119 33.8965 53.9339 33.8965C54.249 33.8965 54.5444 33.9752 54.8201 34.1328V37.2441H54.3475C52.7459 37.2441 51.6103 37.4804 50.9408 37.953V42.5216C50.9408 42.9285 51.0392 43.1911 51.2361 43.3092C51.4462 43.4143 51.8729 43.5127 52.5161 43.6046V44.924H46.0375V43.6046C46.5232 43.539 46.8448 43.4471 47.0024 43.3289C47.1599 43.1976 47.2387 42.9154 47.2387 42.4822V36.7518L46.1359 35.59V34.8811L50.2712 33.798H50.9408Z" fill="black"/>
<path d="M31 38.2875C31 36.082 31.7089 34.3032 33.1267 32.951C34.5577 31.5857 36.2971 30.903 38.3451 30.903C40.3537 30.903 41.9291 31.3888 43.0712 32.3603V35.57H41.1808C40.8919 34.5067 40.5309 33.7059 40.0977 33.1676C39.6645 32.6162 39.0672 32.3406 38.3057 32.3406C37.2424 32.3406 36.4481 32.8591 35.923 33.8962C35.411 34.9333 35.155 36.2068 35.155 37.7165C35.155 41.6155 36.3103 43.565 38.6208 43.565C39.0803 43.565 39.4872 43.4994 39.8417 43.3681V40.8475C39.8417 40.3355 39.7432 39.9942 39.5463 39.8235C39.3625 39.6529 38.9556 39.561 38.3254 39.5478V38.1497H44.9222V39.5478C44.279 39.561 43.8654 39.6529 43.6816 39.8235C43.4978 39.9811 43.406 40.3224 43.406 40.8475V43.6831C42.1063 44.6284 40.334 45.101 38.0891 45.101C35.818 45.101 34.0654 44.4774 32.8314 43.2302C31.6105 41.9699 31 40.3224 31 38.2875Z" fill="black"/>
<path d="M142.323 22.616V20.6862C141.64 21.9727 140.55 22.616 139.054 22.616C137.846 22.616 136.868 22.1697 136.12 21.277C135.384 20.3843 135.017 19.1502 135.017 17.5749C135.017 15.6844 135.535 14.2075 136.573 13.1442C137.61 12.0677 138.942 11.5294 140.57 11.5294C141.358 11.5294 141.942 11.687 142.323 12.002V10.0919L141.24 8.93008V8.20147L145.395 7.43349H146.025V19.5638C146.025 20.2595 146.274 20.614 146.773 20.6271H147.246V21.9859L143.071 22.616H142.323ZM140.944 12.8291C140.262 12.8291 139.73 13.1639 139.349 13.8334C138.982 14.5029 138.798 15.3956 138.798 16.5115C138.798 17.7193 139.008 18.6645 139.428 19.3471C139.861 20.0167 140.458 20.3514 141.22 20.3514C141.574 20.3514 141.942 20.2727 142.323 20.1151V14.7786C142.323 14.1091 142.218 13.6168 142.008 13.3017C141.811 12.9866 141.456 12.8291 140.944 12.8291Z" fill="black"/>
<path d="M129.354 11.3914C130.719 11.3914 131.783 11.8181 132.544 12.6714C133.306 13.5247 133.686 14.6012 133.686 15.9009V16.6689H127.247C127.247 17.6141 127.523 18.3755 128.074 18.9532C128.639 19.5177 129.361 19.7999 130.24 19.7999C131.435 19.7999 132.38 19.3536 133.076 18.4609L133.726 18.8941C133.463 20.0493 132.932 20.9617 132.131 21.6313C131.33 22.2877 130.312 22.6159 129.078 22.6159C127.582 22.6159 126.354 22.1433 125.396 21.198C124.438 20.2397 123.959 18.9597 123.959 17.3581C123.959 15.599 124.477 14.168 125.514 13.0653C126.564 11.9494 127.844 11.3914 129.354 11.3914ZM129.019 12.7502C128.035 12.7502 127.457 13.6626 127.286 15.4874H130.516C130.49 13.6626 129.991 12.7502 129.019 12.7502Z" fill="black"/>
<path d="M118.05 19.977V14.9753C118.05 14.5552 117.958 14.2467 117.775 14.0497C117.604 13.8397 117.295 13.7347 116.849 13.7347C116.258 13.7347 115.628 13.8463 114.959 14.0694V19.977C114.959 20.4103 115.024 20.6925 115.155 20.8238C115.3 20.9419 115.602 21.0338 116.061 21.0995V22.4188H110.055V21.0995C110.541 21.0338 110.863 20.9419 111.02 20.8238C111.178 20.6925 111.256 20.4103 111.256 19.977V14.2467L110.154 13.0848V12.3759L114.309 11.2929H114.959V13.459C116.166 12.0805 117.433 11.3913 118.759 11.3913C120.755 11.3913 121.752 12.4678 121.752 14.6208V19.977C121.752 20.4103 121.831 20.6925 121.989 20.8238C122.146 20.9419 122.461 21.0338 122.934 21.0995V22.4188H116.967V21.0995C117.427 21.0338 117.722 20.9419 117.853 20.8238C117.985 20.6925 118.05 20.4103 118.05 19.977Z" fill="black"/>
<path d="M103.308 18.5396C102.494 18.5396 101.785 18.4412 101.181 18.2442C100.84 18.6512 100.669 18.9597 100.669 19.1698C100.669 19.4455 100.827 19.5833 101.142 19.5833H105.888C107.03 19.5833 107.89 19.8459 108.467 20.371C109.058 20.883 109.353 21.5984 109.353 22.5174C109.353 23.7646 108.802 24.736 107.699 25.4318C106.596 26.1407 105.113 26.4952 103.249 26.4952C101.621 26.4952 100.354 26.2983 99.4483 25.9044C98.5425 25.5237 98.0895 24.9526 98.0895 24.1912C98.0895 23.7449 98.2668 23.3839 98.6212 23.1082C98.9757 22.8325 99.3827 22.6553 99.8421 22.5765C98.8838 22.2089 98.4046 21.5262 98.4046 20.5285C98.4046 20.0165 98.5687 19.5702 98.8969 19.1895C99.2382 18.7956 99.7765 18.3952 100.512 17.9882C99.2514 17.3975 98.6212 16.4523 98.6212 15.1526C98.6212 13.9973 99.0741 13.0849 99.98 12.4154C100.886 11.7328 102.054 11.3914 103.485 11.3914C104.155 11.3914 104.818 11.4768 105.474 11.6474L109.117 11.5096V13.3212H108.251L106.715 12.9865V13.1046C107.634 13.5116 108.093 14.1811 108.093 15.1132C108.093 16.1766 107.647 17.0168 106.754 17.6338C105.861 18.2377 104.713 18.5396 103.308 18.5396ZM105.494 23.0688H100.413C100.321 23.1738 100.275 23.3707 100.275 23.6595C100.275 24.7492 101.286 25.294 103.308 25.294C105.448 25.294 106.518 24.8017 106.518 23.8171C106.518 23.3182 106.176 23.0688 105.494 23.0688ZM103.446 17.4172C104.155 17.4172 104.509 16.7083 104.509 15.2904C104.509 14.4634 104.398 13.8004 104.174 13.3016C103.951 12.7896 103.623 12.5336 103.19 12.5336C102.481 12.5336 102.126 13.2425 102.126 14.6603C102.126 15.4611 102.238 16.1241 102.461 16.6492C102.684 17.1612 103.013 17.4172 103.446 17.4172Z" fill="black"/>
<path d="M95.9976 11.3716V19.977C95.9976 20.4102 96.0764 20.6925 96.2339 20.8238C96.3914 20.9419 96.7131 21.0338 97.1988 21.0995V22.4188H91.0943V21.0995C91.58 21.0338 91.9016 20.9419 92.0592 20.8238C92.2167 20.6925 92.2955 20.4102 92.2955 19.977V14.1679L91.1927 12.9864V12.3759L95.3477 11.3716H95.9976ZM94.1072 10.7415C93.4901 10.7415 92.9978 10.5642 92.6303 10.2098C92.2627 9.84221 92.0789 9.39586 92.0789 8.87074C92.0789 8.34562 92.2627 7.90583 92.6303 7.55138C92.9978 7.18379 93.4901 7 94.1072 7C94.711 7 95.1968 7.18379 95.5644 7.55138C95.9319 7.90583 96.1157 8.34562 96.1157 8.87074C96.1157 9.39586 95.9319 9.84221 95.5644 10.2098C95.1968 10.5642 94.711 10.7415 94.1072 10.7415Z" fill="black"/>
<path d="M88.781 7.43349V19.9773C88.781 20.4105 88.8598 20.6928 89.0173 20.824C89.1749 20.9422 89.4899 21.0341 89.9625 21.0997V22.4191H83.8974V21.0997C84.3831 21.0341 84.6982 20.9422 84.8426 20.824C85.0001 20.6928 85.0789 20.4105 85.0789 19.9773V10.0919L83.9959 8.93008V8.20147L88.1312 7.43349H88.781Z" fill="black"/>
<path d="M77.6585 19.4059L77.1859 18.2244H72.3811L71.9281 19.4059C71.81 19.7603 71.7509 20.0229 71.7509 20.1936C71.7509 20.5086 71.8362 20.7252 72.0069 20.8434C72.1776 20.9615 72.5517 21.0338 73.1294 21.06V22.4188H68.679V21.06C68.994 21.0075 69.2303 20.9353 69.3879 20.8434C69.5585 20.7384 69.6964 20.5677 69.8014 20.3314L73.8383 10.1506L73.149 8.57529H77.1859L82.1877 20.3314C82.2927 20.5677 82.4305 20.7384 82.6012 20.8434C82.7719 20.9353 83.0147 21.0075 83.3298 21.06V22.4188H76.4967V21.06C77.0612 21.0338 77.4288 20.9615 77.5994 20.8434C77.7832 20.7252 77.8751 20.5086 77.8751 20.1936C77.8751 19.9835 77.8029 19.721 77.6585 19.4059ZM74.7441 12.1395L72.9127 16.8656H76.6345L74.7441 12.1395Z" fill="black"/>
</svg>
