<svg width="220" height="56" viewBox="0 0 220 56" fill="none" xmlns="http://www.w3.org/2000/svg">
<g clip-path="url(#clip0_117_9623)">
<path d="M121.666 27.2V13.92C121.666 13.568 121.376 13.28 121.023 13.28C120.67 13.28 120.38 13.568 120.38 13.92V21.44C120.38 24.624 117.794 27.2 114.597 27.2C111.4 27.2 108.813 24.624 108.813 21.44V13.92C108.813 13.568 108.524 13.28 108.17 13.28C107.817 13.28 107.528 13.568 107.528 13.92V27.2H102.387V13.92C102.387 10.736 104.973 8.16 108.17 8.16C111.368 8.16 113.954 10.736 113.954 13.92V21.44C113.954 21.792 114.243 22.08 114.597 22.08C114.95 22.08 115.239 21.792 115.239 21.44V13.92C115.239 10.736 117.826 8.16 121.023 8.16C124.22 8.16 126.807 10.736 126.807 13.92V27.2H121.666ZM99.5754 10.96C99.5754 9.424 98.3062 8.16 96.7639 8.16C95.2216 8.16 93.9525 9.424 93.9525 10.96C93.9525 12.496 95.2216 13.76 96.7639 13.76C98.3062 13.76 99.5754 12.496 99.5754 10.96ZM99.3344 27.2V15.36H94.1934V27.2H99.3344ZM135 45.28V10.72C135 4.816 130.164 0 124.236 0H96.7639C90.8357 0 86 4.816 86 10.72V45.28C86 51.184 90.8357 56 96.7639 56H112.187V50.88H96.7639C93.6633 50.88 91.141 48.368 91.141 45.28V10.72C91.141 7.632 93.6633 5.12 96.7639 5.12H124.236C127.337 5.12 129.859 7.632 129.859 10.72V45.28C129.859 48.368 127.337 50.88 124.236 50.88C121.135 50.88 118.613 48.368 118.613 45.28V34.56C118.613 31.376 116.027 28.8 112.83 28.8C109.632 28.8 107.046 31.376 107.046 34.56V42.08C107.046 42.432 106.757 42.72 106.403 42.72C106.05 42.72 105.761 42.432 105.761 42.08V34.56C105.761 31.376 103.174 28.8 99.977 28.8C96.78 28.8 94.1934 31.376 94.1934 34.56V47.84H99.3344V34.56C99.3344 34.208 99.6236 33.92 99.977 33.92C100.33 33.92 100.62 34.208 100.62 34.56V42.08C100.62 45.264 103.206 47.84 106.403 47.84C109.6 47.84 112.187 45.264 112.187 42.08V34.56C112.187 34.208 112.476 33.92 112.83 33.92C113.183 33.92 113.472 34.208 113.472 34.56V45.28C113.472 51.184 118.308 56 124.236 56C130.164 56 135 51.184 135 45.28ZM127.048 31.6C127.048 30.064 125.778 28.8 124.236 28.8C122.694 28.8 121.425 30.064 121.425 31.6C121.425 33.136 122.694 34.4 124.236 34.4C125.778 34.4 127.048 33.136 127.048 31.6ZM126.807 47.84V36H121.666V47.84H126.807Z" fill="black"/>
</g>
<defs>
<clipPath id="clip0_117_9623">
<rect width="49" height="56" fill="white" transform="translate(86)"/>
</clipPath>
</defs>
</svg>
