<svg width="220" height="56" viewBox="0 0 220 56" fill="none" xmlns="http://www.w3.org/2000/svg">
<path d="M123.818 14.2099C123.818 14.2099 123.832 14.2099 123.839 14.2099C124.24 14.1698 124.554 13.8495 124.581 13.449C124.601 13.2621 124.454 13.0885 124.267 13.0752C124.26 13.0752 124.246 13.0752 124.24 13.0752C123.812 13.1019 123.464 13.4423 123.438 13.8762C123.451 14.0764 123.618 14.2299 123.818 14.2166V14.2099Z" fill="#00B2E1"/>
<path d="M94.1275 13.3218C94.1275 13.3218 94.1609 13.2951 94.1609 13.2884C94.1609 13.2818 94.1007 13.2217 94.0271 13.2217C92.9102 13.2217 91.9002 14.3363 91.5122 15.2641C90.9638 16.5657 90.723 17.133 90.0742 18.0808C89.693 18.6615 89.0643 19.022 88.3753 19.062C88.1011 19.062 87.7667 18.9151 87.7667 18.8017C87.7667 18.7683 87.7667 18.7416 87.8001 18.7416C87.9004 18.775 88.0008 18.7883 88.1011 18.7883C88.3753 18.7883 88.5693 18.4479 88.5693 18.2343C88.5693 17.8939 88.2951 17.7538 87.9607 17.7538C87.5192 17.7738 87.1714 18.1342 87.1714 18.5747C87.1714 19.1621 87.6262 19.6026 88.382 19.6026C89.6261 19.6026 90.6896 18.6081 91.2982 17.6737C92.3951 15.9316 92.9035 14.1495 94.1208 13.3352L94.1275 13.3218Z" fill="#00B2E1"/>
<path d="M112.401 13.0684C111.973 13.0951 111.638 13.4288 111.605 13.856C111.605 14.0562 111.772 14.2164 111.973 14.2097C111.986 14.2097 111.993 14.2097 112.006 14.2097C112.407 14.1697 112.715 13.8493 112.749 13.4488C112.769 13.2619 112.622 13.0884 112.434 13.075C112.428 13.075 112.414 13.075 112.407 13.075L112.401 13.0684Z" fill="#00B2E1"/>
<path d="M129.503 14.6566C130.821 14.3162 132.145 12.9612 132.5 12.0201C132.854 11.7531 132.968 11.5596 132.586 11.4795C132.573 11.2058 132.339 10.9989 132.065 11.0189C132.051 11.0189 132.045 11.0189 132.032 11.0189C131.256 11.0189 129.972 12.5541 128.828 14.2695C128.674 14.2361 128.567 14.1026 128.567 13.9491C128.567 13.7689 128.734 13.7021 128.734 13.6487C128.734 13.5953 128.527 13.4752 128.333 13.4752C128.038 13.4485 127.778 13.6688 127.751 13.9624C127.751 13.9758 127.751 13.9958 127.751 14.0092C127.804 14.4096 128.126 14.7167 128.527 14.75C128.527 14.7834 127.009 17.1529 126.56 18.2409C126.293 18.3944 126.005 18.5079 125.704 18.5813C125.704 18.5813 125.657 18.5813 125.657 18.5613C125.657 18.5412 125.69 18.5346 125.69 18.5346C125.985 18.2676 126.159 17.9005 126.193 17.5067C126.193 16.7992 125.584 16.3453 125.584 16.0116C125.584 15.9849 125.584 15.9515 125.584 15.9181C125.945 15.6645 126.467 14.9169 126.467 14.6165C126.467 14.3763 126.339 14.3162 126.206 14.3162C125.798 14.3162 124.915 15.1839 124.968 15.9381C124.888 16.0783 124.801 16.2051 124.708 16.3319L124.681 16.3586C124.126 17.1062 123.076 18.4144 122.286 18.4144C122.126 18.4144 122.026 18.3343 122.026 18.1942C122.026 18.1207 122.045 18.0473 122.086 17.9872C122.487 17.1796 122.922 16.5388 123.363 15.7512C123.437 15.6378 123.47 15.511 123.477 15.3775C123.477 15.1238 123.297 14.9436 122.942 14.9436C122.754 14.9436 122.567 14.9837 122.406 15.0771C122.38 15.0971 122.36 15.1238 122.353 15.1572C122.353 15.2106 122.514 15.2239 122.514 15.4042C122.514 15.4976 122.48 15.5977 122.433 15.6778C122.353 15.838 122.019 16.4187 121.658 17.0261C121.136 17.7136 120.494 18.4345 120.113 18.4345C119.852 18.4345 119.771 18.3343 119.771 18.1608C119.771 18.1007 119.792 18.0407 119.818 17.9872C120.206 17.1396 120.982 16.2785 120.982 15.4576C120.982 15.1171 120.681 14.8902 120.273 14.8902C119.865 14.8902 119.337 15.1305 118.581 15.8714L118.561 15.8914C118.561 15.8914 118.5 15.9248 118.527 15.8914C118.701 15.7045 118.808 15.4709 118.828 15.2173C118.828 15.0037 118.601 14.8769 118.22 14.8769C118.026 14.8769 117.812 14.9436 117.812 15.0237C117.812 15.1038 117.992 15.0905 117.946 15.3508C117.752 15.8714 117.484 16.3586 117.156 16.8125L117.096 16.9126C116.554 17.6335 115.865 18.4278 115.464 18.4278C115.203 18.4278 115.123 18.3276 115.123 18.1541C115.123 18.094 115.143 18.034 115.17 17.9806C115.558 17.1329 116.333 16.2719 116.333 15.4509C116.333 15.1105 116.032 14.8835 115.625 14.8835C115.17 14.8835 114.688 15.1238 113.932 15.8647L113.912 15.8847C113.912 15.8847 113.852 15.9181 113.879 15.8847C114.053 15.6978 114.16 15.4642 114.18 15.2106C114.18 14.997 113.952 14.8702 113.571 14.8702C113.377 14.8702 113.163 14.9369 113.163 15.017C113.163 15.0971 113.343 15.0838 113.297 15.3441C113.157 15.7446 112.963 16.125 112.715 16.4721C112.14 17.233 111.157 18.3944 110.414 18.3944C110.253 18.3944 110.153 18.3143 110.153 18.1741C110.153 18.1007 110.173 18.0273 110.213 17.9672C110.608 17.1596 111.043 16.5188 111.491 15.7312C111.564 15.6177 111.604 15.4909 111.604 15.3574C111.604 15.1038 111.424 14.9236 111.07 14.9236C110.882 14.9236 110.695 14.9636 110.535 15.0571C110.508 15.0771 110.481 15.1038 110.474 15.1372C110.474 15.1906 110.635 15.2039 110.635 15.3841C110.635 15.4776 110.601 15.5777 110.554 15.6578C110.441 15.8981 109.765 17.0261 109.297 17.8337C109.197 18.0006 109.136 18.1875 109.13 18.3811C109.143 18.7615 109.464 19.0619 109.846 19.0485C109.865 19.0485 109.886 19.0485 109.906 19.0485C110.514 19.0485 111.143 18.6881 111.698 18.2142C111.638 18.3544 111.604 18.5012 111.598 18.648C111.598 18.895 111.806 19.0886 112.046 19.0819H112.059C112.287 19.0886 112.508 19.0351 112.715 18.9351C112.748 18.915 112.769 18.8816 112.775 18.8416C112.775 18.8149 112.762 18.7949 112.742 18.7815C112.641 18.7348 112.588 18.6147 112.628 18.5079C112.869 17.54 114.126 15.7179 115.076 15.7179C115.203 15.7045 115.31 15.7913 115.324 15.9181C115.324 15.9181 115.324 15.9248 115.324 15.9315C115.324 16.3987 114.146 17.5067 114.146 18.3744C114.146 18.7348 114.407 19.0619 114.956 19.0619C115.437 19.0218 115.899 18.8149 116.247 18.4745C116.233 18.5346 116.226 18.588 116.226 18.648C116.226 18.895 116.434 19.0886 116.675 19.0819H116.688C116.915 19.0886 117.136 19.0351 117.343 18.9351C117.377 18.915 117.397 18.8816 117.404 18.8416C117.404 18.8149 117.39 18.7949 117.37 18.7815C117.27 18.7281 117.223 18.6147 117.257 18.5079C117.497 17.54 118.755 15.7179 119.704 15.7179C119.825 15.7045 119.938 15.7913 119.952 15.9181V15.9315C119.952 16.3987 118.775 17.5067 118.775 18.3744C118.775 18.7348 119.036 19.0619 119.584 19.0619C120.113 19.0151 120.601 18.7749 120.962 18.3944C120.982 18.7749 121.303 19.0752 121.684 19.0552C121.704 19.0552 121.718 19.0552 121.738 19.0552C122.26 19.0218 122.761 18.8282 123.169 18.5012C123.289 18.875 123.945 19.1486 124.594 19.1486C125.222 19.1486 125.845 19.0218 126.413 18.7549C126.48 18.9417 126.661 19.0685 126.861 19.0552C127.089 19.0619 127.31 19.0084 127.517 18.9084C127.55 18.8883 127.57 18.8549 127.577 18.8149C127.577 18.7882 127.564 18.7682 127.544 18.7549C127.443 18.7081 127.39 18.588 127.43 18.4811C127.671 17.5134 128.928 15.6845 129.878 15.6845C130.005 15.6711 130.112 15.7579 130.126 15.8847C130.126 15.8847 130.126 15.8981 130.126 15.9048C130.126 16.372 128.948 17.4733 128.948 18.3477C128.948 18.7081 129.209 19.0351 129.757 19.0351C130.801 19.0351 131.838 17.6535 132.339 16.9126C132.473 16.7591 132.56 16.5656 132.593 16.3653C132.593 16.2519 132.533 16.125 132.466 16.125C132.439 16.125 132.413 16.145 132.399 16.1717C131.918 16.7792 130.734 18.3877 130.219 18.3877C130.065 18.4011 129.931 18.2943 129.918 18.1407C129.918 18.1341 129.918 18.1207 129.918 18.114C129.918 18.054 129.938 18.0006 129.965 17.9472C130.352 17.0995 131.128 16.2385 131.128 15.4175C131.128 15.0771 130.828 14.8502 130.419 14.8502C129.965 14.8502 129.483 15.0905 128.727 15.8313L128.707 15.858C128.707 15.858 128.647 15.8914 128.674 15.858L129.503 14.6566ZM131.724 12.5341C131.229 13.2015 130.573 13.7422 129.817 14.0893C130.152 13.5353 131.008 12.9813 131.724 12.5341ZM124.092 18.5279C123.878 18.5412 123.671 18.4545 123.537 18.2876C123.932 17.9539 124.293 17.5734 124.607 17.1596C124.681 17.0595 124.754 16.966 124.821 16.8726C124.888 16.7792 125.042 16.5722 125.216 16.3252C125.316 16.5522 125.37 16.7925 125.363 17.0461C125.363 17.787 124.915 18.5279 124.092 18.5279Z" fill="#00B2E1"/>
<path d="M100.83 17.4531C100.796 17.4531 100.756 17.4531 100.723 17.4531C100.114 17.4531 99.385 18.461 98.7362 18.461C98.3349 18.461 98.0941 18.2808 98.0941 17.8803C98.0941 17.6267 98.1677 17.373 98.2881 17.1528C99.6325 17.2129 100.857 16.3051 100.857 15.5108C100.877 15.1771 100.616 14.8901 100.281 14.8767C100.261 14.8767 100.234 14.8767 100.214 14.8767C98.9837 14.8767 97.6126 16.3385 97.2113 17.5399C96.7965 18.0205 96.3484 18.4143 96.0006 18.4143C95.8535 18.3942 95.7397 18.2608 95.7531 18.1139C95.7531 17.7268 96.8969 16.3585 96.8969 15.7111C96.9103 15.3306 96.616 15.0102 96.2347 14.9969C96.228 14.9969 96.2213 14.9969 96.2147 14.9969C95.2916 14.9969 94.489 15.8712 94.489 15.8712C94.489 15.8712 94.4422 15.8979 94.4422 15.8712L95.4321 14.1292C96.2481 12.901 96.3819 12.7542 96.3819 12.7542C97.0307 12.3804 98.0473 11.6462 98.0473 11.1189C98.0473 11.1189 98.1142 10.7451 97.7932 10.7451C97.0641 10.7451 96.4086 11.773 96.1009 12.1601C95.8602 12.3804 95.5458 12.5006 95.2181 12.5139C94.168 12.5139 92.7901 11.3525 91.4926 11.3525C89.6733 11.3325 88.1616 12.7542 88.0747 14.563C88.0747 15.958 89.0914 16.3985 89.6532 16.3985C90.1682 16.3985 90.603 16.0047 90.6565 15.4908C90.6565 15.1704 90.409 14.9034 90.0879 14.8834C89.7869 14.85 89.5194 15.0569 89.486 15.3573C89.486 15.384 89.486 15.4174 89.486 15.4441C89.486 15.5909 89.6332 15.7978 89.7 15.7978C89.7669 15.7978 89.7602 15.8913 89.7 15.8913C89.3255 15.8913 88.583 15.631 88.583 14.523C88.583 13.722 89.5796 12.1868 90.9508 12.1868C92.6496 12.1868 93.4857 13.1413 94.6428 13.1413C94.9371 13.128 95.2248 13.0812 95.499 12.9945C93.8737 15.2438 92.1614 18.3342 92.1614 18.6813C92.1614 19.0284 92.4824 19.1151 92.663 19.1151C92.8436 19.1151 93.3921 19.0551 93.3921 18.8882C93.3921 18.8214 93.1714 18.8415 93.1714 18.6279C93.1714 17.9204 94.1814 16.7123 94.6897 16.205C94.9171 15.9981 95.2983 15.6577 95.6394 15.6577C95.7799 15.6443 95.9003 15.7444 95.9203 15.8779C95.9203 15.8779 95.9203 15.8846 95.9203 15.8913C95.9203 15.978 95.8936 16.0581 95.8535 16.1316C95.7063 16.4319 94.7766 17.7936 94.7766 18.481C94.7766 18.8548 95.0776 19.0884 95.5057 19.0884C96.1144 19.0884 96.6494 18.7213 97.1109 18.2608C97.1377 18.8682 97.5791 19.1351 98.1343 19.1351C99.2312 19.1351 99.8131 18.1807 100.622 18.1807C100.736 18.1807 100.91 18.234 100.91 18.3942C100.91 18.4543 100.91 18.4877 100.943 18.4877C101.057 18.4877 101.218 18.1874 101.218 17.9738C101.244 17.7268 101.064 17.5132 100.823 17.4865L100.83 17.4531ZM100.148 15.2906C100.288 15.2705 100.415 15.3706 100.428 15.5108C100.428 15.5308 100.428 15.5442 100.428 15.5642C100.428 15.978 99.472 16.7256 98.5088 16.7256C98.8299 16.1916 99.6258 15.2906 100.141 15.2906H100.148Z" fill="#00B2E1"/>
<path d="M108.568 15.5642C108.321 15.5776 108.073 15.631 107.846 15.7378L108.247 14.9035C108.622 14.0491 109.23 13.3282 110.006 12.8076C110.026 12.8009 110.04 12.7809 110.04 12.7609C110.04 12.7275 109.973 12.7008 109.892 12.7008C108.695 12.7008 107.699 13.7487 107.164 14.6832C106.923 15.1237 106.716 15.5843 106.528 16.0515H106.274C105.351 16.0381 104.615 15.2772 104.629 14.3495C104.629 14.3361 104.629 14.3294 104.629 14.3161C104.629 13.0145 105.726 11.713 107.505 11.713C108.695 11.713 109.712 12.3671 110.842 12.3671C111.973 12.3671 112.488 11.713 112.488 11.2057C112.488 11.2057 112.488 10.9454 112.328 10.9454C111.993 11.3592 111.478 11.5928 110.95 11.5728C109.706 11.5728 108.742 10.9454 107.692 10.9454C105.746 10.8987 104.127 12.4138 104.054 14.3561C104.034 15.5909 105.03 16.6122 106.267 16.6255H106.281C105.732 17.8804 105.037 19.0484 103.733 19.0484C103.432 19.0484 103.184 18.8882 103.184 18.7614C103.184 18.728 103.211 18.708 103.244 18.7013C103.304 18.7013 103.311 18.728 103.405 18.728C103.659 18.7147 103.86 18.5077 103.86 18.2475C103.88 17.9337 103.646 17.6668 103.338 17.6401C103.311 17.6401 103.284 17.6401 103.258 17.6401C102.823 17.6401 102.475 17.9938 102.475 18.4277C102.475 18.4477 102.475 18.4677 102.475 18.4877C102.475 19.1152 102.963 19.6158 103.746 19.6158C105.585 19.6158 106.635 18.1206 107.505 16.4253C107.712 16.3318 107.927 16.2651 108.147 16.2184C108.301 16.2184 108.428 16.3385 108.435 16.4987C108.435 16.6455 108.314 16.7657 108.174 16.7857C108.127 16.7857 108.22 17.0326 108.608 17.0326C108.996 17.0326 109.304 16.5788 109.304 16.2117C109.278 15.8379 108.963 15.5509 108.581 15.5576L108.568 15.5642Z" fill="#00B2E1"/>
<path d="M53 44.5054V21.251H56.3376V41.1748H62.9459V44.5054H53Z" fill="#00B2E1"/>
<path d="M63.5073 26.7375C63.5073 25.8031 63.6679 24.9754 63.9955 24.2546C64.3233 23.5337 64.7581 22.9397 65.3065 22.4591C65.8283 21.9986 66.4235 21.6515 67.0924 21.4112C67.7545 21.1709 68.4301 21.0508 69.1056 21.0508C69.7812 21.0508 70.45 21.1709 71.1189 21.4112C71.7811 21.6515 72.3897 21.9986 72.9382 22.4591C73.4599 22.9397 73.8879 23.5337 74.2157 24.2546C74.5434 24.9754 74.7039 25.8031 74.7039 26.7375V39.0189C74.7039 40.0001 74.5367 40.8344 74.2157 41.5352C73.8879 42.2294 73.4599 42.8101 72.9382 43.264C72.3897 43.7445 71.7877 44.105 71.1189 44.3386C70.45 44.5789 69.7812 44.699 69.1056 44.699C68.4301 44.699 67.7612 44.5789 67.0924 44.3386C66.4235 44.0983 65.8349 43.7379 65.3065 43.264C64.7581 42.8034 64.3233 42.2294 63.9955 41.5352C63.6679 40.8411 63.5073 40.0001 63.5073 39.0189V26.7375ZM66.8449 39.0189C66.8449 39.8266 67.0656 40.4206 67.5137 40.801C67.9619 41.1815 68.4903 41.375 69.0989 41.375C69.7076 41.375 70.236 41.1815 70.6841 40.801C71.1322 40.4206 71.353 39.8266 71.353 39.0189V26.7375C71.353 25.9299 71.1322 25.3359 70.6841 24.9554C70.236 24.575 69.7076 24.3814 69.0989 24.3814C68.4903 24.3814 67.9619 24.575 67.5137 24.9554C67.0656 25.3359 66.8449 25.9299 66.8449 26.7375V39.0189Z" fill="#00B2E1"/>
<path d="M76.9116 44.5054V21.251H80.1154L85.1586 35.2611H85.2255V21.251H88.5631V44.5054H85.4194L80.3161 30.5287H80.2492V44.5054H76.9116Z" fill="#00B2E1"/>
<path d="M90.77 26.7375C90.77 25.8031 90.9306 24.9754 91.2582 24.2546C91.586 23.5337 92.0208 22.9397 92.5692 22.4591C93.0909 21.9986 93.6862 21.6515 94.3551 21.4112C95.0172 21.1709 95.6928 21.0508 96.3683 21.0508C97.0438 21.0508 97.7127 21.1709 98.3816 21.4112C99.0437 21.6515 99.6524 21.9986 100.201 22.4591C100.723 22.9397 101.151 23.5337 101.478 24.2546C101.806 24.9754 101.967 25.8031 101.967 26.7375V27.9123H98.629V26.7375C98.629 25.9299 98.4083 25.3359 97.9602 24.9554C97.512 24.575 96.9836 24.3814 96.375 24.3814C95.7663 24.3814 95.2379 24.575 94.7898 24.9554C94.3417 25.3359 94.1209 25.9299 94.1209 26.7375V39.0189C94.1209 39.8266 94.3417 40.4206 94.7898 40.801C95.2379 41.1815 95.7663 41.375 96.375 41.375C96.9836 41.375 97.512 41.1815 97.9602 40.801C98.4083 40.4206 98.629 39.8266 98.629 39.0189V34.6403H95.9804V31.7035H101.967V39.0189C101.967 40.0001 101.799 40.8344 101.478 41.5352C101.151 42.2294 100.723 42.8101 100.201 43.264C99.6524 43.7445 99.0504 44.105 98.3816 44.3386C97.7127 44.5789 97.0438 44.699 96.3683 44.699C95.6928 44.699 95.0239 44.5789 94.3551 44.3386C93.6862 44.0983 93.0976 43.7379 92.5692 43.264C92.0208 42.8034 91.586 42.2294 91.2582 41.5352C90.9306 40.8411 90.77 40.0001 90.77 39.0189V26.7375Z" fill="#00B2E1"/>
<path d="M109.699 44.699V21.4512H114.642C116.562 21.4512 118.02 21.9718 119.01 23.0197C120 24.0676 120.501 25.5428 120.501 27.4583V38.3314C120.501 40.5073 119.973 42.1159 118.916 43.1505C117.86 44.185 116.334 44.699 114.348 44.699H109.699ZM113.037 24.5816V41.5619H114.575C115.512 41.5619 116.181 41.3283 116.568 40.8611C116.963 40.3938 117.157 39.6596 117.157 38.6584V27.4583C117.157 26.5439 116.97 25.8364 116.602 25.3358C116.227 24.8352 115.552 24.5882 114.575 24.5882H113.037V24.5816Z" fill="#00B2E1"/>
<path d="M122.333 44.699V21.4512H127.698C131.624 21.4512 133.59 23.7272 133.59 28.2794C133.59 29.6476 133.376 30.8157 132.955 31.7768C132.527 32.738 131.784 33.5056 130.714 34.0929L134.313 44.7056H130.781L127.671 34.7805H125.678V44.7056H122.34L122.333 44.699ZM125.671 24.5816V31.8303H127.57C128.159 31.8303 128.628 31.7501 128.975 31.5833C129.323 31.4231 129.597 31.1895 129.791 30.8824C129.965 30.5754 130.085 30.2016 130.152 29.7544C130.219 29.3072 130.253 28.7933 130.253 28.2059C130.253 27.6185 130.219 27.0979 130.152 26.6574C130.085 26.2102 129.958 25.8231 129.758 25.496C129.343 24.8886 128.561 24.5816 127.403 24.5816H125.671Z" fill="#00B2E1"/>
<path d="M135.389 44.699V21.4512H138.727V44.7056H135.389V44.699Z" fill="#00B2E1"/>
<path d="M140.854 44.699V21.4512H144.058L149.095 35.4613H149.161V21.4512H152.499V44.7056H149.355L144.252 30.7289H144.185V44.7056H140.848L140.854 44.699Z" fill="#00B2E1"/>
<path d="M154.532 44.699V21.4512H157.87V32.0639H157.937L162.813 21.4512H166.15L161.602 30.7556L167 44.699H163.468L159.669 34.38L157.87 37.744V44.699H154.532Z" fill="#00B2E1"/>
</svg>
