<svg width="220" height="56" viewBox="0 0 220 56" fill="none" xmlns="http://www.w3.org/2000/svg">
<path d="M61.76 25.6281C61.76 25.4718 61.76 25.308 61.7158 25.1442C61.6715 24.9804 61.7158 24.8761 61.7158 24.7347C61.7158 24.5932 61.7158 24.5857 61.7158 24.5113C61.7056 23.9597 61.75 23.4085 61.8485 22.8658C61.8983 22.5823 61.9623 22.3015 62.0401 22.0244C62.5401 20.22 63.4922 18.5762 64.8044 17.2518C64.9887 17.0656 65.1804 16.8869 65.372 16.7157C65.5711 16.5444 65.7701 16.3806 65.9839 16.2243L66.0797 16.1424C66.264 16.0083 66.4556 15.8818 66.6473 15.7626L66.8537 15.6212L67.3181 15.3606C67.4434 15.2861 67.5761 15.2191 67.7088 15.1521L67.9963 14.9585L68.6597 14.6756C69.8988 14.1901 71.2154 13.9378 72.5445 13.931C76.4661 13.931 79.3631 16.4476 79.8496 20.0216C79.8496 20.1035 79.8496 20.1854 79.8496 20.2673C79.9577 21.3168 79.8702 22.3775 79.5916 23.3944C78.3606 28.3607 73.4512 31.8602 68.4017 31.8453C67.48 31.8439 66.5696 31.6406 65.7332 31.2496C64.6596 30.7213 63.7337 29.9303 63.0398 28.9485C62.3459 27.9668 61.906 26.8254 61.76 25.6281ZM81.663 30.8401C82.3165 30.0761 82.9035 29.2565 83.4174 28.3905C84.4422 26.6844 85.1445 24.801 85.4888 22.836C85.839 21.0198 85.8013 19.1489 85.3782 17.3486C84.9889 15.7396 84.2315 14.2452 83.1668 12.9854C82.0717 11.7108 80.6956 10.7136 79.1493 10.0741C77.3507 9.33441 75.4225 8.96971 73.4807 9.00197C71.3811 8.98938 69.2963 9.35757 67.3255 10.089C63.5505 11.4908 60.364 14.155 58.2954 17.6389C57.2755 19.3521 56.5759 21.2398 56.2314 23.2083C55.8872 25.0254 55.9274 26.8955 56.3493 28.6958C56.732 30.2984 57.4734 31.791 58.5165 33.0589C59.5985 34.335 60.9655 35.3329 62.5045 35.9702C64.3151 36.7135 66.256 37.0782 68.21 37.0424C70.3049 37.0476 72.384 36.677 74.3505 35.9478C75.599 35.4774 76.7929 34.8707 77.9109 34.1385L80.572 36.9381H87.4791L81.663 30.8401ZM95.8752 14.9585L93.8554 26.6184C93.7449 27.2513 93.6564 27.8916 93.5901 28.5468C93.5197 29.1419 93.5572 29.7449 93.7006 30.3264C93.8319 30.8496 94.1395 31.3103 94.5705 31.6294C95.1773 32.0072 95.8868 32.1818 96.5976 32.1282C97.3661 32.17 98.1312 31.9974 98.8091 31.6294C99.3447 31.3065 99.797 30.86 100.129 30.3264C100.47 29.7785 100.719 29.1772 100.866 28.5468C101.028 27.8916 101.161 27.2513 101.271 26.6184L103.261 14.9585H108.68L106.52 27.3928C105.945 30.7384 104.778 33.183 103.018 34.7268C101.259 36.2705 98.8361 37.0399 95.7499 37.0349C92.6539 37.0349 90.4941 36.2903 89.263 34.7268C88.032 33.1632 87.7003 30.7359 88.2826 27.3928L90.4351 14.9585H95.8752ZM109.925 28.048H125.405L126.261 23.3125H110.773L109.925 28.048ZM127.809 14.9585H112.284L111.436 19.6567H126.917L127.809 14.9585ZM109.262 31.6964H124.786L123.931 36.4393H108.414L109.262 31.6964ZM139.927 34.965C140.747 34.3453 141.44 33.5717 141.969 32.6866C142.514 31.7707 142.886 30.761 143.068 29.7084C143.4 28.3769 143.198 26.9669 142.507 25.7845C141.6 24.6093 140.341 23.7628 138.917 23.3721C138.49 23.2232 138.048 23.0743 137.598 22.9403C137.183 22.8222 136.78 22.6626 136.396 22.4637C136.077 22.309 135.795 22.0854 135.571 21.8085C135.473 21.6645 135.406 21.5012 135.374 21.3294C135.342 21.1575 135.346 20.9809 135.386 20.8108C135.441 20.5241 135.556 20.2523 135.722 20.0136C135.888 19.7749 136.103 19.5745 136.352 19.4259C137.008 19.0504 137.744 18.8409 138.497 18.8154C139.148 18.7933 139.798 18.8483 140.436 18.9792C141.406 19.1917 142.354 19.4984 143.267 19.895L144.166 15.4797C143.345 15.0667 142.475 14.759 141.578 14.5639C140.505 14.356 139.413 14.2662 138.32 14.2958C137.202 14.3393 136.095 14.5423 135.033 14.8989C134.087 15.2225 133.204 15.7087 132.423 16.336C131.667 16.9605 131.028 17.7171 130.536 18.5697C130.019 19.4565 129.665 20.43 129.489 21.4437C129.286 22.3002 129.286 23.1931 129.489 24.0497C129.675 24.6901 130.02 25.2719 130.492 25.7398C130.97 26.2068 131.533 26.5759 132.15 26.8269C132.799 27.1024 133.477 27.3555 134.163 27.5715C134.848 27.7874 135.239 27.9735 135.637 28.1448C135.986 28.2867 136.313 28.4772 136.61 28.7106C136.833 28.8899 136.999 29.1304 137.089 29.4031C137.161 29.6915 137.161 29.9933 137.089 30.2817C136.962 30.8822 136.618 31.4133 136.124 31.7708C135.477 32.2261 134.699 32.4513 133.912 32.4111C132.78 32.4099 131.655 32.2264 130.58 31.8676C129.786 31.6374 129.008 31.3539 128.251 31.0188L127.241 35.8064C129.202 36.5901 131.295 36.9821 133.403 36.9605C134.651 36.9783 135.894 36.8025 137.089 36.4393C138.135 36.1153 139.117 35.6115 139.994 34.9501M156.948 19.6418L153.926 36.4244H148.515L151.537 19.6418H146.252L147.019 14.9585H163L162.152 19.6567L156.948 19.6418ZM148.331 45.8357V40.3259H149.753L152.37 43.6988V40.3259H153.786V45.8357H152.37L149.753 42.5075V45.8729L148.331 45.8357ZM139.035 43.0808C139.034 43.291 139.077 43.499 139.161 43.6913C139.322 44.053 139.615 44.3381 139.979 44.488C140.167 44.5623 140.367 44.6002 140.569 44.5997C140.77 44.6015 140.971 44.5636 141.158 44.488C141.344 44.4181 141.512 44.309 141.652 44.1679C141.798 44.0356 141.914 43.8731 141.991 43.6913C142.076 43.5004 142.119 43.2936 142.119 43.0845C142.119 42.8754 142.076 42.6686 141.991 42.4777C141.914 42.2938 141.798 42.1287 141.652 41.9937C141.51 41.8573 141.342 41.751 141.158 41.681C140.972 41.5995 140.771 41.5589 140.569 41.5619C140.366 41.5602 140.165 41.6008 139.979 41.681C139.798 41.7529 139.633 41.8591 139.492 41.9937C139.347 42.1339 139.231 42.3026 139.153 42.4895C139.074 42.6765 139.034 42.8777 139.035 43.0808ZM137.561 43.0808C137.56 42.6893 137.638 42.3017 137.79 41.9416C137.931 41.5923 138.145 41.2775 138.416 41.0183C138.688 40.7487 139.011 40.5383 139.367 40.4003C139.755 40.2478 140.167 40.172 140.583 40.177C141.002 40.1727 141.417 40.2485 141.807 40.4003C142.164 40.54 142.49 40.7501 142.765 41.0183C143.038 41.2858 143.254 41.6066 143.4 41.9613C143.545 42.3159 143.618 42.6968 143.613 43.0808C143.617 43.4742 143.541 43.8642 143.392 44.2274C143.243 44.5724 143.03 44.8857 142.765 45.1507C142.488 45.4165 142.162 45.6263 141.807 45.7687C141.417 45.9206 141.002 45.9963 140.583 45.992C140.167 45.997 139.755 45.9212 139.367 45.7687C139.013 45.6279 138.69 45.4179 138.416 45.1507C138.146 44.89 137.933 44.5757 137.79 44.2274C137.638 43.8647 137.56 43.4747 137.561 43.0808ZM132.829 45.8357H131.406V40.3259H132.829V45.8357ZM125.789 41.5395V45.8357H124.373V41.5395H123.209V40.3259H126.961V41.5395H125.789ZM118.771 45.8357H117.356V40.3259H118.771V45.8357ZM109.815 42.7904H110.08C110.309 42.8046 110.536 42.7446 110.729 42.6192C110.802 42.5579 110.86 42.4803 110.899 42.3924C110.937 42.3045 110.955 42.2088 110.95 42.1129C110.956 42.0168 110.939 41.9207 110.9 41.8326C110.862 41.7445 110.803 41.667 110.729 41.6065C110.537 41.4781 110.309 41.4179 110.08 41.4353H109.815V42.7904ZM112.94 45.8357H111.171L109.815 43.7211V45.8357H108.392V40.3259H110.603C110.875 40.3232 111.145 40.3712 111.4 40.4674C111.607 40.5414 111.796 40.6614 111.951 40.8186C112.107 40.9757 112.226 41.1661 112.299 41.3757C112.374 41.5858 112.411 41.8077 112.409 42.031C112.425 42.3955 112.318 42.7547 112.107 43.051C111.885 43.3287 111.571 43.5163 111.223 43.5797L112.94 45.8357ZM102.797 41.5395V45.8357H101.374V41.5395H100.232V40.3259H103.984V41.5395H102.797ZM92.4328 40.3259V43.3042C92.4328 43.4605 92.4328 43.6243 92.4328 43.7956C92.4457 43.9519 92.483 44.1052 92.5433 44.2498C92.6032 44.3883 92.7035 44.5052 92.8308 44.5848C92.9972 44.6781 93.1863 44.722 93.3763 44.7114C93.5686 44.7218 93.76 44.6779 93.9292 44.5848C94.0537 44.5041 94.1513 44.3873 94.2093 44.2498C94.276 44.107 94.316 43.953 94.3272 43.7956C94.3272 43.6243 94.3272 43.4605 94.3272 43.3042V40.3259H95.8089V43.5201C95.8656 44.1984 95.6565 44.8722 95.2265 45.3964C94.9809 45.6113 94.6954 45.7747 94.3865 45.877C94.0777 45.9792 93.7519 46.0184 93.4279 45.992C93.1051 46.0178 92.7805 45.9784 92.473 45.8761C92.1655 45.7738 91.8811 45.6108 91.6366 45.3964C91.421 45.1382 91.258 44.8395 91.1568 44.5176C91.0556 44.1956 91.0182 43.8566 91.0469 43.5201V40.3259H92.4328ZM80.5794 45.8357V40.3259H81.9947L84.619 43.6988V40.3259H86.0343V45.8357H84.619L81.9947 42.5075V45.8729L80.5794 45.8357Z" fill="#085A6F"/>
<path d="M158.004 40C159.14 40 160 40.8421 160 41.9874C160 43.1242 159.14 44 158.004 44C156.852 44 156 43.1242 156 41.9874C156 40.8421 156.86 40 158.004 40ZM158.004 43.5705C158.923 43.5705 159.549 42.9053 159.549 41.9874C159.549 41.0611 158.906 40.4295 158.004 40.4295C157.102 40.4295 156.451 41.0526 156.451 41.9874C156.451 42.9053 157.077 43.5705 158.004 43.5705ZM158.455 42.0379C158.806 42.1474 158.956 42.4505 158.981 43.0821H158.472C158.447 42.4 158.288 42.2568 158.004 42.2568H157.612V43.0821H157.102V40.8421H158.063C158.213 40.8421 158.923 40.8421 158.923 41.4821C158.923 41.7853 158.764 41.9621 158.455 42.0379ZM157.612 41.2632V41.8695H158.029C158.296 41.8695 158.397 41.7432 158.397 41.5579C158.397 41.2632 158.154 41.2632 158.004 41.2632H157.612Z" fill="#085A6F"/>
</svg>
