<svg width="220" height="56" viewBox="0 0 220 56" fill="none" xmlns="http://www.w3.org/2000/svg">
<g clip-path="url(#clip0_117_9630)">
<path d="M45.2377 32.8494C45.2377 35.0995 45.8078 35.5025 47.4512 36.3774V36.646H40.103V36.3774C41.6793 35.5041 42.2159 35.1011 42.2159 32.8494V16.923C42.2159 14.6728 41.6793 14.2698 40.103 13.3966V13.1279H50.706C55.5713 13.1279 59.497 14.7736 59.497 19.3441C59.497 23.5105 56.009 25.1904 52.5513 25.224V25.3584C55.5361 25.7278 56.9806 27.1719 57.7859 29.6256L58.7585 32.4467C59.5299 34.8312 60.6029 35.5717 62.5818 36.3781V36.6467H57.2164C56.5791 35.2698 56.3779 34.6652 55.7407 33.0179L54.6675 29.8274C53.762 27.2078 52.8564 25.9296 49.6345 25.9296H45.239L45.2377 32.8494ZM50.2036 24.5836C53.3897 24.5836 56.1425 23.3745 56.1425 19.3756C56.1425 15.8493 53.7278 14.4364 50.2036 14.4364H45.2377V24.5836H50.2036Z" fill="black"/>
<path d="M66.478 30.3901C66.478 32.7133 67.4215 34.9038 70.0835 34.9038C72.7454 34.9038 74.8366 32.648 74.8366 28.6719V23.3834C74.8366 21.4979 73.8594 20.8582 72.5116 20.0165V19.8145H77.8727V32.8827C77.8727 35.1723 78.3443 35.4752 79.827 36.4196V36.6553H74.8384V32.4109C73.8947 35.3755 71.8057 36.9924 68.8715 36.9924C65.4007 36.9924 63.4773 34.7028 63.4773 31.0299V23.3834C63.4773 21.4979 62.4665 20.8582 61.1523 20.0165V19.8145H66.4791L66.478 30.3901Z" fill="black"/>
<path d="M83.6026 28.4252C83.6026 23.8915 85.7226 21.1713 88.9196 21.1713C91.2752 21.1713 94.0346 22.8504 94.0346 26.5781V28.8617C94.0346 32.1528 91.9818 35.0745 88.8522 35.0745C85.5545 35.0745 83.6026 32.4552 83.6026 28.4252ZM80.3047 28.4252C80.3047 33.8655 83.5353 36.9551 87.809 36.9551C91.006 36.9551 93.227 34.9065 94.0346 32.4552L94.0682 36.5522C94.0682 40.9179 92.5875 43.4367 89.1214 43.4367C86.6313 43.4367 84.1074 41.6232 83.6026 38.2649L80.3385 39.138C81.3479 43.6045 85.016 44.9478 88.3475 44.9478C93.7653 44.9478 97.0295 41.9926 97.0633 36.5522V27.1826C97.0633 24.1266 97.0633 21.5071 97.5344 19.4922H97.0969C95.8855 20.1638 94.8423 21.4064 94.4384 22.9176C93.6307 21.1377 91.3424 19.4922 88.2466 19.4922C83.9392 19.4922 80.3047 22.9848 80.3047 28.4252Z" fill="black"/>
<path d="M102.692 28.4252C102.692 23.8915 104.812 21.1713 108.009 21.1713C110.365 21.1713 113.124 22.8504 113.124 26.5781V28.8617C113.124 32.1528 111.072 35.0745 107.942 35.0745C104.644 35.0745 102.692 32.4552 102.692 28.4252ZM99.3945 28.4252C99.3945 33.8655 102.625 36.9551 106.899 36.9551C110.096 36.9551 112.317 34.9065 113.124 32.4552L113.158 36.5522C113.158 40.9179 111.677 43.4367 108.211 43.4367C105.721 43.4367 103.197 41.6232 102.692 38.2649L99.4283 39.138C100.438 43.6045 104.106 44.9478 107.437 44.9478C112.855 44.9478 116.119 41.9926 116.153 36.5522V27.1826C116.153 24.1266 116.153 21.5071 116.624 19.4922H116.187C114.975 20.1638 113.932 21.4064 113.528 22.9176C112.721 21.1377 110.432 19.4922 107.336 19.4922C103.029 19.4922 99.3945 22.9848 99.3945 28.4252Z" fill="black"/>
<path d="M135.402 19.4688H135.841C135.368 21.4897 135.368 24.1194 135.368 27.186V32.8812C135.368 35.1716 135.841 35.4748 137.328 36.4196V36.6554H132.361L132.327 32.4765C131.516 34.9356 129.286 36.9926 126.074 36.9926C121.782 36.9926 118.538 33.892 118.538 28.4329C118.538 22.9739 122.186 19.4688 126.514 19.4688C129.622 19.4688 131.921 21.1192 132.732 22.9061C133.138 21.3897 134.186 20.1428 135.402 19.4688ZM132.328 26.5793C132.328 22.8405 129.558 21.1539 127.191 21.1539C123.982 21.1539 121.851 23.8823 121.851 28.4329C121.851 32.4749 123.81 35.1053 127.123 35.1053C130.265 35.1053 132.328 32.1748 132.328 28.8708V26.5793Z" fill="black"/>
<path d="M139.148 36.9926H138.746C139.181 34.9766 139.181 32.3537 139.181 29.362V16.7566C139.181 14.8751 138.211 14.2367 136.838 13.4303V13.1279H142.196V24.0175C142.999 21.5312 145.208 19.513 148.391 19.513C152.61 19.513 155.859 22.6057 155.859 27.9838C155.859 33.4966 152.244 36.9926 147.922 36.9926C144.843 36.9926 142.631 35.3462 141.761 33.5302C141.391 35.0765 140.353 36.3203 139.148 36.9926ZM142.194 29.9335C142.194 33.5622 144.938 35.2781 147.25 35.2781C150.43 35.2781 152.575 32.5901 152.575 27.9838C152.575 24.0175 150.6 21.3955 147.351 21.3955C144.271 21.3955 142.194 24.3522 142.194 27.6478V29.9335Z" fill="black"/>
<path d="M161.552 32.9843C161.552 35.201 162.024 35.5032 163.473 36.4116V36.6467H156.697V36.4116C158.146 35.5048 158.618 35.2026 158.618 32.9843V16.6208C158.618 14.7736 157.607 14.1691 156.326 13.363V13.1279H161.553L161.552 32.9843Z" fill="black"/>
<path d="M179.734 27.9265H167.537C167.537 32.3743 169.681 35.1375 173.334 35.1375C175.946 35.1375 177.824 33.8575 178.862 31.1969L179.565 31.4326C178.795 34.969 176.283 36.9926 172.428 36.9926C167.939 36.9926 164.287 33.8924 164.287 28.4337C164.287 22.9752 167.872 19.4688 172.296 19.4688C177.019 19.4688 179.734 22.6027 179.734 27.9265ZM176.483 26.613C176.416 23.6828 175.545 20.851 172.261 20.851C169.549 20.851 167.906 23.1749 167.604 26.613H176.483Z" fill="black"/>
</g>
<defs>
<clipPath id="clip0_117_9630">
<rect width="139.733" height="32" fill="white" transform="translate(40 13)"/>
</clipPath>
</defs>
</svg>
