<svg width="220" height="56" viewBox="0 0 220 56" fill="none" xmlns="http://www.w3.org/2000/svg">
<path d="M168 38.0638C168 35.1185 166.563 32.4242 165.293 30.0479C164.206 28.0231 163.237 26.1823 163.488 24.81C163.671 23.8227 164.373 23.2537 165.46 23.1868C165.493 23.1868 165.527 23.1701 165.56 23.1701C165.61 23.1533 165.66 23.1199 165.71 23.0864C165.761 23.0529 165.794 23.0027 165.811 22.9525C165.811 22.9358 165.827 22.9358 165.827 22.919L166.362 21.5301C166.412 21.3795 166.429 21.2791 166.379 21.1787C166.345 21.1117 166.295 21.0448 166.212 20.9778C166.111 20.8942 165.944 20.8272 165.727 20.7603C165.426 20.6599 165.042 20.5929 164.691 20.5929C163.12 20.5929 161.198 21.1117 159.527 25.2786C159.46 25.446 156.234 33.8132 156.134 34.081C155.733 35.0683 154.881 36.2564 153.076 36.2564C152.29 36.2564 151.655 35.9552 151.304 35.4532C151.237 35.3528 151.187 35.2524 151.137 35.152C151.003 34.8173 150.953 34.4156 151.037 33.9806C151.07 33.8299 151.104 33.6626 151.154 33.4953C151.237 33.2108 151.354 32.8928 151.488 32.5749C152.725 29.412 157.12 18.1497 158.474 14.6857C158.641 14.2506 158.407 13.8991 157.939 13.8991H156.385C156.218 13.8991 156.034 13.9493 155.884 14.033C155.599 14.1669 155.365 14.4179 155.248 14.6857C154.647 16.2085 153.794 18.4175 152.892 20.7436C152.19 22.5341 151.471 24.3917 150.803 26.0819C150.602 25.7472 150.368 25.4292 150.118 25.128C149.85 24.8268 149.566 24.5423 149.265 24.2913C147.962 23.2203 146.307 22.6346 144.486 22.6346C142.246 22.6346 140.09 23.5382 138.402 25.0109C138.335 25.0611 138.285 25.128 138.218 25.1782C138.168 25.2117 138.135 25.2619 138.085 25.2953C136.982 26.3329 136.113 27.6214 135.578 29.0439C135.578 29.0606 135.561 29.0773 135.561 29.1108C135.494 29.2949 135.444 29.479 135.377 29.6798C135.277 30.0312 135.194 30.3826 135.143 30.7508C135.093 31.0855 135.06 31.4202 135.043 31.7549C135.01 32.7255 135.16 33.6793 135.461 34.5495C135.311 34.8005 135.11 35.0348 134.893 35.2524C134.274 35.8381 133.455 36.223 132.603 36.2899C132.52 36.2899 132.453 36.2899 132.369 36.2899C132.035 36.2899 131.717 36.223 131.433 36.1226C131.082 35.9887 130.781 35.7711 130.581 35.4867C130.197 34.9344 130.197 34.1312 130.548 33.2108C130.631 32.9765 131.166 31.5541 131.651 30.2822C132.018 29.2949 132.352 28.3745 132.419 28.1904C132.453 28.09 132.52 27.9394 132.57 27.7553C132.653 27.4039 132.703 26.9186 132.469 26.4166C132.369 26.2157 132.252 26.0484 132.118 25.8978C131.851 25.6133 131.5 25.446 131.166 25.3121C131.032 25.2619 130.898 25.2117 130.765 25.1782C130.531 25.1113 130.28 25.0109 129.996 24.8937C129.979 24.8937 129.979 24.877 129.963 24.877C129.495 24.6762 127.238 23.6219 127.238 21.6138C127.238 21.5635 127.238 21.5133 127.238 21.4799C127.238 21.4631 127.238 21.4464 127.238 21.4297C127.238 21.4129 127.238 21.3795 127.238 21.3627C127.205 21.0615 127.105 20.8774 126.971 20.777C126.954 20.777 126.954 20.7603 126.938 20.7603C126.938 20.7603 126.938 20.7603 126.921 20.7603C126.904 20.7436 126.887 20.7436 126.871 20.7268C126.871 20.7268 126.871 20.7268 126.854 20.7268C126.854 20.7268 126.854 20.7268 126.837 20.7268C126.821 20.7268 126.821 20.7101 126.804 20.7101C126.72 20.6766 126.637 20.6599 126.537 20.6599H124.999C124.681 20.6599 124.33 20.8272 124.097 21.0782C123.996 21.1787 123.913 21.3125 123.863 21.4464C123.528 22.2999 123.127 23.3207 122.709 24.4084C121.239 28.1904 119.484 32.7255 118.983 34.014C118.966 34.0642 118.949 34.1144 118.932 34.1646C118.531 35.152 117.679 36.3401 115.857 36.3401C115.072 36.3401 114.42 36.0389 114.086 35.5369C113.885 35.2356 113.785 34.8507 113.802 34.3989C113.818 34.0475 113.902 33.6626 114.052 33.261C114.37 32.4242 115.055 30.6839 115.774 28.8431C116.459 27.0859 117.178 25.2117 117.679 23.9398C117.846 23.5048 117.612 23.1533 117.144 23.1533H115.59H115.439C115.339 23.1533 115.222 23.1701 115.105 23.2035C115.089 23.2035 115.089 23.2035 115.072 23.2035C114.704 23.3039 114.336 23.555 114.119 23.8227C113.317 24.7933 112.281 25.5798 111.144 26.1488C110.008 26.7178 108.788 27.0859 107.618 27.2198C107.451 26.7847 107.234 26.3496 106.966 25.948C106.95 25.9313 106.95 25.9145 106.933 25.8978C106.766 25.6468 106.599 25.4125 106.398 25.1782C105.011 23.5717 103.022 22.6848 100.766 22.6848C99.5627 22.6848 98.3928 22.9525 97.2898 23.4211C97.8413 21.9986 98.3928 20.5595 98.9109 19.204C99.546 17.5473 100.148 16.0077 100.632 14.7359C100.716 14.5351 100.699 14.3677 100.632 14.2171C100.549 14.0498 100.365 13.9493 100.114 13.9493H100.098H98.56H98.5433C98.3594 13.9493 98.1589 14.0163 97.975 14.1167C97.7578 14.2338 97.5739 14.4012 97.4737 14.602C97.4569 14.6522 97.4235 14.6857 97.4068 14.7359C95.418 19.8064 92.2427 28.0231 90.7386 31.9557C90.3208 33.0267 90.0366 33.7965 89.9197 34.081C89.5186 35.0683 88.6662 36.2564 86.8613 36.2564C86.6942 36.2564 86.5438 36.2397 86.4101 36.223C85.8418 36.1226 85.3572 35.8716 85.0898 35.4532C85.0396 35.3695 84.9895 35.2858 84.9394 35.1854C84.789 34.8507 84.7388 34.4324 84.8224 33.9806C84.8558 33.763 84.9728 33.4116 85.1065 33.0602C85.2903 32.5581 85.4742 32.0728 85.4742 32.0728C85.4742 32.0728 86.1427 30.3659 87.0953 27.8892C87.1955 27.6214 87.3125 27.337 87.4295 27.0357C87.4462 27.0023 87.4629 26.9688 87.4629 26.9353C88.9336 23.1533 90.9057 18.0493 92.3262 14.3677C92.8945 12.8783 93.3791 11.6232 93.7134 10.7865C93.8805 10.3514 93.6465 10 93.1786 10H91.6243C91.1564 10 90.655 10.3514 90.4879 10.7865C90.304 11.2551 88.6662 15.5057 86.8279 20.2583C84.4547 26.3831 81.764 33.3446 81.4799 34.0977C81.413 34.2483 81.3462 34.3989 81.2626 34.5495C81.0119 35.0348 80.6276 35.5034 80.0928 35.8381C79.6582 36.1058 79.09 36.2732 78.4048 36.2899C77.7697 36.2899 77.2349 36.1058 76.8673 35.7544C76.7837 35.6707 76.7001 35.5871 76.6166 35.4867C76.3659 35.1018 76.2656 34.6165 76.3659 34.0475V34.0308C76.4495 33.5455 77.1012 31.8385 77.1012 31.8051C77.5191 30.7341 78.0037 29.4622 78.5218 28.1067C80.2432 23.6721 82.3489 18.1832 83.7026 14.7191C83.7361 14.6187 83.7528 14.5183 83.7528 14.4179C83.7361 14.284 83.6859 14.1502 83.5857 14.0665C83.4854 13.9828 83.3517 13.9326 83.1678 13.9326H81.6136C81.4465 13.9326 81.2626 13.9828 81.0955 14.0665C80.8615 14.1836 80.661 14.3677 80.544 14.5853C80.5273 14.6187 80.4939 14.6689 80.4772 14.7024C80.0761 15.7232 79.6415 16.8611 79.1736 18.066C78.6722 19.3713 78.1374 20.7603 77.5859 22.1493C75.4467 27.6716 73.3242 33.2108 72.9733 34.0977C72.8563 34.3822 72.7059 34.6667 72.522 34.9512C72.0207 35.6707 71.2185 36.2732 69.8982 36.2732C69.4135 36.2732 68.979 36.156 68.6281 35.9552C68.4275 35.8213 68.2437 35.6707 68.1267 35.4699C68.0431 35.336 67.9763 35.2022 67.9261 35.0516C67.8259 34.7503 67.8091 34.3989 67.876 34.014C67.9596 33.5455 68.4275 32.3238 68.5111 32.1398C68.5111 32.123 68.5278 32.1063 68.5278 32.1063L71.7199 23.8729C71.887 23.4378 71.653 23.0864 71.1851 23.0864H69.6308C69.3467 23.0864 69.0459 23.2203 68.8119 23.4211C68.7952 23.4211 68.7952 23.4378 68.7952 23.4378C68.6615 23.555 68.5612 23.7056 68.5111 23.8562L68.1935 24.6929L67.6922 25.9982C67.5919 25.8476 67.4916 25.697 67.3913 25.5464C67.2911 25.3958 67.1741 25.2619 67.0571 25.128C66.5557 24.5423 65.9541 24.0403 65.3023 23.6554C64.1826 22.986 62.8623 22.6346 61.4417 22.6346C57.9488 22.6346 54.6398 24.8435 53.0187 27.9561C52.5674 28.8263 52.2499 29.7635 52.0995 30.7341C51.7485 33.01 52.3335 35.1687 53.7373 36.792C54.1718 37.294 54.6565 37.7291 55.208 38.0805C55.3083 38.1474 55.4253 38.2144 55.5422 38.2813C56.662 38.934 57.9655 39.2854 59.3694 39.2854C61.6256 39.2854 63.8149 38.3483 65.5196 36.8589C65.5697 36.9593 65.6365 37.0597 65.7034 37.1601C65.7368 37.2103 65.7869 37.2773 65.8204 37.3275C65.8204 37.3442 65.8371 37.3442 65.8371 37.3609C65.8705 37.4111 65.9206 37.4613 65.9541 37.5115C65.9875 37.545 66.0209 37.5785 66.0376 37.6119C66.0543 37.6454 66.0878 37.6621 66.1212 37.6956C66.1713 37.7458 66.2215 37.796 66.2549 37.8462C66.2716 37.863 66.2883 37.8797 66.305 37.8964C66.3719 37.9466 66.422 38.0136 66.4889 38.0638C66.4889 38.0638 66.4889 38.0638 66.5056 38.0805C67.0738 38.5658 67.7924 38.9507 68.6281 39.1515C68.6448 39.1515 68.6615 39.1683 68.6782 39.1683C68.7618 39.185 68.8453 39.2017 68.9289 39.2185C68.9623 39.2185 68.9957 39.2352 69.0459 39.2352C69.1127 39.2519 69.1796 39.2519 69.2631 39.2687C69.33 39.2687 69.3801 39.2854 69.447 39.2854C69.4971 39.2854 69.5472 39.3021 69.6141 39.3021C69.7311 39.3021 69.8481 39.3189 69.9818 39.3189C70.8508 39.3189 71.6697 39.1515 72.4218 38.8336C72.7059 38.7164 72.9733 38.5825 73.224 38.4152C73.3075 38.365 73.3911 38.3148 73.4747 38.2479C73.8089 38.0136 74.1264 37.7626 74.4105 37.4613C74.5108 37.5952 74.6278 37.7123 74.7448 37.8295C75.5136 38.616 76.5497 39.1013 77.7363 39.2519C77.7697 39.2519 77.8199 39.2687 77.8533 39.2687C77.8867 39.2687 77.9202 39.2687 77.9536 39.2687C78.0204 39.2687 78.0873 39.2854 78.1541 39.2854C78.1876 39.2854 78.221 39.2854 78.2377 39.2854C78.3045 39.2854 78.3881 39.2854 78.4549 39.2854C80.193 39.2854 81.7306 38.6327 82.867 37.4613C83.3015 37.9968 83.8531 38.4319 84.4881 38.7499C85.2068 39.1013 86.0257 39.2854 86.8947 39.2854C87.3459 39.2854 87.7805 39.2352 88.1983 39.1515C90.0199 38.7834 91.524 37.6287 92.4432 35.8883C92.4934 35.972 92.5435 36.0389 92.5936 36.1226C92.6605 36.223 92.7273 36.3234 92.7942 36.4238C92.8945 36.5577 92.9947 36.6748 93.095 36.8087C94.4821 38.4152 96.4709 39.3021 98.7271 39.3021C101.802 39.3021 104.744 37.5785 106.498 35.0683C107.301 33.9136 107.852 32.6083 108.069 31.2194C108.119 30.8679 108.153 30.5165 108.17 30.1651C108.47 30.1316 108.771 30.0814 109.055 30.0145C110.342 29.7635 111.546 29.3451 112.615 28.7761C112.582 28.8598 112.548 28.9602 112.515 29.0439C112.013 30.3659 111.562 31.5038 111.328 32.123C110.593 33.9806 110.71 35.7879 111.662 37.1936C112.013 37.7123 112.465 38.1474 112.983 38.4821C113.818 39.0176 114.821 39.3189 115.924 39.3189C118.581 39.3189 120.771 37.796 121.807 35.2189C121.941 34.8842 122.208 34.1814 122.559 33.261C123.294 31.37 124.397 28.5251 125.4 25.948C125.484 25.7137 125.584 25.4794 125.667 25.2619C126.537 26.3496 127.706 27.1696 128.843 27.6549C128.91 27.6884 128.96 27.7051 129.027 27.7386C129.16 27.7888 129.294 27.839 129.411 27.8892C128.843 29.4288 127.94 31.872 127.823 32.1398C127.372 33.2944 127.238 34.4157 127.439 35.4365C127.556 36.0724 127.807 36.6748 128.158 37.2103C128.392 37.545 128.659 37.8462 128.96 38.114C129.795 38.8336 130.882 39.2687 132.085 39.3356C132.202 39.3356 132.302 39.3523 132.419 39.3523C132.603 39.3523 132.787 39.3356 132.971 39.3189C133.004 39.3189 133.054 39.3189 133.088 39.3021C133.105 39.3021 133.121 39.3021 133.138 39.3021C133.907 39.2185 134.642 38.9842 135.327 38.6495C136.029 38.2981 136.664 37.8295 137.199 37.2773C138.252 38.3148 139.606 38.9842 141.126 39.2352C141.544 39.3021 141.979 39.3356 142.43 39.3356C142.998 39.3356 143.566 39.2687 144.118 39.1683C145.639 38.867 147.076 38.1474 148.279 37.1601C148.396 37.0764 148.497 36.976 148.597 36.8756C148.664 36.9928 148.731 37.1099 148.797 37.2103C149.382 38.0638 150.218 38.683 151.204 39.0344C151.254 39.0511 151.304 39.0678 151.338 39.0846C151.388 39.1013 151.455 39.118 151.505 39.1348C151.572 39.1515 151.622 39.1683 151.689 39.185C151.739 39.2017 151.789 39.2017 151.839 39.2185C151.906 39.2352 151.956 39.2519 152.023 39.2519C152.073 39.2687 152.123 39.2687 152.173 39.2854C152.24 39.3021 152.29 39.3021 152.357 39.3021C152.424 39.3021 152.491 39.3189 152.558 39.3189C152.608 39.3189 152.658 39.3356 152.708 39.3356C152.825 39.3356 152.942 39.3523 153.076 39.3523C155.733 39.3523 157.922 37.8295 158.959 35.2524C159.009 35.1018 159.978 32.6753 160.764 30.6671C160.998 30.0647 161.215 29.4957 161.382 29.0439C161.465 29.228 161.566 29.4288 161.649 29.6128C161.967 30.2488 162.301 30.9014 162.652 31.5708C162.936 32.1063 163.237 32.6585 163.504 33.2108C164.323 34.8507 165.008 36.5242 165.008 38.1642C165.008 43.0005 161.733 43.8539 160.73 44.0045C160.062 44.1049 159.56 44.6237 159.46 45.2596C159.443 45.4102 159.427 45.5608 159.46 45.7114C159.46 45.7616 159.477 45.8119 159.493 45.8453C159.661 46.5147 160.262 47 160.947 47C160.981 47 161.014 47 161.064 47C161.098 47 161.131 47 161.181 47C161.967 46.8829 162.802 46.6318 163.588 46.2469C165.911 44.9417 168 42.398 168 38.0638ZM148.747 30.7173C148.463 32.692 147.21 34.4324 145.572 35.4197C145.555 35.4365 145.522 35.4532 145.505 35.4532C145.505 35.4532 145.488 35.4532 145.488 35.4699C144.619 35.972 143.65 36.2564 142.647 36.2564C142.179 36.2564 141.728 36.1895 141.31 36.0556C140.575 35.8213 139.923 35.403 139.439 34.8173C138.954 34.2316 138.653 33.512 138.536 32.7087V32.692C138.469 32.2067 138.469 31.7047 138.553 31.1859C138.67 30.4161 138.92 29.6798 139.305 29.0104C139.806 28.1067 140.508 27.337 141.327 26.7512C142.313 26.0651 143.466 25.6468 144.653 25.6468C145.455 25.6468 146.19 25.8308 146.809 26.199C147.21 26.4333 147.561 26.7345 147.862 27.0859C148.012 27.27 148.146 27.4541 148.246 27.6549C148.63 28.3243 148.814 29.1108 148.814 29.9475C148.814 30.1986 148.797 30.4496 148.747 30.7173ZM97.3567 36.1058C96.5378 35.8883 95.8358 35.4532 95.3178 34.8005C94.5323 33.8467 94.2147 32.5581 94.4153 31.1692V31.1524C94.4654 30.801 94.549 30.4998 94.6326 30.2488C94.7495 29.9475 94.8665 29.6296 95.0002 29.3116C95.0169 29.2614 95.0504 29.228 95.0671 29.1777C95.1172 29.0941 95.1506 29.0104 95.2008 28.9267C95.2175 28.8933 95.2342 28.8765 95.2509 28.8431C95.6186 28.2239 96.0698 27.6716 96.5879 27.2031C97.6909 26.2325 99.0781 25.63 100.515 25.63C101.167 25.63 101.785 25.7639 102.32 25.9982C102.872 26.2492 103.34 26.6006 103.724 27.0692C104.51 28.0231 104.827 29.3116 104.627 30.7173C104.175 33.763 101.435 36.2564 98.5098 36.2564C98.1087 36.2564 97.7243 36.2062 97.3567 36.1058ZM59.5365 36.2564C58.2162 36.2564 57.0798 35.7377 56.311 34.8173C56.2275 34.7169 56.1606 34.6165 56.0938 34.5161C55.4587 33.5957 55.2247 32.4242 55.4085 31.1692C55.8598 28.1235 58.6173 25.63 61.5587 25.63C62.879 25.63 64.0154 26.1488 64.7842 27.0692C65.5697 28.0231 65.9039 29.3116 65.6867 30.7173C65.6532 30.9516 65.6031 31.1859 65.5363 31.4202C64.8009 34.1312 62.2439 36.2564 59.5365 36.2564Z" fill="black"/>
</svg>
