<svg width="220" height="56" viewBox="0 0 220 56" fill="none" xmlns="http://www.w3.org/2000/svg">
<rect width="220" height="56" fill="white"/>
<path d="M46.7113 32.5386V32.6301C47.4476 35.6444 49.788 37.5601 53.1802 37.5601C55.6126 37.5601 57.4008 36.9063 58.5512 35.4155H64.3759C62.6666 39.7309 58.5512 42.5032 53.1802 42.5032C46.0211 42.5032 40.9722 37.4817 40.9722 30.6359C40.9722 23.7901 46.0211 18.7686 53.1802 18.7686C60.3394 18.7686 65.2962 23.7901 65.2962 30.6359V32.5386H46.7113ZM46.8494 28.1121V28.2036H59.5111V28.1121C58.6367 25.3725 56.3424 23.6855 53.1802 23.6855C50.0181 23.6855 47.7172 25.3725 46.8494 28.1121ZM88.0557 41.9082V29.034C88.0557 25.379 89.9819 23.8032 92.5984 23.8032C95.2149 23.8032 97.2002 25.3071 97.2002 29.034V41.9082H102.663V29.034C102.663 21.9594 98.5348 18.7621 93.1637 18.7621C89.7255 18.7621 86.971 20.1744 85.3603 22.7309H85.2683C83.6182 20.1744 80.8636 18.7621 77.4649 18.7621C72.0873 18.7686 67.9259 21.9594 67.9259 29.034V41.9082H73.3889V29.034C73.3889 25.3332 75.3151 23.8032 77.9908 23.8032C80.6664 23.8032 82.5926 25.3528 82.5926 29.034V41.9082H88.0557ZM105.313 9.49707H110.776V22.5086H110.868C112.334 20.2267 115.042 18.7686 118.441 18.7686C123.858 18.7686 129.617 22.6459 129.617 30.6359C129.617 37.4817 124.568 42.5032 117.409 42.5032C110.25 42.5032 105.313 37.7694 105.313 30.4528V9.49707ZM124.128 30.6294C124.128 26.6605 121.419 23.8294 117.429 23.8294C113.438 23.8294 110.776 26.654 110.776 30.6359C110.776 34.6178 113.405 37.4359 117.429 37.4359C121.452 37.4359 124.128 34.6048 124.128 30.6359M137.933 32.5517V32.6432C138.669 35.6575 141.01 37.5732 144.402 37.5732C146.834 37.5732 148.623 36.9194 149.773 35.4286H155.598C153.902 39.7178 149.773 42.5032 144.422 42.5032C137.263 42.5032 132.214 37.4817 132.214 30.6359C132.214 23.7901 137.263 18.7686 144.422 18.7686C151.581 18.7686 156.538 23.7901 156.538 30.6359V32.5386L137.933 32.5517ZM138.071 28.1251V28.2167H150.739V28.1251C149.865 25.3855 147.571 23.6986 144.409 23.6986C141.247 23.6986 138.946 25.3855 138.078 28.1251M179.028 29.034V28.8967C179.028 22.0051 175.037 18.7621 169.114 18.7621C163.191 18.7621 159.154 22.0313 159.154 28.8051V41.8821H164.617V28.8051C164.617 25.1567 166.452 23.8294 169.114 23.8294C171.777 23.8294 173.611 25.1371 173.611 28.8051V29.034H179.028Z" fill="#E95223"/>
</svg>
