<svg xmlns="http://www.w3.org/2000/svg" viewBox="0 0 347.4 141.62" data-reactid="539"><polyline points="0 70.81 70.81 141.62 70.81 70.81 0 70.81" fill="#03004a" data-reactid="540"></polyline><polyline points="70.81 0 70.81 70.81 141.62 70.81 70.81 0" fill="#3573f6" data-reactid="541"></polyline><polyline points="70.81 70.81 70.81 141.62 141.62 70.81 70.81 70.81" fill="#0f1bf5" data-reactid="542"></polyline><polyline points="156.49 89.31 156.49 53.97 182.5 53.97 182.5 60.82 165.33 60.82 165.33 67.27 181.36 67.27 181.36 74.12 165.33 74.12 165.33 82.46 183.99 82.46 183.99 89.31 156.49 89.31" fill="#3573f6" data-reactid="543"></polyline><path d="M279.58,145.48c-3.67,0-5.31,3.18-5.31,8.24,0,4.32,1,8.24,5.31,8.24,4,0,5.41-3.72,5.41-8.78,0-4.72-1.39-7.7-5.41-7.7m13.15,21.44h-7.45v-2.58h-.1a8.82,8.82,0,0,1-7.1,3.28c-6.35,0-11.42-4.12-11.57-13.7-.15-10.52,5.91-14.1,11.22-14.1A9.57,9.57,0,0,1,285,142.6v-11h7.74Z" transform="translate(-82.28 -77.61)" fill="#3573f6" data-reactid="544"></path><path d="M313.38,150.54a5,5,0,0,0-5.26-5.06,5.34,5.34,0,0,0-5.26,5.06h10.52M303,155.31c0,5.06,3.27,6.65,5.76,6.65,2.88,0,4.22-1.49,6.45-4.67l5.81,3c-2.68,5-6.9,7.3-12.81,7.3-8.19,0-13-5.66-13-13.1,0-9.33,4.91-14.69,13-14.69,9.63,0,12.91,7.35,13,15.49Z" transform="translate(-82.28 -77.61)" fill="#3573f6" data-reactid="545"></path><rect x="241.67" y="53.97" width="7.74" height="35.34" fill="#3573f6" data-reactid="546"></rect><path d="M336.06,140.52h7.74v2.33c2-2.33,5.26-3,7.65-3a8.18,8.18,0,0,1,7,3.52,11.34,11.34,0,0,1,8.49-3.52c2.58,0,8.14.89,8.14,6.95v20.15h-7.74V151.49c0-3.72-1-5.41-4-5.41-2.58,0-3.92,1.94-3.92,4.62v16.23H351.7V150.4c0-2.58-.79-4.32-3.77-4.32s-4.12,2-4.12,4.42v16.43h-7.74V140.52" transform="translate(-82.28 -77.61)" fill="#3573f6" data-reactid="547"></path><path d="M394.29,154.07l-5.21,1.49c-1.94.55-3.72,1.29-3.72,3.43s1.74,3,3.62,3c3,0,5.31-2,5.31-6.06v-1.84m7.45,7.34a15.59,15.59,0,0,0,.69,5.51h-7.15a10.58,10.58,0,0,1-.5-2.73h-.1c-1.29,2.09-5.16,3.43-7.94,3.43-5.06,0-8.84-2.78-8.84-7.84,0-6.36,5.11-8.59,13.55-9.78l2.83-.4v-2.18c0-2-1.59-2.83-3.67-2.83-2.48,0-3.67.89-4.07,3.52H379.1c.25-7.6,7.3-8.29,10.87-8.29,7.2,0,11.71,1.69,11.76,7.64Z" transform="translate(-82.28 -77.61)" fill="#3573f6" data-reactid="548"></path><path d="M406.3,140.52H414v2.33c2-2.33,5.26-3,7.64-3,6.25,0,8,3.62,8,7.59v19.51h-7.74V150.4c0-2.58-.79-4.32-3.77-4.32s-4.12,2-4.12,4.42v16.43H406.3V140.52" transform="translate(-82.28 -77.61)" fill="#3573f6" data-reactid="549"></path></svg>
