<svg width="468" height="127" viewBox="0 0 468 127" fill="none" xmlns="http://www.w3.org/2000/svg">
<path d="M140.476 32.8111C140.476 11.1622 117.504 0.702637 90.1326 0.702637C60.8066 0.702637 34.1688 13.5947 24.1491 33.5409C21.4609 38.8923 19.9946 44.7302 19.9946 50.8113C19.9946 55.9195 21.2165 61.0276 24.1491 65.4061C28.3036 71.4872 35.8795 75.6224 46.8768 75.6224C60.3179 75.6224 71.0707 68.325 71.0707 55.433C71.0707 55.433 71.3151 51.7843 67.1606 51.7843C63.7392 51.7843 62.7617 54.2168 63.0061 55.433C63.4948 65.6493 57.3853 73.6764 46.6324 73.6764C34.6576 73.6764 29.5255 63.4601 29.5255 52.514C29.5255 30.1354 46.388 15.5406 63.9836 8.973C72.2926 5.8108 80.8461 4.35133 89.6439 4.35133C109.439 4.35133 125.813 11.892 125.813 32.3246C125.813 49.3518 111.394 63.7034 94.2872 65.1628L95.0203 62.9736C98.4417 50.5681 102.841 36.703 109.928 26.73C110.416 26.2435 111.15 25.0272 111.883 24.0543L110.905 22.838C109.439 23.811 107.973 24.784 106.506 25.757C73.7589 51.5411 72.7814 123.542 28.7924 123.542C27.3261 123.542 25.8598 123.542 24.3935 123.299C15.3513 121.839 10.4636 115.758 10.4636 107.244C10.4636 105.542 10.9524 103.352 10.9524 101.893C10.9524 99.4605 8.99734 97.5146 6.5535 97.5146H6.30912C2.39899 97.5146 0.688302 100.677 0.688302 105.055C0.443919 117.704 9.73049 125.245 24.3935 126.461C26.1042 126.461 27.5705 126.704 29.2812 126.704C63.4948 126.704 84.5118 100.92 93.554 69.5413C97.9529 69.0548 102.596 68.0818 106.995 66.8656C122.636 62.2439 140.476 51.5411 140.476 32.8111Z" fill="#000A3C"/>
<path d="M466.727 40.3516H454.752L452.064 46.676L447.421 57.3788H441.8L440.089 61.0275H445.954L438.867 76.5952C433.735 87.5413 425.915 98.2441 421.516 98.2441C420.539 98.2441 419.805 97.7576 419.805 96.7846C419.805 95.8117 420.05 94.8387 421.272 92.163C422.738 88.7575 424.937 84.1358 426.648 80.4872C429.092 75.379 433.247 67.5951 433.247 63.7032C433.247 59.8112 430.803 56.649 425.915 56.649C420.294 56.649 415.407 60.0545 410.763 64.6762L413.696 57.3788H402.454L393.168 78.2979C389.502 85.5953 381.926 98.0009 377.283 98.0009C376.305 98.0009 375.816 97.5144 375.816 96.2981C375.816 95.3252 376.061 94.5954 376.55 93.6224C377.038 92.6495 382.415 79.7574 382.415 79.7574L392.434 56.8923H380.215L370.44 79.2709C367.507 86.0818 359.687 97.7576 354.799 97.7576C354.066 97.7576 353.089 97.2711 353.089 96.2981V95.8117C353.089 94.5954 354.066 92.4062 354.799 90.7035L359.932 79.5142L370.44 56.649H358.221L355.777 61.7572C354.066 65.1627 350.889 69.2978 346.246 69.2978C344.047 69.2978 342.825 68.3249 342.336 67.5951C341.603 59.8112 336.715 55.9193 329.384 55.9193C319.364 55.9193 312.277 61.7572 307.389 69.0546C304.212 74.1628 301.768 79.2709 300.058 84.8656C295.659 91.9197 291.26 97.5144 287.594 97.5144C286.616 97.5144 286.128 97.0279 286.128 95.8117C286.128 94.5954 287.35 91.9197 287.838 90.9467L295.659 74.1628C297.858 69.0546 299.324 65.6491 299.324 62.2437C299.324 58.595 296.881 56.1626 292.726 56.1626C287.105 56.1626 280.751 59.568 275.864 64.9194C276.108 63.9464 276.108 63.2167 276.108 62.2437C276.108 58.3518 274.153 56.1626 269.998 56.1626C264.866 56.1626 259.246 59.3248 254.358 64.9194L257.535 57.1355H246.538L237.251 78.0547C232.852 88.0278 225.765 97.7576 221.61 97.7576C220.633 97.7576 220.144 97.2711 220.144 96.0549C220.144 94.1089 222.344 89.4873 223.077 87.5413L235.296 59.8112C236.273 57.622 230.164 56.4058 222.832 56.4058C215.012 56.4058 207.192 60.2977 201.327 65.1627C197.172 68.5681 194.24 70.2708 192.773 70.2708C192.04 70.2708 191.551 69.7843 191.551 69.2978C191.551 67.5951 195.706 62.7302 195.706 59.0815C195.706 57.3788 194.728 56.1626 192.529 56.1626C188.13 56.1626 182.998 60.2977 179.088 64.6762L182.265 56.8923H171.512L162.225 77.8115C157.826 87.7845 150.495 98.0009 146.34 98.0009C145.363 98.0009 144.874 97.5144 144.874 96.2981C144.874 94.3522 146.829 89.7305 148.051 87.298L160.27 59.8112C161.248 57.622 155.138 56.4058 147.807 56.4058C136.565 56.4058 125.812 63.9464 120.191 71.4871C113.837 79.7574 109.438 88.5143 109.438 95.8117C109.438 101.65 112.371 105.298 118.481 105.298C125.323 105.298 130.7 99.9468 133.632 96.0549C133.388 96.7846 133.388 97.7576 133.144 98.4874C133.144 102.379 134.854 105.298 139.742 105.298C144.141 105.298 149.762 101.65 154.405 96.0549L150.739 104.569H162.47L173.956 78.5412C177.866 70.0276 182.02 65.6491 183.242 65.6491C183.731 65.6491 183.731 65.8924 183.731 66.1356C183.731 67.1086 182.02 69.5411 182.02 71.7303C182.02 73.9195 183.242 75.6222 186.419 75.6222C188.863 75.6222 191.796 74.406 194.24 72.7033C188.374 80.7304 184.22 89.0008 184.22 96.0549C184.22 101.893 187.152 105.541 193.262 105.541C199.616 105.541 205.481 99.4603 208.658 95.5684C208.658 96.5414 208.414 97.2711 208.414 98.4874C208.414 102.379 210.613 105.785 215.257 105.785C220.389 105.785 224.299 102.623 229.431 96.5414L225.765 105.055H237.495L248.493 80.2439C253.38 69.5411 259.734 63.7032 263.156 63.7032C263.889 63.7032 264.622 64.1897 264.866 64.9194V64.6762C264.866 65.8924 264.378 67.1086 263.889 68.0816L248.004 104.569H260.467L271.709 79.2709C276.597 68.3249 281.973 62.9734 285.883 62.9734C287.105 62.9734 287.594 63.4599 287.594 64.9194C287.594 66.3789 287.105 67.8384 286.372 68.8113L275.619 91.9197C274.642 94.1089 273.909 96.5414 273.909 98.9739C273.909 102.379 275.864 105.541 281.24 105.541C288.327 105.541 293.704 100.19 299.569 92.4062V93.8657C300.058 100.19 303.479 105.541 313.01 105.541C324.007 105.541 333.049 98.0009 338.426 85.8386C340.381 81.4601 341.847 77.0817 342.336 72.2168C343.558 72.7033 345.024 73.1898 346.246 72.9465C347.957 72.9465 349.912 72.46 351.378 71.7303L349.423 75.8655C347.224 80.4872 344.78 85.5953 342.825 89.9738C341.603 92.4062 340.87 95.3252 340.625 98.0009C340.625 102.379 343.069 105.298 347.957 105.298C352.844 105.298 359.687 100.677 364.33 94.1089C364.086 95.3252 363.842 96.7846 363.842 98.2441C363.842 101.893 365.064 105.298 369.951 105.298C375.816 105.298 380.215 101.163 384.614 95.8117L380.948 104.325H393.168L402.943 82.4331C408.564 70.0276 413.94 62.487 419.072 62.487C420.05 62.487 420.783 62.9734 420.783 63.9464V64.1897C420.783 66.3789 417.85 71.9735 415.162 77.5682C412.718 82.6764 410.763 86.8116 409.541 89.9738C408.319 92.6495 407.586 95.3252 407.342 98.2441C407.342 102.136 409.541 105.055 414.185 105.055C421.272 105.055 428.359 98.2441 432.269 93.136C431.291 95.5684 431.047 98.2441 430.803 100.677C430.803 107.731 434.957 111.136 440.822 111.136C444.733 111.136 448.643 109.92 451.82 107.487C456.463 104.325 460.129 99.4603 463.306 95.0819L461.106 93.136C458.174 97.2711 454.997 101.163 451.575 103.596C449.865 105.055 447.665 105.785 445.466 106.028C443.022 106.028 441.311 104.812 441.311 101.65C441.311 98.4874 442.777 94.1089 445.221 88.271C445.221 88.271 448.643 80.7304 451.82 73.6763C454.508 67.5951 456.952 62.0005 457.44 60.7842H465.261L467.216 57.3788H459.396L466.727 40.3516ZM124.101 98.0009C122.391 98.0009 121.169 97.5144 121.169 95.0819C121.169 89.244 126.301 78.7844 132.411 70.2708C136.809 64.4329 142.43 60.0545 148.295 60.0545L140.72 77.0817C134.854 90.217 128.745 98.0009 124.101 98.0009ZM199.127 98.0009C197.417 98.0009 196.195 97.5144 196.195 95.0819C196.195 89.244 201.327 78.7844 207.436 70.2708C211.835 64.4329 217.456 60.0545 223.321 60.0545L215.745 77.0817C209.88 90.4602 204.015 98.0009 199.127 98.0009ZM332.561 64.9194C332.316 71.4871 326.451 87.0548 319.853 96.5414C317.164 100.433 314.721 101.406 312.766 101.406C309.833 101.406 309.1 99.2171 309.589 95.8117C310.077 89.9738 315.209 76.1087 322.052 66.6221C325.229 62.2437 327.184 60.541 329.628 60.541C332.072 60.541 332.805 62.487 332.561 64.9194Z" fill="#000A3C"/>
</svg>
