<svg width="472" height="50" viewBox="0 0 472 50" fill="none" xmlns="http://www.w3.org/2000/svg">
<path fill-rule="evenodd" clip-rule="evenodd" d="M365.518 6.18164C366.179 6.79499 367.078 7.12526 368.307 7.12526C369.442 7.12526 370.387 6.79499 371.049 6.13446C371.711 5.47393 372.042 4.62468 372.042 3.58671C372.042 2.45437 371.711 1.55794 371.049 0.94459C370.387 0.331241 369.489 0.000976562 368.307 0.000976562C367.125 0.000976562 366.227 0.331241 365.565 0.991771C364.903 1.60512 364.572 2.50155 364.572 3.58671C364.572 4.67186 364.903 5.56829 365.518 6.18164ZM365.849 15.0044V49.0689V49.116H370.766V15.0044H365.849ZM279.847 48.9286C281.88 49.4476 284.055 49.7306 286.372 49.7306C290.438 49.7306 293.984 48.9758 297.104 47.4188C300.177 45.909 302.589 43.7859 304.385 41.0966C306.182 38.4073 307.08 35.3877 307.08 31.9907C307.08 28.4993 306.182 25.4326 304.338 22.7905C302.541 20.1012 300.083 18.0252 297.057 16.4683C294.031 14.9113 290.58 14.1564 286.797 14.1564C284.48 14.1564 282.306 14.4395 280.273 14.9585C278.24 15.4775 276.443 16.2324 274.835 17.1288C273.228 18.0252 271.904 19.0632 270.769 20.2427C270.57 20.4498 270.381 20.6584 270.202 20.8687V0.757124H265.285V49.0229H270.108L270.227 43.3794C270.25 43.4048 270.273 43.4302 270.297 43.4556C271.431 44.6823 272.802 45.7675 274.41 46.7111C276.017 47.6547 277.814 48.3624 279.847 48.9286ZM294.267 43.3141C291.903 44.4936 289.161 45.0598 286.041 45.0598C282.826 45.0598 279.942 44.4936 277.436 43.3613C274.977 42.2289 273.039 40.6248 271.62 38.6432C270.202 36.6616 269.493 34.3969 269.446 31.8492C269.493 29.3486 270.202 27.1311 271.573 25.1967C272.992 23.2623 274.883 21.7053 277.389 20.573C279.847 19.3935 282.778 18.8273 286.088 18.8273C289.161 18.8273 291.856 19.3935 294.267 20.5258C296.631 21.6582 298.522 23.1679 299.941 25.1495C301.312 27.1311 302.021 29.3958 302.021 31.9435C302.021 34.3969 301.359 36.6144 299.941 38.596C298.57 40.5776 296.679 42.1817 294.267 43.3141ZM214.034 25.2426V14.1552H223.395V3.35079H236.681V14.1552H247.697V25.2426H236.681V49.0689H223.395V25.2426H214.034ZM0 14.1535V49.02H13.3328V34.7715C13.3328 33.8278 13.4746 32.9314 13.8056 32.0822C14.1366 31.2329 14.6566 30.4308 15.3658 29.6759C16.075 28.9682 17.0206 28.3549 18.1553 27.9303C19.29 27.5056 20.6611 27.2697 22.2213 27.2697C23.9234 27.2697 25.6727 27.5056 27.3748 27.9303C29.0769 28.4021 30.4007 28.9211 31.2517 29.5816L34.9395 15.2858C33.8048 14.6725 32.481 14.2007 30.9208 13.8704C29.3605 13.5402 27.753 13.3986 26.0983 13.3986C23.4506 13.3986 20.9921 14.0591 18.6281 15.333C16.3276 16.5727 14.3406 18.2591 12.6669 20.3489L12.2927 14.1535H0ZM55.2223 47.4167C59.0046 48.9736 63.3543 49.7285 68.2241 49.7285C73.1412 49.7285 77.4909 48.9736 81.1787 47.4167C84.8665 45.9069 87.7978 43.7366 89.8781 41.0001C91.9584 38.2636 92.9986 35.1497 92.9986 31.6111C92.9986 28.0254 91.9584 24.9115 89.8781 22.175C87.7978 19.4385 84.8665 17.3154 81.1787 15.7584C77.4909 14.2015 73.1412 13.4466 68.2241 13.4466C63.3071 13.4466 59.0046 14.2015 55.2223 15.7584C51.4399 17.3154 48.5086 19.4385 46.4283 22.175C44.348 24.9115 43.3079 28.0254 43.3079 31.6111C43.3079 35.1025 44.348 38.2636 46.4283 41.0001C48.5086 43.7366 51.4399 45.8597 55.2223 47.4167ZM73.9449 37.7446C72.2429 38.358 70.3044 38.6411 68.2241 38.6411C66.1438 38.6411 64.2054 38.358 62.4088 37.6974C60.6121 37.0841 59.241 36.282 58.2009 35.1969C57.1607 34.1589 56.6407 32.9322 56.6407 31.5168C56.6407 30.0542 57.1607 28.7803 58.2009 27.7423C59.241 26.7044 60.6594 25.8551 62.4088 25.2889C64.2054 24.6756 66.1438 24.3925 68.2241 24.3925C70.3044 24.3925 72.2429 24.7228 73.9449 25.2889C75.6943 25.9023 77.0654 26.7044 78.1055 27.7895C79.1457 28.8747 79.6658 30.1485 79.6185 31.564C79.6658 32.9322 79.1457 34.1589 78.1055 35.2441C77.0654 36.3292 75.647 37.1785 73.9449 37.7446ZM122.454 49.6821C118.246 49.6821 114.653 48.9272 111.627 47.4175C108.601 45.9077 106.332 43.7845 104.724 41.0952C103.117 38.4059 102.313 35.2448 102.313 31.7063C102.313 28.1206 103.117 24.9595 104.771 22.223C106.426 19.4865 108.743 17.3162 111.721 15.8064C114.7 14.2494 118.246 13.4946 122.359 13.4946C124.723 13.4946 126.898 13.7305 128.837 14.2494C130.822 14.7684 132.524 15.3818 134.037 16.231C134.963 16.7218 135.783 17.2302 136.496 17.7671V14.1551H149.45V49.1159H136.165V44.8353C135.45 45.5002 134.615 46.1251 133.659 46.7097C132.241 47.6062 130.539 48.3139 128.6 48.88C126.756 49.399 124.676 49.6821 122.454 49.6821ZM125.953 38.8777C128.175 38.8777 130.066 38.5947 131.626 37.9813C133.186 37.4151 134.416 36.5659 135.219 35.4807C136.07 34.3956 136.449 33.1217 136.449 31.6119C136.449 30.1021 136.023 28.7811 135.219 27.6959C134.368 26.6108 133.186 25.7615 131.626 25.1482C130.066 24.5348 128.175 24.2517 125.953 24.2517C123.778 24.2517 121.886 24.5348 120.279 25.1482C118.671 25.7615 117.442 26.6108 116.591 27.6959C115.74 28.7811 115.315 30.1021 115.315 31.6119C115.315 33.0745 115.74 34.3956 116.591 35.4807C117.442 36.5659 118.671 37.4151 120.279 37.9813C121.886 38.5947 123.778 38.8777 125.953 38.8777ZM173.043 47.982C176.92 49.1616 181.317 49.7277 186.186 49.7277C190.489 49.7277 194.129 49.2087 197.155 48.1236C200.228 47.0856 202.545 45.7174 204.2 43.9717C205.855 42.226 206.658 40.2444 206.658 37.9797C206.658 36.6115 206.469 35.3848 206.044 34.2997C205.618 33.2145 204.862 32.2237 203.727 31.3744C202.403 30.3365 200.37 29.3929 197.722 28.5436C195.075 27.6944 191.482 26.9866 186.99 26.3733C185.193 26.1846 183.539 25.9959 181.978 25.8071C180.418 25.6656 179.283 25.3353 178.527 24.9107C178.291 24.7692 178.149 24.6276 178.007 24.4389C177.865 24.2502 177.818 24.1086 177.818 23.9199C177.818 23.684 177.96 23.4481 178.243 23.2122C178.527 22.9763 178.905 22.8347 179.378 22.6932C179.851 22.5517 180.418 22.4573 181.033 22.4101C181.695 22.3629 182.357 22.3158 183.113 22.3158C185.524 22.3158 187.794 22.5045 189.921 22.9291C192.096 23.3537 193.987 23.8255 195.737 24.4861C197.486 25.1466 198.904 25.7599 200.039 26.4205L206.469 18.4941C204.625 17.2674 202.545 16.3238 200.228 15.5689C197.912 14.814 195.5 14.2479 192.947 13.9176C190.394 13.5873 187.888 13.3986 185.335 13.3986C182.688 13.3986 180.135 13.6345 177.723 14.1535C175.312 14.6253 173.184 15.3802 171.293 16.3238C169.402 17.2674 167.936 18.4941 166.849 19.9095C165.762 21.3721 165.194 22.9763 165.194 24.8163C165.194 26.8451 165.62 28.4964 166.518 29.8647C167.369 31.2329 168.598 32.3652 170.064 33.2617C171.719 34.1581 173.705 34.7715 175.974 35.1961C178.243 35.6207 180.986 36.0453 184.106 36.4228C185.025 36.4907 186.018 36.5832 187.085 36.6825C187.499 36.721 187.925 36.7606 188.361 36.8002C189.921 36.9418 191.198 37.1777 192.144 37.4608C192.947 37.6967 193.373 38.0741 193.373 38.4987C193.373 38.829 193.184 39.1121 192.9 39.3952C192.616 39.6782 192.191 39.867 191.623 40.0557C191.103 40.1972 190.441 40.3388 189.732 40.4331C189.023 40.5275 188.267 40.5747 187.463 40.5747C183.775 40.5747 180.607 40.1029 177.865 39.2536C175.17 38.3572 172.995 37.3192 171.435 36.0453L163.729 42.9809C166.045 45.1512 169.166 46.8497 173.043 47.982ZM323.155 49.0684V15.004H328.072L328.173 22.6889C328.712 21.7216 329.336 20.813 330.058 19.958C331.571 18.1651 333.32 16.7497 335.353 15.7117C337.386 14.6737 339.561 14.1548 341.925 14.1548C343.532 14.1548 345.093 14.2963 346.653 14.6266C348.166 14.9568 349.395 15.4286 350.341 16.042L348.922 21.1847C347.977 20.5713 346.795 20.1467 345.376 19.8636C343.958 19.5805 342.681 19.439 341.547 19.439C339.372 19.439 337.433 19.7693 335.779 20.4298C334.124 21.0903 332.705 21.9867 331.571 23.1191C330.436 24.2514 329.585 25.5253 329.018 26.9407C328.45 28.3561 328.167 29.8187 328.167 31.2813V49.0684H323.155ZM409.346 49.729C404.807 49.729 400.788 48.9741 397.337 47.5115C393.885 46.0489 391.19 43.973 389.252 41.2837C387.313 38.5944 386.368 35.5748 386.368 32.1778C386.368 29.347 386.935 26.8464 388.117 24.6761C389.252 22.5058 390.907 20.6186 392.94 19.0616C395.02 17.5046 397.384 16.2779 400.079 15.3815C402.774 14.5323 405.61 14.0604 408.542 14.0604C411.52 14.0604 414.263 14.4851 416.768 15.2871C419.274 16.0892 421.449 17.2215 423.34 18.6841C425.231 20.1467 426.65 21.8924 427.643 23.9212C428.636 25.95 429.108 28.2146 429.014 30.668L428.966 33.5932H391.496C391.77 35.5397 392.527 37.2854 393.743 38.8303C395.304 40.8119 397.526 42.3217 400.315 43.4068C403.152 44.492 406.461 45.0581 410.386 45.0581C413.79 45.0581 416.674 44.6335 419.038 43.8314C421.402 43.0294 423.529 42.0386 425.373 40.9534L427.454 44.8222C426.082 45.7187 424.522 46.5679 422.678 47.3228C420.834 48.0777 418.801 48.691 416.579 49.1629C414.31 49.4931 411.899 49.729 409.346 49.729ZM393.743 24.2515C392.601 25.6682 391.864 27.4139 391.551 29.4885H424.082L424.049 28.4034C423.908 26.7992 423.198 25.2423 421.827 23.7797C420.456 22.3171 418.66 21.0904 416.343 20.1939C414.073 19.2975 411.426 18.8257 408.542 18.8257C405.469 18.8257 402.632 19.2503 400.031 20.0996C397.431 20.9488 395.304 22.3171 393.743 24.2515ZM440.739 15.7117V20.2882H449.486V49.0684C450.006 49.0684 450.431 49.0684 450.904 49.1628H451.944H454.025V20.2882H469.674V15.7117H454.025V13.6829C454.025 12.3147 454.261 10.9936 454.828 9.76691C455.348 8.54021 456.294 7.54942 457.57 6.74735C458.847 5.94528 460.596 5.56783 462.771 5.56783C464 5.56783 465.324 5.85092 466.648 6.32272C467.972 6.79453 469.107 7.40788 470.005 8.16277L471.66 3.77497C470.761 3.06726 469.532 2.40673 467.972 1.84056C466.412 1.22721 464.568 0.944129 462.488 0.944129C459.887 0.944129 457.57 1.46311 455.585 2.59545C453.599 3.72779 452.086 5.19039 451.046 7.07761C450.006 8.91766 449.486 11.088 449.486 13.5885V15.7117H440.739Z" fill="#1A1A1A"/>
</svg>
