<svg width="136" height="32" viewBox="0 0 136 32" fill="none" xmlns="http://www.w3.org/2000/svg">
<mask id="mask0_4043_6030" style="mask-type:luminance" maskUnits="userSpaceOnUse" x="13" y="0" width="110" height="32">
<path d="M122.408 0.512695H13.9043V31.4007H122.408V0.512695Z" fill="white"/>
</mask>
<g mask="url(#mask0_4043_6030)">
<mask id="mask1_4043_6030" style="mask-type:luminance" maskUnits="userSpaceOnUse" x="14" y="0" width="108" height="32">
<path d="M14.1035 0.512695H121.418V31.4007H14.1035V0.512695Z" fill="white"/>
</mask>
<g mask="url(#mask1_4043_6030)">
<mask id="mask2_4043_6030" style="mask-type:luminance" maskUnits="userSpaceOnUse" x="14" y="0" width="30" height="32">
<path d="M43.6675 0.512695H14.1035V31.3955H43.6675V0.512695Z" fill="white"/>
</mask>
<g mask="url(#mask2_4043_6030)">
<path fill-rule="evenodd" clip-rule="evenodd" d="M33.0513 0.582945L15.9619 1.84214C14.5833 1.96055 14.1035 2.86042 14.1035 3.93738V22.6298C14.1035 23.4699 14.4021 24.1875 15.1228 25.1461L19.1403 30.359C19.7993 31.1981 20.3995 31.3783 21.6598 31.3165L41.5053 30.1191C43.1835 29.9996 43.6643 29.2203 43.6643 27.9024V6.8738C43.6643 6.19221 43.3946 5.99555 42.5998 5.41589C42.5544 5.38264 42.5091 5.34935 42.4638 5.31602L37.009 1.48179C35.6901 0.524258 35.1486 0.402766 33.0513 0.582945ZM22.1097 6.52889C20.4891 6.63802 20.1215 6.66273 19.2011 5.91524L16.8608 4.05785C16.6219 3.81795 16.7424 3.51833 17.3416 3.45965L33.771 2.26119C35.1496 2.14073 35.8692 2.62155 36.4088 3.03957L39.2267 5.07715C39.3462 5.13686 39.6458 5.49619 39.2865 5.49619L22.3187 6.5155L22.1097 6.52889ZM20.2193 27.7222V9.86893C20.2193 9.09053 20.4592 8.73118 21.1789 8.67046L40.6652 7.53271C41.3262 7.473 41.6257 7.89307 41.6257 8.67046V26.4033C41.6257 27.1837 41.5053 27.8426 40.4252 27.9024L21.7792 28.9814C20.6981 29.0411 20.2193 28.6828 20.2193 27.7222ZM38.6286 10.8265C38.748 11.367 38.6286 11.9065 38.087 11.9673L37.1892 12.1464V25.3253C36.4088 25.7454 35.6891 25.9842 35.0899 25.9842C34.1302 25.9842 33.8904 25.6857 33.1707 24.7868L27.2948 15.5616V24.4882L29.1542 24.9073C29.1542 24.9073 29.1542 25.9852 27.6531 25.9852L23.5172 26.2251C23.3967 25.9852 23.5172 25.386 23.9372 25.2666L25.0163 24.968V13.1636L23.5172 13.0432C23.3977 12.5036 23.6963 11.7253 24.5364 11.6656L28.974 11.367L35.0899 20.7126V12.445L33.531 12.2658C33.4106 11.6059 33.8904 11.126 34.4896 11.0673L38.6286 10.8265Z" fill="#1F1F1F"/>
</g>
<path d="M66.6089 7.7405V24.4303H63.9453L56.0493 13.0121H55.9113V24.4303H52.9121V7.7405H55.6014L63.48 19.1557H63.6344V7.74151H66.6099L66.6089 7.7405ZM74.5523 24.6733C73.3301 24.6733 72.2707 24.4046 71.3739 23.8661C70.4786 23.3294 69.7572 22.5457 69.2961 21.6092C68.8081 20.6424 68.5631 19.5129 68.5631 18.2198C68.5631 16.9266 68.8071 15.794 69.2961 14.8221C69.7852 13.8502 70.4781 13.0944 71.3739 12.5569C72.2696 12.0195 73.3301 11.7497 74.5523 11.7497C75.7692 11.7497 76.8256 12.0195 77.7213 12.5569C78.6171 13.0944 79.3111 13.8502 79.7991 14.8221C80.2933 15.794 80.5404 16.9266 80.5404 18.2198C80.5404 19.5129 80.2933 20.6424 79.7991 21.6092C79.3382 22.5461 78.6168 23.3301 77.7213 23.8671C76.8256 24.4046 75.7692 24.6733 74.5523 24.6733ZM74.5605 22.3258C75.2339 22.3258 75.7929 22.1446 76.2387 21.7801C76.6845 21.4116 77.0181 20.9173 77.2405 20.2975C77.464 19.6725 77.5752 18.9775 77.5752 18.2116C77.5752 17.4455 77.464 16.7505 77.2405 16.1256C77.0181 15.5006 76.6845 15.0033 76.2387 14.6347C75.7929 14.2599 75.2339 14.0725 74.5605 14.0725C73.881 14.0725 73.3157 14.2599 72.8658 14.6347C72.4148 15.0044 72.0781 15.5006 71.8547 16.1256C71.6385 16.7505 71.5293 17.4455 71.5293 18.2116C71.5293 18.9775 71.6374 19.6736 71.8547 20.2975C72.0781 20.9173 72.4148 21.4116 72.8658 21.7801C73.3168 22.1446 73.881 22.3258 74.5605 22.3258ZM88.5752 11.9145V14.1796H81.4053V11.9145H88.5752ZM83.1803 8.91424H86.1061V20.6723C86.1061 21.0686 86.1664 21.3724 86.2857 21.5855C86.4101 21.7966 86.5737 21.9407 86.7744 22.0169C86.9752 22.0931 87.2006 22.1302 87.4508 22.1302C87.6203 22.1316 87.789 22.1182 87.9555 22.09C88.1083 22.0633 88.2275 22.0385 88.3148 22.0169L88.8028 24.3068C88.5839 24.378 88.3613 24.4377 88.1359 24.4859C87.8472 24.5508 87.4944 24.5889 87.0755 24.5992C86.3424 24.6218 85.6802 24.5106 85.0882 24.2656C84.518 24.0291 84.0304 23.6294 83.6869 23.1166C83.344 22.5956 83.1762 21.9407 83.1813 21.1531V8.91424H83.1803ZM90.3701 24.4293V11.9134H93.3046V24.4293H90.3701ZM91.8457 10.1281C91.3781 10.1281 90.9788 9.97366 90.6472 9.66479C90.4893 9.52311 90.3635 9.34951 90.2777 9.15548C90.1919 8.96151 90.1483 8.75155 90.1497 8.53948C90.1497 8.09984 90.3155 7.72508 90.6472 7.41511C90.9686 7.10615 91.3984 6.93634 91.8443 6.94255C92.3119 6.94255 92.7112 7.10008 93.0428 7.41613C93.3795 7.72508 93.5475 8.09984 93.5475 8.53948C93.5475 8.97395 93.3795 9.34871 93.0428 9.66377C92.7112 9.97366 92.3119 10.1292 91.8457 10.1292V10.1281ZM101.102 24.6733C99.8792 24.6733 98.8203 24.4046 97.9228 23.8661C97.0275 23.3294 96.3061 22.5457 95.8457 21.6092C95.3577 20.6424 95.1126 19.5129 95.1126 18.2198C95.1126 16.9266 95.3577 15.794 95.8457 14.8221C96.3344 13.8502 97.0275 13.0944 97.9228 12.5569C98.8203 12.0195 99.8792 11.7497 101.102 11.7497C102.318 11.7497 103.375 12.0195 104.27 12.5569C105.167 13.0944 105.86 13.8502 106.35 14.8221C106.844 15.794 107.091 16.9266 107.091 18.2198C107.091 19.5129 106.844 20.6424 106.35 21.6092C105.889 22.5463 105.166 23.3303 104.27 23.8671C103.375 24.4046 102.318 24.6733 101.102 24.6733ZM101.11 22.3258C101.783 22.3258 102.342 22.1446 102.788 21.7801C103.234 21.4116 103.567 20.9173 103.791 20.2975C104.013 19.6725 104.124 18.9775 104.124 18.2116C104.124 17.4455 104.013 16.7505 103.791 16.1256C103.567 15.5006 103.234 15.0033 102.788 14.6347C102.342 14.2599 101.783 14.0725 101.11 14.0725C100.43 14.0725 99.8661 14.2599 99.4152 14.6347C98.9642 15.0044 98.6275 15.5006 98.4043 16.1256C98.1875 16.7505 98.0784 17.4455 98.0784 18.2116C98.0784 18.9775 98.1868 19.6736 98.4043 20.2975C98.6275 20.9173 98.9642 21.4116 99.4152 21.7801C99.8661 22.1446 100.43 22.3258 101.11 22.3258ZM111.824 17.0872V24.4283H108.892V11.9145H111.694V14.0324H111.841C112.118 13.3502 112.599 12.7699 113.218 12.3706C113.853 11.9577 114.638 11.7508 115.574 11.7508C116.431 11.7508 117.181 11.9361 117.822 12.3057C118.471 12.6786 118.993 13.2378 119.321 13.9109C119.68 14.611 119.859 15.4614 119.859 16.4612V24.4303H116.934V16.9091C116.934 16.072 116.716 15.4182 116.282 14.9457C115.846 14.4679 115.246 14.228 114.48 14.228C113.965 14.228 113.506 14.3423 113.104 14.5708C112.702 14.7932 112.387 15.1186 112.158 15.549C111.936 15.9711 111.824 16.4859 111.824 17.0882V17.0872Z" fill="#1F1F1F"/>
</g>
</g>
</svg>
