<svg width="136" height="36" viewBox="0 0 136 36" fill="none" xmlns="http://www.w3.org/2000/svg">
<path d="M80.2417 4.93758C79.8872 4.27405 79.451 3.67114 78.933 3.1258C78.4148 2.58046 77.8332 2.11397 77.1879 1.72921C76.5426 1.34445 75.8579 1.0505 75.1338 0.850575C74.4067 0.653618 73.6705 0.553656 72.9191 0.556708H49.7273C49.5668 0.559676 49.4184 0.605204 49.285 0.696095C49.1517 0.783933 49.0548 0.905092 48.9942 1.05355C48.9337 1.20201 48.9184 1.35352 48.9488 1.51106C48.9821 1.66859 49.0518 1.80492 49.1669 1.92006L54.2173 7.00076C54.6838 7.46725 55.2443 7.70058 55.9047 7.70058H72.2526C72.5344 7.69753 72.801 7.74899 73.0615 7.85201C73.3221 7.95808 73.5523 8.10653 73.7523 8.30349C73.9522 8.50036 74.1068 8.72454 74.2158 8.98211C74.3249 9.23961 74.3824 9.50923 74.3824 9.788C74.3855 10.0667 74.337 10.3363 74.231 10.5969C74.128 10.8574 73.9765 11.0846 73.7795 11.2846C73.5857 11.4846 73.3585 11.639 73.1009 11.7482C72.8434 11.8603 72.5768 11.9148 72.295 11.9178H61.0249C60.8643 11.9178 60.7158 11.9633 60.5825 12.0542C60.4493 12.142 60.3523 12.2632 60.2887 12.4116C60.228 12.5601 60.2129 12.7146 60.2432 12.8722C60.2765 13.0297 60.3462 13.166 60.4614 13.2811L65.5148 18.3648C65.9814 18.8314 66.5418 19.0647 67.2023 19.0647H72.2981C78.933 19.0647 83.947 11.9723 80.2417 4.93453" fill="#1F1F1F"/>
<path d="M32.5066 28.9862V33.912H33.7744C33.936 33.9101 34.0958 33.8937 34.252 33.8592C34.41 33.8266 34.5626 33.7794 34.7115 33.7158C34.8587 33.6522 34.9985 33.5759 35.1311 33.4851C35.2637 33.3943 35.3871 33.2926 35.4998 33.1781C35.6124 33.0619 35.7123 32.9384 35.7995 32.804C35.8866 32.6696 35.9611 32.5279 36.0192 32.3808C36.0792 32.2318 36.1246 32.0793 36.1536 31.9213C36.1827 31.7633 36.1954 31.6053 36.1935 31.4455C36.1991 31.2856 36.1863 31.1257 36.1591 30.9678C36.1318 30.8097 36.0882 30.6553 36.0302 30.5065C35.9702 30.3575 35.8976 30.2158 35.8104 30.0796C35.7232 29.9452 35.6215 29.8217 35.5089 29.7055C35.3962 29.591 35.2728 29.4893 35.1402 29.3985C35.0058 29.3095 34.8641 29.2332 34.7151 29.1715C34.5662 29.1097 34.4136 29.0625 34.2557 29.0316C34.0958 29.0007 33.936 28.9862 33.7744 28.9862H32.5066ZM33.7744 27.4424C36.1373 27.4424 37.9245 29.2151 37.9245 31.4455C37.9245 33.6758 36.1373 35.4594 33.7744 35.4594H30.9791C30.9246 35.4594 30.8774 35.4394 30.8375 35.4013C30.7975 35.3613 30.7793 35.3141 30.7793 35.2596V27.6494C30.7793 27.5949 30.7974 27.5477 30.8375 27.5078C30.8774 27.4696 30.9246 27.4497 30.9791 27.4497L33.7744 27.4424Z" fill="#1F1F1F"/>
<path d="M44.0142 34.0844C44.1885 34.0844 44.3611 34.068 44.5318 34.0354C44.7026 34.0009 44.8678 33.9519 45.0295 33.8864C45.1911 33.821 45.3437 33.7393 45.489 33.6431C45.6343 33.5486 45.7687 33.4397 45.8922 33.3179C46.0157 33.1945 46.1247 33.0619 46.2228 32.9184C46.319 32.7749 46.4008 32.6241 46.468 32.4643C46.5351 32.3045 46.586 32.1392 46.6205 31.9702C46.655 31.7996 46.6732 31.6288 46.6732 31.4563C46.6732 31.2837 46.6569 31.1112 46.6242 30.9423C46.5897 30.7715 46.5407 30.6063 46.4734 30.4464C46.408 30.2866 46.3263 30.1358 46.23 29.9906C46.1338 29.847 46.023 29.7127 45.9013 29.591C45.7778 29.4675 45.6434 29.3585 45.4999 29.2622C45.3546 29.166 45.2021 29.0842 45.0422 29.017C44.8805 28.9516 44.7153 28.9008 44.5445 28.8662C44.3738 28.8317 44.2012 28.8155 44.0269 28.8155C43.8525 28.8155 43.68 28.8317 43.5093 28.8645C43.3386 28.8971 43.1732 28.948 43.0116 29.0134C42.8499 29.0788 42.6974 29.1605 42.5521 29.2568C42.4068 29.3531 42.2742 29.462 42.1507 29.5837C42.0272 29.7054 41.9164 29.838 41.8201 29.9814C41.722 30.125 41.6403 30.2775 41.5731 30.4373C41.5078 30.5971 41.4569 30.7625 41.4224 30.9314C41.3879 31.1003 41.3697 31.2728 41.3697 31.4454C41.3697 31.618 41.3879 31.7886 41.4205 31.9594C41.455 32.1283 41.5041 32.2918 41.5713 32.4516C41.6367 32.6114 41.7185 32.764 41.8147 32.9075C41.9109 33.0509 42.0217 33.1835 42.1434 33.3071C42.2669 33.4287 42.3996 33.5377 42.5449 33.6358C42.6883 33.7321 42.8409 33.812 43.0007 33.8792C43.1624 33.9463 43.3276 33.9972 43.4966 34.0317C43.6673 34.0662 43.8398 34.0826 44.0142 34.0844ZM44.0142 27.2607C46.5006 27.2607 48.4023 29.1605 48.4023 31.4454C48.4023 33.7302 46.5006 35.63 44.0142 35.63C41.5259 35.63 39.6406 33.7412 39.6406 31.4454C39.6406 29.1496 41.5423 27.2607 44.0142 27.2607Z" fill="#1F1F1F"/>
<path d="M54.4447 34.0844C54.6191 34.0826 54.7898 34.0662 54.9606 34.0317C55.1313 33.9972 55.2966 33.9482 55.4583 33.881C55.6181 33.8156 55.7706 33.7339 55.9159 33.6376C56.0594 33.5413 56.1938 33.4324 56.3155 33.3088C56.439 33.1872 56.548 33.0528 56.646 32.9093C56.7423 32.7658 56.8222 32.6133 56.8894 32.4534C56.9567 32.2954 57.0057 32.1302 57.0402 31.9612C57.0728 31.7905 57.0892 31.6197 57.0892 31.4472C57.0892 31.2747 57.0729 31.1021 57.0384 30.9332C57.0039 30.7643 56.9548 30.599 56.8877 30.4392C56.8204 30.2794 56.7387 30.1286 56.6425 29.9851C56.5461 29.8416 56.4353 29.7072 56.3119 29.5855C56.1902 29.4638 56.0557 29.3549 55.9105 29.2586C55.767 29.1623 55.6144 29.0824 55.4527 29.0152C55.2929 28.9498 55.1258 28.899 54.9551 28.8662C54.7862 28.8317 54.6136 28.8155 54.4393 28.8155C54.2649 28.8155 54.0924 28.8317 53.9217 28.8662C53.7509 28.899 53.5857 28.9498 53.4258 29.0152C53.2642 29.0806 53.1116 29.1623 52.9663 29.2586C52.8228 29.3531 52.6884 29.462 52.5649 29.5855C52.4414 29.7072 52.3324 29.8398 52.2361 29.9833C52.138 30.1268 52.0563 30.2794 51.9909 30.4392C51.9238 30.5971 51.8729 30.7625 51.8384 30.9314C51.8039 31.1021 51.7875 31.2728 51.7875 31.4454C51.7875 31.618 51.8038 31.7905 51.8384 31.9612C51.8729 32.1302 51.9219 32.2954 51.9892 32.4552C52.0563 32.615 52.138 32.7677 52.2344 32.9111C52.3324 33.0564 52.4414 33.189 52.5649 33.3125C52.6884 33.4342 52.8228 33.5432 52.9681 33.6394C53.1134 33.7357 53.266 33.8174 53.4276 33.8828C53.5892 33.95 53.7546 33.9991 53.9252 34.0336C54.0979 34.0662 54.2704 34.0844 54.4447 34.0844ZM54.4447 27.2607C56.9239 27.2607 58.8256 29.1496 58.8256 31.4454C58.8256 33.7412 56.9149 35.63 54.4447 35.63C51.9728 35.63 50.0566 33.7412 50.0566 31.4454C50.0566 29.1496 51.9583 27.2607 54.4447 27.2607Z" fill="#1F1F1F"/>
<path d="M64.6218 28.986H62.8346V31.1056H64.6218C64.7635 31.1128 64.9015 31.091 65.0341 31.042C65.1685 30.993 65.2865 30.9203 65.3901 30.8222C65.4936 30.726 65.5735 30.6115 65.6298 30.4826C65.6861 30.3536 65.7152 30.2175 65.717 30.0758C65.7224 29.9305 65.697 29.7906 65.6444 29.6544C65.5899 29.5181 65.5118 29.3983 65.4064 29.2966C65.3029 29.1931 65.183 29.115 65.0468 29.0605C64.9106 29.0078 64.7689 28.9824 64.6218 28.9878M61.1055 27.6492C61.1055 27.5947 61.1255 27.5475 61.1654 27.5075C61.2036 27.4694 61.2508 27.4495 61.3071 27.4495H64.6727C66.2764 27.4495 67.437 28.6173 67.437 30.0849C67.4407 30.3264 67.4098 30.5662 67.3443 30.8004C67.2808 31.0347 67.1845 31.2563 67.0574 31.4634C66.9302 31.6704 66.7758 31.8576 66.5961 32.0209C66.4163 32.1863 66.2164 32.3224 65.9967 32.4315L67.5496 35.1577C67.5968 35.2267 67.6005 35.2976 67.5569 35.3701C67.5151 35.4428 67.4515 35.4755 67.368 35.4682H66.0057C65.9222 35.47 65.8623 35.4337 65.8224 35.3611L64.3276 32.6621H62.8292V35.2539C62.8292 35.3084 62.8092 35.3556 62.7692 35.3938C62.7311 35.4337 62.6838 35.4519 62.6275 35.4519H61.3162C61.2616 35.4519 61.2144 35.4337 61.1745 35.3938C61.1345 35.3556 61.1164 35.3084 61.1164 35.2539L61.1055 27.6492Z" fill="#1F1F1F"/>
<path d="M71.9464 29.0242V33.9499H73.2124C73.3741 33.9481 73.5339 33.9317 73.6901 33.8972C73.8481 33.8646 74.0006 33.8173 74.1496 33.7538C74.2967 33.6919 74.4365 33.6139 74.5691 33.5249C74.7017 33.4341 74.8253 33.3306 74.9378 33.2179C75.0504 33.1035 75.1503 32.9782 75.2376 32.8438C75.3247 32.7112 75.3992 32.5696 75.4591 32.4206C75.5191 32.2717 75.5626 32.1191 75.5935 31.9629C75.6226 31.8049 75.6353 31.6468 75.6334 31.487C75.6389 31.3272 75.6281 31.1674 75.6008 31.0093C75.5717 30.8495 75.5299 30.697 75.47 30.5462C75.4119 30.3973 75.3392 30.2538 75.2521 30.1194C75.163 29.9849 75.0632 29.8596 74.9506 29.7453C74.838 29.629 74.7144 29.5273 74.5801 29.4365C74.4457 29.3474 74.304 29.2712 74.155 29.2094C74.0061 29.1459 73.8517 29.1005 73.6937 29.0696C73.5357 29.0387 73.3758 29.0224 73.2124 29.0242H71.9464ZM73.2124 27.4785C75.5753 27.4785 77.3625 29.253 77.3625 31.487C77.3625 33.721 75.5753 35.4955 73.2124 35.4955H70.4262C70.3699 35.4955 70.3227 35.4774 70.2828 35.4374C70.2446 35.3993 70.2246 35.3521 70.2246 35.2975V27.6874C70.2246 27.6311 70.2446 27.5857 70.2828 27.5458C70.3227 27.5076 70.3699 27.4876 70.4262 27.4876L73.2124 27.4785Z" fill="#1F1F1F"/>
<path d="M82.6343 29.4364L81.6535 32.0718H83.6132L82.6343 29.4364ZM81.0777 33.5594L80.4366 35.3138C80.4057 35.4101 80.3385 35.4555 80.2368 35.4501H78.8437C78.7675 35.4573 78.7057 35.4301 78.6621 35.3665C78.6167 35.303 78.6112 35.2375 78.644 35.1667L81.6516 27.5656C81.6862 27.4711 81.7534 27.4276 81.8533 27.4331H83.4116C83.5115 27.4277 83.577 27.4711 83.6115 27.5656L86.6191 35.1667C86.6537 35.2375 86.6464 35.303 86.6028 35.3665C86.5574 35.4301 86.4975 35.4573 86.4194 35.4501H85.0281C84.9246 35.4555 84.8592 35.4101 84.8265 35.3138L84.1854 33.5594H81.0777Z" fill="#1F1F1F"/>
<path d="M88.2338 29.6071C88.2338 28.3485 89.329 27.2605 91.0581 27.2605C91.5213 27.2497 91.9717 27.326 92.404 27.4876C92.8381 27.6493 93.2267 27.8872 93.5682 28.1996C93.61 28.2377 93.6318 28.2868 93.6318 28.3449C93.6318 28.403 93.61 28.452 93.5682 28.492L92.7945 29.253C92.7563 29.2929 92.7091 29.3129 92.6528 29.3129C92.5965 29.3129 92.5493 29.2929 92.5111 29.253C92.1316 28.9116 91.6847 28.7354 91.1725 28.73C90.4805 28.73 89.9702 29.1277 89.9702 29.5872C89.9702 31.0766 94.0568 30.2174 94.0568 33.0817C94.0549 34.5311 92.9524 35.6299 91 35.6299C90.4551 35.6372 89.9302 35.5391 89.4253 35.3375C88.9204 35.1359 88.4736 34.8453 88.0849 34.4657C88.0413 34.4276 88.0195 34.3785 88.0195 34.3204C88.0195 34.2623 88.0413 34.2132 88.0849 34.1733L88.8296 33.4323C88.8695 33.3905 88.9185 33.3705 88.9749 33.3705C89.033 33.3705 89.082 33.3905 89.1201 33.4323C89.6142 33.9026 90.2008 34.1388 90.8838 34.1461C91.7483 34.1461 92.3186 33.6865 92.3186 33.1126C92.3186 31.625 88.232 32.4842 88.232 29.6199" fill="#1F1F1F"/>
<path d="M101.468 27.6384V30.648H98.0097V27.6384C98.0097 27.5839 97.9897 27.5367 97.9498 27.4985C97.9116 27.4586 97.8644 27.4404 97.8081 27.4404H96.4968C96.4405 27.4404 96.3933 27.4586 96.3552 27.4985C96.3152 27.5367 96.297 27.5839 96.297 27.6384V35.2412C96.2952 35.2957 96.3152 35.343 96.3552 35.3829C96.3932 35.4211 96.4405 35.4411 96.4968 35.4411H97.8081C97.8644 35.4411 97.9116 35.4211 97.9498 35.3829C97.9897 35.343 98.0097 35.2957 98.0097 35.2412V32.1844H101.466V35.2412C101.466 35.2957 101.486 35.343 101.526 35.3829C101.564 35.4211 101.611 35.4411 101.668 35.4411H102.979C103.034 35.4411 103.081 35.4211 103.121 35.3829C103.161 35.343 103.179 35.2957 103.179 35.2412V27.6384C103.179 27.5839 103.161 27.5367 103.121 27.4985C103.081 27.4586 103.034 27.4404 102.979 27.4404H101.668C101.611 27.4404 101.566 27.4604 101.526 27.4985C101.488 27.5384 101.468 27.5839 101.468 27.6384Z" fill="#1F1F1F"/>
</svg>
