<svg width="136" height="18" viewBox="0 0 136 18" fill="none" xmlns="http://www.w3.org/2000/svg">
<g clip-path="url(#clip0_4043_6028)">
<path d="M114.954 12.5451C112.898 12.5451 111.318 11.0379 111.318 8.77736C111.318 6.51668 112.898 5.00957 114.954 5.00957C117.01 5.00957 118.59 6.51668 118.59 8.77736C118.59 11.0379 117.01 12.5451 114.954 12.5451ZM122.647 13.1479C123.608 11.8686 124.156 10.2942 124.156 8.52616C124.156 3.402 120.219 -0.164795 114.954 -0.164795C111.544 -0.164795 108.693 1.37475 107.106 3.89161V0.0863876H101.489V17.7195H107.106V13.652C108.693 16.1694 111.544 17.7195 114.954 17.7195H125.294L128.67 13.1479H122.647ZM56.1045 12.7963C53.9731 12.7963 52.3434 11.2389 52.3434 8.90289C52.3434 6.56691 53.9731 5.00957 56.1045 5.00957C58.2357 5.00957 59.8656 6.56691 59.8656 8.90289C59.8656 11.2389 58.2357 12.7963 56.1045 12.7963ZM21.0757 14.8806L16.6477 8.75219L21.0757 2.82972V14.8806ZM75.6374 0.0863876V8.27496L70.0207 0.0863876H64.0782V3.97512C62.4736 1.40678 59.5759 -0.164795 56.1045 -0.164795C53.4324 -0.164795 51.0993 0.765839 49.4347 2.36588V0.0863876H16.3166L10.6498 7.81532V0.0863876H5.0332V17.7195H10.6498V10.0315L16.081 17.7195H34.6659V13.1479H26.6924V11.1134H34.691V6.66739H26.6924V4.63281H38.2016V17.7195H43.8182V4.63281H47.7608C47.1292 5.8772 46.7768 7.3175 46.7768 8.90289C46.7768 14.2531 50.7636 17.9707 56.1045 17.9707C59.5759 17.9707 62.4736 16.3991 64.0782 13.8305V17.7195H69.6949V9.30478L75.5119 17.7195H90.1306V13.1479H82.1568V11.1134H90.1554V6.66739H82.1568V4.63281H90.1554V0.0863876H75.6374ZM91.6601 11.1134H99.9845V6.66739H91.6601V11.1134Z" fill="#1F1F1F"/>
</g>
<defs>
<clipPath id="clip0_4043_6028">
<rect width="136" height="18" fill="white"/>
</clipPath>
</defs>
</svg>
