<svg width="136" height="27" viewBox="0 0 136 27" fill="none" xmlns="http://www.w3.org/2000/svg">
<circle cx="12.5" cy="13.5" r="8" fill="#1F1F1F"/>
<path d="M32.4321 19.5V14.94L28.4481 8.14H30.4321L33.2961 13.212L36.1761 8.14H38.1601L34.1601 14.94V19.5H32.4321ZM41.4631 19.692C40.6524 19.692 39.9431 19.5107 39.3351 19.148C38.7271 18.7853 38.2577 18.268 37.9271 17.596C37.5964 16.924 37.4311 16.14 37.4311 15.244C37.4311 14.3373 37.5964 13.5533 37.9271 12.892C38.2577 12.2307 38.7271 11.7187 39.3351 11.356C39.9431 10.9827 40.6524 10.796 41.4631 10.796C42.2737 10.796 42.9831 10.9827 43.5911 11.356C44.1991 11.7187 44.6684 12.2307 44.9991 12.892C45.3297 13.5533 45.4951 14.3373 45.4951 15.244C45.4951 16.14 45.3297 16.924 44.9991 17.596C44.6684 18.268 44.1991 18.7853 43.5911 19.148C42.9831 19.5107 42.2737 19.692 41.4631 19.692ZM41.4631 18.22C42.1884 18.22 42.7484 17.9587 43.1431 17.436C43.5377 16.9027 43.7351 16.172 43.7351 15.244C43.7351 14.316 43.5377 13.5907 43.1431 13.068C42.7484 12.5347 42.1884 12.268 41.4631 12.268C40.7484 12.268 40.1884 12.5347 39.7831 13.068C39.3884 13.5907 39.1911 14.316 39.1911 15.244C39.1911 16.172 39.3884 16.9027 39.7831 17.436C40.1884 17.9587 40.7484 18.22 41.4631 18.22ZM49.8491 19.692C48.9957 19.692 48.3131 19.4093 47.8011 18.844C47.2997 18.268 47.0491 17.4733 47.0491 16.46V10.988H48.7451V16.028C48.7451 16.796 48.8784 17.3613 49.1451 17.724C49.4117 18.0867 49.8171 18.268 50.3611 18.268C50.9797 18.268 51.4597 18.0707 51.8011 17.676C52.1531 17.2707 52.3291 16.7053 52.3291 15.98V10.988H54.0251V19.5H52.4411L52.4091 17.276L52.6491 17.372C52.4997 18.1187 52.1851 18.6947 51.7051 19.1C51.2251 19.4947 50.6064 19.692 49.8491 19.692ZM56.2641 19.5V10.988H57.8161L57.8801 13.244L57.7361 13.196C57.8534 12.428 58.0881 11.868 58.4401 11.516C58.8027 11.164 59.2881 10.988 59.8961 10.988H60.7121V12.508H59.8961C59.4694 12.508 59.1121 12.5773 58.8241 12.716C58.5361 12.8547 58.3174 13.068 58.1681 13.356C58.0294 13.644 57.9601 14.0173 57.9601 14.476V19.5H56.2641ZM69.6356 19.692C68.8249 19.692 68.1156 19.5107 67.5076 19.148C66.8996 18.7853 66.4302 18.268 66.0996 17.596C65.7689 16.924 65.6036 16.14 65.6036 15.244C65.6036 14.348 65.7689 13.5693 66.0996 12.908C66.4302 12.236 66.8996 11.7187 67.5076 11.356C68.1156 10.9827 68.8249 10.796 69.6356 10.796C70.3289 10.796 70.9422 10.9187 71.4756 11.164C72.0196 11.3987 72.4569 11.7453 72.7876 12.204C73.1289 12.6627 73.3476 13.2227 73.4436 13.884L71.6676 13.98C71.5822 13.4253 71.3582 13.004 70.9956 12.716C70.6329 12.4173 70.1796 12.268 69.6356 12.268C68.9209 12.268 68.3609 12.5347 67.9556 13.068C67.5609 13.5907 67.3636 14.316 67.3636 15.244C67.3636 16.172 67.5609 16.9027 67.9556 17.436C68.3609 17.9587 68.9209 18.22 69.6356 18.22C70.1796 18.22 70.6329 18.0707 70.9956 17.772C71.3582 17.4627 71.5822 16.9987 71.6676 16.38L73.4436 16.476C73.3476 17.1267 73.1289 17.692 72.7876 18.172C72.4569 18.652 72.0196 19.0253 71.4756 19.292C70.9422 19.5587 70.3289 19.692 69.6356 19.692ZM78.3349 19.692C77.5243 19.692 76.8149 19.5107 76.2069 19.148C75.5989 18.7853 75.1296 18.268 74.7989 17.596C74.4683 16.924 74.3029 16.14 74.3029 15.244C74.3029 14.3373 74.4683 13.5533 74.7989 12.892C75.1296 12.2307 75.5989 11.7187 76.2069 11.356C76.8149 10.9827 77.5243 10.796 78.3349 10.796C79.1456 10.796 79.8549 10.9827 80.4629 11.356C81.0709 11.7187 81.5403 12.2307 81.8709 12.892C82.2016 13.5533 82.3669 14.3373 82.3669 15.244C82.3669 16.14 82.2016 16.924 81.8709 17.596C81.5403 18.268 81.0709 18.7853 80.4629 19.148C79.8549 19.5107 79.1456 19.692 78.3349 19.692ZM78.3349 18.22C79.0603 18.22 79.6203 17.9587 80.0149 17.436C80.4096 16.9027 80.6069 16.172 80.6069 15.244C80.6069 14.316 80.4096 13.5907 80.0149 13.068C79.6203 12.5347 79.0603 12.268 78.3349 12.268C77.6203 12.268 77.0603 12.5347 76.6549 13.068C76.2603 13.5907 76.0629 14.316 76.0629 15.244C76.0629 16.172 76.2603 16.9027 76.6549 17.436C77.0603 17.9587 77.6203 18.22 78.3349 18.22ZM83.9209 19.5V10.988H85.4729L85.5209 13.1L85.3289 13.036C85.4249 12.5667 85.5903 12.1667 85.8249 11.836C86.0703 11.5053 86.3689 11.2493 86.7209 11.068C87.0729 10.8867 87.4569 10.796 87.8729 10.796C88.5983 10.796 89.1903 11.004 89.6489 11.42C90.1076 11.8253 90.3956 12.3853 90.5129 13.1H90.2409C90.3369 12.5987 90.4969 12.1827 90.7209 11.852C90.9556 11.5107 91.2543 11.2493 91.6169 11.068C91.9796 10.8867 92.3903 10.796 92.8489 10.796C93.4463 10.796 93.9529 10.924 94.3689 11.18C94.7956 11.4253 95.1156 11.788 95.3289 12.268C95.5529 12.748 95.6649 13.3347 95.6649 14.028V19.5H93.9689V14.444C93.9689 13.708 93.8356 13.1533 93.5689 12.78C93.3023 12.4067 92.8969 12.22 92.3529 12.22C92.0009 12.22 91.6916 12.3107 91.4249 12.492C91.1583 12.6733 90.9503 12.9347 90.8009 13.276C90.6623 13.6173 90.5929 14.028 90.5929 14.508V19.5H88.9769V14.508C88.9769 13.7827 88.8543 13.2227 88.6089 12.828C88.3743 12.4227 87.9689 12.22 87.3929 12.22C87.0303 12.22 86.7156 12.3107 86.4489 12.492C86.1929 12.6733 85.9903 12.94 85.8409 13.292C85.6916 13.6333 85.6169 14.0387 85.6169 14.508V19.5H83.9209ZM97.6203 21.9V10.988H99.2203L99.2683 12.812L99.0763 12.716C99.2897 12.0867 99.6417 11.612 100.132 11.292C100.623 10.9613 101.188 10.796 101.828 10.796C102.66 10.796 103.343 11.004 103.876 11.42C104.42 11.8253 104.82 12.364 105.076 13.036C105.343 13.708 105.476 14.444 105.476 15.244C105.476 16.044 105.343 16.78 105.076 17.452C104.82 18.124 104.42 18.668 103.876 19.084C103.343 19.4893 102.66 19.692 101.828 19.692C101.402 19.692 101.002 19.6173 100.628 19.468C100.255 19.3187 99.935 19.1107 99.6683 18.844C99.4123 18.5667 99.231 18.2413 99.1243 17.868L99.3163 17.676V21.9H97.6203ZM101.524 18.22C102.207 18.22 102.74 17.9587 103.124 17.436C103.519 16.9133 103.716 16.1827 103.716 15.244C103.716 14.3053 103.519 13.5747 103.124 13.052C102.74 12.5293 102.207 12.268 101.524 12.268C101.076 12.268 100.687 12.38 100.356 12.604C100.026 12.8173 99.7697 13.148 99.5883 13.596C99.407 14.044 99.3163 14.5933 99.3163 15.244C99.3163 15.8947 99.4017 16.444 99.5723 16.892C99.7537 17.34 100.01 17.676 100.34 17.9C100.682 18.1133 101.076 18.22 101.524 18.22ZM109.594 19.692C108.709 19.692 108 19.4893 107.466 19.084C106.944 18.6787 106.682 18.108 106.682 17.372C106.682 16.636 106.901 16.0653 107.338 15.66C107.786 15.244 108.474 14.9453 109.402 14.764L112.33 14.204C112.33 13.5427 112.176 13.052 111.866 12.732C111.557 12.4013 111.098 12.236 110.49 12.236C109.946 12.236 109.52 12.3587 109.21 12.604C108.901 12.8387 108.688 13.1907 108.57 13.66L106.826 13.548C106.986 12.6947 107.381 12.0227 108.01 11.532C108.65 11.0413 109.477 10.796 110.49 10.796C111.642 10.796 112.517 11.1053 113.114 11.724C113.722 12.332 114.026 13.1907 114.026 14.3V17.612C114.026 17.8147 114.058 17.9587 114.122 18.044C114.197 18.1187 114.314 18.156 114.474 18.156H114.778V19.5C114.725 19.5107 114.64 19.5213 114.522 19.532C114.405 19.5427 114.282 19.548 114.154 19.548C113.792 19.548 113.477 19.4893 113.21 19.372C112.954 19.2547 112.762 19.0627 112.634 18.796C112.506 18.5187 112.442 18.1507 112.442 17.692L112.618 17.772C112.533 18.1453 112.346 18.476 112.058 18.764C111.781 19.052 111.424 19.2813 110.986 19.452C110.56 19.612 110.096 19.692 109.594 19.692ZM109.866 18.348C110.378 18.348 110.816 18.252 111.178 18.06C111.541 17.8573 111.824 17.58 112.026 17.228C112.229 16.876 112.33 16.476 112.33 16.028V15.484L109.834 15.964C109.322 16.06 108.96 16.2147 108.746 16.428C108.544 16.6307 108.442 16.892 108.442 17.212C108.442 17.5747 108.565 17.8573 108.81 18.06C109.066 18.252 109.418 18.348 109.866 18.348ZM116.05 19.5V10.988H117.602L117.666 13.26L117.458 13.148C117.554 12.5933 117.736 12.1453 118.002 11.804C118.269 11.4627 118.594 11.212 118.978 11.052C119.362 10.8813 119.778 10.796 120.226 10.796C120.866 10.796 121.394 10.94 121.81 11.228C122.237 11.5053 122.557 11.8893 122.77 12.38C122.994 12.86 123.106 13.4093 123.106 14.028V19.5H121.41V14.54C121.41 14.0387 121.357 13.6173 121.25 13.276C121.144 12.9347 120.968 12.6733 120.722 12.492C120.477 12.3107 120.157 12.22 119.762 12.22C119.165 12.22 118.68 12.4173 118.306 12.812C117.933 13.2067 117.746 13.7827 117.746 14.54V19.5H116.05ZM125.292 21.9V20.508H126.332C126.62 20.508 126.834 20.4653 126.972 20.38C127.111 20.2947 127.218 20.1507 127.292 19.948L127.564 19.244H127.036L123.964 10.988H125.756L128.092 17.676L130.316 10.988H132.124L128.732 20.492C128.562 20.9827 128.306 21.34 127.964 21.564C127.634 21.788 127.17 21.9 126.572 21.9H125.292Z" fill="#1F1F1F"/>
</svg>
