<svg width="136" height="24" viewBox="0 0 136 24" fill="none" xmlns="http://www.w3.org/2000/svg">
<mask id="mask0_4043_6075" style="mask-type:luminance" maskUnits="userSpaceOnUse" x="13" y="0" width="110" height="24">
<path d="M122.599 0.353027H13.7988V23.553H122.599V0.353027Z" fill="white"/>
</mask>
<g mask="url(#mask0_4043_6075)">
<path d="M99.318 19.2858H95.6836V5.57768H99.0884V7.27514C99.8556 6.32936 100.548 5.37352 101.863 5.24901C102.852 5.1601 103.843 5.39688 104.683 5.92258C104.303 6.98282 103.927 8.03225 103.568 9.03137C103.084 8.83601 102.585 8.67649 102.076 8.55425C101.631 8.46201 101.167 8.53257 100.77 8.75273C100.372 8.97297 100.069 9.32793 99.9164 9.75209C99.5236 10.7912 99.3476 11.8982 99.3996 13.0063C99.366 14.9714 99.3548 16.9356 99.3364 18.9007C99.3332 19.0128 99.3244 19.1288 99.318 19.2858Z" fill="#1F1F1F"/>
<path d="M93.0992 17.2095C91.9668 18.5922 90.2472 19.2836 87.9404 19.2836C85.6335 19.2836 83.9138 18.5922 82.7815 17.2095C81.679 15.7761 81.082 14.0246 81.082 12.2234C81.082 10.4222 81.679 8.6707 82.7815 7.23733C83.9138 5.83348 85.6335 5.1318 87.9404 5.13232C90.2472 5.13284 91.9668 5.83451 93.0992 7.23733C94.201 8.67086 94.7978 10.4223 94.7978 12.2234C94.7978 14.0245 94.201 15.7759 93.0992 17.2095ZM90.2915 15.2916C90.8321 14.3555 91.1164 13.2961 91.1164 12.218C91.1164 11.1399 90.8321 10.0805 90.2915 9.14438C89.999 8.8067 89.636 8.53566 89.2276 8.34982C88.8192 8.16398 88.3751 8.06782 87.9255 8.06782C87.476 8.06782 87.0318 8.16398 86.6234 8.34982C86.215 8.53566 85.8519 8.8067 85.5594 9.14438C85.0151 10.0792 84.7287 11.1391 84.7287 12.218C84.7287 13.2969 85.0151 14.3568 85.5594 15.2916C85.8511 15.6305 86.2139 15.9028 86.6224 16.0894C87.0308 16.2761 87.4755 16.3728 87.9255 16.3728C88.3755 16.3728 88.8201 16.2761 89.2287 16.0894C89.6371 15.9028 89.9998 15.6305 90.2915 15.2916Z" fill="#1F1F1F"/>
<path d="M22.8825 14.5963C22.9023 15.0733 23.0708 15.5325 23.3648 15.9109C23.702 16.18 24.0898 16.38 24.5058 16.4995C24.9217 16.6189 25.3576 16.6555 25.7879 16.6069C26.3548 16.6315 26.9197 16.5273 27.4396 16.3023C27.6113 16.2266 27.759 16.1059 27.8665 15.9533C27.9741 15.8006 28.0373 15.6217 28.0496 15.4361C28.0618 15.2504 28.0225 15.0649 27.936 14.8997C27.8493 14.7346 27.7188 14.596 27.5584 14.4989C26.37 14.0356 25.1399 13.6848 23.8846 13.451C22.7146 13.2393 21.6109 12.7597 20.6619 12.0505C20.3392 11.7442 20.088 11.3719 19.926 10.9595C19.764 10.5471 19.695 10.1047 19.7239 9.66318C19.7212 9.0631 19.8505 8.46958 20.1027 7.92381C20.355 7.37805 20.7242 6.8931 21.1848 6.5026C22.3363 5.5605 23.8073 5.08789 25.2986 5.18097C26.7347 5.10768 28.161 5.45293 29.4007 6.17393C29.9565 6.56212 30.4113 7.07529 30.7277 7.67127C31.0441 8.26726 31.2129 8.92902 31.2204 9.60214H27.7131C27.6879 9.22078 27.5552 8.85398 27.3301 8.54342C27.0761 8.28606 26.7665 8.08894 26.4246 7.96665C26.0827 7.84438 25.7173 7.80019 25.3557 7.83737C24.7869 7.79001 24.2169 7.91287 23.7197 8.18998C23.5757 8.2775 23.4558 8.39902 23.3709 8.5435C23.2859 8.68806 23.2385 8.85118 23.2327 9.01822C23.2229 9.19678 23.267 9.37422 23.3593 9.52798C23.4515 9.68182 23.5878 9.80502 23.7509 9.88206C24.9421 10.3043 26.1671 10.6261 27.4129 10.8441C28.5725 11.0529 29.6561 11.5596 30.5552 12.3134C30.8933 12.6357 31.1598 13.0241 31.3379 13.4539C31.5159 13.8837 31.6016 14.3454 31.5893 14.8097C31.6057 15.4231 31.4805 16.0321 31.2231 16.5904C30.9657 17.1487 30.5831 17.6415 30.1042 18.0314C29.1141 18.863 27.5829 19.2789 25.5105 19.2789C23.4383 19.2789 21.8367 18.8388 20.8299 17.9572C20.3415 17.5419 19.9527 17.0244 19.6915 16.442C19.4303 15.8596 19.3033 15.227 19.3198 14.5901H22.8747L22.8825 14.5963Z" fill="#1F1F1F"/>
<path d="M44.1264 17.2095C42.994 18.5922 41.2744 19.2836 38.9675 19.2836C36.6607 19.2836 34.941 18.5922 33.8087 17.2095C32.7063 15.7761 32.1094 14.0245 32.1094 12.2234C32.1094 10.4222 32.7063 8.67078 33.8087 7.23733C34.941 5.83348 36.6607 5.1318 38.9675 5.13232C41.2744 5.13284 42.994 5.83451 44.1264 7.23733C45.2287 8.67078 45.8257 10.4222 45.8257 12.2234C45.8257 14.0245 45.2287 15.7761 44.1264 17.2095ZM41.3195 15.2916C41.8597 14.3554 42.1438 13.296 42.1438 12.218C42.1438 11.14 41.8597 10.0806 41.3195 9.14438C41.027 8.80662 40.6639 8.53542 40.2555 8.3495C39.847 8.16358 39.4027 8.06734 38.9531 8.06734C38.5035 8.06734 38.0591 8.16358 37.6507 8.3495C37.2422 8.53542 36.8792 8.80662 36.5867 9.14438C36.0423 10.0792 35.7558 11.1391 35.7558 12.218C35.7558 13.2969 36.0423 14.3568 36.5867 15.2916C36.8784 15.6307 37.2411 15.903 37.6497 16.0897C38.0583 16.2765 38.503 16.3732 38.9531 16.3732C39.4031 16.3732 39.8479 16.2765 40.2564 16.0897C40.6651 15.903 41.0278 15.6307 41.3195 15.2916Z" fill="#1F1F1F"/>
<path d="M113.655 5.82875C114.601 6.25158 115.405 6.93277 115.973 7.79224C116.536 8.61469 116.902 9.55341 117.042 10.5368C117.15 11.411 117.188 12.2922 117.157 13.1723H107.386C107.357 13.719 107.471 14.264 107.716 14.7545C107.962 15.2452 108.332 15.6648 108.788 15.9733C109.372 16.3192 110.043 16.4925 110.723 16.4729C111.271 16.5155 111.82 16.3927 112.296 16.1208C112.773 15.8488 113.155 15.4404 113.392 14.9494H116.973C116.812 15.866 116.356 16.7067 115.672 17.3468C115.02 18.0078 114.232 18.5225 113.361 18.856C112.491 19.1896 111.558 19.3342 110.625 19.2801C108.905 19.3024 107.232 18.7244 105.9 17.6476C104.534 16.5582 103.852 14.7868 103.852 12.3332C103.852 10.0333 104.468 8.27013 105.7 7.04366C106.33 6.42853 107.081 5.94781 107.906 5.63123C108.732 5.31466 109.614 5.16894 110.498 5.20312C111.584 5.18772 112.66 5.40098 113.655 5.82875ZM108.406 8.82693C107.88 9.39517 107.551 10.1152 107.468 10.8817H113.512C113.508 10.4873 113.423 10.0977 113.262 9.73709C113.1 9.37637 112.866 9.05221 112.573 8.78445C111.993 8.29997 111.252 8.04509 110.493 8.06909C110.112 8.04685 109.729 8.10253 109.37 8.23285C109.011 8.36309 108.683 8.56581 108.406 8.82693Z" fill="#1F1F1F"/>
<path d="M50.1518 19.286H46.6445V1.24878H50.1518V19.286Z" fill="#1F1F1F"/>
<path d="M54.8022 4.42872H51.2441V1.24878H54.8022V4.42872ZM51.2457 6.01174H54.8037V19.286H51.2457V6.01174Z" fill="#1F1F1F"/>
<path d="M76.3768 15.7171C76.1563 15.9539 75.8831 16.1367 75.5787 16.2508C75.2744 16.3649 74.9474 16.4072 74.6236 16.3744C74.098 16.4013 73.5786 16.2524 73.1488 15.9519C72.7191 15.6512 72.404 15.2163 72.2544 14.7171C71.9988 13.9622 71.8818 13.1681 71.9089 12.3724C71.8811 11.5411 71.9979 10.7114 72.2544 9.91939C72.4031 9.40123 72.7237 8.94771 73.1647 8.63187C73.6058 8.31611 74.1414 8.15643 74.6853 8.17859C75.0352 8.15195 75.3863 8.21147 75.7072 8.35187C76.0282 8.49219 76.309 8.70899 76.5246 8.98291C76.7971 9.38395 76.9706 9.84275 77.0311 10.3223H80.6267C80.4291 8.43019 79.7942 7.11064 78.7218 6.3636C77.4959 5.57315 76.0511 5.18138 74.5892 5.24304C73.719 5.19849 72.8497 5.34585 72.0442 5.67447C71.2386 6.00308 70.5169 6.50472 69.9314 7.14312C69.4441 7.69796 69.0627 8.33571 68.8058 9.02539V1.24878H65.2477V7.25293C64.8696 6.64194 64.3405 6.13628 63.7103 5.7836C63.0473 5.42221 62.3003 5.23903 61.5435 5.25232C60.7335 5.22475 59.9284 5.38689 59.1939 5.72556C58.4593 6.06422 57.8159 6.5698 57.3163 7.20112C56.1834 8.75011 55.6246 10.6382 55.7343 12.5471C55.6611 14.296 56.2319 16.0118 57.3406 17.3759C57.8114 17.9674 58.4128 18.4444 59.0987 18.7704C59.7847 19.0964 60.5371 19.2627 61.2981 19.2566C62.1274 19.2847 62.9499 19.1003 63.686 18.7215C64.3919 18.299 64.98 17.7089 65.397 17.0047V19.2791H68.8066V15.7124C69.0415 16.3155 69.3671 16.88 69.7727 17.3867C70.7909 18.6534 72.3803 19.2867 74.5407 19.2867C75.484 19.3431 76.4265 19.1639 77.2814 18.7655C78.1363 18.3671 78.8763 17.7623 79.4331 17.007C80.0954 16.1355 80.4967 15.0974 80.5915 14.0111H77.0092C76.9648 14.6273 76.7456 15.2186 76.3768 15.7171ZM64.5739 15.2399C64.3219 15.5986 63.9812 15.8875 63.5845 16.0793C63.1878 16.2711 62.748 16.3594 62.3071 16.3357C61.8714 16.3617 61.4365 16.2735 61.0463 16.0798C60.6561 15.8862 60.3244 15.594 60.085 15.233C59.5559 14.3451 59.3011 13.3236 59.3517 12.2943C59.3159 11.2943 59.5654 10.3046 60.0716 9.43835C60.307 9.06179 60.6415 8.75571 61.0394 8.55299C61.4372 8.35027 61.8833 8.25859 62.3299 8.28763C62.9789 8.27891 63.609 8.50403 64.1026 8.92099C64.9316 9.61907 65.3459 10.7791 65.3454 12.401C65.3926 13.4036 65.1229 14.3959 64.5739 15.2399Z" fill="#1F1F1F"/>
<path fill-rule="evenodd" clip-rule="evenodd" d="M13.7988 0.353027H20.521V3.69769H17.1795V20.2084H20.521V23.553H13.7988V0.353027Z" fill="#1F1F1F"/>
<path fill-rule="evenodd" clip-rule="evenodd" d="M122.597 0.353027H115.875V3.69769H119.22V20.2084H115.875V23.553H122.597V0.353027Z" fill="#1F1F1F"/>
</g>
</svg>
